%FSLAX45Y45*%
G04 Gerber Fmt 4.5, Leading zero omitted, Abs format (unit mm)*
G04 Created by KiCad (PCBNEW 5.1.6) date 2020-09-22 22:13:52*
%MOMM*%
%LPD*%
G01*
G04 APERTURE LIST*
%TA.AperFunction,Profile*%
%ADD10C,0.100000*%
%TD*%
%TA.AperFunction,Profile*%
%ADD11C,0.050000*%
%TD*%
%ADD12C,0.200000*%
%ADD13C,0.300000*%
G04 APERTURE END LIST*
D10*
X7048500Y-2438400D02*
X9664700Y-3289300D01*
X4343400Y-3314700D02*
X7048500Y-2438400D01*
X2628900Y-5676900D02*
X4343400Y-3314700D01*
X2628900Y-8369300D02*
X2628900Y-5676900D01*
X4330700Y-10731500D02*
X2628900Y-8369300D01*
X6946900Y-11569700D02*
X4330700Y-10731500D01*
X9664700Y-10680700D02*
X6946900Y-11569700D01*
X11366500Y-8331200D02*
X9664700Y-10680700D01*
X11366500Y-5651500D02*
X11366500Y-8331200D01*
X9664700Y-3289300D02*
X11366500Y-5651500D01*
D11*
X8150000Y-7900000D02*
X8150000Y-6360000D01*
X9600000Y-7900000D02*
X8150000Y-7900000D01*
X9600000Y-6360000D02*
X9600000Y-7900000D01*
X8150000Y-6360000D02*
X9600000Y-6360000D01*
X5650000Y-5500000D02*
G75*
G03*
X5650000Y-5500000I-150000J0D01*
G01*
X5650000Y-8500000D02*
G75*
G03*
X5650000Y-8500000I-150000J0D01*
G01*
X8650000Y-8500000D02*
G75*
G03*
X8650000Y-8500000I-150000J0D01*
G01*
X8650000Y-5500000D02*
G75*
G03*
X8650000Y-5500000I-150000J0D01*
G01*
X7750000Y-7000000D02*
G75*
G03*
X7750000Y-7000000I-750000J0D01*
G01*
D12*
D13*
X2910328Y-12040414D02*
X2910328Y-11740414D01*
X2981757Y-11740414D01*
X3024614Y-11754700D01*
X3053186Y-11783271D01*
X3067471Y-11811843D01*
X3081757Y-11868986D01*
X3081757Y-11911843D01*
X3067471Y-11968986D01*
X3053186Y-11997557D01*
X3024614Y-12026129D01*
X2981757Y-12040414D01*
X2910328Y-12040414D01*
X3210328Y-12040414D02*
X3210328Y-11840414D01*
X3210328Y-11897557D02*
X3224614Y-11868986D01*
X3238900Y-11854700D01*
X3267471Y-11840414D01*
X3296043Y-11840414D01*
X3396043Y-12040414D02*
X3396043Y-11840414D01*
X3396043Y-11740414D02*
X3381757Y-11754700D01*
X3396043Y-11768986D01*
X3410328Y-11754700D01*
X3396043Y-11740414D01*
X3396043Y-11768986D01*
X3581757Y-12040414D02*
X3553186Y-12026129D01*
X3538900Y-11997557D01*
X3538900Y-11740414D01*
X3738900Y-12040414D02*
X3710328Y-12026129D01*
X3696043Y-11997557D01*
X3696043Y-11740414D01*
X4081757Y-12040414D02*
X4081757Y-11740414D01*
X4181757Y-11954700D01*
X4281757Y-11740414D01*
X4281757Y-12040414D01*
X4553186Y-12040414D02*
X4553186Y-11883271D01*
X4538900Y-11854700D01*
X4510328Y-11840414D01*
X4453186Y-11840414D01*
X4424614Y-11854700D01*
X4553186Y-12026129D02*
X4524614Y-12040414D01*
X4453186Y-12040414D01*
X4424614Y-12026129D01*
X4410328Y-11997557D01*
X4410328Y-11968986D01*
X4424614Y-11940414D01*
X4453186Y-11926129D01*
X4524614Y-11926129D01*
X4553186Y-11911843D01*
X4696043Y-11840414D02*
X4696043Y-12140414D01*
X4696043Y-11854700D02*
X4724614Y-11840414D01*
X4781757Y-11840414D01*
X4810328Y-11854700D01*
X4824614Y-11868986D01*
X4838900Y-11897557D01*
X4838900Y-11983271D01*
X4824614Y-12011843D01*
X4810328Y-12026129D01*
X4781757Y-12040414D01*
X4724614Y-12040414D01*
X4696043Y-12026129D01*
X4967471Y-12011843D02*
X4981757Y-12026129D01*
X4967471Y-12040414D01*
X4953186Y-12026129D01*
X4967471Y-12011843D01*
X4967471Y-12040414D01*
X4967471Y-11854700D02*
X4981757Y-11868986D01*
X4967471Y-11883271D01*
X4953186Y-11868986D01*
X4967471Y-11854700D01*
X4967471Y-11883271D01*
M02*
