M48
; DRILL file {KiCad 5.1.6} date Mon Sep 21 17:30:10 2020
; FORMAT={-:-/ absolute / metric / decimal}
; #@! TF.CreationDate,2020-09-21T17:30:10+02:00
; #@! TF.GenerationSoftware,Kicad,Pcbnew,5.1.6
; #@! TF.FileFunction,Plated,1,2,PTH
FMAT,2
METRIC
T1C0.400
T2C1.000
T3C1.190
T4C1.500
%
G90
G05
T1
X47.625Y-102.87
X51.435Y-91.44
X59.325Y-64.802
X59.69Y-40.005
X59.69Y-68.58
X59.69Y-71.755
X62.865Y-48.26
X62.865Y-58.42
X65.176Y-30.505
X66.04Y-52.07
X66.675Y-37.465
X66.675Y-48.26
X66.675Y-57.15
X67.945Y-49.53
X69.85Y-48.26
X70.764Y-109.601
X71.755Y-53.34
X74.295Y-52.07
X74.295Y-102.235
X76.835Y-95.25
X78.105Y-64.135
X79.375Y-60.96
X81.28Y-39.37
X83.82Y-41.91
X90.805Y-47.625
X90.805Y-51.435
X91.44Y-36.195
T2
X30.0Y-64.84
X30.0Y-67.38
X30.0Y-69.92
X30.0Y-72.46
X30.0Y-75.0
X32.46Y-64.84
X32.46Y-67.38
X32.46Y-69.92
X32.46Y-72.46
X32.46Y-75.0
X97.038Y-95.774
X98.531Y-93.719
X99.028Y-97.22
X100.024Y-91.664
X100.521Y-95.165
X101.517Y-89.609
X102.014Y-93.11
X103.01Y-87.554
X103.507Y-91.055
X105.0Y-89.0
X52.837Y-106.36
X53.597Y-104.021
X55.253Y-107.145
X56.013Y-104.806
X57.669Y-107.93
X58.429Y-105.591
X60.084Y-108.715
X60.844Y-106.375
X62.5Y-109.5
X63.26Y-107.16
X97.01Y-43.946
X98.503Y-46.001
X99.0Y-42.5
X99.996Y-48.056
X100.493Y-44.555
X101.489Y-50.111
X101.986Y-46.61
X102.982Y-52.166
X103.479Y-48.665
X104.972Y-50.72
X107.54Y-65.0
X107.54Y-67.54
X107.54Y-70.08
X107.54Y-72.62
X107.54Y-75.16
X110.0Y-65.0
X110.0Y-67.54
X110.0Y-70.08
X110.0Y-72.62
X110.0Y-75.16
X76.74Y-32.84
X77.5Y-30.5
X79.156Y-33.625
X79.916Y-31.285
X81.571Y-34.409
X82.331Y-32.07
X83.987Y-35.194
X84.747Y-32.855
X86.403Y-35.979
X87.163Y-33.64
X35.028Y-89.28
X36.521Y-91.335
X37.018Y-87.834
X38.014Y-93.39
X38.511Y-89.889
X39.507Y-95.445
X40.004Y-91.944
X41.0Y-97.5
X41.497Y-93.999
X42.99Y-96.054
X53.0Y-34.0
X53.76Y-36.34
X55.416Y-33.215
X56.176Y-35.555
X57.831Y-32.43
X58.592Y-34.77
X60.247Y-31.645
X61.007Y-33.985
X62.663Y-30.86
X63.423Y-33.2
X35.0Y-51.0
X36.493Y-48.945
X36.99Y-52.446
X37.986Y-46.89
X38.483Y-50.391
X39.479Y-44.835
X39.976Y-48.336
X40.972Y-42.78
X41.469Y-46.281
X42.962Y-44.226
X76.577Y-106.8
X77.337Y-109.14
X78.993Y-106.015
X79.753Y-108.355
X81.408Y-105.23
X82.169Y-107.57
X83.824Y-104.445
X84.584Y-106.785
X86.24Y-103.66
X87.0Y-106.0
T3
X48.895Y-64.77
X48.895Y-67.31
X48.895Y-69.85
X48.895Y-72.39
X48.895Y-74.93
T4
X99.06Y-72.39
X96.52Y-54.61
X54.61Y-62.23
X43.815Y-80.01
X91.44Y-54.61
X91.44Y-83.82
X39.37Y-80.01
T0
M30
