G04 #@! TF.GenerationSoftware,KiCad,Pcbnew,5.1.6*
G04 #@! TF.CreationDate,2020-09-30T10:53:22+02:00*
G04 #@! TF.ProjectId,enigma-ToF,656e6967-6d61-42d5-946f-462e6b696361,rev?*
G04 #@! TF.SameCoordinates,Original*
G04 #@! TF.FileFunction,Other,Comment*
%FSLAX46Y46*%
G04 Gerber Fmt 4.6, Leading zero omitted, Abs format (unit mm)*
G04 Created by KiCad (PCBNEW 5.1.6) date 2020-09-30 10:53:22*
%MOMM*%
%LPD*%
G01*
G04 APERTURE LIST*
%ADD10C,0.300000*%
G04 APERTURE END LIST*
D10*
X142051436Y-43082441D02*
X143194293Y-43082441D01*
X142622864Y-45082441D02*
X142622864Y-43082441D01*
X143860960Y-45082441D02*
X143860960Y-43082441D01*
X144718102Y-45082441D02*
X144718102Y-44034822D01*
X144622864Y-43844346D01*
X144432388Y-43749108D01*
X144146674Y-43749108D01*
X143956198Y-43844346D01*
X143860960Y-43939584D01*
X146432388Y-44987203D02*
X146241912Y-45082441D01*
X145860960Y-45082441D01*
X145670483Y-44987203D01*
X145575245Y-44796727D01*
X145575245Y-44034822D01*
X145670483Y-43844346D01*
X145860960Y-43749108D01*
X146241912Y-43749108D01*
X146432388Y-43844346D01*
X146527626Y-44034822D01*
X146527626Y-44225299D01*
X145575245Y-44415775D01*
X148908579Y-45082441D02*
X148908579Y-43082441D01*
X149670483Y-43082441D01*
X149860960Y-43177680D01*
X149956198Y-43272918D01*
X150051436Y-43463394D01*
X150051436Y-43749108D01*
X149956198Y-43939584D01*
X149860960Y-44034822D01*
X149670483Y-44130060D01*
X148908579Y-44130060D01*
X152051436Y-44891965D02*
X151956198Y-44987203D01*
X151670483Y-45082441D01*
X151480007Y-45082441D01*
X151194293Y-44987203D01*
X151003817Y-44796727D01*
X150908579Y-44606251D01*
X150813340Y-44225299D01*
X150813340Y-43939584D01*
X150908579Y-43558632D01*
X151003817Y-43368156D01*
X151194293Y-43177680D01*
X151480007Y-43082441D01*
X151670483Y-43082441D01*
X151956198Y-43177680D01*
X152051436Y-43272918D01*
X153575245Y-44034822D02*
X153860960Y-44130060D01*
X153956198Y-44225299D01*
X154051436Y-44415775D01*
X154051436Y-44701489D01*
X153956198Y-44891965D01*
X153860960Y-44987203D01*
X153670483Y-45082441D01*
X152908579Y-45082441D01*
X152908579Y-43082441D01*
X153575245Y-43082441D01*
X153765721Y-43177680D01*
X153860960Y-43272918D01*
X153956198Y-43463394D01*
X153956198Y-43653870D01*
X153860960Y-43844346D01*
X153765721Y-43939584D01*
X153575245Y-44034822D01*
X152908579Y-44034822D01*
X156432388Y-45082441D02*
X156432388Y-43749108D01*
X156432388Y-43082441D02*
X156337150Y-43177680D01*
X156432388Y-43272918D01*
X156527626Y-43177680D01*
X156432388Y-43082441D01*
X156432388Y-43272918D01*
X157289531Y-44987203D02*
X157480007Y-45082441D01*
X157860960Y-45082441D01*
X158051436Y-44987203D01*
X158146674Y-44796727D01*
X158146674Y-44701489D01*
X158051436Y-44511013D01*
X157860960Y-44415775D01*
X157575245Y-44415775D01*
X157384769Y-44320537D01*
X157289531Y-44130060D01*
X157289531Y-44034822D01*
X157384769Y-43844346D01*
X157575245Y-43749108D01*
X157860960Y-43749108D01*
X158051436Y-43844346D01*
X161384769Y-45082441D02*
X161384769Y-44034822D01*
X161289531Y-43844346D01*
X161099055Y-43749108D01*
X160718102Y-43749108D01*
X160527626Y-43844346D01*
X161384769Y-44987203D02*
X161194293Y-45082441D01*
X160718102Y-45082441D01*
X160527626Y-44987203D01*
X160432388Y-44796727D01*
X160432388Y-44606251D01*
X160527626Y-44415775D01*
X160718102Y-44320537D01*
X161194293Y-44320537D01*
X161384769Y-44225299D01*
X164718102Y-44987203D02*
X164527626Y-45082441D01*
X164146674Y-45082441D01*
X163956198Y-44987203D01*
X163860960Y-44891965D01*
X163765721Y-44701489D01*
X163765721Y-44130060D01*
X163860960Y-43939584D01*
X163956198Y-43844346D01*
X164146674Y-43749108D01*
X164527626Y-43749108D01*
X164718102Y-43844346D01*
X165575245Y-45082441D02*
X165575245Y-43749108D01*
X165575245Y-43082441D02*
X165480007Y-43177680D01*
X165575245Y-43272918D01*
X165670483Y-43177680D01*
X165575245Y-43082441D01*
X165575245Y-43272918D01*
X166527626Y-45082441D02*
X166527626Y-43749108D01*
X166527626Y-44130060D02*
X166622864Y-43939584D01*
X166718102Y-43844346D01*
X166908579Y-43749108D01*
X167099055Y-43749108D01*
X168622864Y-44987203D02*
X168432388Y-45082441D01*
X168051436Y-45082441D01*
X167860960Y-44987203D01*
X167765721Y-44891965D01*
X167670483Y-44701489D01*
X167670483Y-44130060D01*
X167765721Y-43939584D01*
X167860960Y-43844346D01*
X168051436Y-43749108D01*
X168432388Y-43749108D01*
X168622864Y-43844346D01*
X169765721Y-45082441D02*
X169575245Y-44987203D01*
X169480007Y-44796727D01*
X169480007Y-43082441D01*
X171289531Y-44987203D02*
X171099055Y-45082441D01*
X170718102Y-45082441D01*
X170527626Y-44987203D01*
X170432388Y-44796727D01*
X170432388Y-44034822D01*
X170527626Y-43844346D01*
X170718102Y-43749108D01*
X171099055Y-43749108D01*
X171289531Y-43844346D01*
X171384769Y-44034822D01*
X171384769Y-44225299D01*
X170432388Y-44415775D01*
X174051436Y-45082441D02*
X173860960Y-44987203D01*
X173765721Y-44891965D01*
X173670483Y-44701489D01*
X173670483Y-44130060D01*
X173765721Y-43939584D01*
X173860960Y-43844346D01*
X174051436Y-43749108D01*
X174337150Y-43749108D01*
X174527626Y-43844346D01*
X174622864Y-43939584D01*
X174718102Y-44130060D01*
X174718102Y-44701489D01*
X174622864Y-44891965D01*
X174527626Y-44987203D01*
X174337150Y-45082441D01*
X174051436Y-45082441D01*
X175289531Y-43749108D02*
X176051436Y-43749108D01*
X175575245Y-45082441D02*
X175575245Y-43368156D01*
X175670483Y-43177680D01*
X175860960Y-43082441D01*
X176051436Y-43082441D01*
X178337150Y-45082441D02*
X178718102Y-45082441D01*
X178908579Y-44987203D01*
X179003817Y-44891965D01*
X179194293Y-44606251D01*
X179289531Y-44225299D01*
X179289531Y-43463394D01*
X179194293Y-43272918D01*
X179099055Y-43177680D01*
X178908579Y-43082441D01*
X178527626Y-43082441D01*
X178337150Y-43177680D01*
X178241912Y-43272918D01*
X178146674Y-43463394D01*
X178146674Y-43939584D01*
X178241912Y-44130060D01*
X178337150Y-44225299D01*
X178527626Y-44320537D01*
X178908579Y-44320537D01*
X179099055Y-44225299D01*
X179194293Y-44130060D01*
X179289531Y-43939584D01*
X180527626Y-43082441D02*
X180718102Y-43082441D01*
X180908579Y-43177680D01*
X181003817Y-43272918D01*
X181099055Y-43463394D01*
X181194293Y-43844346D01*
X181194293Y-44320537D01*
X181099055Y-44701489D01*
X181003817Y-44891965D01*
X180908579Y-44987203D01*
X180718102Y-45082441D01*
X180527626Y-45082441D01*
X180337150Y-44987203D01*
X180241912Y-44891965D01*
X180146674Y-44701489D01*
X180051436Y-44320537D01*
X180051436Y-43844346D01*
X180146674Y-43463394D01*
X180241912Y-43272918D01*
X180337150Y-43177680D01*
X180527626Y-43082441D01*
X182051436Y-45082441D02*
X182051436Y-43749108D01*
X182051436Y-43939584D02*
X182146674Y-43844346D01*
X182337150Y-43749108D01*
X182622864Y-43749108D01*
X182813340Y-43844346D01*
X182908579Y-44034822D01*
X182908579Y-45082441D01*
X182908579Y-44034822D02*
X183003817Y-43844346D01*
X183194293Y-43749108D01*
X183480007Y-43749108D01*
X183670483Y-43844346D01*
X183765721Y-44034822D01*
X183765721Y-45082441D01*
X184718102Y-45082441D02*
X184718102Y-43749108D01*
X184718102Y-43939584D02*
X184813340Y-43844346D01*
X185003817Y-43749108D01*
X185289531Y-43749108D01*
X185480007Y-43844346D01*
X185575245Y-44034822D01*
X185575245Y-45082441D01*
X185575245Y-44034822D02*
X185670483Y-43844346D01*
X185860960Y-43749108D01*
X186146674Y-43749108D01*
X186337150Y-43844346D01*
X186432388Y-44034822D01*
X186432388Y-45082441D01*
X188908579Y-45082441D02*
X188908579Y-43749108D01*
X188908579Y-43082441D02*
X188813340Y-43177680D01*
X188908579Y-43272918D01*
X189003817Y-43177680D01*
X188908579Y-43082441D01*
X188908579Y-43272918D01*
X189860960Y-43749108D02*
X189860960Y-45082441D01*
X189860960Y-43939584D02*
X189956198Y-43844346D01*
X190146674Y-43749108D01*
X190432388Y-43749108D01*
X190622864Y-43844346D01*
X190718102Y-44034822D01*
X190718102Y-45082441D01*
X194051436Y-45082441D02*
X194051436Y-43082441D01*
X194051436Y-44987203D02*
X193860959Y-45082441D01*
X193480007Y-45082441D01*
X193289531Y-44987203D01*
X193194293Y-44891965D01*
X193099055Y-44701489D01*
X193099055Y-44130060D01*
X193194293Y-43939584D01*
X193289531Y-43844346D01*
X193480007Y-43749108D01*
X193860959Y-43749108D01*
X194051436Y-43844346D01*
X195003817Y-45082441D02*
X195003817Y-43749108D01*
X195003817Y-43082441D02*
X194908579Y-43177680D01*
X195003817Y-43272918D01*
X195099055Y-43177680D01*
X195003817Y-43082441D01*
X195003817Y-43272918D01*
X196813340Y-45082441D02*
X196813340Y-44034822D01*
X196718102Y-43844346D01*
X196527626Y-43749108D01*
X196146674Y-43749108D01*
X195956198Y-43844346D01*
X196813340Y-44987203D02*
X196622864Y-45082441D01*
X196146674Y-45082441D01*
X195956198Y-44987203D01*
X195860959Y-44796727D01*
X195860959Y-44606251D01*
X195956198Y-44415775D01*
X196146674Y-44320537D01*
X196622864Y-44320537D01*
X196813340Y-44225299D01*
X197765721Y-45082441D02*
X197765721Y-43749108D01*
X197765721Y-43939584D02*
X197860959Y-43844346D01*
X198051436Y-43749108D01*
X198337150Y-43749108D01*
X198527626Y-43844346D01*
X198622864Y-44034822D01*
X198622864Y-45082441D01*
X198622864Y-44034822D02*
X198718102Y-43844346D01*
X198908579Y-43749108D01*
X199194293Y-43749108D01*
X199384769Y-43844346D01*
X199480007Y-44034822D01*
X199480007Y-45082441D01*
X201194293Y-44987203D02*
X201003817Y-45082441D01*
X200622864Y-45082441D01*
X200432388Y-44987203D01*
X200337150Y-44796727D01*
X200337150Y-44034822D01*
X200432388Y-43844346D01*
X200622864Y-43749108D01*
X201003817Y-43749108D01*
X201194293Y-43844346D01*
X201289531Y-44034822D01*
X201289531Y-44225299D01*
X200337150Y-44415775D01*
X201860959Y-43749108D02*
X202622864Y-43749108D01*
X202146674Y-43082441D02*
X202146674Y-44796727D01*
X202241912Y-44987203D01*
X202432388Y-45082441D01*
X202622864Y-45082441D01*
X204051436Y-44987203D02*
X203860959Y-45082441D01*
X203480007Y-45082441D01*
X203289531Y-44987203D01*
X203194293Y-44796727D01*
X203194293Y-44034822D01*
X203289531Y-43844346D01*
X203480007Y-43749108D01*
X203860959Y-43749108D01*
X204051436Y-43844346D01*
X204146674Y-44034822D01*
X204146674Y-44225299D01*
X203194293Y-44415775D01*
X205003817Y-45082441D02*
X205003817Y-43749108D01*
X205003817Y-44130060D02*
X205099055Y-43939584D01*
X205194293Y-43844346D01*
X205384769Y-43749108D01*
X205575245Y-43749108D01*
X142337150Y-48382441D02*
X142337150Y-46382441D01*
X143003817Y-47049108D02*
X143765721Y-47049108D01*
X143289531Y-46382441D02*
X143289531Y-48096727D01*
X143384769Y-48287203D01*
X143575245Y-48382441D01*
X143765721Y-48382441D01*
X145956198Y-48382441D02*
X145956198Y-46382441D01*
X146813340Y-48382441D02*
X146813340Y-47334822D01*
X146718102Y-47144346D01*
X146527626Y-47049108D01*
X146241912Y-47049108D01*
X146051436Y-47144346D01*
X145956198Y-47239584D01*
X148622864Y-48382441D02*
X148622864Y-47334822D01*
X148527626Y-47144346D01*
X148337150Y-47049108D01*
X147956198Y-47049108D01*
X147765721Y-47144346D01*
X148622864Y-48287203D02*
X148432388Y-48382441D01*
X147956198Y-48382441D01*
X147765721Y-48287203D01*
X147670483Y-48096727D01*
X147670483Y-47906251D01*
X147765721Y-47715775D01*
X147956198Y-47620537D01*
X148432388Y-47620537D01*
X148622864Y-47525299D01*
X149480007Y-48287203D02*
X149670483Y-48382441D01*
X150051436Y-48382441D01*
X150241912Y-48287203D01*
X150337150Y-48096727D01*
X150337150Y-48001489D01*
X150241912Y-47811013D01*
X150051436Y-47715775D01*
X149765721Y-47715775D01*
X149575245Y-47620537D01*
X149480007Y-47430060D01*
X149480007Y-47334822D01*
X149575245Y-47144346D01*
X149765721Y-47049108D01*
X150051436Y-47049108D01*
X150241912Y-47144346D01*
X153575245Y-48382441D02*
X153575245Y-47334822D01*
X153480007Y-47144346D01*
X153289531Y-47049108D01*
X152908579Y-47049108D01*
X152718102Y-47144346D01*
X153575245Y-48287203D02*
X153384769Y-48382441D01*
X152908579Y-48382441D01*
X152718102Y-48287203D01*
X152622864Y-48096727D01*
X152622864Y-47906251D01*
X152718102Y-47715775D01*
X152908579Y-47620537D01*
X153384769Y-47620537D01*
X153575245Y-47525299D01*
X157099055Y-48382441D02*
X155956198Y-48382441D01*
X156527626Y-48382441D02*
X156527626Y-46382441D01*
X156337150Y-46668156D01*
X156146674Y-46858632D01*
X155956198Y-46953870D01*
X158908579Y-46382441D02*
X157956198Y-46382441D01*
X157860960Y-47334822D01*
X157956198Y-47239584D01*
X158146674Y-47144346D01*
X158622864Y-47144346D01*
X158813340Y-47239584D01*
X158908579Y-47334822D01*
X159003817Y-47525299D01*
X159003817Y-48001489D01*
X158908579Y-48191965D01*
X158813340Y-48287203D01*
X158622864Y-48382441D01*
X158146674Y-48382441D01*
X157956198Y-48287203D01*
X157860960Y-48191965D01*
X159860960Y-48382441D02*
X159860960Y-47049108D01*
X159860960Y-47239584D02*
X159956198Y-47144346D01*
X160146674Y-47049108D01*
X160432388Y-47049108D01*
X160622864Y-47144346D01*
X160718102Y-47334822D01*
X160718102Y-48382441D01*
X160718102Y-47334822D02*
X160813340Y-47144346D01*
X161003817Y-47049108D01*
X161289531Y-47049108D01*
X161480007Y-47144346D01*
X161575245Y-47334822D01*
X161575245Y-48382441D01*
X162527626Y-48382441D02*
X162527626Y-47049108D01*
X162527626Y-47239584D02*
X162622864Y-47144346D01*
X162813340Y-47049108D01*
X163099055Y-47049108D01*
X163289531Y-47144346D01*
X163384769Y-47334822D01*
X163384769Y-48382441D01*
X163384769Y-47334822D02*
X163480007Y-47144346D01*
X163670483Y-47049108D01*
X163956198Y-47049108D01*
X164146674Y-47144346D01*
X164241912Y-47334822D01*
X164241912Y-48382441D01*
X167575245Y-48382441D02*
X167575245Y-46382441D01*
X167575245Y-48287203D02*
X167384769Y-48382441D01*
X167003817Y-48382441D01*
X166813340Y-48287203D01*
X166718102Y-48191965D01*
X166622864Y-48001489D01*
X166622864Y-47430060D01*
X166718102Y-47239584D01*
X166813340Y-47144346D01*
X167003817Y-47049108D01*
X167384769Y-47049108D01*
X167575245Y-47144346D01*
X168527626Y-48382441D02*
X168527626Y-47049108D01*
X168527626Y-46382441D02*
X168432388Y-46477680D01*
X168527626Y-46572918D01*
X168622864Y-46477680D01*
X168527626Y-46382441D01*
X168527626Y-46572918D01*
X170337150Y-48382441D02*
X170337150Y-47334822D01*
X170241912Y-47144346D01*
X170051436Y-47049108D01*
X169670483Y-47049108D01*
X169480007Y-47144346D01*
X170337150Y-48287203D02*
X170146674Y-48382441D01*
X169670483Y-48382441D01*
X169480007Y-48287203D01*
X169384769Y-48096727D01*
X169384769Y-47906251D01*
X169480007Y-47715775D01*
X169670483Y-47620537D01*
X170146674Y-47620537D01*
X170337150Y-47525299D01*
X171289531Y-48382441D02*
X171289531Y-47049108D01*
X171289531Y-47239584D02*
X171384769Y-47144346D01*
X171575245Y-47049108D01*
X171860960Y-47049108D01*
X172051436Y-47144346D01*
X172146674Y-47334822D01*
X172146674Y-48382441D01*
X172146674Y-47334822D02*
X172241912Y-47144346D01*
X172432388Y-47049108D01*
X172718102Y-47049108D01*
X172908579Y-47144346D01*
X173003817Y-47334822D01*
X173003817Y-48382441D01*
X174718102Y-48287203D02*
X174527626Y-48382441D01*
X174146674Y-48382441D01*
X173956198Y-48287203D01*
X173860960Y-48096727D01*
X173860960Y-47334822D01*
X173956198Y-47144346D01*
X174146674Y-47049108D01*
X174527626Y-47049108D01*
X174718102Y-47144346D01*
X174813340Y-47334822D01*
X174813340Y-47525299D01*
X173860960Y-47715775D01*
X175384769Y-47049108D02*
X176146674Y-47049108D01*
X175670483Y-46382441D02*
X175670483Y-48096727D01*
X175765721Y-48287203D01*
X175956198Y-48382441D01*
X176146674Y-48382441D01*
X177575245Y-48287203D02*
X177384769Y-48382441D01*
X177003817Y-48382441D01*
X176813340Y-48287203D01*
X176718102Y-48096727D01*
X176718102Y-47334822D01*
X176813340Y-47144346D01*
X177003817Y-47049108D01*
X177384769Y-47049108D01*
X177575245Y-47144346D01*
X177670483Y-47334822D01*
X177670483Y-47525299D01*
X176718102Y-47715775D01*
X178527626Y-48382441D02*
X178527626Y-47049108D01*
X178527626Y-47430060D02*
X178622864Y-47239584D01*
X178718102Y-47144346D01*
X178908579Y-47049108D01*
X179099055Y-47049108D01*
X181289531Y-48382441D02*
X181289531Y-46382441D01*
X182146674Y-48382441D02*
X182146674Y-47334822D01*
X182051436Y-47144346D01*
X181860960Y-47049108D01*
X181575245Y-47049108D01*
X181384769Y-47144346D01*
X181289531Y-47239584D01*
X183384769Y-48382441D02*
X183194293Y-48287203D01*
X183099055Y-48191965D01*
X183003817Y-48001489D01*
X183003817Y-47430060D01*
X183099055Y-47239584D01*
X183194293Y-47144346D01*
X183384769Y-47049108D01*
X183670483Y-47049108D01*
X183860960Y-47144346D01*
X183956198Y-47239584D01*
X184051436Y-47430060D01*
X184051436Y-48001489D01*
X183956198Y-48191965D01*
X183860960Y-48287203D01*
X183670483Y-48382441D01*
X183384769Y-48382441D01*
X185194293Y-48382441D02*
X185003817Y-48287203D01*
X184908579Y-48096727D01*
X184908579Y-46382441D01*
X186718102Y-48287203D02*
X186527626Y-48382441D01*
X186146674Y-48382441D01*
X185956198Y-48287203D01*
X185860960Y-48096727D01*
X185860960Y-47334822D01*
X185956198Y-47144346D01*
X186146674Y-47049108D01*
X186527626Y-47049108D01*
X186718102Y-47144346D01*
X186813340Y-47334822D01*
X186813340Y-47525299D01*
X185860960Y-47715775D01*
X189194293Y-48382441D02*
X189194293Y-47049108D01*
X189194293Y-46382441D02*
X189099055Y-46477680D01*
X189194293Y-46572918D01*
X189289531Y-46477680D01*
X189194293Y-46382441D01*
X189194293Y-46572918D01*
X190146674Y-47049108D02*
X190146674Y-48382441D01*
X190146674Y-47239584D02*
X190241912Y-47144346D01*
X190432388Y-47049108D01*
X190718102Y-47049108D01*
X190908579Y-47144346D01*
X191003817Y-47334822D01*
X191003817Y-48382441D01*
X193480007Y-48382441D02*
X193480007Y-47049108D01*
X193480007Y-46382441D02*
X193384769Y-46477680D01*
X193480007Y-46572918D01*
X193575245Y-46477680D01*
X193480007Y-46382441D01*
X193480007Y-46572918D01*
X194146674Y-47049108D02*
X194908579Y-47049108D01*
X194432388Y-46382441D02*
X194432388Y-48096727D01*
X194527626Y-48287203D01*
X194718102Y-48382441D01*
X194908579Y-48382441D01*
X195480007Y-48287203D02*
X195670483Y-48382441D01*
X196051436Y-48382441D01*
X196241912Y-48287203D01*
X196337150Y-48096727D01*
X196337150Y-48001489D01*
X196241912Y-47811013D01*
X196051436Y-47715775D01*
X195765721Y-47715775D01*
X195575245Y-47620537D01*
X195480007Y-47430060D01*
X195480007Y-47334822D01*
X195575245Y-47144346D01*
X195765721Y-47049108D01*
X196051436Y-47049108D01*
X196241912Y-47144346D01*
X199575245Y-48287203D02*
X199384769Y-48382441D01*
X199003817Y-48382441D01*
X198813340Y-48287203D01*
X198718102Y-48191965D01*
X198622864Y-48001489D01*
X198622864Y-47430060D01*
X198718102Y-47239584D01*
X198813340Y-47144346D01*
X199003817Y-47049108D01*
X199384769Y-47049108D01*
X199575245Y-47144346D01*
X201194293Y-48287203D02*
X201003817Y-48382441D01*
X200622864Y-48382441D01*
X200432388Y-48287203D01*
X200337150Y-48096727D01*
X200337150Y-47334822D01*
X200432388Y-47144346D01*
X200622864Y-47049108D01*
X201003817Y-47049108D01*
X201194293Y-47144346D01*
X201289531Y-47334822D01*
X201289531Y-47525299D01*
X200337150Y-47715775D01*
X202146674Y-47049108D02*
X202146674Y-48382441D01*
X202146674Y-47239584D02*
X202241912Y-47144346D01*
X202432388Y-47049108D01*
X202718102Y-47049108D01*
X202908579Y-47144346D01*
X203003817Y-47334822D01*
X203003817Y-48382441D01*
X203670483Y-47049108D02*
X204432388Y-47049108D01*
X203956198Y-46382441D02*
X203956198Y-48096727D01*
X204051436Y-48287203D01*
X204241912Y-48382441D01*
X204432388Y-48382441D01*
X205860960Y-48287203D02*
X205670483Y-48382441D01*
X205289531Y-48382441D01*
X205099055Y-48287203D01*
X205003817Y-48096727D01*
X205003817Y-47334822D01*
X205099055Y-47144346D01*
X205289531Y-47049108D01*
X205670483Y-47049108D01*
X205860960Y-47144346D01*
X205956198Y-47334822D01*
X205956198Y-47525299D01*
X205003817Y-47715775D01*
X206813340Y-48382441D02*
X206813340Y-47049108D01*
X206813340Y-47430060D02*
X206908579Y-47239584D01*
X207003817Y-47144346D01*
X207194293Y-47049108D01*
X207384769Y-47049108D01*
X210432388Y-48382441D02*
X210432388Y-47334822D01*
X210337150Y-47144346D01*
X210146674Y-47049108D01*
X209765721Y-47049108D01*
X209575245Y-47144346D01*
X210432388Y-48287203D02*
X210241912Y-48382441D01*
X209765721Y-48382441D01*
X209575245Y-48287203D01*
X209480007Y-48096727D01*
X209480007Y-47906251D01*
X209575245Y-47715775D01*
X209765721Y-47620537D01*
X210241912Y-47620537D01*
X210432388Y-47525299D01*
X211384769Y-47049108D02*
X211384769Y-48382441D01*
X211384769Y-47239584D02*
X211480007Y-47144346D01*
X211670483Y-47049108D01*
X211956198Y-47049108D01*
X212146674Y-47144346D01*
X212241912Y-47334822D01*
X212241912Y-48382441D01*
X214051436Y-48382441D02*
X214051436Y-46382441D01*
X214051436Y-48287203D02*
X213860960Y-48382441D01*
X213480007Y-48382441D01*
X213289531Y-48287203D01*
X213194293Y-48191965D01*
X213099055Y-48001489D01*
X213099055Y-47430060D01*
X213194293Y-47239584D01*
X213289531Y-47144346D01*
X213480007Y-47049108D01*
X213860960Y-47049108D01*
X214051436Y-47144346D01*
X217384769Y-48382441D02*
X217384769Y-47334822D01*
X217289531Y-47144346D01*
X217099055Y-47049108D01*
X216718102Y-47049108D01*
X216527626Y-47144346D01*
X217384769Y-48287203D02*
X217194293Y-48382441D01*
X216718102Y-48382441D01*
X216527626Y-48287203D01*
X216432388Y-48096727D01*
X216432388Y-47906251D01*
X216527626Y-47715775D01*
X216718102Y-47620537D01*
X217194293Y-47620537D01*
X217384769Y-47525299D01*
X218337150Y-47049108D02*
X218337150Y-48382441D01*
X218337150Y-47239584D02*
X218432388Y-47144346D01*
X218622864Y-47049108D01*
X218908579Y-47049108D01*
X219099055Y-47144346D01*
X219194293Y-47334822D01*
X219194293Y-48382441D01*
X220432388Y-48382441D02*
X220241912Y-48287203D01*
X220146674Y-48191965D01*
X220051436Y-48001489D01*
X220051436Y-47430060D01*
X220146674Y-47239584D01*
X220241912Y-47144346D01*
X220432388Y-47049108D01*
X220718102Y-47049108D01*
X220908579Y-47144346D01*
X221003817Y-47239584D01*
X221099055Y-47430060D01*
X221099055Y-48001489D01*
X221003817Y-48191965D01*
X220908579Y-48287203D01*
X220718102Y-48382441D01*
X220432388Y-48382441D01*
X221670483Y-47049108D02*
X222432388Y-47049108D01*
X221956198Y-46382441D02*
X221956198Y-48096727D01*
X222051436Y-48287203D01*
X222241912Y-48382441D01*
X222432388Y-48382441D01*
X223099055Y-48382441D02*
X223099055Y-46382441D01*
X223956198Y-48382441D02*
X223956198Y-47334822D01*
X223860960Y-47144346D01*
X223670483Y-47049108D01*
X223384769Y-47049108D01*
X223194293Y-47144346D01*
X223099055Y-47239584D01*
X225670483Y-48287203D02*
X225480007Y-48382441D01*
X225099055Y-48382441D01*
X224908579Y-48287203D01*
X224813340Y-48096727D01*
X224813340Y-47334822D01*
X224908579Y-47144346D01*
X225099055Y-47049108D01*
X225480007Y-47049108D01*
X225670483Y-47144346D01*
X225765721Y-47334822D01*
X225765721Y-47525299D01*
X224813340Y-47715775D01*
X226622864Y-48382441D02*
X226622864Y-47049108D01*
X226622864Y-47430060D02*
X226718102Y-47239584D01*
X226813340Y-47144346D01*
X227003817Y-47049108D01*
X227194293Y-47049108D01*
X229289531Y-48287203D02*
X229480007Y-48382441D01*
X229860960Y-48382441D01*
X230051436Y-48287203D01*
X230146674Y-48096727D01*
X230146674Y-48001489D01*
X230051436Y-47811013D01*
X229860960Y-47715775D01*
X229575245Y-47715775D01*
X229384769Y-47620537D01*
X229289531Y-47430060D01*
X229289531Y-47334822D01*
X229384769Y-47144346D01*
X229575245Y-47049108D01*
X229860960Y-47049108D01*
X230051436Y-47144346D01*
X231860959Y-47049108D02*
X231860959Y-49049108D01*
X231860959Y-48287203D02*
X231670483Y-48382441D01*
X231289531Y-48382441D01*
X231099055Y-48287203D01*
X231003817Y-48191965D01*
X230908579Y-48001489D01*
X230908579Y-47430060D01*
X231003817Y-47239584D01*
X231099055Y-47144346D01*
X231289531Y-47049108D01*
X231670483Y-47049108D01*
X231860959Y-47144346D01*
X233670483Y-47049108D02*
X233670483Y-48382441D01*
X232813340Y-47049108D02*
X232813340Y-48096727D01*
X232908579Y-48287203D01*
X233099055Y-48382441D01*
X233384769Y-48382441D01*
X233575245Y-48287203D01*
X233670483Y-48191965D01*
X235480007Y-48382441D02*
X235480007Y-47334822D01*
X235384769Y-47144346D01*
X235194293Y-47049108D01*
X234813340Y-47049108D01*
X234622864Y-47144346D01*
X235480007Y-48287203D02*
X235289531Y-48382441D01*
X234813340Y-48382441D01*
X234622864Y-48287203D01*
X234527626Y-48096727D01*
X234527626Y-47906251D01*
X234622864Y-47715775D01*
X234813340Y-47620537D01*
X235289531Y-47620537D01*
X235480007Y-47525299D01*
X236432388Y-48382441D02*
X236432388Y-47049108D01*
X236432388Y-47430060D02*
X236527626Y-47239584D01*
X236622864Y-47144346D01*
X236813340Y-47049108D01*
X237003817Y-47049108D01*
X237670483Y-48382441D02*
X237670483Y-47049108D01*
X237670483Y-46382441D02*
X237575245Y-46477680D01*
X237670483Y-46572918D01*
X237765721Y-46477680D01*
X237670483Y-46382441D01*
X237670483Y-46572918D01*
X238527626Y-48287203D02*
X238718102Y-48382441D01*
X239099055Y-48382441D01*
X239289531Y-48287203D01*
X239384769Y-48096727D01*
X239384769Y-48001489D01*
X239289531Y-47811013D01*
X239099055Y-47715775D01*
X238813340Y-47715775D01*
X238622864Y-47620537D01*
X238527626Y-47430060D01*
X238527626Y-47334822D01*
X238622864Y-47144346D01*
X238813340Y-47049108D01*
X239099055Y-47049108D01*
X239289531Y-47144346D01*
X240241912Y-48382441D02*
X240241912Y-46382441D01*
X241099055Y-48382441D02*
X241099055Y-47334822D01*
X241003817Y-47144346D01*
X240813340Y-47049108D01*
X240527626Y-47049108D01*
X240337150Y-47144346D01*
X240241912Y-47239584D01*
X243575245Y-48382441D02*
X243575245Y-46382441D01*
X244432388Y-48382441D02*
X244432388Y-47334822D01*
X244337150Y-47144346D01*
X244146674Y-47049108D01*
X243860959Y-47049108D01*
X243670483Y-47144346D01*
X243575245Y-47239584D01*
X245670483Y-48382441D02*
X245480007Y-48287203D01*
X245384769Y-48191965D01*
X245289531Y-48001489D01*
X245289531Y-47430060D01*
X245384769Y-47239584D01*
X245480007Y-47144346D01*
X245670483Y-47049108D01*
X245956198Y-47049108D01*
X246146674Y-47144346D01*
X246241912Y-47239584D01*
X246337150Y-47430060D01*
X246337150Y-48001489D01*
X246241912Y-48191965D01*
X246146674Y-48287203D01*
X245956198Y-48382441D01*
X245670483Y-48382441D01*
X247480007Y-48382441D02*
X247289531Y-48287203D01*
X247194293Y-48096727D01*
X247194293Y-46382441D01*
X249003817Y-48287203D02*
X248813340Y-48382441D01*
X248432388Y-48382441D01*
X248241912Y-48287203D01*
X248146674Y-48096727D01*
X248146674Y-47334822D01*
X248241912Y-47144346D01*
X248432388Y-47049108D01*
X248813340Y-47049108D01*
X249003817Y-47144346D01*
X249099055Y-47334822D01*
X249099055Y-47525299D01*
X248146674Y-47715775D01*
X249956198Y-48191965D02*
X250051436Y-48287203D01*
X249956198Y-48382441D01*
X249860959Y-48287203D01*
X249956198Y-48191965D01*
X249956198Y-48382441D01*
X142337150Y-51682441D02*
X142337150Y-49682441D01*
X143003817Y-50349108D02*
X143765721Y-50349108D01*
X143289531Y-49682441D02*
X143289531Y-51396727D01*
X143384769Y-51587203D01*
X143575245Y-51682441D01*
X143765721Y-51682441D01*
X145956198Y-51682441D02*
X145956198Y-49682441D01*
X146813340Y-51682441D02*
X146813340Y-50634822D01*
X146718102Y-50444346D01*
X146527626Y-50349108D01*
X146241912Y-50349108D01*
X146051436Y-50444346D01*
X145956198Y-50539584D01*
X148622864Y-51682441D02*
X148622864Y-50634822D01*
X148527626Y-50444346D01*
X148337150Y-50349108D01*
X147956198Y-50349108D01*
X147765721Y-50444346D01*
X148622864Y-51587203D02*
X148432388Y-51682441D01*
X147956198Y-51682441D01*
X147765721Y-51587203D01*
X147670483Y-51396727D01*
X147670483Y-51206251D01*
X147765721Y-51015775D01*
X147956198Y-50920537D01*
X148432388Y-50920537D01*
X148622864Y-50825299D01*
X149480007Y-51587203D02*
X149670483Y-51682441D01*
X150051436Y-51682441D01*
X150241912Y-51587203D01*
X150337150Y-51396727D01*
X150337150Y-51301489D01*
X150241912Y-51111013D01*
X150051436Y-51015775D01*
X149765721Y-51015775D01*
X149575245Y-50920537D01*
X149480007Y-50730060D01*
X149480007Y-50634822D01*
X149575245Y-50444346D01*
X149765721Y-50349108D01*
X150051436Y-50349108D01*
X150241912Y-50444346D01*
X153575245Y-50349108D02*
X153575245Y-51682441D01*
X153099055Y-49587203D02*
X152622864Y-51015775D01*
X153860960Y-51015775D01*
X156146674Y-51682441D02*
X156146674Y-50349108D01*
X156146674Y-50539584D02*
X156241912Y-50444346D01*
X156432388Y-50349108D01*
X156718102Y-50349108D01*
X156908579Y-50444346D01*
X157003817Y-50634822D01*
X157003817Y-51682441D01*
X157003817Y-50634822D02*
X157099055Y-50444346D01*
X157289531Y-50349108D01*
X157575245Y-50349108D01*
X157765721Y-50444346D01*
X157860960Y-50634822D01*
X157860960Y-51682441D01*
X159099055Y-51682441D02*
X158908579Y-51587203D01*
X158813340Y-51491965D01*
X158718102Y-51301489D01*
X158718102Y-50730060D01*
X158813340Y-50539584D01*
X158908579Y-50444346D01*
X159099055Y-50349108D01*
X159384769Y-50349108D01*
X159575245Y-50444346D01*
X159670483Y-50539584D01*
X159765721Y-50730060D01*
X159765721Y-51301489D01*
X159670483Y-51491965D01*
X159575245Y-51587203D01*
X159384769Y-51682441D01*
X159099055Y-51682441D01*
X161480007Y-50349108D02*
X161480007Y-51682441D01*
X160622864Y-50349108D02*
X160622864Y-51396727D01*
X160718102Y-51587203D01*
X160908579Y-51682441D01*
X161194293Y-51682441D01*
X161384769Y-51587203D01*
X161480007Y-51491965D01*
X162432388Y-50349108D02*
X162432388Y-51682441D01*
X162432388Y-50539584D02*
X162527626Y-50444346D01*
X162718102Y-50349108D01*
X163003817Y-50349108D01*
X163194293Y-50444346D01*
X163289531Y-50634822D01*
X163289531Y-51682441D01*
X163956198Y-50349108D02*
X164718102Y-50349108D01*
X164241912Y-49682441D02*
X164241912Y-51396727D01*
X164337150Y-51587203D01*
X164527626Y-51682441D01*
X164718102Y-51682441D01*
X165384769Y-51682441D02*
X165384769Y-50349108D01*
X165384769Y-49682441D02*
X165289531Y-49777680D01*
X165384769Y-49872918D01*
X165480007Y-49777680D01*
X165384769Y-49682441D01*
X165384769Y-49872918D01*
X166337150Y-50349108D02*
X166337150Y-51682441D01*
X166337150Y-50539584D02*
X166432388Y-50444346D01*
X166622864Y-50349108D01*
X166908579Y-50349108D01*
X167099055Y-50444346D01*
X167194293Y-50634822D01*
X167194293Y-51682441D01*
X169003817Y-50349108D02*
X169003817Y-51968156D01*
X168908579Y-52158632D01*
X168813340Y-52253870D01*
X168622864Y-52349108D01*
X168337150Y-52349108D01*
X168146674Y-52253870D01*
X169003817Y-51587203D02*
X168813340Y-51682441D01*
X168432388Y-51682441D01*
X168241912Y-51587203D01*
X168146674Y-51491965D01*
X168051436Y-51301489D01*
X168051436Y-50730060D01*
X168146674Y-50539584D01*
X168241912Y-50444346D01*
X168432388Y-50349108D01*
X168813340Y-50349108D01*
X169003817Y-50444346D01*
X171480007Y-50349108D02*
X171480007Y-52349108D01*
X171480007Y-50444346D02*
X171670483Y-50349108D01*
X172051436Y-50349108D01*
X172241912Y-50444346D01*
X172337150Y-50539584D01*
X172432388Y-50730060D01*
X172432388Y-51301489D01*
X172337150Y-51491965D01*
X172241912Y-51587203D01*
X172051436Y-51682441D01*
X171670483Y-51682441D01*
X171480007Y-51587203D01*
X173575245Y-51682441D02*
X173384769Y-51587203D01*
X173289531Y-51491965D01*
X173194293Y-51301489D01*
X173194293Y-50730060D01*
X173289531Y-50539584D01*
X173384769Y-50444346D01*
X173575245Y-50349108D01*
X173860960Y-50349108D01*
X174051436Y-50444346D01*
X174146674Y-50539584D01*
X174241912Y-50730060D01*
X174241912Y-51301489D01*
X174146674Y-51491965D01*
X174051436Y-51587203D01*
X173860960Y-51682441D01*
X173575245Y-51682441D01*
X175099055Y-51682441D02*
X175099055Y-50349108D01*
X175099055Y-49682441D02*
X175003817Y-49777680D01*
X175099055Y-49872918D01*
X175194293Y-49777680D01*
X175099055Y-49682441D01*
X175099055Y-49872918D01*
X176051436Y-50349108D02*
X176051436Y-51682441D01*
X176051436Y-50539584D02*
X176146674Y-50444346D01*
X176337150Y-50349108D01*
X176622864Y-50349108D01*
X176813340Y-50444346D01*
X176908579Y-50634822D01*
X176908579Y-51682441D01*
X177575245Y-50349108D02*
X178337150Y-50349108D01*
X177860960Y-49682441D02*
X177860960Y-51396727D01*
X177956198Y-51587203D01*
X178146674Y-51682441D01*
X178337150Y-51682441D01*
X178908579Y-51587203D02*
X179099055Y-51682441D01*
X179480007Y-51682441D01*
X179670483Y-51587203D01*
X179765721Y-51396727D01*
X179765721Y-51301489D01*
X179670483Y-51111013D01*
X179480007Y-51015775D01*
X179194293Y-51015775D01*
X179003817Y-50920537D01*
X178908579Y-50730060D01*
X178908579Y-50634822D01*
X179003817Y-50444346D01*
X179194293Y-50349108D01*
X179480007Y-50349108D01*
X179670483Y-50444346D01*
X182432388Y-51682441D02*
X182241912Y-51587203D01*
X182146674Y-51491965D01*
X182051436Y-51301489D01*
X182051436Y-50730060D01*
X182146674Y-50539584D01*
X182241912Y-50444346D01*
X182432388Y-50349108D01*
X182718102Y-50349108D01*
X182908579Y-50444346D01*
X183003817Y-50539584D01*
X183099055Y-50730060D01*
X183099055Y-51301489D01*
X183003817Y-51491965D01*
X182908579Y-51587203D01*
X182718102Y-51682441D01*
X182432388Y-51682441D01*
X183670483Y-50349108D02*
X184432388Y-50349108D01*
X183956198Y-51682441D02*
X183956198Y-49968156D01*
X184051436Y-49777680D01*
X184241912Y-49682441D01*
X184432388Y-49682441D01*
X186432388Y-49682441D02*
X187670483Y-49682441D01*
X187003817Y-50444346D01*
X187289531Y-50444346D01*
X187480007Y-50539584D01*
X187575245Y-50634822D01*
X187670483Y-50825299D01*
X187670483Y-51301489D01*
X187575245Y-51491965D01*
X187480007Y-51587203D01*
X187289531Y-51682441D01*
X186718102Y-51682441D01*
X186527626Y-51587203D01*
X186432388Y-51491965D01*
X188527626Y-51682441D02*
X188527626Y-50349108D01*
X188527626Y-50539584D02*
X188622864Y-50444346D01*
X188813340Y-50349108D01*
X189099055Y-50349108D01*
X189289531Y-50444346D01*
X189384769Y-50634822D01*
X189384769Y-51682441D01*
X189384769Y-50634822D02*
X189480007Y-50444346D01*
X189670483Y-50349108D01*
X189956198Y-50349108D01*
X190146674Y-50444346D01*
X190241912Y-50634822D01*
X190241912Y-51682441D01*
X191194293Y-51682441D02*
X191194293Y-50349108D01*
X191194293Y-50539584D02*
X191289531Y-50444346D01*
X191480007Y-50349108D01*
X191765721Y-50349108D01*
X191956198Y-50444346D01*
X192051436Y-50634822D01*
X192051436Y-51682441D01*
X192051436Y-50634822D02*
X192146674Y-50444346D01*
X192337150Y-50349108D01*
X192622864Y-50349108D01*
X192813340Y-50444346D01*
X192908579Y-50634822D01*
X192908579Y-51682441D01*
X196241912Y-51682441D02*
X196241912Y-49682441D01*
X196241912Y-51587203D02*
X196051436Y-51682441D01*
X195670483Y-51682441D01*
X195480007Y-51587203D01*
X195384769Y-51491965D01*
X195289531Y-51301489D01*
X195289531Y-50730060D01*
X195384769Y-50539584D01*
X195480007Y-50444346D01*
X195670483Y-50349108D01*
X196051436Y-50349108D01*
X196241912Y-50444346D01*
X197194293Y-51682441D02*
X197194293Y-50349108D01*
X197194293Y-49682441D02*
X197099055Y-49777680D01*
X197194293Y-49872918D01*
X197289531Y-49777680D01*
X197194293Y-49682441D01*
X197194293Y-49872918D01*
X199003817Y-51682441D02*
X199003817Y-50634822D01*
X198908579Y-50444346D01*
X198718102Y-50349108D01*
X198337150Y-50349108D01*
X198146674Y-50444346D01*
X199003817Y-51587203D02*
X198813340Y-51682441D01*
X198337150Y-51682441D01*
X198146674Y-51587203D01*
X198051436Y-51396727D01*
X198051436Y-51206251D01*
X198146674Y-51015775D01*
X198337150Y-50920537D01*
X198813340Y-50920537D01*
X199003817Y-50825299D01*
X199956198Y-51682441D02*
X199956198Y-50349108D01*
X199956198Y-50539584D02*
X200051436Y-50444346D01*
X200241912Y-50349108D01*
X200527626Y-50349108D01*
X200718102Y-50444346D01*
X200813340Y-50634822D01*
X200813340Y-51682441D01*
X200813340Y-50634822D02*
X200908579Y-50444346D01*
X201099055Y-50349108D01*
X201384769Y-50349108D01*
X201575245Y-50444346D01*
X201670483Y-50634822D01*
X201670483Y-51682441D01*
X203384769Y-51587203D02*
X203194293Y-51682441D01*
X202813340Y-51682441D01*
X202622864Y-51587203D01*
X202527626Y-51396727D01*
X202527626Y-50634822D01*
X202622864Y-50444346D01*
X202813340Y-50349108D01*
X203194293Y-50349108D01*
X203384769Y-50444346D01*
X203480007Y-50634822D01*
X203480007Y-50825299D01*
X202527626Y-51015775D01*
X204051436Y-50349108D02*
X204813340Y-50349108D01*
X204337150Y-49682441D02*
X204337150Y-51396727D01*
X204432388Y-51587203D01*
X204622864Y-51682441D01*
X204813340Y-51682441D01*
X206241912Y-51587203D02*
X206051436Y-51682441D01*
X205670483Y-51682441D01*
X205480007Y-51587203D01*
X205384769Y-51396727D01*
X205384769Y-50634822D01*
X205480007Y-50444346D01*
X205670483Y-50349108D01*
X206051436Y-50349108D01*
X206241912Y-50444346D01*
X206337150Y-50634822D01*
X206337150Y-50825299D01*
X205384769Y-51015775D01*
X207194293Y-51682441D02*
X207194293Y-50349108D01*
X207194293Y-50730060D02*
X207289531Y-50539584D01*
X207384769Y-50444346D01*
X207575245Y-50349108D01*
X207765721Y-50349108D01*
X209670483Y-50349108D02*
X210432388Y-50349108D01*
X209956198Y-51682441D02*
X209956198Y-49968156D01*
X210051436Y-49777680D01*
X210241912Y-49682441D01*
X210432388Y-49682441D01*
X211384769Y-51682441D02*
X211194293Y-51587203D01*
X211099055Y-51491965D01*
X211003817Y-51301489D01*
X211003817Y-50730060D01*
X211099055Y-50539584D01*
X211194293Y-50444346D01*
X211384769Y-50349108D01*
X211670483Y-50349108D01*
X211860960Y-50444346D01*
X211956198Y-50539584D01*
X212051436Y-50730060D01*
X212051436Y-51301489D01*
X211956198Y-51491965D01*
X211860960Y-51587203D01*
X211670483Y-51682441D01*
X211384769Y-51682441D01*
X212908579Y-51682441D02*
X212908579Y-50349108D01*
X212908579Y-50730060D02*
X213003817Y-50539584D01*
X213099055Y-50444346D01*
X213289531Y-50349108D01*
X213480007Y-50349108D01*
X215670483Y-51682441D02*
X215670483Y-49682441D01*
X216337150Y-51111013D01*
X217003817Y-49682441D01*
X217003817Y-51682441D01*
X217765721Y-49682441D02*
X219003817Y-49682441D01*
X218337150Y-50444346D01*
X218622864Y-50444346D01*
X218813340Y-50539584D01*
X218908579Y-50634822D01*
X219003817Y-50825299D01*
X219003817Y-51301489D01*
X218908579Y-51491965D01*
X218813340Y-51587203D01*
X218622864Y-51682441D01*
X218051436Y-51682441D01*
X217860960Y-51587203D01*
X217765721Y-51491965D01*
X221289531Y-51587203D02*
X221480007Y-51682441D01*
X221860960Y-51682441D01*
X222051436Y-51587203D01*
X222146674Y-51396727D01*
X222146674Y-51301489D01*
X222051436Y-51111013D01*
X221860960Y-51015775D01*
X221575245Y-51015775D01*
X221384769Y-50920537D01*
X221289531Y-50730060D01*
X221289531Y-50634822D01*
X221384769Y-50444346D01*
X221575245Y-50349108D01*
X221860960Y-50349108D01*
X222051436Y-50444346D01*
X223860959Y-51587203D02*
X223670483Y-51682441D01*
X223289531Y-51682441D01*
X223099055Y-51587203D01*
X223003817Y-51491965D01*
X222908579Y-51301489D01*
X222908579Y-50730060D01*
X223003817Y-50539584D01*
X223099055Y-50444346D01*
X223289531Y-50349108D01*
X223670483Y-50349108D01*
X223860959Y-50444346D01*
X224718102Y-51682441D02*
X224718102Y-50349108D01*
X224718102Y-50730060D02*
X224813340Y-50539584D01*
X224908579Y-50444346D01*
X225099055Y-50349108D01*
X225289531Y-50349108D01*
X226718102Y-51587203D02*
X226527626Y-51682441D01*
X226146674Y-51682441D01*
X225956198Y-51587203D01*
X225860960Y-51396727D01*
X225860960Y-50634822D01*
X225956198Y-50444346D01*
X226146674Y-50349108D01*
X226527626Y-50349108D01*
X226718102Y-50444346D01*
X226813340Y-50634822D01*
X226813340Y-50825299D01*
X225860960Y-51015775D01*
X227480007Y-50349108D02*
X227860960Y-51682441D01*
X228241912Y-50730060D01*
X228622864Y-51682441D01*
X229003817Y-50349108D01*
X229670483Y-51587203D02*
X229860959Y-51682441D01*
X230241912Y-51682441D01*
X230432388Y-51587203D01*
X230527626Y-51396727D01*
X230527626Y-51301489D01*
X230432388Y-51111013D01*
X230241912Y-51015775D01*
X229956198Y-51015775D01*
X229765721Y-50920537D01*
X229670483Y-50730060D01*
X229670483Y-50634822D01*
X229765721Y-50444346D01*
X229956198Y-50349108D01*
X230241912Y-50349108D01*
X230432388Y-50444346D01*
X231384769Y-51491965D02*
X231480007Y-51587203D01*
X231384769Y-51682441D01*
X231289531Y-51587203D01*
X231384769Y-51491965D01*
X231384769Y-51682441D01*
M02*
