%FSLAX45Y45*%
G04 Gerber Fmt 4.5, Leading zero omitted, Abs format (unit mm)*
G04 Created by KiCad (PCBNEW 5.1.6) date 2020-09-21 17:30:08*
%MOMM*%
%LPD*%
G01*
G04 APERTURE LIST*
%TA.AperFunction,Profile*%
%ADD10C,0.100000*%
%TD*%
%TA.AperFunction,Profile*%
%ADD11C,0.050000*%
%TD*%
%ADD12C,0.200000*%
%ADD13C,0.300000*%
G04 APERTURE END LIST*
D10*
X7048500Y-2438400D02*
X9664700Y-3289300D01*
X4343400Y-3314700D02*
X7048500Y-2438400D01*
X2628900Y-5676900D02*
X4343400Y-3314700D01*
X2628900Y-8369300D02*
X2628900Y-5676900D01*
X4330700Y-10731500D02*
X2628900Y-8369300D01*
X6946900Y-11569700D02*
X4330700Y-10731500D01*
X9664700Y-10680700D02*
X6946900Y-11569700D01*
X11366500Y-8331200D02*
X9664700Y-10680700D01*
X11366500Y-5651500D02*
X11366500Y-8331200D01*
X9664700Y-3289300D02*
X11366500Y-5651500D01*
D11*
X8150000Y-7900000D02*
X8150000Y-6550000D01*
X9600000Y-7900000D02*
X8150000Y-7900000D01*
X9600000Y-6550000D02*
X9600000Y-7900000D01*
X8150000Y-6550000D02*
X9600000Y-6550000D01*
X5650000Y-5500000D02*
G75*
G03*
X5650000Y-5500000I-150000J0D01*
G01*
X5650000Y-8500000D02*
G75*
G03*
X5650000Y-8500000I-150000J0D01*
G01*
X8650000Y-8500000D02*
G75*
G03*
X8650000Y-8500000I-150000J0D01*
G01*
X8650000Y-5500000D02*
G75*
G03*
X8650000Y-5500000I-150000J0D01*
G01*
X7750000Y-7000000D02*
G75*
G03*
X7750000Y-7000000I-750000J0D01*
G01*
D12*
X4742500Y-10267000D02*
X4782500Y-10307000D01*
X4782500Y-10267000D02*
X4742500Y-10307000D01*
X5123500Y-9124000D02*
X5163500Y-9164000D01*
X5163500Y-9124000D02*
X5123500Y-9164000D01*
X5912549Y-6460174D02*
X5952549Y-6500174D01*
X5952549Y-6460174D02*
X5912549Y-6500174D01*
X5949000Y-3980500D02*
X5989000Y-4020500D01*
X5989000Y-3980500D02*
X5949000Y-4020500D01*
X5949000Y-6838001D02*
X5989000Y-6878001D01*
X5989000Y-6838001D02*
X5949000Y-6878001D01*
X5949000Y-7155500D02*
X5989000Y-7195500D01*
X5989000Y-7155500D02*
X5949000Y-7195500D01*
X6266500Y-4806000D02*
X6306500Y-4846000D01*
X6306500Y-4806000D02*
X6266500Y-4846000D01*
X6266500Y-5822000D02*
X6306500Y-5862000D01*
X6306500Y-5822000D02*
X6266500Y-5862000D01*
X6497640Y-3030540D02*
X6537640Y-3070540D01*
X6537640Y-3030540D02*
X6497640Y-3070540D01*
X6584000Y-5187000D02*
X6624000Y-5227000D01*
X6624000Y-5187000D02*
X6584000Y-5227000D01*
X6647500Y-3726500D02*
X6687500Y-3766500D01*
X6687500Y-3726500D02*
X6647500Y-3766500D01*
X6647500Y-4806000D02*
X6687500Y-4846000D01*
X6687500Y-4806000D02*
X6647500Y-4846000D01*
X6647500Y-5695000D02*
X6687500Y-5735000D01*
X6687500Y-5695000D02*
X6647500Y-5735000D01*
X6774500Y-4933000D02*
X6814500Y-4973000D01*
X6814500Y-4933000D02*
X6774500Y-4973000D01*
X6965000Y-4806000D02*
X7005000Y-4846000D01*
X7005000Y-4806000D02*
X6965000Y-4846000D01*
X7056440Y-10940100D02*
X7096440Y-10980100D01*
X7096440Y-10940100D02*
X7056440Y-10980100D01*
X7155500Y-5314000D02*
X7195500Y-5354000D01*
X7195500Y-5314000D02*
X7155500Y-5354000D01*
X7409500Y-5187000D02*
X7449500Y-5227000D01*
X7449500Y-5187000D02*
X7409500Y-5227000D01*
X7409500Y-10203500D02*
X7449500Y-10243500D01*
X7449500Y-10203500D02*
X7409500Y-10243500D01*
X7663500Y-9505000D02*
X7703500Y-9545000D01*
X7703500Y-9505000D02*
X7663500Y-9545000D01*
X7790500Y-6393500D02*
X7830500Y-6433500D01*
X7830500Y-6393500D02*
X7790500Y-6433500D01*
X7917500Y-6076000D02*
X7957500Y-6116000D01*
X7957500Y-6076000D02*
X7917500Y-6116000D01*
X8108000Y-3917000D02*
X8148000Y-3957000D01*
X8148000Y-3917000D02*
X8108000Y-3957000D01*
X8362000Y-4171000D02*
X8402000Y-4211000D01*
X8402000Y-4171000D02*
X8362000Y-4211000D01*
X9060500Y-4742500D02*
X9100500Y-4782500D01*
X9100500Y-4742500D02*
X9060500Y-4782500D01*
X9060500Y-5123500D02*
X9100500Y-5163500D01*
X9100500Y-5123500D02*
X9060500Y-5163500D01*
X9124000Y-3599500D02*
X9164000Y-3639500D01*
X9164000Y-3599500D02*
X9124000Y-3639500D01*
X3050000Y-6484000D02*
G75*
G03*
X3050000Y-6484000I-50000J0D01*
G01*
X3050000Y-6738000D02*
G75*
G03*
X3050000Y-6738000I-50000J0D01*
G01*
X3050000Y-6992000D02*
G75*
G03*
X3050000Y-6992000I-50000J0D01*
G01*
X3050000Y-7246000D02*
G75*
G03*
X3050000Y-7246000I-50000J0D01*
G01*
X3050000Y-7500000D02*
G75*
G03*
X3050000Y-7500000I-50000J0D01*
G01*
X3296000Y-6484000D02*
G75*
G03*
X3296000Y-6484000I-50000J0D01*
G01*
X3296000Y-6738000D02*
G75*
G03*
X3296000Y-6738000I-50000J0D01*
G01*
X3296000Y-6992000D02*
G75*
G03*
X3296000Y-6992000I-50000J0D01*
G01*
X3296000Y-7246000D02*
G75*
G03*
X3296000Y-7246000I-50000J0D01*
G01*
X3296000Y-7500000D02*
G75*
G03*
X3296000Y-7500000I-50000J0D01*
G01*
X9753792Y-9577366D02*
G75*
G03*
X9753792Y-9577366I-50000J0D01*
G01*
X9903090Y-9371876D02*
G75*
G03*
X9903090Y-9371876I-50000J0D01*
G01*
X9952810Y-9721961D02*
G75*
G03*
X9952810Y-9721961I-50000J0D01*
G01*
X10052387Y-9166386D02*
G75*
G03*
X10052387Y-9166386I-50000J0D01*
G01*
X10102108Y-9516471D02*
G75*
G03*
X10102108Y-9516471I-50000J0D01*
G01*
X10201684Y-8960895D02*
G75*
G03*
X10201684Y-8960895I-50000J0D01*
G01*
X10251405Y-9310981D02*
G75*
G03*
X10251405Y-9310981I-50000J0D01*
G01*
X10350982Y-8755405D02*
G75*
G03*
X10350982Y-8755405I-50000J0D01*
G01*
X10400703Y-9105490D02*
G75*
G03*
X10400703Y-9105490I-50000J0D01*
G01*
X10550000Y-8900000D02*
G75*
G03*
X10550000Y-8900000I-50000J0D01*
G01*
X5333727Y-10636039D02*
G75*
G03*
X5333727Y-10636039I-50000J0D01*
G01*
X5409745Y-10402079D02*
G75*
G03*
X5409745Y-10402079I-50000J0D01*
G01*
X5575295Y-10714529D02*
G75*
G03*
X5575295Y-10714529I-50000J0D01*
G01*
X5651313Y-10480569D02*
G75*
G03*
X5651313Y-10480569I-50000J0D01*
G01*
X5816863Y-10793019D02*
G75*
G03*
X5816863Y-10793019I-50000J0D01*
G01*
X5892881Y-10559060D02*
G75*
G03*
X5892881Y-10559060I-50000J0D01*
G01*
X6058432Y-10871510D02*
G75*
G03*
X6058432Y-10871510I-50000J0D01*
G01*
X6134450Y-10637550D02*
G75*
G03*
X6134450Y-10637550I-50000J0D01*
G01*
X6300000Y-10950000D02*
G75*
G03*
X6300000Y-10950000I-50000J0D01*
G01*
X6376018Y-10716040D02*
G75*
G03*
X6376018Y-10716040I-50000J0D01*
G01*
X9750982Y-4394595D02*
G75*
G03*
X9750982Y-4394595I-50000J0D01*
G01*
X9900279Y-4600086D02*
G75*
G03*
X9900279Y-4600086I-50000J0D01*
G01*
X9950000Y-4250000D02*
G75*
G03*
X9950000Y-4250000I-50000J0D01*
G01*
X10049577Y-4805576D02*
G75*
G03*
X10049577Y-4805576I-50000J0D01*
G01*
X10099298Y-4455490D02*
G75*
G03*
X10099298Y-4455490I-50000J0D01*
G01*
X10198874Y-5011066D02*
G75*
G03*
X10198874Y-5011066I-50000J0D01*
G01*
X10248595Y-4660981D02*
G75*
G03*
X10248595Y-4660981I-50000J0D01*
G01*
X10348172Y-5216556D02*
G75*
G03*
X10348172Y-5216556I-50000J0D01*
G01*
X10397892Y-4866471D02*
G75*
G03*
X10397892Y-4866471I-50000J0D01*
G01*
X10547190Y-5071961D02*
G75*
G03*
X10547190Y-5071961I-50000J0D01*
G01*
X10804000Y-6500000D02*
G75*
G03*
X10804000Y-6500000I-50000J0D01*
G01*
X10804000Y-6754000D02*
G75*
G03*
X10804000Y-6754000I-50000J0D01*
G01*
X10804000Y-7008000D02*
G75*
G03*
X10804000Y-7008000I-50000J0D01*
G01*
X10804000Y-7262000D02*
G75*
G03*
X10804000Y-7262000I-50000J0D01*
G01*
X10804000Y-7516000D02*
G75*
G03*
X10804000Y-7516000I-50000J0D01*
G01*
X11050000Y-6500000D02*
G75*
G03*
X11050000Y-6500000I-50000J0D01*
G01*
X11050000Y-6754000D02*
G75*
G03*
X11050000Y-6754000I-50000J0D01*
G01*
X11050000Y-7008000D02*
G75*
G03*
X11050000Y-7008000I-50000J0D01*
G01*
X11050000Y-7262000D02*
G75*
G03*
X11050000Y-7262000I-50000J0D01*
G01*
X11050000Y-7516000D02*
G75*
G03*
X11050000Y-7516000I-50000J0D01*
G01*
X7723982Y-3283960D02*
G75*
G03*
X7723982Y-3283960I-50000J0D01*
G01*
X7800000Y-3050000D02*
G75*
G03*
X7800000Y-3050000I-50000J0D01*
G01*
X7965550Y-3362450D02*
G75*
G03*
X7965550Y-3362450I-50000J0D01*
G01*
X8041568Y-3128490D02*
G75*
G03*
X8041568Y-3128490I-50000J0D01*
G01*
X8207118Y-3440940D02*
G75*
G03*
X8207118Y-3440940I-50000J0D01*
G01*
X8283137Y-3206981D02*
G75*
G03*
X8283137Y-3206981I-50000J0D01*
G01*
X8448687Y-3519431D02*
G75*
G03*
X8448687Y-3519431I-50000J0D01*
G01*
X8524705Y-3285471D02*
G75*
G03*
X8524705Y-3285471I-50000J0D01*
G01*
X8690255Y-3597921D02*
G75*
G03*
X8690255Y-3597921I-50000J0D01*
G01*
X8766273Y-3363961D02*
G75*
G03*
X8766273Y-3363961I-50000J0D01*
G01*
X3552810Y-8928039D02*
G75*
G03*
X3552810Y-8928039I-50000J0D01*
G01*
X3702108Y-9133529D02*
G75*
G03*
X3702108Y-9133529I-50000J0D01*
G01*
X3751828Y-8783444D02*
G75*
G03*
X3751828Y-8783444I-50000J0D01*
G01*
X3851405Y-9339019D02*
G75*
G03*
X3851405Y-9339019I-50000J0D01*
G01*
X3901126Y-8988934D02*
G75*
G03*
X3901126Y-8988934I-50000J0D01*
G01*
X4000702Y-9544510D02*
G75*
G03*
X4000702Y-9544510I-50000J0D01*
G01*
X4050423Y-9194424D02*
G75*
G03*
X4050423Y-9194424I-50000J0D01*
G01*
X4150000Y-9750000D02*
G75*
G03*
X4150000Y-9750000I-50000J0D01*
G01*
X4199721Y-9399915D02*
G75*
G03*
X4199721Y-9399915I-50000J0D01*
G01*
X4349018Y-9605405D02*
G75*
G03*
X4349018Y-9605405I-50000J0D01*
G01*
X5350000Y-3400000D02*
G75*
G03*
X5350000Y-3400000I-50000J0D01*
G01*
X5426018Y-3633960D02*
G75*
G03*
X5426018Y-3633960I-50000J0D01*
G01*
X5591568Y-3321510D02*
G75*
G03*
X5591568Y-3321510I-50000J0D01*
G01*
X5667586Y-3555470D02*
G75*
G03*
X5667586Y-3555470I-50000J0D01*
G01*
X5833137Y-3243019D02*
G75*
G03*
X5833137Y-3243019I-50000J0D01*
G01*
X5909155Y-3476979D02*
G75*
G03*
X5909155Y-3476979I-50000J0D01*
G01*
X6074705Y-3164529D02*
G75*
G03*
X6074705Y-3164529I-50000J0D01*
G01*
X6150723Y-3398489D02*
G75*
G03*
X6150723Y-3398489I-50000J0D01*
G01*
X6316273Y-3086039D02*
G75*
G03*
X6316273Y-3086039I-50000J0D01*
G01*
X6392292Y-3319999D02*
G75*
G03*
X6392292Y-3319999I-50000J0D01*
G01*
X3550000Y-5100000D02*
G75*
G03*
X3550000Y-5100000I-50000J0D01*
G01*
X3699297Y-4894510D02*
G75*
G03*
X3699297Y-4894510I-50000J0D01*
G01*
X3749018Y-5244595D02*
G75*
G03*
X3749018Y-5244595I-50000J0D01*
G01*
X3848595Y-4689019D02*
G75*
G03*
X3848595Y-4689019I-50000J0D01*
G01*
X3898316Y-5039105D02*
G75*
G03*
X3898316Y-5039105I-50000J0D01*
G01*
X3997892Y-4483529D02*
G75*
G03*
X3997892Y-4483529I-50000J0D01*
G01*
X4047613Y-4833615D02*
G75*
G03*
X4047613Y-4833615I-50000J0D01*
G01*
X4147190Y-4278039D02*
G75*
G03*
X4147190Y-4278039I-50000J0D01*
G01*
X4196911Y-4628124D02*
G75*
G03*
X4196911Y-4628124I-50000J0D01*
G01*
X4346208Y-4422634D02*
G75*
G03*
X4346208Y-4422634I-50000J0D01*
G01*
X7707708Y-10680001D02*
G75*
G03*
X7707708Y-10680001I-50000J0D01*
G01*
X7783727Y-10913961D02*
G75*
G03*
X7783727Y-10913961I-50000J0D01*
G01*
X7949277Y-10601511D02*
G75*
G03*
X7949277Y-10601511I-50000J0D01*
G01*
X8025295Y-10835471D02*
G75*
G03*
X8025295Y-10835471I-50000J0D01*
G01*
X8190845Y-10523021D02*
G75*
G03*
X8190845Y-10523021I-50000J0D01*
G01*
X8266863Y-10756981D02*
G75*
G03*
X8266863Y-10756981I-50000J0D01*
G01*
X8432414Y-10444530D02*
G75*
G03*
X8432414Y-10444530I-50000J0D01*
G01*
X8508432Y-10678490D02*
G75*
G03*
X8508432Y-10678490I-50000J0D01*
G01*
X8673982Y-10366040D02*
G75*
G03*
X8673982Y-10366040I-50000J0D01*
G01*
X8750000Y-10600000D02*
G75*
G03*
X8750000Y-10600000I-50000J0D01*
G01*
X4889500Y-6417500D02*
X4889500Y-6536500D01*
X4830000Y-6477000D02*
X4949000Y-6477000D01*
X4889500Y-6671500D02*
X4889500Y-6790500D01*
X4830000Y-6731000D02*
X4949000Y-6731000D01*
X4889500Y-6925500D02*
X4889500Y-7044500D01*
X4830000Y-6985000D02*
X4949000Y-6985000D01*
X4889500Y-7179500D02*
X4889500Y-7298500D01*
X4830000Y-7239000D02*
X4949000Y-7239000D01*
X4889500Y-7433500D02*
X4889500Y-7552500D01*
X4830000Y-7493000D02*
X4949000Y-7493000D01*
X9959034Y-7292033D02*
X9959034Y-7185966D01*
X9852967Y-7185966D01*
X9852967Y-7292033D01*
X9959034Y-7292033D01*
X9705034Y-5514034D02*
X9705034Y-5407967D01*
X9598967Y-5407967D01*
X9598967Y-5514034D01*
X9705034Y-5514034D01*
X5514034Y-6276033D02*
X5514034Y-6169966D01*
X5407967Y-6169966D01*
X5407967Y-6276033D01*
X5514034Y-6276033D01*
X4434534Y-8054033D02*
X4434534Y-7947966D01*
X4328467Y-7947966D01*
X4328467Y-8054033D01*
X4434534Y-8054033D01*
X9197034Y-5514034D02*
X9197034Y-5407967D01*
X9090967Y-5407967D01*
X9090967Y-5514034D01*
X9197034Y-5514034D01*
X9197034Y-8435034D02*
X9197034Y-8328966D01*
X9090967Y-8328966D01*
X9090967Y-8435034D01*
X9197034Y-8435034D01*
X3990033Y-8054033D02*
X3990033Y-7947966D01*
X3883966Y-7947966D01*
X3883966Y-8054033D01*
X3990033Y-8054033D01*
D13*
X2910328Y-12040414D02*
X2910328Y-11740414D01*
X2981757Y-11740414D01*
X3024614Y-11754700D01*
X3053186Y-11783271D01*
X3067471Y-11811843D01*
X3081757Y-11868986D01*
X3081757Y-11911843D01*
X3067471Y-11968986D01*
X3053186Y-11997557D01*
X3024614Y-12026129D01*
X2981757Y-12040414D01*
X2910328Y-12040414D01*
X3210328Y-12040414D02*
X3210328Y-11840414D01*
X3210328Y-11897557D02*
X3224614Y-11868986D01*
X3238900Y-11854700D01*
X3267471Y-11840414D01*
X3296043Y-11840414D01*
X3396043Y-12040414D02*
X3396043Y-11840414D01*
X3396043Y-11740414D02*
X3381757Y-11754700D01*
X3396043Y-11768986D01*
X3410328Y-11754700D01*
X3396043Y-11740414D01*
X3396043Y-11768986D01*
X3581757Y-12040414D02*
X3553186Y-12026129D01*
X3538900Y-11997557D01*
X3538900Y-11740414D01*
X3738900Y-12040414D02*
X3710328Y-12026129D01*
X3696043Y-11997557D01*
X3696043Y-11740414D01*
X4081757Y-12040414D02*
X4081757Y-11740414D01*
X4181757Y-11954700D01*
X4281757Y-11740414D01*
X4281757Y-12040414D01*
X4553186Y-12040414D02*
X4553186Y-11883271D01*
X4538900Y-11854700D01*
X4510328Y-11840414D01*
X4453186Y-11840414D01*
X4424614Y-11854700D01*
X4553186Y-12026129D02*
X4524614Y-12040414D01*
X4453186Y-12040414D01*
X4424614Y-12026129D01*
X4410328Y-11997557D01*
X4410328Y-11968986D01*
X4424614Y-11940414D01*
X4453186Y-11926129D01*
X4524614Y-11926129D01*
X4553186Y-11911843D01*
X4696043Y-11840414D02*
X4696043Y-12140414D01*
X4696043Y-11854700D02*
X4724614Y-11840414D01*
X4781757Y-11840414D01*
X4810328Y-11854700D01*
X4824614Y-11868986D01*
X4838900Y-11897557D01*
X4838900Y-11983271D01*
X4824614Y-12011843D01*
X4810328Y-12026129D01*
X4781757Y-12040414D01*
X4724614Y-12040414D01*
X4696043Y-12026129D01*
X4967471Y-12011843D02*
X4981757Y-12026129D01*
X4967471Y-12040414D01*
X4953186Y-12026129D01*
X4967471Y-12011843D01*
X4967471Y-12040414D01*
X4967471Y-11854700D02*
X4981757Y-11868986D01*
X4967471Y-11883271D01*
X4953186Y-11868986D01*
X4967471Y-11854700D01*
X4967471Y-11883271D01*
X2583900Y-12514700D02*
X2623900Y-12554700D01*
X2623900Y-12514700D02*
X2583900Y-12554700D01*
X2967471Y-12370414D02*
X2996043Y-12370414D01*
X3024614Y-12384700D01*
X3038900Y-12398986D01*
X3053186Y-12427557D01*
X3067471Y-12484700D01*
X3067471Y-12556129D01*
X3053186Y-12613271D01*
X3038900Y-12641843D01*
X3024614Y-12656129D01*
X2996043Y-12670414D01*
X2967471Y-12670414D01*
X2938900Y-12656129D01*
X2924614Y-12641843D01*
X2910328Y-12613271D01*
X2896043Y-12556129D01*
X2896043Y-12484700D01*
X2910328Y-12427557D01*
X2924614Y-12398986D01*
X2938900Y-12384700D01*
X2967471Y-12370414D01*
X3196043Y-12641843D02*
X3210328Y-12656129D01*
X3196043Y-12670414D01*
X3181757Y-12656129D01*
X3196043Y-12641843D01*
X3196043Y-12670414D01*
X3467471Y-12470414D02*
X3467471Y-12670414D01*
X3396043Y-12356129D02*
X3324614Y-12570414D01*
X3510328Y-12570414D01*
X3681757Y-12370414D02*
X3710328Y-12370414D01*
X3738900Y-12384700D01*
X3753186Y-12398986D01*
X3767471Y-12427557D01*
X3781757Y-12484700D01*
X3781757Y-12556129D01*
X3767471Y-12613271D01*
X3753186Y-12641843D01*
X3738900Y-12656129D01*
X3710328Y-12670414D01*
X3681757Y-12670414D01*
X3653186Y-12656129D01*
X3638900Y-12641843D01*
X3624614Y-12613271D01*
X3610328Y-12556129D01*
X3610328Y-12484700D01*
X3624614Y-12427557D01*
X3638900Y-12398986D01*
X3653186Y-12384700D01*
X3681757Y-12370414D01*
X3910328Y-12670414D02*
X3910328Y-12470414D01*
X3910328Y-12498986D02*
X3924614Y-12484700D01*
X3953186Y-12470414D01*
X3996043Y-12470414D01*
X4024614Y-12484700D01*
X4038900Y-12513271D01*
X4038900Y-12670414D01*
X4038900Y-12513271D02*
X4053186Y-12484700D01*
X4081757Y-12470414D01*
X4124614Y-12470414D01*
X4153186Y-12484700D01*
X4167471Y-12513271D01*
X4167471Y-12670414D01*
X4310328Y-12670414D02*
X4310328Y-12470414D01*
X4310328Y-12498986D02*
X4324614Y-12484700D01*
X4353186Y-12470414D01*
X4396043Y-12470414D01*
X4424614Y-12484700D01*
X4438900Y-12513271D01*
X4438900Y-12670414D01*
X4438900Y-12513271D02*
X4453186Y-12484700D01*
X4481757Y-12470414D01*
X4524614Y-12470414D01*
X4553186Y-12484700D01*
X4567471Y-12513271D01*
X4567471Y-12670414D01*
X5153186Y-12356129D02*
X4896043Y-12741843D01*
X5538900Y-12370414D02*
X5567471Y-12370414D01*
X5596043Y-12384700D01*
X5610328Y-12398986D01*
X5624614Y-12427557D01*
X5638900Y-12484700D01*
X5638900Y-12556129D01*
X5624614Y-12613271D01*
X5610328Y-12641843D01*
X5596043Y-12656129D01*
X5567471Y-12670414D01*
X5538900Y-12670414D01*
X5510328Y-12656129D01*
X5496043Y-12641843D01*
X5481757Y-12613271D01*
X5467471Y-12556129D01*
X5467471Y-12484700D01*
X5481757Y-12427557D01*
X5496043Y-12398986D01*
X5510328Y-12384700D01*
X5538900Y-12370414D01*
X5767471Y-12641843D02*
X5781757Y-12656129D01*
X5767471Y-12670414D01*
X5753186Y-12656129D01*
X5767471Y-12641843D01*
X5767471Y-12670414D01*
X5967471Y-12370414D02*
X5996043Y-12370414D01*
X6024614Y-12384700D01*
X6038900Y-12398986D01*
X6053186Y-12427557D01*
X6067471Y-12484700D01*
X6067471Y-12556129D01*
X6053186Y-12613271D01*
X6038900Y-12641843D01*
X6024614Y-12656129D01*
X5996043Y-12670414D01*
X5967471Y-12670414D01*
X5938900Y-12656129D01*
X5924614Y-12641843D01*
X5910328Y-12613271D01*
X5896043Y-12556129D01*
X5896043Y-12484700D01*
X5910328Y-12427557D01*
X5924614Y-12398986D01*
X5938900Y-12384700D01*
X5967471Y-12370414D01*
X6353186Y-12670414D02*
X6181757Y-12670414D01*
X6267471Y-12670414D02*
X6267471Y-12370414D01*
X6238900Y-12413271D01*
X6210328Y-12441843D01*
X6181757Y-12456129D01*
X6610328Y-12370414D02*
X6553186Y-12370414D01*
X6524614Y-12384700D01*
X6510328Y-12398986D01*
X6481757Y-12441843D01*
X6467471Y-12498986D01*
X6467471Y-12613271D01*
X6481757Y-12641843D01*
X6496043Y-12656129D01*
X6524614Y-12670414D01*
X6581757Y-12670414D01*
X6610328Y-12656129D01*
X6624614Y-12641843D01*
X6638900Y-12613271D01*
X6638900Y-12541843D01*
X6624614Y-12513271D01*
X6610328Y-12498986D01*
X6581757Y-12484700D01*
X6524614Y-12484700D01*
X6496043Y-12498986D01*
X6481757Y-12513271D01*
X6467471Y-12541843D01*
X6753186Y-12370414D02*
X6753186Y-12427557D01*
X6867471Y-12370414D02*
X6867471Y-12427557D01*
X7310328Y-12784700D02*
X7296043Y-12770414D01*
X7267471Y-12727557D01*
X7253186Y-12698986D01*
X7238900Y-12656129D01*
X7224614Y-12584700D01*
X7224614Y-12527557D01*
X7238900Y-12456129D01*
X7253186Y-12413271D01*
X7267471Y-12384700D01*
X7296043Y-12341843D01*
X7310328Y-12327557D01*
X7410328Y-12398986D02*
X7424614Y-12384700D01*
X7453186Y-12370414D01*
X7524614Y-12370414D01*
X7553186Y-12384700D01*
X7567471Y-12398986D01*
X7581757Y-12427557D01*
X7581757Y-12456129D01*
X7567471Y-12498986D01*
X7396043Y-12670414D01*
X7581757Y-12670414D01*
X7681757Y-12370414D02*
X7881757Y-12370414D01*
X7753186Y-12670414D01*
X8224614Y-12670414D02*
X8224614Y-12370414D01*
X8353186Y-12670414D02*
X8353186Y-12513271D01*
X8338900Y-12484700D01*
X8310328Y-12470414D01*
X8267471Y-12470414D01*
X8238900Y-12484700D01*
X8224614Y-12498986D01*
X8538900Y-12670414D02*
X8510328Y-12656129D01*
X8496043Y-12641843D01*
X8481757Y-12613271D01*
X8481757Y-12527557D01*
X8496043Y-12498986D01*
X8510328Y-12484700D01*
X8538900Y-12470414D01*
X8581757Y-12470414D01*
X8610328Y-12484700D01*
X8624614Y-12498986D01*
X8638900Y-12527557D01*
X8638900Y-12613271D01*
X8624614Y-12641843D01*
X8610328Y-12656129D01*
X8581757Y-12670414D01*
X8538900Y-12670414D01*
X8810328Y-12670414D02*
X8781757Y-12656129D01*
X8767471Y-12627557D01*
X8767471Y-12370414D01*
X9038900Y-12656129D02*
X9010328Y-12670414D01*
X8953186Y-12670414D01*
X8924614Y-12656129D01*
X8910328Y-12627557D01*
X8910328Y-12513271D01*
X8924614Y-12484700D01*
X8953186Y-12470414D01*
X9010328Y-12470414D01*
X9038900Y-12484700D01*
X9053186Y-12513271D01*
X9053186Y-12541843D01*
X8910328Y-12570414D01*
X9167471Y-12656129D02*
X9196043Y-12670414D01*
X9253186Y-12670414D01*
X9281757Y-12656129D01*
X9296043Y-12627557D01*
X9296043Y-12613271D01*
X9281757Y-12584700D01*
X9253186Y-12570414D01*
X9210328Y-12570414D01*
X9181757Y-12556129D01*
X9167471Y-12527557D01*
X9167471Y-12513271D01*
X9181757Y-12484700D01*
X9210328Y-12470414D01*
X9253186Y-12470414D01*
X9281757Y-12484700D01*
X9396043Y-12784700D02*
X9410328Y-12770414D01*
X9438900Y-12727557D01*
X9453186Y-12698986D01*
X9467471Y-12656129D01*
X9481757Y-12584700D01*
X9481757Y-12527557D01*
X9467471Y-12456129D01*
X9453186Y-12413271D01*
X9438900Y-12384700D01*
X9410328Y-12341843D01*
X9396043Y-12327557D01*
X2623900Y-12930700D02*
G75*
G03*
X2623900Y-12930700I-50000J0D01*
G01*
X3067471Y-13066414D02*
X2896043Y-13066414D01*
X2981757Y-13066414D02*
X2981757Y-12766414D01*
X2953186Y-12809271D01*
X2924614Y-12837843D01*
X2896043Y-12852129D01*
X3196043Y-13037843D02*
X3210328Y-13052129D01*
X3196043Y-13066414D01*
X3181757Y-13052129D01*
X3196043Y-13037843D01*
X3196043Y-13066414D01*
X3396043Y-12766414D02*
X3424614Y-12766414D01*
X3453186Y-12780700D01*
X3467471Y-12794986D01*
X3481757Y-12823557D01*
X3496043Y-12880700D01*
X3496043Y-12952129D01*
X3481757Y-13009271D01*
X3467471Y-13037843D01*
X3453186Y-13052129D01*
X3424614Y-13066414D01*
X3396043Y-13066414D01*
X3367471Y-13052129D01*
X3353186Y-13037843D01*
X3338900Y-13009271D01*
X3324614Y-12952129D01*
X3324614Y-12880700D01*
X3338900Y-12823557D01*
X3353186Y-12794986D01*
X3367471Y-12780700D01*
X3396043Y-12766414D01*
X3681757Y-12766414D02*
X3710328Y-12766414D01*
X3738900Y-12780700D01*
X3753186Y-12794986D01*
X3767471Y-12823557D01*
X3781757Y-12880700D01*
X3781757Y-12952129D01*
X3767471Y-13009271D01*
X3753186Y-13037843D01*
X3738900Y-13052129D01*
X3710328Y-13066414D01*
X3681757Y-13066414D01*
X3653186Y-13052129D01*
X3638900Y-13037843D01*
X3624614Y-13009271D01*
X3610328Y-12952129D01*
X3610328Y-12880700D01*
X3624614Y-12823557D01*
X3638900Y-12794986D01*
X3653186Y-12780700D01*
X3681757Y-12766414D01*
X3910328Y-13066414D02*
X3910328Y-12866414D01*
X3910328Y-12894986D02*
X3924614Y-12880700D01*
X3953186Y-12866414D01*
X3996043Y-12866414D01*
X4024614Y-12880700D01*
X4038900Y-12909271D01*
X4038900Y-13066414D01*
X4038900Y-12909271D02*
X4053186Y-12880700D01*
X4081757Y-12866414D01*
X4124614Y-12866414D01*
X4153186Y-12880700D01*
X4167471Y-12909271D01*
X4167471Y-13066414D01*
X4310328Y-13066414D02*
X4310328Y-12866414D01*
X4310328Y-12894986D02*
X4324614Y-12880700D01*
X4353186Y-12866414D01*
X4396043Y-12866414D01*
X4424614Y-12880700D01*
X4438900Y-12909271D01*
X4438900Y-13066414D01*
X4438900Y-12909271D02*
X4453186Y-12880700D01*
X4481757Y-12866414D01*
X4524614Y-12866414D01*
X4553186Y-12880700D01*
X4567471Y-12909271D01*
X4567471Y-13066414D01*
X5153186Y-12752129D02*
X4896043Y-13137843D01*
X5538900Y-12766414D02*
X5567471Y-12766414D01*
X5596043Y-12780700D01*
X5610328Y-12794986D01*
X5624614Y-12823557D01*
X5638900Y-12880700D01*
X5638900Y-12952129D01*
X5624614Y-13009271D01*
X5610328Y-13037843D01*
X5596043Y-13052129D01*
X5567471Y-13066414D01*
X5538900Y-13066414D01*
X5510328Y-13052129D01*
X5496043Y-13037843D01*
X5481757Y-13009271D01*
X5467471Y-12952129D01*
X5467471Y-12880700D01*
X5481757Y-12823557D01*
X5496043Y-12794986D01*
X5510328Y-12780700D01*
X5538900Y-12766414D01*
X5767471Y-13037843D02*
X5781757Y-13052129D01*
X5767471Y-13066414D01*
X5753186Y-13052129D01*
X5767471Y-13037843D01*
X5767471Y-13066414D01*
X5967471Y-12766414D02*
X5996043Y-12766414D01*
X6024614Y-12780700D01*
X6038900Y-12794986D01*
X6053186Y-12823557D01*
X6067471Y-12880700D01*
X6067471Y-12952129D01*
X6053186Y-13009271D01*
X6038900Y-13037843D01*
X6024614Y-13052129D01*
X5996043Y-13066414D01*
X5967471Y-13066414D01*
X5938900Y-13052129D01*
X5924614Y-13037843D01*
X5910328Y-13009271D01*
X5896043Y-12952129D01*
X5896043Y-12880700D01*
X5910328Y-12823557D01*
X5924614Y-12794986D01*
X5938900Y-12780700D01*
X5967471Y-12766414D01*
X6167471Y-12766414D02*
X6353186Y-12766414D01*
X6253186Y-12880700D01*
X6296043Y-12880700D01*
X6324614Y-12894986D01*
X6338900Y-12909271D01*
X6353186Y-12937843D01*
X6353186Y-13009271D01*
X6338900Y-13037843D01*
X6324614Y-13052129D01*
X6296043Y-13066414D01*
X6210328Y-13066414D01*
X6181757Y-13052129D01*
X6167471Y-13037843D01*
X6496043Y-13066414D02*
X6553186Y-13066414D01*
X6581757Y-13052129D01*
X6596043Y-13037843D01*
X6624614Y-12994986D01*
X6638900Y-12937843D01*
X6638900Y-12823557D01*
X6624614Y-12794986D01*
X6610328Y-12780700D01*
X6581757Y-12766414D01*
X6524614Y-12766414D01*
X6496043Y-12780700D01*
X6481757Y-12794986D01*
X6467471Y-12823557D01*
X6467471Y-12894986D01*
X6481757Y-12923557D01*
X6496043Y-12937843D01*
X6524614Y-12952129D01*
X6581757Y-12952129D01*
X6610328Y-12937843D01*
X6624614Y-12923557D01*
X6638900Y-12894986D01*
X6753186Y-12766414D02*
X6753186Y-12823557D01*
X6867471Y-12766414D02*
X6867471Y-12823557D01*
X7310328Y-13180700D02*
X7296043Y-13166414D01*
X7267471Y-13123557D01*
X7253186Y-13094986D01*
X7238900Y-13052129D01*
X7224614Y-12980700D01*
X7224614Y-12923557D01*
X7238900Y-12852129D01*
X7253186Y-12809271D01*
X7267471Y-12780700D01*
X7296043Y-12737843D01*
X7310328Y-12723557D01*
X7581757Y-13066414D02*
X7410328Y-13066414D01*
X7496043Y-13066414D02*
X7496043Y-12766414D01*
X7467471Y-12809271D01*
X7438900Y-12837843D01*
X7410328Y-12852129D01*
X7767471Y-12766414D02*
X7796043Y-12766414D01*
X7824614Y-12780700D01*
X7838900Y-12794986D01*
X7853186Y-12823557D01*
X7867471Y-12880700D01*
X7867471Y-12952129D01*
X7853186Y-13009271D01*
X7838900Y-13037843D01*
X7824614Y-13052129D01*
X7796043Y-13066414D01*
X7767471Y-13066414D01*
X7738900Y-13052129D01*
X7724614Y-13037843D01*
X7710328Y-13009271D01*
X7696043Y-12952129D01*
X7696043Y-12880700D01*
X7710328Y-12823557D01*
X7724614Y-12794986D01*
X7738900Y-12780700D01*
X7767471Y-12766414D01*
X8053186Y-12766414D02*
X8081757Y-12766414D01*
X8110328Y-12780700D01*
X8124614Y-12794986D01*
X8138900Y-12823557D01*
X8153186Y-12880700D01*
X8153186Y-12952129D01*
X8138900Y-13009271D01*
X8124614Y-13037843D01*
X8110328Y-13052129D01*
X8081757Y-13066414D01*
X8053186Y-13066414D01*
X8024614Y-13052129D01*
X8010328Y-13037843D01*
X7996043Y-13009271D01*
X7981757Y-12952129D01*
X7981757Y-12880700D01*
X7996043Y-12823557D01*
X8010328Y-12794986D01*
X8024614Y-12780700D01*
X8053186Y-12766414D01*
X8510328Y-13066414D02*
X8510328Y-12766414D01*
X8638900Y-13066414D02*
X8638900Y-12909271D01*
X8624614Y-12880700D01*
X8596043Y-12866414D01*
X8553186Y-12866414D01*
X8524614Y-12880700D01*
X8510328Y-12894986D01*
X8824614Y-13066414D02*
X8796043Y-13052129D01*
X8781757Y-13037843D01*
X8767471Y-13009271D01*
X8767471Y-12923557D01*
X8781757Y-12894986D01*
X8796043Y-12880700D01*
X8824614Y-12866414D01*
X8867471Y-12866414D01*
X8896043Y-12880700D01*
X8910328Y-12894986D01*
X8924614Y-12923557D01*
X8924614Y-13009271D01*
X8910328Y-13037843D01*
X8896043Y-13052129D01*
X8867471Y-13066414D01*
X8824614Y-13066414D01*
X9096043Y-13066414D02*
X9067471Y-13052129D01*
X9053186Y-13023557D01*
X9053186Y-12766414D01*
X9324614Y-13052129D02*
X9296043Y-13066414D01*
X9238900Y-13066414D01*
X9210328Y-13052129D01*
X9196043Y-13023557D01*
X9196043Y-12909271D01*
X9210328Y-12880700D01*
X9238900Y-12866414D01*
X9296043Y-12866414D01*
X9324614Y-12880700D01*
X9338900Y-12909271D01*
X9338900Y-12937843D01*
X9196043Y-12966414D01*
X9453186Y-13052129D02*
X9481757Y-13066414D01*
X9538900Y-13066414D01*
X9567471Y-13052129D01*
X9581757Y-13023557D01*
X9581757Y-13009271D01*
X9567471Y-12980700D01*
X9538900Y-12966414D01*
X9496043Y-12966414D01*
X9467471Y-12952129D01*
X9453186Y-12923557D01*
X9453186Y-12909271D01*
X9467471Y-12880700D01*
X9496043Y-12866414D01*
X9538900Y-12866414D01*
X9567471Y-12880700D01*
X9681757Y-13180700D02*
X9696043Y-13166414D01*
X9724614Y-13123557D01*
X9738900Y-13094986D01*
X9753186Y-13052129D01*
X9767471Y-12980700D01*
X9767471Y-12923557D01*
X9753186Y-12852129D01*
X9738900Y-12809271D01*
X9724614Y-12780700D01*
X9696043Y-12737843D01*
X9681757Y-12723557D01*
X2564400Y-13267200D02*
X2564400Y-13386200D01*
X2504900Y-13326700D02*
X2623900Y-13326700D01*
X3067471Y-13462414D02*
X2896043Y-13462414D01*
X2981757Y-13462414D02*
X2981757Y-13162414D01*
X2953186Y-13205271D01*
X2924614Y-13233843D01*
X2896043Y-13248129D01*
X3196043Y-13433843D02*
X3210328Y-13448129D01*
X3196043Y-13462414D01*
X3181757Y-13448129D01*
X3196043Y-13433843D01*
X3196043Y-13462414D01*
X3496043Y-13462414D02*
X3324614Y-13462414D01*
X3410328Y-13462414D02*
X3410328Y-13162414D01*
X3381757Y-13205271D01*
X3353186Y-13233843D01*
X3324614Y-13248129D01*
X3638900Y-13462414D02*
X3696043Y-13462414D01*
X3724614Y-13448129D01*
X3738900Y-13433843D01*
X3767471Y-13390986D01*
X3781757Y-13333843D01*
X3781757Y-13219557D01*
X3767471Y-13190986D01*
X3753186Y-13176700D01*
X3724614Y-13162414D01*
X3667471Y-13162414D01*
X3638900Y-13176700D01*
X3624614Y-13190986D01*
X3610328Y-13219557D01*
X3610328Y-13290986D01*
X3624614Y-13319557D01*
X3638900Y-13333843D01*
X3667471Y-13348129D01*
X3724614Y-13348129D01*
X3753186Y-13333843D01*
X3767471Y-13319557D01*
X3781757Y-13290986D01*
X3910328Y-13462414D02*
X3910328Y-13262414D01*
X3910328Y-13290986D02*
X3924614Y-13276700D01*
X3953186Y-13262414D01*
X3996043Y-13262414D01*
X4024614Y-13276700D01*
X4038900Y-13305271D01*
X4038900Y-13462414D01*
X4038900Y-13305271D02*
X4053186Y-13276700D01*
X4081757Y-13262414D01*
X4124614Y-13262414D01*
X4153186Y-13276700D01*
X4167471Y-13305271D01*
X4167471Y-13462414D01*
X4310328Y-13462414D02*
X4310328Y-13262414D01*
X4310328Y-13290986D02*
X4324614Y-13276700D01*
X4353186Y-13262414D01*
X4396043Y-13262414D01*
X4424614Y-13276700D01*
X4438900Y-13305271D01*
X4438900Y-13462414D01*
X4438900Y-13305271D02*
X4453186Y-13276700D01*
X4481757Y-13262414D01*
X4524614Y-13262414D01*
X4553186Y-13276700D01*
X4567471Y-13305271D01*
X4567471Y-13462414D01*
X5153186Y-13148129D02*
X4896043Y-13533843D01*
X5538900Y-13162414D02*
X5567471Y-13162414D01*
X5596043Y-13176700D01*
X5610328Y-13190986D01*
X5624614Y-13219557D01*
X5638900Y-13276700D01*
X5638900Y-13348129D01*
X5624614Y-13405271D01*
X5610328Y-13433843D01*
X5596043Y-13448129D01*
X5567471Y-13462414D01*
X5538900Y-13462414D01*
X5510328Y-13448129D01*
X5496043Y-13433843D01*
X5481757Y-13405271D01*
X5467471Y-13348129D01*
X5467471Y-13276700D01*
X5481757Y-13219557D01*
X5496043Y-13190986D01*
X5510328Y-13176700D01*
X5538900Y-13162414D01*
X5767471Y-13433843D02*
X5781757Y-13448129D01*
X5767471Y-13462414D01*
X5753186Y-13448129D01*
X5767471Y-13433843D01*
X5767471Y-13462414D01*
X5967471Y-13162414D02*
X5996043Y-13162414D01*
X6024614Y-13176700D01*
X6038900Y-13190986D01*
X6053186Y-13219557D01*
X6067471Y-13276700D01*
X6067471Y-13348129D01*
X6053186Y-13405271D01*
X6038900Y-13433843D01*
X6024614Y-13448129D01*
X5996043Y-13462414D01*
X5967471Y-13462414D01*
X5938900Y-13448129D01*
X5924614Y-13433843D01*
X5910328Y-13405271D01*
X5896043Y-13348129D01*
X5896043Y-13276700D01*
X5910328Y-13219557D01*
X5924614Y-13190986D01*
X5938900Y-13176700D01*
X5967471Y-13162414D01*
X6324614Y-13262414D02*
X6324614Y-13462414D01*
X6253186Y-13148129D02*
X6181757Y-13362414D01*
X6367471Y-13362414D01*
X6453186Y-13162414D02*
X6653186Y-13162414D01*
X6524614Y-13462414D01*
X6753186Y-13162414D02*
X6753186Y-13219557D01*
X6867471Y-13162414D02*
X6867471Y-13219557D01*
X7310328Y-13576700D02*
X7296043Y-13562414D01*
X7267471Y-13519557D01*
X7253186Y-13490986D01*
X7238900Y-13448129D01*
X7224614Y-13376700D01*
X7224614Y-13319557D01*
X7238900Y-13248129D01*
X7253186Y-13205271D01*
X7267471Y-13176700D01*
X7296043Y-13133843D01*
X7310328Y-13119557D01*
X7567471Y-13162414D02*
X7424614Y-13162414D01*
X7410328Y-13305271D01*
X7424614Y-13290986D01*
X7453186Y-13276700D01*
X7524614Y-13276700D01*
X7553186Y-13290986D01*
X7567471Y-13305271D01*
X7581757Y-13333843D01*
X7581757Y-13405271D01*
X7567471Y-13433843D01*
X7553186Y-13448129D01*
X7524614Y-13462414D01*
X7453186Y-13462414D01*
X7424614Y-13448129D01*
X7410328Y-13433843D01*
X7938900Y-13462414D02*
X7938900Y-13162414D01*
X8067471Y-13462414D02*
X8067471Y-13305271D01*
X8053186Y-13276700D01*
X8024614Y-13262414D01*
X7981757Y-13262414D01*
X7953186Y-13276700D01*
X7938900Y-13290986D01*
X8253186Y-13462414D02*
X8224614Y-13448129D01*
X8210328Y-13433843D01*
X8196043Y-13405271D01*
X8196043Y-13319557D01*
X8210328Y-13290986D01*
X8224614Y-13276700D01*
X8253186Y-13262414D01*
X8296043Y-13262414D01*
X8324614Y-13276700D01*
X8338900Y-13290986D01*
X8353186Y-13319557D01*
X8353186Y-13405271D01*
X8338900Y-13433843D01*
X8324614Y-13448129D01*
X8296043Y-13462414D01*
X8253186Y-13462414D01*
X8524614Y-13462414D02*
X8496043Y-13448129D01*
X8481757Y-13419557D01*
X8481757Y-13162414D01*
X8753186Y-13448129D02*
X8724614Y-13462414D01*
X8667471Y-13462414D01*
X8638900Y-13448129D01*
X8624614Y-13419557D01*
X8624614Y-13305271D01*
X8638900Y-13276700D01*
X8667471Y-13262414D01*
X8724614Y-13262414D01*
X8753186Y-13276700D01*
X8767471Y-13305271D01*
X8767471Y-13333843D01*
X8624614Y-13362414D01*
X8881757Y-13448129D02*
X8910328Y-13462414D01*
X8967471Y-13462414D01*
X8996043Y-13448129D01*
X9010328Y-13419557D01*
X9010328Y-13405271D01*
X8996043Y-13376700D01*
X8967471Y-13362414D01*
X8924614Y-13362414D01*
X8896043Y-13348129D01*
X8881757Y-13319557D01*
X8881757Y-13305271D01*
X8896043Y-13276700D01*
X8924614Y-13262414D01*
X8967471Y-13262414D01*
X8996043Y-13276700D01*
X9110328Y-13576700D02*
X9124614Y-13562414D01*
X9153186Y-13519557D01*
X9167471Y-13490986D01*
X9181757Y-13448129D01*
X9196043Y-13376700D01*
X9196043Y-13319557D01*
X9181757Y-13248129D01*
X9167471Y-13205271D01*
X9153186Y-13176700D01*
X9124614Y-13133843D01*
X9110328Y-13119557D01*
X2601933Y-13775734D02*
X2601933Y-13669667D01*
X2495866Y-13669667D01*
X2495866Y-13775734D01*
X2601933Y-13775734D01*
X3067471Y-13858414D02*
X2896043Y-13858414D01*
X2981757Y-13858414D02*
X2981757Y-13558414D01*
X2953186Y-13601271D01*
X2924614Y-13629843D01*
X2896043Y-13644129D01*
X3196043Y-13829843D02*
X3210328Y-13844129D01*
X3196043Y-13858414D01*
X3181757Y-13844129D01*
X3196043Y-13829843D01*
X3196043Y-13858414D01*
X3481757Y-13558414D02*
X3338900Y-13558414D01*
X3324614Y-13701271D01*
X3338900Y-13686986D01*
X3367471Y-13672700D01*
X3438900Y-13672700D01*
X3467471Y-13686986D01*
X3481757Y-13701271D01*
X3496043Y-13729843D01*
X3496043Y-13801271D01*
X3481757Y-13829843D01*
X3467471Y-13844129D01*
X3438900Y-13858414D01*
X3367471Y-13858414D01*
X3338900Y-13844129D01*
X3324614Y-13829843D01*
X3681757Y-13558414D02*
X3710328Y-13558414D01*
X3738900Y-13572700D01*
X3753186Y-13586986D01*
X3767471Y-13615557D01*
X3781757Y-13672700D01*
X3781757Y-13744129D01*
X3767471Y-13801271D01*
X3753186Y-13829843D01*
X3738900Y-13844129D01*
X3710328Y-13858414D01*
X3681757Y-13858414D01*
X3653186Y-13844129D01*
X3638900Y-13829843D01*
X3624614Y-13801271D01*
X3610328Y-13744129D01*
X3610328Y-13672700D01*
X3624614Y-13615557D01*
X3638900Y-13586986D01*
X3653186Y-13572700D01*
X3681757Y-13558414D01*
X3910328Y-13858414D02*
X3910328Y-13658414D01*
X3910328Y-13686986D02*
X3924614Y-13672700D01*
X3953186Y-13658414D01*
X3996043Y-13658414D01*
X4024614Y-13672700D01*
X4038900Y-13701271D01*
X4038900Y-13858414D01*
X4038900Y-13701271D02*
X4053186Y-13672700D01*
X4081757Y-13658414D01*
X4124614Y-13658414D01*
X4153186Y-13672700D01*
X4167471Y-13701271D01*
X4167471Y-13858414D01*
X4310328Y-13858414D02*
X4310328Y-13658414D01*
X4310328Y-13686986D02*
X4324614Y-13672700D01*
X4353186Y-13658414D01*
X4396043Y-13658414D01*
X4424614Y-13672700D01*
X4438900Y-13701271D01*
X4438900Y-13858414D01*
X4438900Y-13701271D02*
X4453186Y-13672700D01*
X4481757Y-13658414D01*
X4524614Y-13658414D01*
X4553186Y-13672700D01*
X4567471Y-13701271D01*
X4567471Y-13858414D01*
X5153186Y-13544129D02*
X4896043Y-13929843D01*
X5538900Y-13558414D02*
X5567471Y-13558414D01*
X5596043Y-13572700D01*
X5610328Y-13586986D01*
X5624614Y-13615557D01*
X5638900Y-13672700D01*
X5638900Y-13744129D01*
X5624614Y-13801271D01*
X5610328Y-13829843D01*
X5596043Y-13844129D01*
X5567471Y-13858414D01*
X5538900Y-13858414D01*
X5510328Y-13844129D01*
X5496043Y-13829843D01*
X5481757Y-13801271D01*
X5467471Y-13744129D01*
X5467471Y-13672700D01*
X5481757Y-13615557D01*
X5496043Y-13586986D01*
X5510328Y-13572700D01*
X5538900Y-13558414D01*
X5767471Y-13829843D02*
X5781757Y-13844129D01*
X5767471Y-13858414D01*
X5753186Y-13844129D01*
X5767471Y-13829843D01*
X5767471Y-13858414D01*
X5967471Y-13558414D02*
X5996043Y-13558414D01*
X6024614Y-13572700D01*
X6038900Y-13586986D01*
X6053186Y-13615557D01*
X6067471Y-13672700D01*
X6067471Y-13744129D01*
X6053186Y-13801271D01*
X6038900Y-13829843D01*
X6024614Y-13844129D01*
X5996043Y-13858414D01*
X5967471Y-13858414D01*
X5938900Y-13844129D01*
X5924614Y-13829843D01*
X5910328Y-13801271D01*
X5896043Y-13744129D01*
X5896043Y-13672700D01*
X5910328Y-13615557D01*
X5924614Y-13586986D01*
X5938900Y-13572700D01*
X5967471Y-13558414D01*
X6338900Y-13558414D02*
X6196043Y-13558414D01*
X6181757Y-13701271D01*
X6196043Y-13686986D01*
X6224614Y-13672700D01*
X6296043Y-13672700D01*
X6324614Y-13686986D01*
X6338900Y-13701271D01*
X6353186Y-13729843D01*
X6353186Y-13801271D01*
X6338900Y-13829843D01*
X6324614Y-13844129D01*
X6296043Y-13858414D01*
X6224614Y-13858414D01*
X6196043Y-13844129D01*
X6181757Y-13829843D01*
X6496043Y-13858414D02*
X6553186Y-13858414D01*
X6581757Y-13844129D01*
X6596043Y-13829843D01*
X6624614Y-13786986D01*
X6638900Y-13729843D01*
X6638900Y-13615557D01*
X6624614Y-13586986D01*
X6610328Y-13572700D01*
X6581757Y-13558414D01*
X6524614Y-13558414D01*
X6496043Y-13572700D01*
X6481757Y-13586986D01*
X6467471Y-13615557D01*
X6467471Y-13686986D01*
X6481757Y-13715557D01*
X6496043Y-13729843D01*
X6524614Y-13744129D01*
X6581757Y-13744129D01*
X6610328Y-13729843D01*
X6624614Y-13715557D01*
X6638900Y-13686986D01*
X6753186Y-13558414D02*
X6753186Y-13615557D01*
X6867471Y-13558414D02*
X6867471Y-13615557D01*
X7310328Y-13972700D02*
X7296043Y-13958414D01*
X7267471Y-13915557D01*
X7253186Y-13886986D01*
X7238900Y-13844129D01*
X7224614Y-13772700D01*
X7224614Y-13715557D01*
X7238900Y-13644129D01*
X7253186Y-13601271D01*
X7267471Y-13572700D01*
X7296043Y-13529843D01*
X7310328Y-13515557D01*
X7396043Y-13558414D02*
X7596043Y-13558414D01*
X7467471Y-13858414D01*
X7938900Y-13858414D02*
X7938900Y-13558414D01*
X8067471Y-13858414D02*
X8067471Y-13701271D01*
X8053186Y-13672700D01*
X8024614Y-13658414D01*
X7981757Y-13658414D01*
X7953186Y-13672700D01*
X7938900Y-13686986D01*
X8253186Y-13858414D02*
X8224614Y-13844129D01*
X8210328Y-13829843D01*
X8196043Y-13801271D01*
X8196043Y-13715557D01*
X8210328Y-13686986D01*
X8224614Y-13672700D01*
X8253186Y-13658414D01*
X8296043Y-13658414D01*
X8324614Y-13672700D01*
X8338900Y-13686986D01*
X8353186Y-13715557D01*
X8353186Y-13801271D01*
X8338900Y-13829843D01*
X8324614Y-13844129D01*
X8296043Y-13858414D01*
X8253186Y-13858414D01*
X8524614Y-13858414D02*
X8496043Y-13844129D01*
X8481757Y-13815557D01*
X8481757Y-13558414D01*
X8753186Y-13844129D02*
X8724614Y-13858414D01*
X8667471Y-13858414D01*
X8638900Y-13844129D01*
X8624614Y-13815557D01*
X8624614Y-13701271D01*
X8638900Y-13672700D01*
X8667471Y-13658414D01*
X8724614Y-13658414D01*
X8753186Y-13672700D01*
X8767471Y-13701271D01*
X8767471Y-13729843D01*
X8624614Y-13758414D01*
X8881757Y-13844129D02*
X8910328Y-13858414D01*
X8967471Y-13858414D01*
X8996043Y-13844129D01*
X9010328Y-13815557D01*
X9010328Y-13801271D01*
X8996043Y-13772700D01*
X8967471Y-13758414D01*
X8924614Y-13758414D01*
X8896043Y-13744129D01*
X8881757Y-13715557D01*
X8881757Y-13701271D01*
X8896043Y-13672700D01*
X8924614Y-13658414D01*
X8967471Y-13658414D01*
X8996043Y-13672700D01*
X9110328Y-13972700D02*
X9124614Y-13958414D01*
X9153186Y-13915557D01*
X9167471Y-13886986D01*
X9181757Y-13844129D01*
X9196043Y-13772700D01*
X9196043Y-13715557D01*
X9181757Y-13644129D01*
X9167471Y-13601271D01*
X9153186Y-13572700D01*
X9124614Y-13529843D01*
X9110328Y-13515557D01*
M02*
