G04 #@! TF.GenerationSoftware,KiCad,Pcbnew,5.1.6*
G04 #@! TF.CreationDate,2020-09-11T13:28:42+02:00*
G04 #@! TF.ProjectId,enigma-ToF,656e6967-6d61-42d5-946f-462e6b696361,rev?*
G04 #@! TF.SameCoordinates,Original*
G04 #@! TF.FileFunction,Soldermask,Bot*
G04 #@! TF.FilePolarity,Negative*
%FSLAX46Y46*%
G04 Gerber Fmt 4.6, Leading zero omitted, Abs format (unit mm)*
G04 Created by KiCad (PCBNEW 5.1.6) date 2020-09-11 13:28:42*
%MOMM*%
%LPD*%
G01*
G04 APERTURE LIST*
%ADD10C,0.100000*%
G04 APERTURE END LIST*
D10*
G36*
X62613512Y-108603927D02*
G01*
X62762812Y-108633624D01*
X62926784Y-108701544D01*
X63074354Y-108800147D01*
X63199853Y-108925646D01*
X63298456Y-109073216D01*
X63366376Y-109237188D01*
X63401000Y-109411259D01*
X63401000Y-109588741D01*
X63366376Y-109762812D01*
X63298456Y-109926784D01*
X63199853Y-110074354D01*
X63074354Y-110199853D01*
X62926784Y-110298456D01*
X62762812Y-110366376D01*
X62613512Y-110396073D01*
X62588742Y-110401000D01*
X62411258Y-110401000D01*
X62386488Y-110396073D01*
X62237188Y-110366376D01*
X62073216Y-110298456D01*
X61925646Y-110199853D01*
X61800147Y-110074354D01*
X61701544Y-109926784D01*
X61633624Y-109762812D01*
X61599000Y-109588741D01*
X61599000Y-109411259D01*
X61633624Y-109237188D01*
X61701544Y-109073216D01*
X61800147Y-108925646D01*
X61925646Y-108800147D01*
X62073216Y-108701544D01*
X62237188Y-108633624D01*
X62386488Y-108603927D01*
X62411258Y-108599000D01*
X62588742Y-108599000D01*
X62613512Y-108603927D01*
G37*
G36*
X77450778Y-108243540D02*
G01*
X77600078Y-108273237D01*
X77764050Y-108341157D01*
X77911620Y-108439760D01*
X78037119Y-108565259D01*
X78135722Y-108712829D01*
X78203642Y-108876801D01*
X78238266Y-109050872D01*
X78238266Y-109228354D01*
X78203642Y-109402425D01*
X78135722Y-109566397D01*
X78037119Y-109713967D01*
X77911620Y-109839466D01*
X77764050Y-109938069D01*
X77600078Y-110005989D01*
X77450778Y-110035686D01*
X77426008Y-110040613D01*
X77248524Y-110040613D01*
X77223754Y-110035686D01*
X77074454Y-110005989D01*
X76910482Y-109938069D01*
X76762912Y-109839466D01*
X76637413Y-109713967D01*
X76538810Y-109566397D01*
X76470890Y-109402425D01*
X76436266Y-109228354D01*
X76436266Y-109050872D01*
X76470890Y-108876801D01*
X76538810Y-108712829D01*
X76637413Y-108565259D01*
X76762912Y-108439760D01*
X76910482Y-108341157D01*
X77074454Y-108273237D01*
X77223754Y-108243540D01*
X77248524Y-108238613D01*
X77426008Y-108238613D01*
X77450778Y-108243540D01*
G37*
G36*
X60186586Y-107816788D02*
G01*
X60347128Y-107848721D01*
X60511100Y-107916641D01*
X60658670Y-108015244D01*
X60784169Y-108140743D01*
X60882772Y-108288313D01*
X60950692Y-108452285D01*
X60979875Y-108599000D01*
X60983559Y-108617520D01*
X60985316Y-108626356D01*
X60985316Y-108803838D01*
X60950692Y-108977909D01*
X60882772Y-109141881D01*
X60784169Y-109289451D01*
X60658670Y-109414950D01*
X60511100Y-109513553D01*
X60347128Y-109581473D01*
X60197828Y-109611170D01*
X60173058Y-109616097D01*
X59995574Y-109616097D01*
X59970804Y-109611170D01*
X59821504Y-109581473D01*
X59657532Y-109513553D01*
X59509962Y-109414950D01*
X59384463Y-109289451D01*
X59285860Y-109141881D01*
X59217940Y-108977909D01*
X59183316Y-108803838D01*
X59183316Y-108626356D01*
X59185074Y-108617520D01*
X59188757Y-108599000D01*
X59217940Y-108452285D01*
X59285860Y-108288313D01*
X59384463Y-108140743D01*
X59509962Y-108015244D01*
X59657532Y-107916641D01*
X59821504Y-107848721D01*
X59982046Y-107816788D01*
X59995574Y-107814097D01*
X60173058Y-107814097D01*
X60186586Y-107816788D01*
G37*
G36*
X79866461Y-107458636D02*
G01*
X80015761Y-107488333D01*
X80179733Y-107556253D01*
X80327303Y-107654856D01*
X80452802Y-107780355D01*
X80551405Y-107927925D01*
X80619325Y-108091897D01*
X80629720Y-108144159D01*
X80653949Y-108265967D01*
X80653949Y-108443451D01*
X80649022Y-108468221D01*
X80619325Y-108617521D01*
X80551405Y-108781493D01*
X80452802Y-108929063D01*
X80327303Y-109054562D01*
X80179733Y-109153165D01*
X80015761Y-109221085D01*
X79866461Y-109250782D01*
X79841691Y-109255709D01*
X79664207Y-109255709D01*
X79639437Y-109250782D01*
X79490137Y-109221085D01*
X79326165Y-109153165D01*
X79178595Y-109054562D01*
X79053096Y-108929063D01*
X78954493Y-108781493D01*
X78886573Y-108617521D01*
X78856876Y-108468221D01*
X78851949Y-108443451D01*
X78851949Y-108265967D01*
X78876178Y-108144159D01*
X78886573Y-108091897D01*
X78954493Y-107927925D01*
X79053096Y-107780355D01*
X79178595Y-107654856D01*
X79326165Y-107556253D01*
X79490137Y-107488333D01*
X79639437Y-107458636D01*
X79664207Y-107453709D01*
X79841691Y-107453709D01*
X79866461Y-107458636D01*
G37*
G36*
X57782145Y-107034121D02*
G01*
X57931445Y-107063818D01*
X58095417Y-107131738D01*
X58242987Y-107230341D01*
X58368486Y-107355840D01*
X58467089Y-107503410D01*
X58535009Y-107667382D01*
X58561639Y-107801263D01*
X58569633Y-107841452D01*
X58569633Y-108018936D01*
X58568073Y-108026777D01*
X58535009Y-108193006D01*
X58467089Y-108356978D01*
X58368486Y-108504548D01*
X58242987Y-108630047D01*
X58095417Y-108728650D01*
X57931445Y-108796570D01*
X57782145Y-108826267D01*
X57757375Y-108831194D01*
X57579891Y-108831194D01*
X57555121Y-108826267D01*
X57405821Y-108796570D01*
X57241849Y-108728650D01*
X57094279Y-108630047D01*
X56968780Y-108504548D01*
X56870177Y-108356978D01*
X56802257Y-108193006D01*
X56769193Y-108026777D01*
X56767633Y-108018936D01*
X56767633Y-107841452D01*
X56775627Y-107801263D01*
X56802257Y-107667382D01*
X56870177Y-107503410D01*
X56968780Y-107355840D01*
X57094279Y-107230341D01*
X57241849Y-107131738D01*
X57405821Y-107063818D01*
X57555121Y-107034121D01*
X57579891Y-107029194D01*
X57757375Y-107029194D01*
X57782145Y-107034121D01*
G37*
G36*
X82282145Y-106673733D02*
G01*
X82431445Y-106703430D01*
X82595417Y-106771350D01*
X82742987Y-106869953D01*
X82868486Y-106995452D01*
X82967089Y-107143022D01*
X83035009Y-107306994D01*
X83058126Y-107423213D01*
X83069633Y-107481064D01*
X83069633Y-107658548D01*
X83064706Y-107683318D01*
X83035009Y-107832618D01*
X82967089Y-107996590D01*
X82868486Y-108144160D01*
X82742987Y-108269659D01*
X82595417Y-108368262D01*
X82431445Y-108436182D01*
X82282145Y-108465879D01*
X82257375Y-108470806D01*
X82079891Y-108470806D01*
X82055121Y-108465879D01*
X81905821Y-108436182D01*
X81741849Y-108368262D01*
X81594279Y-108269659D01*
X81468780Y-108144160D01*
X81370177Y-107996590D01*
X81302257Y-107832618D01*
X81272560Y-107683318D01*
X81267633Y-107658548D01*
X81267633Y-107481064D01*
X81279140Y-107423213D01*
X81302257Y-107306994D01*
X81370177Y-107143022D01*
X81468780Y-106995452D01*
X81594279Y-106869953D01*
X81741849Y-106771350D01*
X81905821Y-106703430D01*
X82055121Y-106673733D01*
X82079891Y-106668806D01*
X82257375Y-106668806D01*
X82282145Y-106673733D01*
G37*
G36*
X63366067Y-106262811D02*
G01*
X63522994Y-106294025D01*
X63686966Y-106361945D01*
X63834536Y-106460548D01*
X63960035Y-106586047D01*
X64058638Y-106733617D01*
X64126558Y-106897589D01*
X64147652Y-107003639D01*
X64159623Y-107063819D01*
X64161182Y-107071660D01*
X64161182Y-107249142D01*
X64126558Y-107423213D01*
X64058638Y-107587185D01*
X63960035Y-107734755D01*
X63834536Y-107860254D01*
X63686966Y-107958857D01*
X63522994Y-108026777D01*
X63373694Y-108056474D01*
X63348924Y-108061401D01*
X63171440Y-108061401D01*
X63146670Y-108056474D01*
X62997370Y-108026777D01*
X62833398Y-107958857D01*
X62685828Y-107860254D01*
X62560329Y-107734755D01*
X62461726Y-107587185D01*
X62393806Y-107423213D01*
X62359182Y-107249142D01*
X62359182Y-107071660D01*
X62360742Y-107063819D01*
X62372712Y-107003639D01*
X62393806Y-106897589D01*
X62461726Y-106733617D01*
X62560329Y-106586047D01*
X62685828Y-106460548D01*
X62833398Y-106361945D01*
X62997370Y-106294025D01*
X63154297Y-106262811D01*
X63171440Y-106259401D01*
X63348924Y-106259401D01*
X63366067Y-106262811D01*
G37*
G36*
X55366461Y-106249218D02*
G01*
X55515761Y-106278915D01*
X55679733Y-106346835D01*
X55827303Y-106445438D01*
X55952802Y-106570937D01*
X56051405Y-106718507D01*
X56119325Y-106882479D01*
X56148508Y-107029194D01*
X56153949Y-107056549D01*
X56153949Y-107234033D01*
X56152389Y-107241874D01*
X56119325Y-107408103D01*
X56051405Y-107572075D01*
X55952802Y-107719645D01*
X55827303Y-107845144D01*
X55679733Y-107943747D01*
X55515761Y-108011667D01*
X55366461Y-108041364D01*
X55341691Y-108046291D01*
X55164207Y-108046291D01*
X55139437Y-108041364D01*
X54990137Y-108011667D01*
X54826165Y-107943747D01*
X54678595Y-107845144D01*
X54553096Y-107719645D01*
X54454493Y-107572075D01*
X54386573Y-107408103D01*
X54353509Y-107241874D01*
X54351949Y-107234033D01*
X54351949Y-107056549D01*
X54357390Y-107029194D01*
X54386573Y-106882479D01*
X54454493Y-106718507D01*
X54553096Y-106570937D01*
X54678595Y-106445438D01*
X54826165Y-106346835D01*
X54990137Y-106278915D01*
X55139437Y-106249218D01*
X55164207Y-106244291D01*
X55341691Y-106244291D01*
X55366461Y-106249218D01*
G37*
G36*
X77011603Y-105780744D02*
G01*
X77082323Y-105808424D01*
X77146283Y-105849368D01*
X77201028Y-105902003D01*
X77244451Y-105964307D01*
X77277357Y-106039536D01*
X77294773Y-106093137D01*
X77294774Y-106093139D01*
X77360046Y-106294025D01*
X77590614Y-107003639D01*
X77608212Y-107083847D01*
X77609703Y-107159777D01*
X77596354Y-107234533D01*
X77568674Y-107305253D01*
X77527730Y-107369213D01*
X77475095Y-107423958D01*
X77412791Y-107467381D01*
X77337562Y-107500287D01*
X77283961Y-107517703D01*
X77283959Y-107517704D01*
X77165317Y-107556253D01*
X76373459Y-107813544D01*
X76293251Y-107831142D01*
X76217321Y-107832633D01*
X76142565Y-107819284D01*
X76071845Y-107791604D01*
X76007885Y-107750660D01*
X75953140Y-107698025D01*
X75909717Y-107635721D01*
X75876811Y-107560492D01*
X75858265Y-107503412D01*
X75790149Y-107293776D01*
X75563554Y-106596389D01*
X75545956Y-106516181D01*
X75544465Y-106440251D01*
X75557814Y-106365495D01*
X75585494Y-106294775D01*
X75626438Y-106230815D01*
X75679073Y-106176070D01*
X75741377Y-106132647D01*
X75816606Y-106099741D01*
X75870207Y-106082325D01*
X75870209Y-106082324D01*
X76233428Y-105964307D01*
X76780709Y-105786484D01*
X76860917Y-105768886D01*
X76936847Y-105767395D01*
X77011603Y-105780744D01*
G37*
G36*
X84697828Y-105888830D02*
G01*
X84847128Y-105918527D01*
X85011100Y-105986447D01*
X85158670Y-106085050D01*
X85284169Y-106210549D01*
X85382772Y-106358119D01*
X85450692Y-106522091D01*
X85473809Y-106638310D01*
X85485316Y-106696161D01*
X85485316Y-106873645D01*
X85480553Y-106897589D01*
X85450692Y-107047715D01*
X85382772Y-107211687D01*
X85284169Y-107359257D01*
X85158670Y-107484756D01*
X85011100Y-107583359D01*
X84847128Y-107651279D01*
X84697828Y-107680976D01*
X84673058Y-107685903D01*
X84495574Y-107685903D01*
X84470804Y-107680976D01*
X84321504Y-107651279D01*
X84157532Y-107583359D01*
X84009962Y-107484756D01*
X83884463Y-107359257D01*
X83785860Y-107211687D01*
X83717940Y-107047715D01*
X83688079Y-106897589D01*
X83683316Y-106873645D01*
X83683316Y-106696161D01*
X83694823Y-106638310D01*
X83717940Y-106522091D01*
X83785860Y-106358119D01*
X83884463Y-106210549D01*
X84009962Y-106085050D01*
X84157532Y-105986447D01*
X84321504Y-105918527D01*
X84470804Y-105888830D01*
X84495574Y-105883903D01*
X84673058Y-105883903D01*
X84697828Y-105888830D01*
G37*
G36*
X60958010Y-105479425D02*
G01*
X61107310Y-105509122D01*
X61271282Y-105577042D01*
X61418852Y-105675645D01*
X61544351Y-105801144D01*
X61642954Y-105948714D01*
X61710874Y-106112686D01*
X61734581Y-106231873D01*
X61743939Y-106278916D01*
X61745498Y-106286757D01*
X61745498Y-106464239D01*
X61710874Y-106638310D01*
X61642954Y-106802282D01*
X61544351Y-106949852D01*
X61418852Y-107075351D01*
X61271282Y-107173954D01*
X61107310Y-107241874D01*
X60958010Y-107271571D01*
X60933240Y-107276498D01*
X60755756Y-107276498D01*
X60730986Y-107271571D01*
X60581686Y-107241874D01*
X60417714Y-107173954D01*
X60270144Y-107075351D01*
X60144645Y-106949852D01*
X60046042Y-106802282D01*
X59978122Y-106638310D01*
X59943498Y-106464239D01*
X59943498Y-106286757D01*
X59945058Y-106278916D01*
X59954415Y-106231873D01*
X59978122Y-106112686D01*
X60046042Y-105948714D01*
X60144645Y-105801144D01*
X60270144Y-105675645D01*
X60417714Y-105577042D01*
X60581686Y-105509122D01*
X60730986Y-105479425D01*
X60755756Y-105474498D01*
X60933240Y-105474498D01*
X60958010Y-105479425D01*
G37*
G36*
X52950778Y-105464314D02*
G01*
X53100078Y-105494011D01*
X53264050Y-105561931D01*
X53411620Y-105660534D01*
X53537119Y-105786033D01*
X53635722Y-105933603D01*
X53703642Y-106097575D01*
X53730144Y-106230815D01*
X53738266Y-106271645D01*
X53738266Y-106449129D01*
X53735994Y-106460549D01*
X53703642Y-106623199D01*
X53635722Y-106787171D01*
X53537119Y-106934741D01*
X53411620Y-107060240D01*
X53264050Y-107158843D01*
X53100078Y-107226763D01*
X52950778Y-107256460D01*
X52926008Y-107261387D01*
X52748524Y-107261387D01*
X52723754Y-107256460D01*
X52574454Y-107226763D01*
X52410482Y-107158843D01*
X52262912Y-107060240D01*
X52137413Y-106934741D01*
X52038810Y-106787171D01*
X51970890Y-106623199D01*
X51938538Y-106460549D01*
X51936266Y-106449129D01*
X51936266Y-106271645D01*
X51944388Y-106230815D01*
X51970890Y-106097575D01*
X52038810Y-105933603D01*
X52137413Y-105786033D01*
X52262912Y-105660534D01*
X52410482Y-105561931D01*
X52574454Y-105494011D01*
X52723754Y-105464314D01*
X52748524Y-105459387D01*
X52926008Y-105459387D01*
X52950778Y-105464314D01*
G37*
G36*
X79106280Y-105119037D02*
G01*
X79255580Y-105148734D01*
X79419552Y-105216654D01*
X79567122Y-105315257D01*
X79692621Y-105440756D01*
X79791224Y-105588326D01*
X79859144Y-105752298D01*
X79885321Y-105883903D01*
X79893768Y-105926368D01*
X79893768Y-106103852D01*
X79891010Y-106117715D01*
X79859144Y-106277922D01*
X79791224Y-106441894D01*
X79692621Y-106589464D01*
X79567122Y-106714963D01*
X79419552Y-106813566D01*
X79255580Y-106881486D01*
X79106280Y-106911183D01*
X79081510Y-106916110D01*
X78904026Y-106916110D01*
X78879256Y-106911183D01*
X78729956Y-106881486D01*
X78565984Y-106813566D01*
X78418414Y-106714963D01*
X78292915Y-106589464D01*
X78194312Y-106441894D01*
X78126392Y-106277922D01*
X78094526Y-106117715D01*
X78091768Y-106103852D01*
X78091768Y-105926368D01*
X78100215Y-105883903D01*
X78126392Y-105752298D01*
X78194312Y-105588326D01*
X78292915Y-105440756D01*
X78418414Y-105315257D01*
X78565984Y-105216654D01*
X78729956Y-105148734D01*
X78879256Y-105119037D01*
X78904026Y-105114110D01*
X79081510Y-105114110D01*
X79106280Y-105119037D01*
G37*
G36*
X87113512Y-105103927D02*
G01*
X87262812Y-105133624D01*
X87426784Y-105201544D01*
X87574354Y-105300147D01*
X87699853Y-105425646D01*
X87798456Y-105573216D01*
X87866376Y-105737188D01*
X87889493Y-105853407D01*
X87901000Y-105911258D01*
X87901000Y-106088742D01*
X87899440Y-106096583D01*
X87866376Y-106262812D01*
X87798456Y-106426784D01*
X87699853Y-106574354D01*
X87574354Y-106699853D01*
X87426784Y-106798456D01*
X87262812Y-106866376D01*
X87113512Y-106896073D01*
X87088742Y-106901000D01*
X86911258Y-106901000D01*
X86886488Y-106896073D01*
X86737188Y-106866376D01*
X86573216Y-106798456D01*
X86425646Y-106699853D01*
X86300147Y-106574354D01*
X86201544Y-106426784D01*
X86133624Y-106262812D01*
X86100560Y-106096583D01*
X86099000Y-106088742D01*
X86099000Y-105911258D01*
X86110507Y-105853407D01*
X86133624Y-105737188D01*
X86201544Y-105573216D01*
X86300147Y-105425646D01*
X86425646Y-105300147D01*
X86573216Y-105201544D01*
X86737188Y-105133624D01*
X86886488Y-105103927D01*
X86911258Y-105099000D01*
X87088742Y-105099000D01*
X87113512Y-105103927D01*
G37*
G36*
X58542327Y-104694522D02*
G01*
X58691627Y-104724219D01*
X58855599Y-104792139D01*
X59003169Y-104890742D01*
X59128668Y-105016241D01*
X59227271Y-105163811D01*
X59295191Y-105327783D01*
X59317662Y-105440756D01*
X59328058Y-105493018D01*
X59329815Y-105501854D01*
X59329815Y-105679336D01*
X59295191Y-105853407D01*
X59227271Y-106017379D01*
X59128668Y-106164949D01*
X59003169Y-106290448D01*
X58855599Y-106389051D01*
X58691627Y-106456971D01*
X58542327Y-106486668D01*
X58517557Y-106491595D01*
X58340073Y-106491595D01*
X58315303Y-106486668D01*
X58166003Y-106456971D01*
X58002031Y-106389051D01*
X57854461Y-106290448D01*
X57728962Y-106164949D01*
X57630359Y-106017379D01*
X57562439Y-105853407D01*
X57527815Y-105679336D01*
X57527815Y-105501854D01*
X57529573Y-105493018D01*
X57539968Y-105440756D01*
X57562439Y-105327783D01*
X57630359Y-105163811D01*
X57728962Y-105016241D01*
X57854461Y-104890742D01*
X58002031Y-104792139D01*
X58166003Y-104724219D01*
X58315303Y-104694522D01*
X58340073Y-104689595D01*
X58517557Y-104689595D01*
X58542327Y-104694522D01*
G37*
G36*
X81521963Y-104334134D02*
G01*
X81671263Y-104363831D01*
X81835235Y-104431751D01*
X81982805Y-104530354D01*
X82108304Y-104655853D01*
X82206907Y-104803423D01*
X82274827Y-104967395D01*
X82291935Y-105053407D01*
X82309451Y-105141465D01*
X82309451Y-105318949D01*
X82304524Y-105343719D01*
X82274827Y-105493019D01*
X82206907Y-105656991D01*
X82108304Y-105804561D01*
X81982805Y-105930060D01*
X81835235Y-106028663D01*
X81671263Y-106096583D01*
X81521963Y-106126280D01*
X81497193Y-106131207D01*
X81319709Y-106131207D01*
X81294939Y-106126280D01*
X81145639Y-106096583D01*
X80981667Y-106028663D01*
X80834097Y-105930060D01*
X80708598Y-105804561D01*
X80609995Y-105656991D01*
X80542075Y-105493019D01*
X80512378Y-105343719D01*
X80507451Y-105318949D01*
X80507451Y-105141465D01*
X80524967Y-105053407D01*
X80542075Y-104967395D01*
X80609995Y-104803423D01*
X80708598Y-104655853D01*
X80834097Y-104530354D01*
X80981667Y-104431751D01*
X81145639Y-104363831D01*
X81294939Y-104334134D01*
X81319709Y-104329207D01*
X81497193Y-104329207D01*
X81521963Y-104334134D01*
G37*
G36*
X56126643Y-103909618D02*
G01*
X56275943Y-103939315D01*
X56439915Y-104007235D01*
X56587485Y-104105838D01*
X56712984Y-104231337D01*
X56811587Y-104378907D01*
X56879507Y-104542879D01*
X56914131Y-104716950D01*
X56914131Y-104894432D01*
X56879507Y-105068503D01*
X56811587Y-105232475D01*
X56712984Y-105380045D01*
X56587485Y-105505544D01*
X56439915Y-105604147D01*
X56275943Y-105672067D01*
X56126643Y-105701764D01*
X56101873Y-105706691D01*
X55924389Y-105706691D01*
X55899619Y-105701764D01*
X55750319Y-105672067D01*
X55586347Y-105604147D01*
X55438777Y-105505544D01*
X55313278Y-105380045D01*
X55214675Y-105232475D01*
X55146755Y-105068503D01*
X55112131Y-104894432D01*
X55112131Y-104716950D01*
X55146755Y-104542879D01*
X55214675Y-104378907D01*
X55313278Y-104231337D01*
X55438777Y-104105838D01*
X55586347Y-104007235D01*
X55750319Y-103939315D01*
X55899619Y-103909618D01*
X55924389Y-103904691D01*
X56101873Y-103904691D01*
X56126643Y-103909618D01*
G37*
G36*
X83937647Y-103549231D02*
G01*
X84086947Y-103578928D01*
X84250919Y-103646848D01*
X84398489Y-103745451D01*
X84523988Y-103870950D01*
X84622591Y-104018520D01*
X84690511Y-104182492D01*
X84725135Y-104356563D01*
X84725135Y-104534045D01*
X84690511Y-104708116D01*
X84622591Y-104872088D01*
X84523988Y-105019658D01*
X84398489Y-105145157D01*
X84250919Y-105243760D01*
X84086947Y-105311680D01*
X83937647Y-105341377D01*
X83912877Y-105346304D01*
X83735393Y-105346304D01*
X83710623Y-105341377D01*
X83561323Y-105311680D01*
X83397351Y-105243760D01*
X83249781Y-105145157D01*
X83124282Y-105019658D01*
X83025679Y-104872088D01*
X82957759Y-104708116D01*
X82923135Y-104534045D01*
X82923135Y-104356563D01*
X82957759Y-104182492D01*
X83025679Y-104018520D01*
X83124282Y-103870950D01*
X83249781Y-103745451D01*
X83397351Y-103646848D01*
X83561323Y-103578928D01*
X83710623Y-103549231D01*
X83735393Y-103544304D01*
X83912877Y-103544304D01*
X83937647Y-103549231D01*
G37*
G36*
X53313615Y-102989660D02*
G01*
X53393823Y-103007258D01*
X53941104Y-103185081D01*
X54304323Y-103303098D01*
X54304325Y-103303099D01*
X54357926Y-103320515D01*
X54433155Y-103353421D01*
X54495459Y-103396844D01*
X54548094Y-103451589D01*
X54589038Y-103515549D01*
X54616718Y-103586269D01*
X54630067Y-103661025D01*
X54628576Y-103736955D01*
X54610978Y-103817163D01*
X54411286Y-104431751D01*
X54316257Y-104724220D01*
X54297721Y-104781266D01*
X54264815Y-104856495D01*
X54221392Y-104918799D01*
X54166647Y-104971434D01*
X54102687Y-105012378D01*
X54031967Y-105040058D01*
X53957211Y-105053407D01*
X53881281Y-105051916D01*
X53801073Y-105034318D01*
X53022261Y-104781266D01*
X52890573Y-104738478D01*
X52890571Y-104738477D01*
X52836970Y-104721061D01*
X52761741Y-104688155D01*
X52699437Y-104644732D01*
X52646802Y-104589987D01*
X52605858Y-104526027D01*
X52578178Y-104455307D01*
X52564829Y-104380551D01*
X52566320Y-104304621D01*
X52583918Y-104224413D01*
X52852812Y-103396844D01*
X52879758Y-103313913D01*
X52879759Y-103313911D01*
X52897175Y-103260310D01*
X52930081Y-103185081D01*
X52973504Y-103122777D01*
X53028249Y-103070142D01*
X53092209Y-103029198D01*
X53162929Y-103001518D01*
X53237685Y-102988169D01*
X53313615Y-102989660D01*
G37*
G36*
X86353330Y-102764328D02*
G01*
X86502630Y-102794025D01*
X86666602Y-102861945D01*
X86814172Y-102960548D01*
X86939671Y-103086047D01*
X87038274Y-103233617D01*
X87106194Y-103397589D01*
X87140818Y-103571660D01*
X87140818Y-103749142D01*
X87106194Y-103923213D01*
X87038274Y-104087185D01*
X86939671Y-104234755D01*
X86814172Y-104360254D01*
X86666602Y-104458857D01*
X86502630Y-104526777D01*
X86353330Y-104556474D01*
X86328560Y-104561401D01*
X86151076Y-104561401D01*
X86126306Y-104556474D01*
X85977006Y-104526777D01*
X85813034Y-104458857D01*
X85665464Y-104360254D01*
X85539965Y-104234755D01*
X85441362Y-104087185D01*
X85373442Y-103923213D01*
X85338818Y-103749142D01*
X85338818Y-103571660D01*
X85373442Y-103397589D01*
X85441362Y-103233617D01*
X85539965Y-103086047D01*
X85665464Y-102960548D01*
X85813034Y-102861945D01*
X85977006Y-102794025D01*
X86126306Y-102764328D01*
X86151076Y-102759401D01*
X86328560Y-102759401D01*
X86353330Y-102764328D01*
G37*
G36*
X41113512Y-96603927D02*
G01*
X41262812Y-96633624D01*
X41426784Y-96701544D01*
X41574354Y-96800147D01*
X41699853Y-96925646D01*
X41798456Y-97073216D01*
X41866376Y-97237188D01*
X41901000Y-97411259D01*
X41901000Y-97588741D01*
X41866376Y-97762812D01*
X41798456Y-97926784D01*
X41699853Y-98074354D01*
X41574354Y-98199853D01*
X41426784Y-98298456D01*
X41262812Y-98366376D01*
X41113512Y-98396073D01*
X41088742Y-98401000D01*
X40911258Y-98401000D01*
X40886488Y-98396073D01*
X40737188Y-98366376D01*
X40573216Y-98298456D01*
X40425646Y-98199853D01*
X40300147Y-98074354D01*
X40201544Y-97926784D01*
X40133624Y-97762812D01*
X40099000Y-97588741D01*
X40099000Y-97411259D01*
X40133624Y-97237188D01*
X40201544Y-97073216D01*
X40300147Y-96925646D01*
X40425646Y-96800147D01*
X40573216Y-96701544D01*
X40737188Y-96633624D01*
X40886488Y-96603927D01*
X40911258Y-96599000D01*
X41088742Y-96599000D01*
X41113512Y-96603927D01*
G37*
G36*
X99141614Y-96323540D02*
G01*
X99290914Y-96353237D01*
X99454886Y-96421157D01*
X99602456Y-96519760D01*
X99727955Y-96645259D01*
X99826558Y-96792829D01*
X99894478Y-96956801D01*
X99929102Y-97130872D01*
X99929102Y-97308354D01*
X99894478Y-97482425D01*
X99826558Y-97646397D01*
X99727955Y-97793967D01*
X99602456Y-97919466D01*
X99454886Y-98018069D01*
X99290914Y-98085989D01*
X99141614Y-98115686D01*
X99116844Y-98120613D01*
X98939360Y-98120613D01*
X98914590Y-98115686D01*
X98765290Y-98085989D01*
X98601318Y-98018069D01*
X98453748Y-97919466D01*
X98328249Y-97793967D01*
X98229646Y-97646397D01*
X98161726Y-97482425D01*
X98127102Y-97308354D01*
X98127102Y-97130872D01*
X98161726Y-96956801D01*
X98229646Y-96792829D01*
X98328249Y-96645259D01*
X98453748Y-96519760D01*
X98601318Y-96421157D01*
X98765290Y-96353237D01*
X98914590Y-96323540D01*
X98939360Y-96318613D01*
X99116844Y-96318613D01*
X99141614Y-96323540D01*
G37*
G36*
X43103694Y-95157975D02*
G01*
X43252994Y-95187672D01*
X43416966Y-95255592D01*
X43564536Y-95354195D01*
X43690035Y-95479694D01*
X43788638Y-95627264D01*
X43856558Y-95791236D01*
X43872611Y-95871944D01*
X43891182Y-95965306D01*
X43891182Y-96142790D01*
X43890752Y-96144950D01*
X43856558Y-96316860D01*
X43788638Y-96480832D01*
X43690035Y-96628402D01*
X43564536Y-96753901D01*
X43416966Y-96852504D01*
X43252994Y-96920424D01*
X43103694Y-96950121D01*
X43078924Y-96955048D01*
X42901440Y-96955048D01*
X42876670Y-96950121D01*
X42727370Y-96920424D01*
X42563398Y-96852504D01*
X42415828Y-96753901D01*
X42290329Y-96628402D01*
X42191726Y-96480832D01*
X42123806Y-96316860D01*
X42089612Y-96144950D01*
X42089182Y-96142790D01*
X42089182Y-95965306D01*
X42107753Y-95871944D01*
X42123806Y-95791236D01*
X42191726Y-95627264D01*
X42290329Y-95479694D01*
X42415828Y-95354195D01*
X42563398Y-95255592D01*
X42727370Y-95187672D01*
X42876670Y-95157975D01*
X42901440Y-95153048D01*
X43078924Y-95153048D01*
X43103694Y-95157975D01*
G37*
G36*
X97014863Y-94680409D02*
G01*
X97086614Y-94705290D01*
X97157458Y-94746813D01*
X97977571Y-95342660D01*
X98038955Y-95397207D01*
X98084789Y-95457755D01*
X98117931Y-95526084D01*
X98137106Y-95599568D01*
X98141576Y-95675378D01*
X98131172Y-95750604D01*
X98106291Y-95822355D01*
X98064768Y-95893199D01*
X97468921Y-96713312D01*
X97414374Y-96774696D01*
X97353826Y-96820530D01*
X97285497Y-96853672D01*
X97212013Y-96872847D01*
X97136203Y-96877317D01*
X97060977Y-96866913D01*
X96989226Y-96842032D01*
X96918382Y-96800509D01*
X96098269Y-96204662D01*
X96036885Y-96150115D01*
X95991051Y-96089567D01*
X95957909Y-96021238D01*
X95938734Y-95947754D01*
X95934264Y-95871944D01*
X95944668Y-95796718D01*
X95969549Y-95724967D01*
X96011072Y-95654123D01*
X96606919Y-94834010D01*
X96661466Y-94772626D01*
X96722014Y-94726792D01*
X96790343Y-94693650D01*
X96863827Y-94674475D01*
X96939637Y-94670005D01*
X97014863Y-94680409D01*
G37*
G36*
X39620537Y-94549024D02*
G01*
X39769837Y-94578721D01*
X39933809Y-94646641D01*
X40081379Y-94745244D01*
X40206878Y-94870743D01*
X40305481Y-95018313D01*
X40373401Y-95182285D01*
X40387556Y-95253450D01*
X40407596Y-95354196D01*
X40408025Y-95356356D01*
X40408025Y-95533838D01*
X40373401Y-95707909D01*
X40305481Y-95871881D01*
X40206878Y-96019451D01*
X40081379Y-96144950D01*
X39933809Y-96243553D01*
X39769837Y-96311473D01*
X39620537Y-96341170D01*
X39595767Y-96346097D01*
X39418283Y-96346097D01*
X39393513Y-96341170D01*
X39244213Y-96311473D01*
X39080241Y-96243553D01*
X38932671Y-96144950D01*
X38807172Y-96019451D01*
X38708569Y-95871881D01*
X38640649Y-95707909D01*
X38606025Y-95533838D01*
X38606025Y-95356356D01*
X38606455Y-95354196D01*
X38626494Y-95253450D01*
X38640649Y-95182285D01*
X38708569Y-95018313D01*
X38807172Y-94870743D01*
X38932671Y-94745244D01*
X39080241Y-94646641D01*
X39244213Y-94578721D01*
X39393513Y-94549024D01*
X39418283Y-94544097D01*
X39595767Y-94544097D01*
X39620537Y-94549024D01*
G37*
G36*
X100634588Y-94268636D02*
G01*
X100783888Y-94298333D01*
X100947860Y-94366253D01*
X101095430Y-94464856D01*
X101220929Y-94590355D01*
X101319532Y-94737925D01*
X101387452Y-94901897D01*
X101422076Y-95075968D01*
X101422076Y-95253450D01*
X101387452Y-95427521D01*
X101319532Y-95591493D01*
X101220929Y-95739063D01*
X101095430Y-95864562D01*
X100947860Y-95963165D01*
X100783888Y-96031085D01*
X100634588Y-96060782D01*
X100609818Y-96065709D01*
X100432334Y-96065709D01*
X100407564Y-96060782D01*
X100258264Y-96031085D01*
X100094292Y-95963165D01*
X99946722Y-95864562D01*
X99821223Y-95739063D01*
X99722620Y-95591493D01*
X99654700Y-95427521D01*
X99620076Y-95253450D01*
X99620076Y-95075968D01*
X99654700Y-94901897D01*
X99722620Y-94737925D01*
X99821223Y-94590355D01*
X99946722Y-94464856D01*
X100094292Y-94366253D01*
X100258264Y-94298333D01*
X100407564Y-94268636D01*
X100432334Y-94263709D01*
X100609818Y-94263709D01*
X100634588Y-94268636D01*
G37*
G36*
X41610719Y-93103072D02*
G01*
X41760019Y-93132769D01*
X41923991Y-93200689D01*
X42071561Y-93299292D01*
X42197060Y-93424791D01*
X42295663Y-93572361D01*
X42363583Y-93736333D01*
X42393280Y-93885633D01*
X42398207Y-93910403D01*
X42398207Y-94087887D01*
X42397777Y-94090047D01*
X42363583Y-94261957D01*
X42295663Y-94425929D01*
X42197060Y-94573499D01*
X42071561Y-94698998D01*
X41923991Y-94797601D01*
X41760019Y-94865521D01*
X41610719Y-94895218D01*
X41585949Y-94900145D01*
X41408465Y-94900145D01*
X41383695Y-94895218D01*
X41234395Y-94865521D01*
X41070423Y-94797601D01*
X40922853Y-94698998D01*
X40797354Y-94573499D01*
X40698751Y-94425929D01*
X40630831Y-94261957D01*
X40596637Y-94090047D01*
X40596207Y-94087887D01*
X40596207Y-93910403D01*
X40601134Y-93885633D01*
X40630831Y-93736333D01*
X40698751Y-93572361D01*
X40797354Y-93424791D01*
X40922853Y-93299292D01*
X41070423Y-93200689D01*
X41234395Y-93132769D01*
X41383695Y-93103072D01*
X41408465Y-93098145D01*
X41585949Y-93098145D01*
X41610719Y-93103072D01*
G37*
G36*
X98644407Y-92822685D02*
G01*
X98793707Y-92852382D01*
X98957679Y-92920302D01*
X99105249Y-93018905D01*
X99230748Y-93144404D01*
X99329351Y-93291974D01*
X99397271Y-93455946D01*
X99420427Y-93572361D01*
X99431895Y-93630016D01*
X99431895Y-93807500D01*
X99430010Y-93816976D01*
X99397271Y-93981570D01*
X99329351Y-94145542D01*
X99230748Y-94293112D01*
X99105249Y-94418611D01*
X98957679Y-94517214D01*
X98793707Y-94585134D01*
X98644407Y-94614831D01*
X98619637Y-94619758D01*
X98442153Y-94619758D01*
X98417383Y-94614831D01*
X98268083Y-94585134D01*
X98104111Y-94517214D01*
X97956541Y-94418611D01*
X97831042Y-94293112D01*
X97732439Y-94145542D01*
X97664519Y-93981570D01*
X97631780Y-93816976D01*
X97629895Y-93807500D01*
X97629895Y-93630016D01*
X97641363Y-93572361D01*
X97664519Y-93455946D01*
X97732439Y-93291974D01*
X97831042Y-93144404D01*
X97956541Y-93018905D01*
X98104111Y-92920302D01*
X98268083Y-92852382D01*
X98417383Y-92822685D01*
X98442153Y-92817758D01*
X98619637Y-92817758D01*
X98644407Y-92822685D01*
G37*
G36*
X38127563Y-92494121D02*
G01*
X38276863Y-92523818D01*
X38440835Y-92591738D01*
X38588405Y-92690341D01*
X38713904Y-92815840D01*
X38812507Y-92963410D01*
X38880427Y-93127382D01*
X38894582Y-93198547D01*
X38914622Y-93299293D01*
X38915051Y-93301453D01*
X38915051Y-93478935D01*
X38880427Y-93653006D01*
X38812507Y-93816978D01*
X38713904Y-93964548D01*
X38588405Y-94090047D01*
X38440835Y-94188650D01*
X38276863Y-94256570D01*
X38127563Y-94286267D01*
X38102793Y-94291194D01*
X37925309Y-94291194D01*
X37900539Y-94286267D01*
X37751239Y-94256570D01*
X37587267Y-94188650D01*
X37439697Y-94090047D01*
X37314198Y-93964548D01*
X37215595Y-93816978D01*
X37147675Y-93653006D01*
X37113051Y-93478935D01*
X37113051Y-93301453D01*
X37113481Y-93299293D01*
X37133520Y-93198547D01*
X37147675Y-93127382D01*
X37215595Y-92963410D01*
X37314198Y-92815840D01*
X37439697Y-92690341D01*
X37587267Y-92591738D01*
X37751239Y-92523818D01*
X37900539Y-92494121D01*
X37925309Y-92489194D01*
X38102793Y-92489194D01*
X38127563Y-92494121D01*
G37*
G36*
X102127563Y-92213733D02*
G01*
X102276863Y-92243430D01*
X102440835Y-92311350D01*
X102588405Y-92409953D01*
X102713904Y-92535452D01*
X102812507Y-92683022D01*
X102880427Y-92846994D01*
X102895008Y-92920302D01*
X102914622Y-93018905D01*
X102915051Y-93021065D01*
X102915051Y-93198547D01*
X102880427Y-93372618D01*
X102812507Y-93536590D01*
X102713904Y-93684160D01*
X102588405Y-93809659D01*
X102440835Y-93908262D01*
X102276863Y-93976182D01*
X102127563Y-94005879D01*
X102102793Y-94010806D01*
X101925309Y-94010806D01*
X101900539Y-94005879D01*
X101751239Y-93976182D01*
X101587267Y-93908262D01*
X101439697Y-93809659D01*
X101314198Y-93684160D01*
X101215595Y-93536590D01*
X101147675Y-93372618D01*
X101113051Y-93198547D01*
X101113051Y-93021065D01*
X101113481Y-93018905D01*
X101133094Y-92920302D01*
X101147675Y-92846994D01*
X101215595Y-92683022D01*
X101314198Y-92535452D01*
X101439697Y-92409953D01*
X101587267Y-92311350D01*
X101751239Y-92243430D01*
X101900539Y-92213733D01*
X101925309Y-92208806D01*
X102102793Y-92208806D01*
X102127563Y-92213733D01*
G37*
G36*
X40117745Y-91048169D02*
G01*
X40267045Y-91077866D01*
X40431017Y-91145786D01*
X40578587Y-91244389D01*
X40704086Y-91369888D01*
X40802689Y-91517458D01*
X40870609Y-91681430D01*
X40900306Y-91830730D01*
X40905233Y-91855500D01*
X40905233Y-92032984D01*
X40904803Y-92035144D01*
X40870609Y-92207054D01*
X40802689Y-92371026D01*
X40704086Y-92518596D01*
X40578587Y-92644095D01*
X40431017Y-92742698D01*
X40267045Y-92810618D01*
X40117745Y-92840315D01*
X40092975Y-92845242D01*
X39915491Y-92845242D01*
X39890721Y-92840315D01*
X39741421Y-92810618D01*
X39577449Y-92742698D01*
X39429879Y-92644095D01*
X39304380Y-92518596D01*
X39205777Y-92371026D01*
X39137857Y-92207054D01*
X39103663Y-92035144D01*
X39103233Y-92032984D01*
X39103233Y-91855500D01*
X39108160Y-91830730D01*
X39137857Y-91681430D01*
X39205777Y-91517458D01*
X39304380Y-91369888D01*
X39429879Y-91244389D01*
X39577449Y-91145786D01*
X39741421Y-91077866D01*
X39890721Y-91048169D01*
X39915491Y-91043242D01*
X40092975Y-91043242D01*
X40117745Y-91048169D01*
G37*
G36*
X100137381Y-90767782D02*
G01*
X100286681Y-90797479D01*
X100450653Y-90865399D01*
X100598223Y-90964002D01*
X100723722Y-91089501D01*
X100822325Y-91237071D01*
X100890245Y-91401043D01*
X100913401Y-91517458D01*
X100924869Y-91575113D01*
X100924869Y-91752597D01*
X100922984Y-91762073D01*
X100890245Y-91926667D01*
X100822325Y-92090639D01*
X100723722Y-92238209D01*
X100598223Y-92363708D01*
X100450653Y-92462311D01*
X100286681Y-92530231D01*
X100137381Y-92559928D01*
X100112611Y-92564855D01*
X99935127Y-92564855D01*
X99910357Y-92559928D01*
X99761057Y-92530231D01*
X99597085Y-92462311D01*
X99449515Y-92363708D01*
X99324016Y-92238209D01*
X99225413Y-92090639D01*
X99157493Y-91926667D01*
X99124754Y-91762073D01*
X99122869Y-91752597D01*
X99122869Y-91575113D01*
X99134337Y-91517458D01*
X99157493Y-91401043D01*
X99225413Y-91237071D01*
X99324016Y-91089501D01*
X99449515Y-90964002D01*
X99597085Y-90865399D01*
X99761057Y-90797479D01*
X99910357Y-90767782D01*
X99935127Y-90762855D01*
X100112611Y-90762855D01*
X100137381Y-90767782D01*
G37*
G36*
X36634588Y-90439218D02*
G01*
X36783888Y-90468915D01*
X36947860Y-90536835D01*
X37095430Y-90635438D01*
X37220929Y-90760937D01*
X37319532Y-90908507D01*
X37387452Y-91072479D01*
X37401607Y-91143644D01*
X37421647Y-91244390D01*
X37422076Y-91246550D01*
X37422076Y-91424032D01*
X37387452Y-91598103D01*
X37319532Y-91762075D01*
X37220929Y-91909645D01*
X37095430Y-92035144D01*
X36947860Y-92133747D01*
X36783888Y-92201667D01*
X36634588Y-92231364D01*
X36609818Y-92236291D01*
X36432334Y-92236291D01*
X36407564Y-92231364D01*
X36258264Y-92201667D01*
X36094292Y-92133747D01*
X35946722Y-92035144D01*
X35821223Y-91909645D01*
X35722620Y-91762075D01*
X35654700Y-91598103D01*
X35620076Y-91424032D01*
X35620076Y-91246550D01*
X35620506Y-91244390D01*
X35640545Y-91143644D01*
X35654700Y-91072479D01*
X35722620Y-90908507D01*
X35821223Y-90760937D01*
X35946722Y-90635438D01*
X36094292Y-90536835D01*
X36258264Y-90468915D01*
X36407564Y-90439218D01*
X36432334Y-90434291D01*
X36609818Y-90434291D01*
X36634588Y-90439218D01*
G37*
G36*
X103620537Y-90158830D02*
G01*
X103769837Y-90188527D01*
X103933809Y-90256447D01*
X104081379Y-90355050D01*
X104206878Y-90480549D01*
X104305481Y-90628119D01*
X104373401Y-90792091D01*
X104387982Y-90865399D01*
X104407596Y-90964002D01*
X104408025Y-90966162D01*
X104408025Y-91143644D01*
X104373401Y-91317715D01*
X104305481Y-91481687D01*
X104206878Y-91629257D01*
X104081379Y-91754756D01*
X103933809Y-91853359D01*
X103769837Y-91921279D01*
X103620537Y-91950976D01*
X103595767Y-91955903D01*
X103418283Y-91955903D01*
X103393513Y-91950976D01*
X103244213Y-91921279D01*
X103080241Y-91853359D01*
X102932671Y-91754756D01*
X102807172Y-91629257D01*
X102708569Y-91481687D01*
X102640649Y-91317715D01*
X102606025Y-91143644D01*
X102606025Y-90966162D01*
X102606455Y-90964002D01*
X102626068Y-90865399D01*
X102640649Y-90792091D01*
X102708569Y-90628119D01*
X102807172Y-90480549D01*
X102932671Y-90355050D01*
X103080241Y-90256447D01*
X103244213Y-90188527D01*
X103393513Y-90158830D01*
X103418283Y-90153903D01*
X103595767Y-90153903D01*
X103620537Y-90158830D01*
G37*
G36*
X38624770Y-88993266D02*
G01*
X38774070Y-89022963D01*
X38938042Y-89090883D01*
X39085612Y-89189486D01*
X39211111Y-89314985D01*
X39309714Y-89462555D01*
X39377634Y-89626527D01*
X39407331Y-89775827D01*
X39412258Y-89800597D01*
X39412258Y-89978081D01*
X39407331Y-90002851D01*
X39377634Y-90152151D01*
X39309714Y-90316123D01*
X39211111Y-90463693D01*
X39085612Y-90589192D01*
X38938042Y-90687795D01*
X38774070Y-90755715D01*
X38624770Y-90785412D01*
X38600000Y-90790339D01*
X38422516Y-90790339D01*
X38397746Y-90785412D01*
X38248446Y-90755715D01*
X38084474Y-90687795D01*
X37936904Y-90589192D01*
X37811405Y-90463693D01*
X37712802Y-90316123D01*
X37644882Y-90152151D01*
X37615185Y-90002851D01*
X37610258Y-89978081D01*
X37610258Y-89800597D01*
X37615185Y-89775827D01*
X37644882Y-89626527D01*
X37712802Y-89462555D01*
X37811405Y-89314985D01*
X37936904Y-89189486D01*
X38084474Y-89090883D01*
X38248446Y-89022963D01*
X38397746Y-88993266D01*
X38422516Y-88988339D01*
X38600000Y-88988339D01*
X38624770Y-88993266D01*
G37*
G36*
X101630356Y-88712878D02*
G01*
X101779656Y-88742575D01*
X101943628Y-88810495D01*
X102091198Y-88909098D01*
X102216697Y-89034597D01*
X102315300Y-89182167D01*
X102383220Y-89346139D01*
X102406376Y-89462555D01*
X102417844Y-89520209D01*
X102417844Y-89697693D01*
X102417414Y-89699853D01*
X102383220Y-89871763D01*
X102315300Y-90035735D01*
X102216697Y-90183305D01*
X102091198Y-90308804D01*
X101943628Y-90407407D01*
X101779656Y-90475327D01*
X101630356Y-90505024D01*
X101605586Y-90509951D01*
X101428102Y-90509951D01*
X101403332Y-90505024D01*
X101254032Y-90475327D01*
X101090060Y-90407407D01*
X100942490Y-90308804D01*
X100816991Y-90183305D01*
X100718388Y-90035735D01*
X100650468Y-89871763D01*
X100616274Y-89699853D01*
X100615844Y-89697693D01*
X100615844Y-89520209D01*
X100627312Y-89462555D01*
X100650468Y-89346139D01*
X100718388Y-89182167D01*
X100816991Y-89034597D01*
X100942490Y-88909098D01*
X101090060Y-88810495D01*
X101254032Y-88742575D01*
X101403332Y-88712878D01*
X101428102Y-88707951D01*
X101605586Y-88707951D01*
X101630356Y-88712878D01*
G37*
G36*
X35141614Y-88384314D02*
G01*
X35290914Y-88414011D01*
X35454886Y-88481931D01*
X35602456Y-88580534D01*
X35727955Y-88706033D01*
X35826558Y-88853603D01*
X35894478Y-89017575D01*
X35909059Y-89090883D01*
X35928673Y-89189486D01*
X35929102Y-89191646D01*
X35929102Y-89369128D01*
X35894478Y-89543199D01*
X35826558Y-89707171D01*
X35727955Y-89854741D01*
X35602456Y-89980240D01*
X35454886Y-90078843D01*
X35290914Y-90146763D01*
X35141614Y-90176460D01*
X35116844Y-90181387D01*
X34939360Y-90181387D01*
X34914590Y-90176460D01*
X34765290Y-90146763D01*
X34601318Y-90078843D01*
X34453748Y-89980240D01*
X34328249Y-89854741D01*
X34229646Y-89707171D01*
X34161726Y-89543199D01*
X34127102Y-89369128D01*
X34127102Y-89191646D01*
X34127532Y-89189486D01*
X34147145Y-89090883D01*
X34161726Y-89017575D01*
X34229646Y-88853603D01*
X34328249Y-88706033D01*
X34453748Y-88580534D01*
X34601318Y-88481931D01*
X34765290Y-88414011D01*
X34914590Y-88384314D01*
X34939360Y-88379387D01*
X35116844Y-88379387D01*
X35141614Y-88384314D01*
G37*
G36*
X105113512Y-88103927D02*
G01*
X105262812Y-88133624D01*
X105426784Y-88201544D01*
X105574354Y-88300147D01*
X105699853Y-88425646D01*
X105798456Y-88573216D01*
X105866376Y-88737188D01*
X105893353Y-88872814D01*
X105900571Y-88909099D01*
X105901000Y-88911259D01*
X105901000Y-89088741D01*
X105866376Y-89262812D01*
X105798456Y-89426784D01*
X105699853Y-89574354D01*
X105574354Y-89699853D01*
X105426784Y-89798456D01*
X105262812Y-89866376D01*
X105113512Y-89896073D01*
X105088742Y-89901000D01*
X104911258Y-89901000D01*
X104886488Y-89896073D01*
X104737188Y-89866376D01*
X104573216Y-89798456D01*
X104425646Y-89699853D01*
X104300147Y-89574354D01*
X104201544Y-89426784D01*
X104133624Y-89262812D01*
X104099000Y-89088741D01*
X104099000Y-88911259D01*
X104099430Y-88909099D01*
X104106647Y-88872814D01*
X104133624Y-88737188D01*
X104201544Y-88573216D01*
X104300147Y-88425646D01*
X104425646Y-88300147D01*
X104573216Y-88201544D01*
X104737188Y-88133624D01*
X104886488Y-88103927D01*
X104911258Y-88099000D01*
X105088742Y-88099000D01*
X105113512Y-88103927D01*
G37*
G36*
X37192377Y-86735250D02*
G01*
X37265861Y-86754425D01*
X37334190Y-86787567D01*
X37394738Y-86833401D01*
X37449285Y-86894785D01*
X38045132Y-87714898D01*
X38086655Y-87785742D01*
X38111536Y-87857493D01*
X38121940Y-87932719D01*
X38117470Y-88008529D01*
X38098295Y-88082013D01*
X38065153Y-88150342D01*
X38019319Y-88210890D01*
X37957935Y-88265437D01*
X37137822Y-88861284D01*
X37066978Y-88902807D01*
X36995227Y-88927688D01*
X36920001Y-88938092D01*
X36844191Y-88933622D01*
X36770707Y-88914447D01*
X36702378Y-88881305D01*
X36641830Y-88835471D01*
X36587283Y-88774087D01*
X35991436Y-87953974D01*
X35949913Y-87883130D01*
X35925032Y-87811379D01*
X35914628Y-87736153D01*
X35919098Y-87660343D01*
X35938273Y-87586859D01*
X35971415Y-87518530D01*
X36017249Y-87457982D01*
X36078633Y-87403435D01*
X36898746Y-86807588D01*
X36969590Y-86766065D01*
X37041341Y-86741184D01*
X37116567Y-86730780D01*
X37192377Y-86735250D01*
G37*
G36*
X103123330Y-86657975D02*
G01*
X103272630Y-86687672D01*
X103436602Y-86755592D01*
X103584172Y-86854195D01*
X103709671Y-86979694D01*
X103808274Y-87127264D01*
X103876194Y-87291236D01*
X103910818Y-87465307D01*
X103910818Y-87642789D01*
X103876194Y-87816860D01*
X103808274Y-87980832D01*
X103709671Y-88128402D01*
X103584172Y-88253901D01*
X103436602Y-88352504D01*
X103272630Y-88420424D01*
X103123330Y-88450121D01*
X103098560Y-88455048D01*
X102921076Y-88455048D01*
X102896306Y-88450121D01*
X102747006Y-88420424D01*
X102583034Y-88352504D01*
X102435464Y-88253901D01*
X102309965Y-88128402D01*
X102211362Y-87980832D01*
X102143442Y-87816860D01*
X102108818Y-87642789D01*
X102108818Y-87465307D01*
X102143442Y-87291236D01*
X102211362Y-87127264D01*
X102309965Y-86979694D01*
X102435464Y-86854195D01*
X102583034Y-86755592D01*
X102747006Y-86687672D01*
X102896306Y-86657975D01*
X102921076Y-86653048D01*
X103098560Y-86653048D01*
X103123330Y-86657975D01*
G37*
G36*
X91742585Y-82298802D02*
G01*
X91892410Y-82328604D01*
X92174674Y-82445521D01*
X92428705Y-82615259D01*
X92644741Y-82831295D01*
X92814479Y-83085326D01*
X92931396Y-83367590D01*
X92991000Y-83667240D01*
X92991000Y-83972760D01*
X92931396Y-84272410D01*
X92814479Y-84554674D01*
X92644741Y-84808705D01*
X92428705Y-85024741D01*
X92174674Y-85194479D01*
X91892410Y-85311396D01*
X91742585Y-85341198D01*
X91592761Y-85371000D01*
X91287239Y-85371000D01*
X91137415Y-85341198D01*
X90987590Y-85311396D01*
X90705326Y-85194479D01*
X90451295Y-85024741D01*
X90235259Y-84808705D01*
X90065521Y-84554674D01*
X89948604Y-84272410D01*
X89889000Y-83972760D01*
X89889000Y-83667240D01*
X89948604Y-83367590D01*
X90065521Y-83085326D01*
X90235259Y-82831295D01*
X90451295Y-82615259D01*
X90705326Y-82445521D01*
X90987590Y-82328604D01*
X91137415Y-82298802D01*
X91287239Y-82269000D01*
X91592761Y-82269000D01*
X91742585Y-82298802D01*
G37*
G36*
X39672585Y-78488802D02*
G01*
X39822410Y-78518604D01*
X40104674Y-78635521D01*
X40358705Y-78805259D01*
X40574741Y-79021295D01*
X40744479Y-79275326D01*
X40861396Y-79557590D01*
X40921000Y-79857240D01*
X40921000Y-80162760D01*
X40861396Y-80462410D01*
X40744479Y-80744674D01*
X40574741Y-80998705D01*
X40358705Y-81214741D01*
X40104674Y-81384479D01*
X39822410Y-81501396D01*
X39672585Y-81531198D01*
X39522761Y-81561000D01*
X39217239Y-81561000D01*
X39067415Y-81531198D01*
X38917590Y-81501396D01*
X38635326Y-81384479D01*
X38381295Y-81214741D01*
X38165259Y-80998705D01*
X37995521Y-80744674D01*
X37878604Y-80462410D01*
X37819000Y-80162760D01*
X37819000Y-79857240D01*
X37878604Y-79557590D01*
X37995521Y-79275326D01*
X38165259Y-79021295D01*
X38381295Y-78805259D01*
X38635326Y-78635521D01*
X38917590Y-78518604D01*
X39067415Y-78488802D01*
X39217239Y-78459000D01*
X39522761Y-78459000D01*
X39672585Y-78488802D01*
G37*
G36*
X44117585Y-78488802D02*
G01*
X44267410Y-78518604D01*
X44549674Y-78635521D01*
X44803705Y-78805259D01*
X45019741Y-79021295D01*
X45189479Y-79275326D01*
X45306396Y-79557590D01*
X45366000Y-79857240D01*
X45366000Y-80162760D01*
X45306396Y-80462410D01*
X45189479Y-80744674D01*
X45019741Y-80998705D01*
X44803705Y-81214741D01*
X44549674Y-81384479D01*
X44267410Y-81501396D01*
X44117585Y-81531198D01*
X43967761Y-81561000D01*
X43662239Y-81561000D01*
X43512415Y-81531198D01*
X43362590Y-81501396D01*
X43080326Y-81384479D01*
X42826295Y-81214741D01*
X42610259Y-80998705D01*
X42440521Y-80744674D01*
X42323604Y-80462410D01*
X42264000Y-80162760D01*
X42264000Y-79857240D01*
X42323604Y-79557590D01*
X42440521Y-79275326D01*
X42610259Y-79021295D01*
X42826295Y-78805259D01*
X43080326Y-78635521D01*
X43362590Y-78518604D01*
X43512415Y-78488802D01*
X43662239Y-78459000D01*
X43967761Y-78459000D01*
X44117585Y-78488802D01*
G37*
G36*
X108128578Y-74267048D02*
G01*
X108201249Y-74289093D01*
X108268225Y-74324892D01*
X108326930Y-74373070D01*
X108375108Y-74431775D01*
X108410907Y-74498751D01*
X108432952Y-74571422D01*
X108441000Y-74653140D01*
X108441000Y-75666860D01*
X108432952Y-75748578D01*
X108410907Y-75821249D01*
X108375108Y-75888225D01*
X108326930Y-75946930D01*
X108268225Y-75995108D01*
X108201249Y-76030907D01*
X108128578Y-76052952D01*
X108046860Y-76061000D01*
X107033140Y-76061000D01*
X106951422Y-76052952D01*
X106878751Y-76030907D01*
X106811775Y-75995108D01*
X106753070Y-75946930D01*
X106704892Y-75888225D01*
X106669093Y-75821249D01*
X106647048Y-75748578D01*
X106639000Y-75666860D01*
X106639000Y-74653140D01*
X106647048Y-74571422D01*
X106669093Y-74498751D01*
X106704892Y-74431775D01*
X106753070Y-74373070D01*
X106811775Y-74324892D01*
X106878751Y-74289093D01*
X106951422Y-74267048D01*
X107033140Y-74259000D01*
X108046860Y-74259000D01*
X108128578Y-74267048D01*
G37*
G36*
X110113512Y-74263927D02*
G01*
X110262812Y-74293624D01*
X110426784Y-74361544D01*
X110574354Y-74460147D01*
X110699853Y-74585646D01*
X110798456Y-74733216D01*
X110866376Y-74897188D01*
X110901000Y-75071259D01*
X110901000Y-75248741D01*
X110866376Y-75422812D01*
X110798456Y-75586784D01*
X110699853Y-75734354D01*
X110574354Y-75859853D01*
X110426784Y-75958456D01*
X110262812Y-76026376D01*
X110113512Y-76056073D01*
X110088742Y-76061000D01*
X109911258Y-76061000D01*
X109886488Y-76056073D01*
X109737188Y-76026376D01*
X109573216Y-75958456D01*
X109425646Y-75859853D01*
X109300147Y-75734354D01*
X109201544Y-75586784D01*
X109133624Y-75422812D01*
X109099000Y-75248741D01*
X109099000Y-75071259D01*
X109133624Y-74897188D01*
X109201544Y-74733216D01*
X109300147Y-74585646D01*
X109425646Y-74460147D01*
X109573216Y-74361544D01*
X109737188Y-74293624D01*
X109886488Y-74263927D01*
X109911258Y-74259000D01*
X110088742Y-74259000D01*
X110113512Y-74263927D01*
G37*
G36*
X32573512Y-74103927D02*
G01*
X32722812Y-74133624D01*
X32886784Y-74201544D01*
X33034354Y-74300147D01*
X33159853Y-74425646D01*
X33258456Y-74573216D01*
X33326376Y-74737188D01*
X33361000Y-74911259D01*
X33361000Y-75088741D01*
X33326376Y-75262812D01*
X33258456Y-75426784D01*
X33159853Y-75574354D01*
X33034354Y-75699853D01*
X32886784Y-75798456D01*
X32722812Y-75866376D01*
X32573512Y-75896073D01*
X32548742Y-75901000D01*
X32371258Y-75901000D01*
X32346488Y-75896073D01*
X32197188Y-75866376D01*
X32033216Y-75798456D01*
X31885646Y-75699853D01*
X31760147Y-75574354D01*
X31661544Y-75426784D01*
X31593624Y-75262812D01*
X31559000Y-75088741D01*
X31559000Y-74911259D01*
X31593624Y-74737188D01*
X31661544Y-74573216D01*
X31760147Y-74425646D01*
X31885646Y-74300147D01*
X32033216Y-74201544D01*
X32197188Y-74133624D01*
X32346488Y-74103927D01*
X32371258Y-74099000D01*
X32548742Y-74099000D01*
X32573512Y-74103927D01*
G37*
G36*
X30113512Y-74103927D02*
G01*
X30262812Y-74133624D01*
X30426784Y-74201544D01*
X30574354Y-74300147D01*
X30699853Y-74425646D01*
X30798456Y-74573216D01*
X30866376Y-74737188D01*
X30901000Y-74911259D01*
X30901000Y-75088741D01*
X30866376Y-75262812D01*
X30798456Y-75426784D01*
X30699853Y-75574354D01*
X30574354Y-75699853D01*
X30426784Y-75798456D01*
X30262812Y-75866376D01*
X30113512Y-75896073D01*
X30088742Y-75901000D01*
X29911258Y-75901000D01*
X29886488Y-75896073D01*
X29737188Y-75866376D01*
X29573216Y-75798456D01*
X29425646Y-75699853D01*
X29300147Y-75574354D01*
X29201544Y-75426784D01*
X29133624Y-75262812D01*
X29099000Y-75088741D01*
X29099000Y-74911259D01*
X29133624Y-74737188D01*
X29201544Y-74573216D01*
X29300147Y-74425646D01*
X29425646Y-74300147D01*
X29573216Y-74201544D01*
X29737188Y-74133624D01*
X29886488Y-74103927D01*
X29911258Y-74099000D01*
X30088742Y-74099000D01*
X30113512Y-74103927D01*
G37*
G36*
X49899561Y-74012966D02*
G01*
X49932383Y-74022923D01*
X49962632Y-74039092D01*
X49989148Y-74060852D01*
X50010908Y-74087368D01*
X50027077Y-74117617D01*
X50037034Y-74150439D01*
X50041000Y-74190713D01*
X50041000Y-75669287D01*
X50037034Y-75709561D01*
X50027077Y-75742383D01*
X50010908Y-75772632D01*
X49989148Y-75799148D01*
X49962632Y-75820908D01*
X49932383Y-75837077D01*
X49899561Y-75847034D01*
X49859287Y-75851000D01*
X47930713Y-75851000D01*
X47890439Y-75847034D01*
X47857617Y-75837077D01*
X47827368Y-75820908D01*
X47800852Y-75799148D01*
X47779092Y-75772632D01*
X47762923Y-75742383D01*
X47752966Y-75709561D01*
X47749000Y-75669287D01*
X47749000Y-74190713D01*
X47752966Y-74150439D01*
X47762923Y-74117617D01*
X47779092Y-74087368D01*
X47800852Y-74060852D01*
X47827368Y-74039092D01*
X47857617Y-74022923D01*
X47890439Y-74012966D01*
X47930713Y-74009000D01*
X49859287Y-74009000D01*
X49899561Y-74012966D01*
G37*
G36*
X99362585Y-70868802D02*
G01*
X99512410Y-70898604D01*
X99794674Y-71015521D01*
X100048705Y-71185259D01*
X100264741Y-71401295D01*
X100434479Y-71655326D01*
X100551396Y-71937590D01*
X100570939Y-72035841D01*
X100603034Y-72197189D01*
X100611000Y-72237240D01*
X100611000Y-72542760D01*
X100551396Y-72842410D01*
X100434479Y-73124674D01*
X100264741Y-73378705D01*
X100048705Y-73594741D01*
X99794674Y-73764479D01*
X99512410Y-73881396D01*
X99362585Y-73911198D01*
X99212761Y-73941000D01*
X98907239Y-73941000D01*
X98757415Y-73911198D01*
X98607590Y-73881396D01*
X98325326Y-73764479D01*
X98071295Y-73594741D01*
X97855259Y-73378705D01*
X97685521Y-73124674D01*
X97568604Y-72842410D01*
X97509000Y-72542760D01*
X97509000Y-72237240D01*
X97516967Y-72197189D01*
X97549061Y-72035841D01*
X97568604Y-71937590D01*
X97685521Y-71655326D01*
X97855259Y-71401295D01*
X98071295Y-71185259D01*
X98325326Y-71015521D01*
X98607590Y-70898604D01*
X98757415Y-70868802D01*
X98907239Y-70839000D01*
X99212761Y-70839000D01*
X99362585Y-70868802D01*
G37*
G36*
X110113512Y-71723927D02*
G01*
X110262812Y-71753624D01*
X110426784Y-71821544D01*
X110574354Y-71920147D01*
X110699853Y-72045646D01*
X110798456Y-72193216D01*
X110866376Y-72357188D01*
X110901000Y-72531259D01*
X110901000Y-72708741D01*
X110866376Y-72882812D01*
X110798456Y-73046784D01*
X110699853Y-73194354D01*
X110574354Y-73319853D01*
X110426784Y-73418456D01*
X110262812Y-73486376D01*
X110113512Y-73516073D01*
X110088742Y-73521000D01*
X109911258Y-73521000D01*
X109886488Y-73516073D01*
X109737188Y-73486376D01*
X109573216Y-73418456D01*
X109425646Y-73319853D01*
X109300147Y-73194354D01*
X109201544Y-73046784D01*
X109133624Y-72882812D01*
X109099000Y-72708741D01*
X109099000Y-72531259D01*
X109133624Y-72357188D01*
X109201544Y-72193216D01*
X109300147Y-72045646D01*
X109425646Y-71920147D01*
X109573216Y-71821544D01*
X109737188Y-71753624D01*
X109886488Y-71723927D01*
X109911258Y-71719000D01*
X110088742Y-71719000D01*
X110113512Y-71723927D01*
G37*
G36*
X107653512Y-71723927D02*
G01*
X107802812Y-71753624D01*
X107966784Y-71821544D01*
X108114354Y-71920147D01*
X108239853Y-72045646D01*
X108338456Y-72193216D01*
X108406376Y-72357188D01*
X108441000Y-72531259D01*
X108441000Y-72708741D01*
X108406376Y-72882812D01*
X108338456Y-73046784D01*
X108239853Y-73194354D01*
X108114354Y-73319853D01*
X107966784Y-73418456D01*
X107802812Y-73486376D01*
X107653512Y-73516073D01*
X107628742Y-73521000D01*
X107451258Y-73521000D01*
X107426488Y-73516073D01*
X107277188Y-73486376D01*
X107113216Y-73418456D01*
X106965646Y-73319853D01*
X106840147Y-73194354D01*
X106741544Y-73046784D01*
X106673624Y-72882812D01*
X106639000Y-72708741D01*
X106639000Y-72531259D01*
X106673624Y-72357188D01*
X106741544Y-72193216D01*
X106840147Y-72045646D01*
X106965646Y-71920147D01*
X107113216Y-71821544D01*
X107277188Y-71753624D01*
X107426488Y-71723927D01*
X107451258Y-71719000D01*
X107628742Y-71719000D01*
X107653512Y-71723927D01*
G37*
G36*
X32573512Y-71563927D02*
G01*
X32722812Y-71593624D01*
X32886784Y-71661544D01*
X33034354Y-71760147D01*
X33159853Y-71885646D01*
X33258456Y-72033216D01*
X33326376Y-72197188D01*
X33361000Y-72371259D01*
X33361000Y-72548741D01*
X33326376Y-72722812D01*
X33258456Y-72886784D01*
X33159853Y-73034354D01*
X33034354Y-73159853D01*
X32886784Y-73258456D01*
X32722812Y-73326376D01*
X32573512Y-73356073D01*
X32548742Y-73361000D01*
X32371258Y-73361000D01*
X32346488Y-73356073D01*
X32197188Y-73326376D01*
X32033216Y-73258456D01*
X31885646Y-73159853D01*
X31760147Y-73034354D01*
X31661544Y-72886784D01*
X31593624Y-72722812D01*
X31559000Y-72548741D01*
X31559000Y-72371259D01*
X31593624Y-72197188D01*
X31661544Y-72033216D01*
X31760147Y-71885646D01*
X31885646Y-71760147D01*
X32033216Y-71661544D01*
X32197188Y-71593624D01*
X32346488Y-71563927D01*
X32371258Y-71559000D01*
X32548742Y-71559000D01*
X32573512Y-71563927D01*
G37*
G36*
X30113512Y-71563927D02*
G01*
X30262812Y-71593624D01*
X30426784Y-71661544D01*
X30574354Y-71760147D01*
X30699853Y-71885646D01*
X30798456Y-72033216D01*
X30866376Y-72197188D01*
X30901000Y-72371259D01*
X30901000Y-72548741D01*
X30866376Y-72722812D01*
X30798456Y-72886784D01*
X30699853Y-73034354D01*
X30574354Y-73159853D01*
X30426784Y-73258456D01*
X30262812Y-73326376D01*
X30113512Y-73356073D01*
X30088742Y-73361000D01*
X29911258Y-73361000D01*
X29886488Y-73356073D01*
X29737188Y-73326376D01*
X29573216Y-73258456D01*
X29425646Y-73159853D01*
X29300147Y-73034354D01*
X29201544Y-72886784D01*
X29133624Y-72722812D01*
X29099000Y-72548741D01*
X29099000Y-72371259D01*
X29133624Y-72197188D01*
X29201544Y-72033216D01*
X29300147Y-71885646D01*
X29425646Y-71760147D01*
X29573216Y-71661544D01*
X29737188Y-71593624D01*
X29886488Y-71563927D01*
X29911258Y-71559000D01*
X30088742Y-71559000D01*
X30113512Y-71563927D01*
G37*
G36*
X49210345Y-71473442D02*
G01*
X49300548Y-71482326D01*
X49474157Y-71534990D01*
X49634156Y-71620511D01*
X49676578Y-71655326D01*
X49774397Y-71735603D01*
X49844926Y-71821544D01*
X49889489Y-71875844D01*
X49975010Y-72035843D01*
X50027674Y-72209452D01*
X50045456Y-72390000D01*
X50027674Y-72570548D01*
X49975010Y-72744157D01*
X49889489Y-72904156D01*
X49853729Y-72947729D01*
X49774397Y-73044397D01*
X49677729Y-73123729D01*
X49634156Y-73159489D01*
X49474157Y-73245010D01*
X49300548Y-73297674D01*
X49210345Y-73306558D01*
X49165245Y-73311000D01*
X48624755Y-73311000D01*
X48579655Y-73306558D01*
X48489452Y-73297674D01*
X48315843Y-73245010D01*
X48155844Y-73159489D01*
X48112271Y-73123729D01*
X48015603Y-73044397D01*
X47936271Y-72947729D01*
X47900511Y-72904156D01*
X47814990Y-72744157D01*
X47762326Y-72570548D01*
X47744544Y-72390000D01*
X47762326Y-72209452D01*
X47814990Y-72035843D01*
X47900511Y-71875844D01*
X47945074Y-71821544D01*
X48015603Y-71735603D01*
X48113422Y-71655326D01*
X48155844Y-71620511D01*
X48315843Y-71534990D01*
X48489452Y-71482326D01*
X48579655Y-71473442D01*
X48624755Y-71469000D01*
X49165245Y-71469000D01*
X49210345Y-71473442D01*
G37*
G36*
X110113512Y-69183927D02*
G01*
X110262812Y-69213624D01*
X110426784Y-69281544D01*
X110574354Y-69380147D01*
X110699853Y-69505646D01*
X110798456Y-69653216D01*
X110866376Y-69817188D01*
X110901000Y-69991259D01*
X110901000Y-70168741D01*
X110866376Y-70342812D01*
X110798456Y-70506784D01*
X110699853Y-70654354D01*
X110574354Y-70779853D01*
X110426784Y-70878456D01*
X110262812Y-70946376D01*
X110113512Y-70976073D01*
X110088742Y-70981000D01*
X109911258Y-70981000D01*
X109886488Y-70976073D01*
X109737188Y-70946376D01*
X109573216Y-70878456D01*
X109425646Y-70779853D01*
X109300147Y-70654354D01*
X109201544Y-70506784D01*
X109133624Y-70342812D01*
X109099000Y-70168741D01*
X109099000Y-69991259D01*
X109133624Y-69817188D01*
X109201544Y-69653216D01*
X109300147Y-69505646D01*
X109425646Y-69380147D01*
X109573216Y-69281544D01*
X109737188Y-69213624D01*
X109886488Y-69183927D01*
X109911258Y-69179000D01*
X110088742Y-69179000D01*
X110113512Y-69183927D01*
G37*
G36*
X107653512Y-69183927D02*
G01*
X107802812Y-69213624D01*
X107966784Y-69281544D01*
X108114354Y-69380147D01*
X108239853Y-69505646D01*
X108338456Y-69653216D01*
X108406376Y-69817188D01*
X108441000Y-69991259D01*
X108441000Y-70168741D01*
X108406376Y-70342812D01*
X108338456Y-70506784D01*
X108239853Y-70654354D01*
X108114354Y-70779853D01*
X107966784Y-70878456D01*
X107802812Y-70946376D01*
X107653512Y-70976073D01*
X107628742Y-70981000D01*
X107451258Y-70981000D01*
X107426488Y-70976073D01*
X107277188Y-70946376D01*
X107113216Y-70878456D01*
X106965646Y-70779853D01*
X106840147Y-70654354D01*
X106741544Y-70506784D01*
X106673624Y-70342812D01*
X106639000Y-70168741D01*
X106639000Y-69991259D01*
X106673624Y-69817188D01*
X106741544Y-69653216D01*
X106840147Y-69505646D01*
X106965646Y-69380147D01*
X107113216Y-69281544D01*
X107277188Y-69213624D01*
X107426488Y-69183927D01*
X107451258Y-69179000D01*
X107628742Y-69179000D01*
X107653512Y-69183927D01*
G37*
G36*
X32573512Y-69023927D02*
G01*
X32722812Y-69053624D01*
X32886784Y-69121544D01*
X33034354Y-69220147D01*
X33159853Y-69345646D01*
X33258456Y-69493216D01*
X33326376Y-69657188D01*
X33361000Y-69831259D01*
X33361000Y-70008741D01*
X33326376Y-70182812D01*
X33258456Y-70346784D01*
X33159853Y-70494354D01*
X33034354Y-70619853D01*
X32886784Y-70718456D01*
X32722812Y-70786376D01*
X32573512Y-70816073D01*
X32548742Y-70821000D01*
X32371258Y-70821000D01*
X32346488Y-70816073D01*
X32197188Y-70786376D01*
X32033216Y-70718456D01*
X31885646Y-70619853D01*
X31760147Y-70494354D01*
X31661544Y-70346784D01*
X31593624Y-70182812D01*
X31559000Y-70008741D01*
X31559000Y-69831259D01*
X31593624Y-69657188D01*
X31661544Y-69493216D01*
X31760147Y-69345646D01*
X31885646Y-69220147D01*
X32033216Y-69121544D01*
X32197188Y-69053624D01*
X32346488Y-69023927D01*
X32371258Y-69019000D01*
X32548742Y-69019000D01*
X32573512Y-69023927D01*
G37*
G36*
X30113512Y-69023927D02*
G01*
X30262812Y-69053624D01*
X30426784Y-69121544D01*
X30574354Y-69220147D01*
X30699853Y-69345646D01*
X30798456Y-69493216D01*
X30866376Y-69657188D01*
X30901000Y-69831259D01*
X30901000Y-70008741D01*
X30866376Y-70182812D01*
X30798456Y-70346784D01*
X30699853Y-70494354D01*
X30574354Y-70619853D01*
X30426784Y-70718456D01*
X30262812Y-70786376D01*
X30113512Y-70816073D01*
X30088742Y-70821000D01*
X29911258Y-70821000D01*
X29886488Y-70816073D01*
X29737188Y-70786376D01*
X29573216Y-70718456D01*
X29425646Y-70619853D01*
X29300147Y-70494354D01*
X29201544Y-70346784D01*
X29133624Y-70182812D01*
X29099000Y-70008741D01*
X29099000Y-69831259D01*
X29133624Y-69657188D01*
X29201544Y-69493216D01*
X29300147Y-69345646D01*
X29425646Y-69220147D01*
X29573216Y-69121544D01*
X29737188Y-69053624D01*
X29886488Y-69023927D01*
X29911258Y-69019000D01*
X30088742Y-69019000D01*
X30113512Y-69023927D01*
G37*
G36*
X49210345Y-68933442D02*
G01*
X49300548Y-68942326D01*
X49474157Y-68994990D01*
X49634156Y-69080511D01*
X49677729Y-69116271D01*
X49774397Y-69195603D01*
X49844926Y-69281544D01*
X49889489Y-69335844D01*
X49975010Y-69495843D01*
X50027674Y-69669452D01*
X50045456Y-69850000D01*
X50027674Y-70030548D01*
X49975010Y-70204157D01*
X49889489Y-70364156D01*
X49853729Y-70407729D01*
X49774397Y-70504397D01*
X49677729Y-70583729D01*
X49634156Y-70619489D01*
X49474157Y-70705010D01*
X49300548Y-70757674D01*
X49210345Y-70766558D01*
X49165245Y-70771000D01*
X48624755Y-70771000D01*
X48579655Y-70766558D01*
X48489452Y-70757674D01*
X48315843Y-70705010D01*
X48155844Y-70619489D01*
X48112271Y-70583729D01*
X48015603Y-70504397D01*
X47936271Y-70407729D01*
X47900511Y-70364156D01*
X47814990Y-70204157D01*
X47762326Y-70030548D01*
X47744544Y-69850000D01*
X47762326Y-69669452D01*
X47814990Y-69495843D01*
X47900511Y-69335844D01*
X47945074Y-69281544D01*
X48015603Y-69195603D01*
X48112271Y-69116271D01*
X48155844Y-69080511D01*
X48315843Y-68994990D01*
X48489452Y-68942326D01*
X48579655Y-68933442D01*
X48624755Y-68929000D01*
X49165245Y-68929000D01*
X49210345Y-68933442D01*
G37*
G36*
X107653512Y-66643927D02*
G01*
X107802812Y-66673624D01*
X107966784Y-66741544D01*
X108114354Y-66840147D01*
X108239853Y-66965646D01*
X108338456Y-67113216D01*
X108406376Y-67277188D01*
X108441000Y-67451259D01*
X108441000Y-67628741D01*
X108406376Y-67802812D01*
X108338456Y-67966784D01*
X108239853Y-68114354D01*
X108114354Y-68239853D01*
X107966784Y-68338456D01*
X107802812Y-68406376D01*
X107653512Y-68436073D01*
X107628742Y-68441000D01*
X107451258Y-68441000D01*
X107426488Y-68436073D01*
X107277188Y-68406376D01*
X107113216Y-68338456D01*
X106965646Y-68239853D01*
X106840147Y-68114354D01*
X106741544Y-67966784D01*
X106673624Y-67802812D01*
X106639000Y-67628741D01*
X106639000Y-67451259D01*
X106673624Y-67277188D01*
X106741544Y-67113216D01*
X106840147Y-66965646D01*
X106965646Y-66840147D01*
X107113216Y-66741544D01*
X107277188Y-66673624D01*
X107426488Y-66643927D01*
X107451258Y-66639000D01*
X107628742Y-66639000D01*
X107653512Y-66643927D01*
G37*
G36*
X110113512Y-66643927D02*
G01*
X110262812Y-66673624D01*
X110426784Y-66741544D01*
X110574354Y-66840147D01*
X110699853Y-66965646D01*
X110798456Y-67113216D01*
X110866376Y-67277188D01*
X110901000Y-67451259D01*
X110901000Y-67628741D01*
X110866376Y-67802812D01*
X110798456Y-67966784D01*
X110699853Y-68114354D01*
X110574354Y-68239853D01*
X110426784Y-68338456D01*
X110262812Y-68406376D01*
X110113512Y-68436073D01*
X110088742Y-68441000D01*
X109911258Y-68441000D01*
X109886488Y-68436073D01*
X109737188Y-68406376D01*
X109573216Y-68338456D01*
X109425646Y-68239853D01*
X109300147Y-68114354D01*
X109201544Y-67966784D01*
X109133624Y-67802812D01*
X109099000Y-67628741D01*
X109099000Y-67451259D01*
X109133624Y-67277188D01*
X109201544Y-67113216D01*
X109300147Y-66965646D01*
X109425646Y-66840147D01*
X109573216Y-66741544D01*
X109737188Y-66673624D01*
X109886488Y-66643927D01*
X109911258Y-66639000D01*
X110088742Y-66639000D01*
X110113512Y-66643927D01*
G37*
G36*
X32573512Y-66483927D02*
G01*
X32722812Y-66513624D01*
X32886784Y-66581544D01*
X33034354Y-66680147D01*
X33159853Y-66805646D01*
X33258456Y-66953216D01*
X33326376Y-67117188D01*
X33361000Y-67291259D01*
X33361000Y-67468741D01*
X33326376Y-67642812D01*
X33258456Y-67806784D01*
X33159853Y-67954354D01*
X33034354Y-68079853D01*
X32886784Y-68178456D01*
X32722812Y-68246376D01*
X32573512Y-68276073D01*
X32548742Y-68281000D01*
X32371258Y-68281000D01*
X32346488Y-68276073D01*
X32197188Y-68246376D01*
X32033216Y-68178456D01*
X31885646Y-68079853D01*
X31760147Y-67954354D01*
X31661544Y-67806784D01*
X31593624Y-67642812D01*
X31559000Y-67468741D01*
X31559000Y-67291259D01*
X31593624Y-67117188D01*
X31661544Y-66953216D01*
X31760147Y-66805646D01*
X31885646Y-66680147D01*
X32033216Y-66581544D01*
X32197188Y-66513624D01*
X32346488Y-66483927D01*
X32371258Y-66479000D01*
X32548742Y-66479000D01*
X32573512Y-66483927D01*
G37*
G36*
X30113512Y-66483927D02*
G01*
X30262812Y-66513624D01*
X30426784Y-66581544D01*
X30574354Y-66680147D01*
X30699853Y-66805646D01*
X30798456Y-66953216D01*
X30866376Y-67117188D01*
X30901000Y-67291259D01*
X30901000Y-67468741D01*
X30866376Y-67642812D01*
X30798456Y-67806784D01*
X30699853Y-67954354D01*
X30574354Y-68079853D01*
X30426784Y-68178456D01*
X30262812Y-68246376D01*
X30113512Y-68276073D01*
X30088742Y-68281000D01*
X29911258Y-68281000D01*
X29886488Y-68276073D01*
X29737188Y-68246376D01*
X29573216Y-68178456D01*
X29425646Y-68079853D01*
X29300147Y-67954354D01*
X29201544Y-67806784D01*
X29133624Y-67642812D01*
X29099000Y-67468741D01*
X29099000Y-67291259D01*
X29133624Y-67117188D01*
X29201544Y-66953216D01*
X29300147Y-66805646D01*
X29425646Y-66680147D01*
X29573216Y-66581544D01*
X29737188Y-66513624D01*
X29886488Y-66483927D01*
X29911258Y-66479000D01*
X30088742Y-66479000D01*
X30113512Y-66483927D01*
G37*
G36*
X49210345Y-66393442D02*
G01*
X49300548Y-66402326D01*
X49474157Y-66454990D01*
X49634156Y-66540511D01*
X49677729Y-66576271D01*
X49774397Y-66655603D01*
X49844926Y-66741544D01*
X49889489Y-66795844D01*
X49975010Y-66955843D01*
X50027674Y-67129452D01*
X50045456Y-67310000D01*
X50027674Y-67490548D01*
X49975010Y-67664157D01*
X49889489Y-67824156D01*
X49853729Y-67867729D01*
X49774397Y-67964397D01*
X49677729Y-68043729D01*
X49634156Y-68079489D01*
X49474157Y-68165010D01*
X49300548Y-68217674D01*
X49210345Y-68226558D01*
X49165245Y-68231000D01*
X48624755Y-68231000D01*
X48579655Y-68226558D01*
X48489452Y-68217674D01*
X48315843Y-68165010D01*
X48155844Y-68079489D01*
X48112271Y-68043729D01*
X48015603Y-67964397D01*
X47936271Y-67867729D01*
X47900511Y-67824156D01*
X47814990Y-67664157D01*
X47762326Y-67490548D01*
X47744544Y-67310000D01*
X47762326Y-67129452D01*
X47814990Y-66955843D01*
X47900511Y-66795844D01*
X47945074Y-66741544D01*
X48015603Y-66655603D01*
X48112271Y-66576271D01*
X48155844Y-66540511D01*
X48315843Y-66454990D01*
X48489452Y-66402326D01*
X48579655Y-66393442D01*
X48624755Y-66389000D01*
X49165245Y-66389000D01*
X49210345Y-66393442D01*
G37*
G36*
X107653512Y-64103927D02*
G01*
X107802812Y-64133624D01*
X107966784Y-64201544D01*
X108114354Y-64300147D01*
X108239853Y-64425646D01*
X108338456Y-64573216D01*
X108406376Y-64737188D01*
X108441000Y-64911259D01*
X108441000Y-65088741D01*
X108406376Y-65262812D01*
X108338456Y-65426784D01*
X108239853Y-65574354D01*
X108114354Y-65699853D01*
X107966784Y-65798456D01*
X107802812Y-65866376D01*
X107653512Y-65896073D01*
X107628742Y-65901000D01*
X107451258Y-65901000D01*
X107426488Y-65896073D01*
X107277188Y-65866376D01*
X107113216Y-65798456D01*
X106965646Y-65699853D01*
X106840147Y-65574354D01*
X106741544Y-65426784D01*
X106673624Y-65262812D01*
X106639000Y-65088741D01*
X106639000Y-64911259D01*
X106673624Y-64737188D01*
X106741544Y-64573216D01*
X106840147Y-64425646D01*
X106965646Y-64300147D01*
X107113216Y-64201544D01*
X107277188Y-64133624D01*
X107426488Y-64103927D01*
X107451258Y-64099000D01*
X107628742Y-64099000D01*
X107653512Y-64103927D01*
G37*
G36*
X110113512Y-64103927D02*
G01*
X110262812Y-64133624D01*
X110426784Y-64201544D01*
X110574354Y-64300147D01*
X110699853Y-64425646D01*
X110798456Y-64573216D01*
X110866376Y-64737188D01*
X110901000Y-64911259D01*
X110901000Y-65088741D01*
X110866376Y-65262812D01*
X110798456Y-65426784D01*
X110699853Y-65574354D01*
X110574354Y-65699853D01*
X110426784Y-65798456D01*
X110262812Y-65866376D01*
X110113512Y-65896073D01*
X110088742Y-65901000D01*
X109911258Y-65901000D01*
X109886488Y-65896073D01*
X109737188Y-65866376D01*
X109573216Y-65798456D01*
X109425646Y-65699853D01*
X109300147Y-65574354D01*
X109201544Y-65426784D01*
X109133624Y-65262812D01*
X109099000Y-65088741D01*
X109099000Y-64911259D01*
X109133624Y-64737188D01*
X109201544Y-64573216D01*
X109300147Y-64425646D01*
X109425646Y-64300147D01*
X109573216Y-64201544D01*
X109737188Y-64133624D01*
X109886488Y-64103927D01*
X109911258Y-64099000D01*
X110088742Y-64099000D01*
X110113512Y-64103927D01*
G37*
G36*
X33048578Y-63947048D02*
G01*
X33121249Y-63969093D01*
X33188225Y-64004892D01*
X33246930Y-64053070D01*
X33295108Y-64111775D01*
X33330907Y-64178751D01*
X33352952Y-64251422D01*
X33361000Y-64333140D01*
X33361000Y-65346860D01*
X33352952Y-65428578D01*
X33330907Y-65501249D01*
X33295108Y-65568225D01*
X33246930Y-65626930D01*
X33188225Y-65675108D01*
X33121249Y-65710907D01*
X33048578Y-65732952D01*
X32966860Y-65741000D01*
X31953140Y-65741000D01*
X31871422Y-65732952D01*
X31798751Y-65710907D01*
X31731775Y-65675108D01*
X31673070Y-65626930D01*
X31624892Y-65568225D01*
X31589093Y-65501249D01*
X31567048Y-65428578D01*
X31559000Y-65346860D01*
X31559000Y-64333140D01*
X31567048Y-64251422D01*
X31589093Y-64178751D01*
X31624892Y-64111775D01*
X31673070Y-64053070D01*
X31731775Y-64004892D01*
X31798751Y-63969093D01*
X31871422Y-63947048D01*
X31953140Y-63939000D01*
X32966860Y-63939000D01*
X33048578Y-63947048D01*
G37*
G36*
X30113512Y-63943927D02*
G01*
X30262812Y-63973624D01*
X30426784Y-64041544D01*
X30574354Y-64140147D01*
X30699853Y-64265646D01*
X30798456Y-64413216D01*
X30866376Y-64577188D01*
X30901000Y-64751259D01*
X30901000Y-64928741D01*
X30866376Y-65102812D01*
X30798456Y-65266784D01*
X30699853Y-65414354D01*
X30574354Y-65539853D01*
X30426784Y-65638456D01*
X30262812Y-65706376D01*
X30113512Y-65736073D01*
X30088742Y-65741000D01*
X29911258Y-65741000D01*
X29886488Y-65736073D01*
X29737188Y-65706376D01*
X29573216Y-65638456D01*
X29425646Y-65539853D01*
X29300147Y-65414354D01*
X29201544Y-65266784D01*
X29133624Y-65102812D01*
X29099000Y-64928741D01*
X29099000Y-64751259D01*
X29133624Y-64577188D01*
X29201544Y-64413216D01*
X29300147Y-64265646D01*
X29425646Y-64140147D01*
X29573216Y-64041544D01*
X29737188Y-63973624D01*
X29886488Y-63943927D01*
X29911258Y-63939000D01*
X30088742Y-63939000D01*
X30113512Y-63943927D01*
G37*
G36*
X49210345Y-63853442D02*
G01*
X49300548Y-63862326D01*
X49474157Y-63914990D01*
X49634156Y-64000511D01*
X49677729Y-64036271D01*
X49774397Y-64115603D01*
X49826220Y-64178751D01*
X49889489Y-64255844D01*
X49975010Y-64415843D01*
X50027674Y-64589452D01*
X50045456Y-64770000D01*
X50027674Y-64950548D01*
X49975010Y-65124157D01*
X49889489Y-65284156D01*
X49853729Y-65327729D01*
X49774397Y-65424397D01*
X49680751Y-65501249D01*
X49634156Y-65539489D01*
X49474157Y-65625010D01*
X49300548Y-65677674D01*
X49210345Y-65686558D01*
X49165245Y-65691000D01*
X48624755Y-65691000D01*
X48579655Y-65686558D01*
X48489452Y-65677674D01*
X48315843Y-65625010D01*
X48155844Y-65539489D01*
X48109249Y-65501249D01*
X48015603Y-65424397D01*
X47936271Y-65327729D01*
X47900511Y-65284156D01*
X47814990Y-65124157D01*
X47762326Y-64950548D01*
X47744544Y-64770000D01*
X47762326Y-64589452D01*
X47814990Y-64415843D01*
X47900511Y-64255844D01*
X47963780Y-64178751D01*
X48015603Y-64115603D01*
X48112271Y-64036271D01*
X48155844Y-64000511D01*
X48315843Y-63914990D01*
X48489452Y-63862326D01*
X48579655Y-63853442D01*
X48624755Y-63849000D01*
X49165245Y-63849000D01*
X49210345Y-63853442D01*
G37*
G36*
X54912585Y-60708802D02*
G01*
X55062410Y-60738604D01*
X55344674Y-60855521D01*
X55598705Y-61025259D01*
X55814741Y-61241295D01*
X55984479Y-61495326D01*
X56101396Y-61777590D01*
X56161000Y-62077240D01*
X56161000Y-62382760D01*
X56101396Y-62682410D01*
X55984479Y-62964674D01*
X55814741Y-63218705D01*
X55598705Y-63434741D01*
X55344674Y-63604479D01*
X55062410Y-63721396D01*
X54912585Y-63751198D01*
X54762761Y-63781000D01*
X54457239Y-63781000D01*
X54307415Y-63751198D01*
X54157590Y-63721396D01*
X53875326Y-63604479D01*
X53621295Y-63434741D01*
X53405259Y-63218705D01*
X53235521Y-62964674D01*
X53118604Y-62682410D01*
X53059000Y-62382760D01*
X53059000Y-62077240D01*
X53118604Y-61777590D01*
X53235521Y-61495326D01*
X53405259Y-61241295D01*
X53621295Y-61025259D01*
X53875326Y-60855521D01*
X54157590Y-60738604D01*
X54307415Y-60708802D01*
X54457239Y-60679000D01*
X54762761Y-60679000D01*
X54912585Y-60708802D01*
G37*
G36*
X91742585Y-53088802D02*
G01*
X91892410Y-53118604D01*
X92174674Y-53235521D01*
X92428705Y-53405259D01*
X92644741Y-53621295D01*
X92814479Y-53875326D01*
X92931396Y-54157590D01*
X92991000Y-54457240D01*
X92991000Y-54762760D01*
X92931396Y-55062410D01*
X92814479Y-55344674D01*
X92644741Y-55598705D01*
X92428705Y-55814741D01*
X92174674Y-55984479D01*
X91892410Y-56101396D01*
X91742585Y-56131198D01*
X91592761Y-56161000D01*
X91287239Y-56161000D01*
X91137415Y-56131198D01*
X90987590Y-56101396D01*
X90705326Y-55984479D01*
X90451295Y-55814741D01*
X90235259Y-55598705D01*
X90065521Y-55344674D01*
X89948604Y-55062410D01*
X89889000Y-54762760D01*
X89889000Y-54457240D01*
X89948604Y-54157590D01*
X90065521Y-53875326D01*
X90235259Y-53621295D01*
X90451295Y-53405259D01*
X90705326Y-53235521D01*
X90987590Y-53118604D01*
X91137415Y-53088802D01*
X91287239Y-53059000D01*
X91592761Y-53059000D01*
X91742585Y-53088802D01*
G37*
G36*
X96822585Y-53088802D02*
G01*
X96972410Y-53118604D01*
X97254674Y-53235521D01*
X97508705Y-53405259D01*
X97724741Y-53621295D01*
X97894479Y-53875326D01*
X98011396Y-54157590D01*
X98071000Y-54457240D01*
X98071000Y-54762760D01*
X98011396Y-55062410D01*
X97894479Y-55344674D01*
X97724741Y-55598705D01*
X97508705Y-55814741D01*
X97254674Y-55984479D01*
X96972410Y-56101396D01*
X96822585Y-56131198D01*
X96672761Y-56161000D01*
X96367239Y-56161000D01*
X96217415Y-56131198D01*
X96067590Y-56101396D01*
X95785326Y-55984479D01*
X95531295Y-55814741D01*
X95315259Y-55598705D01*
X95145521Y-55344674D01*
X95028604Y-55062410D01*
X94969000Y-54762760D01*
X94969000Y-54457240D01*
X95028604Y-54157590D01*
X95145521Y-53875326D01*
X95315259Y-53621295D01*
X95531295Y-53405259D01*
X95785326Y-53235521D01*
X96067590Y-53118604D01*
X96217415Y-53088802D01*
X96367239Y-53059000D01*
X96672761Y-53059000D01*
X96822585Y-53088802D01*
G37*
G36*
X37103694Y-51549879D02*
G01*
X37252994Y-51579576D01*
X37416966Y-51647496D01*
X37564536Y-51746099D01*
X37690035Y-51871598D01*
X37788638Y-52019168D01*
X37856558Y-52183140D01*
X37891182Y-52357211D01*
X37891182Y-52534693D01*
X37856558Y-52708764D01*
X37788638Y-52872736D01*
X37690035Y-53020306D01*
X37564536Y-53145805D01*
X37416966Y-53244408D01*
X37252994Y-53312328D01*
X37103694Y-53342025D01*
X37078924Y-53346952D01*
X36901440Y-53346952D01*
X36876670Y-53342025D01*
X36727370Y-53312328D01*
X36563398Y-53244408D01*
X36415828Y-53145805D01*
X36290329Y-53020306D01*
X36191726Y-52872736D01*
X36123806Y-52708764D01*
X36089182Y-52534693D01*
X36089182Y-52357211D01*
X36123806Y-52183140D01*
X36191726Y-52019168D01*
X36290329Y-51871598D01*
X36415828Y-51746099D01*
X36563398Y-51647496D01*
X36727370Y-51579576D01*
X36876670Y-51549879D01*
X36901440Y-51544952D01*
X37078924Y-51544952D01*
X37103694Y-51549879D01*
G37*
G36*
X103155809Y-51066378D02*
G01*
X103229293Y-51085553D01*
X103297622Y-51118695D01*
X103358170Y-51164529D01*
X103412717Y-51225913D01*
X104008564Y-52046026D01*
X104050087Y-52116870D01*
X104074968Y-52188621D01*
X104085372Y-52263847D01*
X104080902Y-52339657D01*
X104061727Y-52413141D01*
X104028585Y-52481470D01*
X103982751Y-52542018D01*
X103921367Y-52596565D01*
X103101254Y-53192412D01*
X103030410Y-53233935D01*
X102958659Y-53258816D01*
X102883433Y-53269220D01*
X102807623Y-53264750D01*
X102734139Y-53245575D01*
X102665810Y-53212433D01*
X102605262Y-53166599D01*
X102550715Y-53105215D01*
X101954868Y-52285102D01*
X101913345Y-52214258D01*
X101888464Y-52142507D01*
X101878060Y-52067281D01*
X101882530Y-51991471D01*
X101901705Y-51917987D01*
X101934847Y-51849658D01*
X101980681Y-51789110D01*
X102042065Y-51734563D01*
X102862178Y-51138716D01*
X102933022Y-51097193D01*
X103004773Y-51072312D01*
X103079999Y-51061908D01*
X103155809Y-51066378D01*
G37*
G36*
X35113512Y-50103927D02*
G01*
X35262812Y-50133624D01*
X35426784Y-50201544D01*
X35574354Y-50300147D01*
X35699853Y-50425646D01*
X35798456Y-50573216D01*
X35866376Y-50737188D01*
X35896073Y-50886488D01*
X35901000Y-50911258D01*
X35901000Y-51088742D01*
X35900570Y-51090902D01*
X35866376Y-51262812D01*
X35798456Y-51426784D01*
X35699853Y-51574354D01*
X35574354Y-51699853D01*
X35426784Y-51798456D01*
X35262812Y-51866376D01*
X35113512Y-51896073D01*
X35088742Y-51901000D01*
X34911258Y-51901000D01*
X34886488Y-51896073D01*
X34737188Y-51866376D01*
X34573216Y-51798456D01*
X34425646Y-51699853D01*
X34300147Y-51574354D01*
X34201544Y-51426784D01*
X34133624Y-51262812D01*
X34099430Y-51090902D01*
X34099000Y-51088742D01*
X34099000Y-50911258D01*
X34103927Y-50886488D01*
X34133624Y-50737188D01*
X34201544Y-50573216D01*
X34300147Y-50425646D01*
X34425646Y-50300147D01*
X34573216Y-50201544D01*
X34737188Y-50133624D01*
X34886488Y-50103927D01*
X34911258Y-50099000D01*
X35088742Y-50099000D01*
X35113512Y-50103927D01*
G37*
G36*
X105085410Y-49823540D02*
G01*
X105234710Y-49853237D01*
X105398682Y-49921157D01*
X105546252Y-50019760D01*
X105671751Y-50145259D01*
X105770354Y-50292829D01*
X105838274Y-50456801D01*
X105861430Y-50573216D01*
X105872898Y-50630871D01*
X105872898Y-50808355D01*
X105871013Y-50817831D01*
X105838274Y-50982425D01*
X105770354Y-51146397D01*
X105671751Y-51293967D01*
X105546252Y-51419466D01*
X105398682Y-51518069D01*
X105234710Y-51585989D01*
X105085410Y-51615686D01*
X105060640Y-51620613D01*
X104883156Y-51620613D01*
X104858386Y-51615686D01*
X104709086Y-51585989D01*
X104545114Y-51518069D01*
X104397544Y-51419466D01*
X104272045Y-51293967D01*
X104173442Y-51146397D01*
X104105522Y-50982425D01*
X104072783Y-50817831D01*
X104070898Y-50808355D01*
X104070898Y-50630871D01*
X104082366Y-50573216D01*
X104105522Y-50456801D01*
X104173442Y-50292829D01*
X104272045Y-50145259D01*
X104397544Y-50019760D01*
X104545114Y-49921157D01*
X104709086Y-49853237D01*
X104858386Y-49823540D01*
X104883156Y-49818613D01*
X105060640Y-49818613D01*
X105085410Y-49823540D01*
G37*
G36*
X38596668Y-49494976D02*
G01*
X38745968Y-49524673D01*
X38909940Y-49592593D01*
X39057510Y-49691196D01*
X39183009Y-49816695D01*
X39281612Y-49964265D01*
X39349532Y-50128237D01*
X39363687Y-50199402D01*
X39383727Y-50300148D01*
X39384156Y-50302308D01*
X39384156Y-50479790D01*
X39349532Y-50653861D01*
X39281612Y-50817833D01*
X39183009Y-50965403D01*
X39057510Y-51090902D01*
X38909940Y-51189505D01*
X38745968Y-51257425D01*
X38596668Y-51287122D01*
X38571898Y-51292049D01*
X38394414Y-51292049D01*
X38369644Y-51287122D01*
X38220344Y-51257425D01*
X38056372Y-51189505D01*
X37908802Y-51090902D01*
X37783303Y-50965403D01*
X37684700Y-50817833D01*
X37616780Y-50653861D01*
X37582156Y-50479790D01*
X37582156Y-50302308D01*
X37582586Y-50300148D01*
X37602625Y-50199402D01*
X37616780Y-50128237D01*
X37684700Y-49964265D01*
X37783303Y-49816695D01*
X37908802Y-49691196D01*
X38056372Y-49592593D01*
X38220344Y-49524673D01*
X38369644Y-49494976D01*
X38394414Y-49490049D01*
X38571898Y-49490049D01*
X38596668Y-49494976D01*
G37*
G36*
X101602254Y-49214588D02*
G01*
X101751554Y-49244285D01*
X101915526Y-49312205D01*
X102063096Y-49410808D01*
X102188595Y-49536307D01*
X102287198Y-49683877D01*
X102355118Y-49847849D01*
X102369699Y-49921157D01*
X102389313Y-50019760D01*
X102389742Y-50021920D01*
X102389742Y-50199402D01*
X102355118Y-50373473D01*
X102287198Y-50537445D01*
X102188595Y-50685015D01*
X102063096Y-50810514D01*
X101915526Y-50909117D01*
X101751554Y-50977037D01*
X101602254Y-51006734D01*
X101577484Y-51011661D01*
X101400000Y-51011661D01*
X101375230Y-51006734D01*
X101225930Y-50977037D01*
X101061958Y-50909117D01*
X100914388Y-50810514D01*
X100788889Y-50685015D01*
X100690286Y-50537445D01*
X100622366Y-50373473D01*
X100587742Y-50199402D01*
X100587742Y-50021920D01*
X100588172Y-50019760D01*
X100607785Y-49921157D01*
X100622366Y-49847849D01*
X100690286Y-49683877D01*
X100788889Y-49536307D01*
X100914388Y-49410808D01*
X101061958Y-49312205D01*
X101225930Y-49244285D01*
X101375230Y-49214588D01*
X101400000Y-49209661D01*
X101577484Y-49209661D01*
X101602254Y-49214588D01*
G37*
G36*
X36606487Y-48049024D02*
G01*
X36755787Y-48078721D01*
X36919759Y-48146641D01*
X37067329Y-48245244D01*
X37192828Y-48370743D01*
X37291431Y-48518313D01*
X37359351Y-48682285D01*
X37389048Y-48831585D01*
X37393975Y-48856355D01*
X37393975Y-49033839D01*
X37389048Y-49058609D01*
X37359351Y-49207909D01*
X37291431Y-49371881D01*
X37192828Y-49519451D01*
X37067329Y-49644950D01*
X36919759Y-49743553D01*
X36755787Y-49811473D01*
X36606487Y-49841170D01*
X36581717Y-49846097D01*
X36404233Y-49846097D01*
X36379463Y-49841170D01*
X36230163Y-49811473D01*
X36066191Y-49743553D01*
X35918621Y-49644950D01*
X35793122Y-49519451D01*
X35694519Y-49371881D01*
X35626599Y-49207909D01*
X35596902Y-49058609D01*
X35591975Y-49033839D01*
X35591975Y-48856355D01*
X35596902Y-48831585D01*
X35626599Y-48682285D01*
X35694519Y-48518313D01*
X35793122Y-48370743D01*
X35918621Y-48245244D01*
X36066191Y-48146641D01*
X36230163Y-48078721D01*
X36379463Y-48049024D01*
X36404233Y-48044097D01*
X36581717Y-48044097D01*
X36606487Y-48049024D01*
G37*
G36*
X103592436Y-47768636D02*
G01*
X103741736Y-47798333D01*
X103905708Y-47866253D01*
X104053278Y-47964856D01*
X104178777Y-48090355D01*
X104277380Y-48237925D01*
X104345300Y-48401897D01*
X104368456Y-48518313D01*
X104379924Y-48575967D01*
X104379924Y-48753451D01*
X104379494Y-48755611D01*
X104345300Y-48927521D01*
X104277380Y-49091493D01*
X104178777Y-49239063D01*
X104053278Y-49364562D01*
X103905708Y-49463165D01*
X103741736Y-49531085D01*
X103592436Y-49560782D01*
X103567666Y-49565709D01*
X103390182Y-49565709D01*
X103365412Y-49560782D01*
X103216112Y-49531085D01*
X103052140Y-49463165D01*
X102904570Y-49364562D01*
X102779071Y-49239063D01*
X102680468Y-49091493D01*
X102612548Y-48927521D01*
X102578354Y-48755611D01*
X102577924Y-48753451D01*
X102577924Y-48575967D01*
X102589392Y-48518313D01*
X102612548Y-48401897D01*
X102680468Y-48237925D01*
X102779071Y-48090355D01*
X102904570Y-47964856D01*
X103052140Y-47866253D01*
X103216112Y-47798333D01*
X103365412Y-47768636D01*
X103390182Y-47763709D01*
X103567666Y-47763709D01*
X103592436Y-47768636D01*
G37*
G36*
X40089643Y-47440072D02*
G01*
X40238943Y-47469769D01*
X40402915Y-47537689D01*
X40550485Y-47636292D01*
X40675984Y-47761791D01*
X40774587Y-47909361D01*
X40842507Y-48073333D01*
X40857088Y-48146641D01*
X40876702Y-48245244D01*
X40877131Y-48247404D01*
X40877131Y-48424886D01*
X40842507Y-48598957D01*
X40774587Y-48762929D01*
X40675984Y-48910499D01*
X40550485Y-49035998D01*
X40402915Y-49134601D01*
X40238943Y-49202521D01*
X40089643Y-49232218D01*
X40064873Y-49237145D01*
X39887389Y-49237145D01*
X39862619Y-49232218D01*
X39713319Y-49202521D01*
X39549347Y-49134601D01*
X39401777Y-49035998D01*
X39276278Y-48910499D01*
X39177675Y-48762929D01*
X39109755Y-48598957D01*
X39075131Y-48424886D01*
X39075131Y-48247404D01*
X39075561Y-48245244D01*
X39095174Y-48146641D01*
X39109755Y-48073333D01*
X39177675Y-47909361D01*
X39276278Y-47761791D01*
X39401777Y-47636292D01*
X39549347Y-47537689D01*
X39713319Y-47469769D01*
X39862619Y-47440072D01*
X39887389Y-47435145D01*
X40064873Y-47435145D01*
X40089643Y-47440072D01*
G37*
G36*
X100109279Y-47159685D02*
G01*
X100258579Y-47189382D01*
X100422551Y-47257302D01*
X100570121Y-47355905D01*
X100695620Y-47481404D01*
X100794223Y-47628974D01*
X100862143Y-47792946D01*
X100876724Y-47866253D01*
X100896338Y-47964857D01*
X100896767Y-47967017D01*
X100896767Y-48144499D01*
X100862143Y-48318570D01*
X100794223Y-48482542D01*
X100695620Y-48630112D01*
X100570121Y-48755611D01*
X100422551Y-48854214D01*
X100258579Y-48922134D01*
X100109279Y-48951831D01*
X100084509Y-48956758D01*
X99907025Y-48956758D01*
X99882255Y-48951831D01*
X99732955Y-48922134D01*
X99568983Y-48854214D01*
X99421413Y-48755611D01*
X99295914Y-48630112D01*
X99197311Y-48482542D01*
X99129391Y-48318570D01*
X99094767Y-48144499D01*
X99094767Y-47967017D01*
X99095197Y-47964857D01*
X99114810Y-47866253D01*
X99129391Y-47792946D01*
X99197311Y-47628974D01*
X99295914Y-47481404D01*
X99421413Y-47355905D01*
X99568983Y-47257302D01*
X99732955Y-47189382D01*
X99882255Y-47159685D01*
X99907025Y-47154758D01*
X100084509Y-47154758D01*
X100109279Y-47159685D01*
G37*
G36*
X38099461Y-45994121D02*
G01*
X38248761Y-46023818D01*
X38412733Y-46091738D01*
X38560303Y-46190341D01*
X38685802Y-46315840D01*
X38784405Y-46463410D01*
X38852325Y-46627382D01*
X38882022Y-46776682D01*
X38886949Y-46801452D01*
X38886949Y-46978936D01*
X38882022Y-47003706D01*
X38852325Y-47153006D01*
X38784405Y-47316978D01*
X38685802Y-47464548D01*
X38560303Y-47590047D01*
X38412733Y-47688650D01*
X38248761Y-47756570D01*
X38099461Y-47786267D01*
X38074691Y-47791194D01*
X37897207Y-47791194D01*
X37872437Y-47786267D01*
X37723137Y-47756570D01*
X37559165Y-47688650D01*
X37411595Y-47590047D01*
X37286096Y-47464548D01*
X37187493Y-47316978D01*
X37119573Y-47153006D01*
X37089876Y-47003706D01*
X37084949Y-46978936D01*
X37084949Y-46801452D01*
X37089876Y-46776682D01*
X37119573Y-46627382D01*
X37187493Y-46463410D01*
X37286096Y-46315840D01*
X37411595Y-46190341D01*
X37559165Y-46091738D01*
X37723137Y-46023818D01*
X37872437Y-45994121D01*
X37897207Y-45989194D01*
X38074691Y-45989194D01*
X38099461Y-45994121D01*
G37*
G36*
X102099461Y-45713733D02*
G01*
X102248761Y-45743430D01*
X102412733Y-45811350D01*
X102560303Y-45909953D01*
X102685802Y-46035452D01*
X102784405Y-46183022D01*
X102852325Y-46346994D01*
X102875481Y-46463410D01*
X102886949Y-46521064D01*
X102886949Y-46698548D01*
X102886519Y-46700708D01*
X102852325Y-46872618D01*
X102784405Y-47036590D01*
X102685802Y-47184160D01*
X102560303Y-47309659D01*
X102412733Y-47408262D01*
X102248761Y-47476182D01*
X102099461Y-47505879D01*
X102074691Y-47510806D01*
X101897207Y-47510806D01*
X101872437Y-47505879D01*
X101723137Y-47476182D01*
X101559165Y-47408262D01*
X101411595Y-47309659D01*
X101286096Y-47184160D01*
X101187493Y-47036590D01*
X101119573Y-46872618D01*
X101085379Y-46700708D01*
X101084949Y-46698548D01*
X101084949Y-46521064D01*
X101096417Y-46463410D01*
X101119573Y-46346994D01*
X101187493Y-46183022D01*
X101286096Y-46035452D01*
X101411595Y-45909953D01*
X101559165Y-45811350D01*
X101723137Y-45743430D01*
X101872437Y-45713733D01*
X101897207Y-45708806D01*
X102074691Y-45708806D01*
X102099461Y-45713733D01*
G37*
G36*
X41582617Y-45385169D02*
G01*
X41731917Y-45414866D01*
X41895889Y-45482786D01*
X42043459Y-45581389D01*
X42168958Y-45706888D01*
X42267561Y-45854458D01*
X42335481Y-46018430D01*
X42350062Y-46091738D01*
X42369676Y-46190341D01*
X42370105Y-46192501D01*
X42370105Y-46369983D01*
X42335481Y-46544054D01*
X42267561Y-46708026D01*
X42168958Y-46855596D01*
X42043459Y-46981095D01*
X41895889Y-47079698D01*
X41731917Y-47147618D01*
X41582617Y-47177315D01*
X41557847Y-47182242D01*
X41380363Y-47182242D01*
X41355593Y-47177315D01*
X41206293Y-47147618D01*
X41042321Y-47079698D01*
X40894751Y-46981095D01*
X40769252Y-46855596D01*
X40670649Y-46708026D01*
X40602729Y-46544054D01*
X40568105Y-46369983D01*
X40568105Y-46192501D01*
X40568535Y-46190341D01*
X40588148Y-46091738D01*
X40602729Y-46018430D01*
X40670649Y-45854458D01*
X40769252Y-45706888D01*
X40894751Y-45581389D01*
X41042321Y-45482786D01*
X41206293Y-45414866D01*
X41355593Y-45385169D01*
X41380363Y-45380242D01*
X41557847Y-45380242D01*
X41582617Y-45385169D01*
G37*
G36*
X98616305Y-45104782D02*
G01*
X98765605Y-45134479D01*
X98929577Y-45202399D01*
X99077147Y-45301002D01*
X99202646Y-45426501D01*
X99301249Y-45574071D01*
X99369169Y-45738043D01*
X99383750Y-45811350D01*
X99403364Y-45909954D01*
X99403793Y-45912114D01*
X99403793Y-46089596D01*
X99369169Y-46263667D01*
X99301249Y-46427639D01*
X99202646Y-46575209D01*
X99077147Y-46700708D01*
X98929577Y-46799311D01*
X98765605Y-46867231D01*
X98616305Y-46896928D01*
X98591535Y-46901855D01*
X98414051Y-46901855D01*
X98389281Y-46896928D01*
X98239981Y-46867231D01*
X98076009Y-46799311D01*
X97928439Y-46700708D01*
X97802940Y-46575209D01*
X97704337Y-46427639D01*
X97636417Y-46263667D01*
X97601793Y-46089596D01*
X97601793Y-45912114D01*
X97602223Y-45909954D01*
X97621836Y-45811350D01*
X97636417Y-45738043D01*
X97704337Y-45574071D01*
X97802940Y-45426501D01*
X97928439Y-45301002D01*
X98076009Y-45202399D01*
X98239981Y-45134479D01*
X98389281Y-45104782D01*
X98414051Y-45099855D01*
X98591535Y-45099855D01*
X98616305Y-45104782D01*
G37*
G36*
X39592436Y-43939218D02*
G01*
X39741736Y-43968915D01*
X39905708Y-44036835D01*
X40053278Y-44135438D01*
X40178777Y-44260937D01*
X40277380Y-44408507D01*
X40345300Y-44572479D01*
X40379924Y-44746550D01*
X40379924Y-44924032D01*
X40345300Y-45098103D01*
X40277380Y-45262075D01*
X40178777Y-45409645D01*
X40053278Y-45535144D01*
X39905708Y-45633747D01*
X39741736Y-45701667D01*
X39592436Y-45731364D01*
X39567666Y-45736291D01*
X39390182Y-45736291D01*
X39365412Y-45731364D01*
X39216112Y-45701667D01*
X39052140Y-45633747D01*
X38904570Y-45535144D01*
X38779071Y-45409645D01*
X38680468Y-45262075D01*
X38612548Y-45098103D01*
X38577924Y-44924032D01*
X38577924Y-44746550D01*
X38612548Y-44572479D01*
X38680468Y-44408507D01*
X38779071Y-44260937D01*
X38904570Y-44135438D01*
X39052140Y-44036835D01*
X39216112Y-43968915D01*
X39365412Y-43939218D01*
X39390182Y-43934291D01*
X39567666Y-43934291D01*
X39592436Y-43939218D01*
G37*
G36*
X100606487Y-43658830D02*
G01*
X100755787Y-43688527D01*
X100919759Y-43756447D01*
X101067329Y-43855050D01*
X101192828Y-43980549D01*
X101291431Y-44128119D01*
X101359351Y-44292091D01*
X101382507Y-44408507D01*
X101393975Y-44466161D01*
X101393975Y-44643645D01*
X101393545Y-44645805D01*
X101359351Y-44817715D01*
X101291431Y-44981687D01*
X101192828Y-45129257D01*
X101067329Y-45254756D01*
X100919759Y-45353359D01*
X100755787Y-45421279D01*
X100606487Y-45450976D01*
X100581717Y-45455903D01*
X100404233Y-45455903D01*
X100379463Y-45450976D01*
X100230163Y-45421279D01*
X100066191Y-45353359D01*
X99918621Y-45254756D01*
X99793122Y-45129257D01*
X99694519Y-44981687D01*
X99626599Y-44817715D01*
X99592405Y-44645805D01*
X99591975Y-44643645D01*
X99591975Y-44466161D01*
X99603443Y-44408507D01*
X99626599Y-44292091D01*
X99694519Y-44128119D01*
X99793122Y-43980549D01*
X99918621Y-43855050D01*
X100066191Y-43756447D01*
X100230163Y-43688527D01*
X100379463Y-43658830D01*
X100404233Y-43653903D01*
X100581717Y-43653903D01*
X100606487Y-43658830D01*
G37*
G36*
X42939023Y-43133087D02*
G01*
X43010774Y-43157968D01*
X43081618Y-43199491D01*
X43901731Y-43795338D01*
X43963115Y-43849885D01*
X44008949Y-43910433D01*
X44042091Y-43978762D01*
X44061266Y-44052246D01*
X44065736Y-44128056D01*
X44055332Y-44203282D01*
X44030451Y-44275033D01*
X43988928Y-44345877D01*
X43393081Y-45165990D01*
X43338534Y-45227374D01*
X43277986Y-45273208D01*
X43209657Y-45306350D01*
X43136173Y-45325525D01*
X43060363Y-45329995D01*
X42985137Y-45319591D01*
X42913386Y-45294710D01*
X42842542Y-45253187D01*
X42022429Y-44657340D01*
X41961045Y-44602793D01*
X41915211Y-44542245D01*
X41882069Y-44473916D01*
X41862894Y-44400432D01*
X41858424Y-44324622D01*
X41868828Y-44249396D01*
X41893709Y-44177645D01*
X41935232Y-44106801D01*
X42531079Y-43286688D01*
X42585626Y-43225304D01*
X42646174Y-43179470D01*
X42714503Y-43146328D01*
X42787987Y-43127153D01*
X42863797Y-43122683D01*
X42939023Y-43133087D01*
G37*
G36*
X97123330Y-43049879D02*
G01*
X97272630Y-43079576D01*
X97436602Y-43147496D01*
X97584172Y-43246099D01*
X97709671Y-43371598D01*
X97808274Y-43519168D01*
X97876194Y-43683140D01*
X97898511Y-43795338D01*
X97910389Y-43855051D01*
X97910818Y-43857211D01*
X97910818Y-44034693D01*
X97876194Y-44208764D01*
X97808274Y-44372736D01*
X97709671Y-44520306D01*
X97584172Y-44645805D01*
X97436602Y-44744408D01*
X97272630Y-44812328D01*
X97123330Y-44842025D01*
X97098560Y-44846952D01*
X96921076Y-44846952D01*
X96896306Y-44842025D01*
X96747006Y-44812328D01*
X96583034Y-44744408D01*
X96435464Y-44645805D01*
X96309965Y-44520306D01*
X96211362Y-44372736D01*
X96143442Y-44208764D01*
X96108818Y-44034693D01*
X96108818Y-43857211D01*
X96109248Y-43855051D01*
X96121125Y-43795338D01*
X96143442Y-43683140D01*
X96211362Y-43519168D01*
X96309965Y-43371598D01*
X96435464Y-43246099D01*
X96583034Y-43147496D01*
X96747006Y-43079576D01*
X96896306Y-43049879D01*
X96921076Y-43044952D01*
X97098560Y-43044952D01*
X97123330Y-43049879D01*
G37*
G36*
X41085410Y-41884314D02*
G01*
X41234710Y-41914011D01*
X41398682Y-41981931D01*
X41546252Y-42080534D01*
X41671751Y-42206033D01*
X41770354Y-42353603D01*
X41838274Y-42517575D01*
X41872898Y-42691646D01*
X41872898Y-42869128D01*
X41838274Y-43043199D01*
X41770354Y-43207171D01*
X41671751Y-43354741D01*
X41546252Y-43480240D01*
X41398682Y-43578843D01*
X41234710Y-43646763D01*
X41085410Y-43676460D01*
X41060640Y-43681387D01*
X40883156Y-43681387D01*
X40858386Y-43676460D01*
X40709086Y-43646763D01*
X40545114Y-43578843D01*
X40397544Y-43480240D01*
X40272045Y-43354741D01*
X40173442Y-43207171D01*
X40105522Y-43043199D01*
X40070898Y-42869128D01*
X40070898Y-42691646D01*
X40105522Y-42517575D01*
X40173442Y-42353603D01*
X40272045Y-42206033D01*
X40397544Y-42080534D01*
X40545114Y-41981931D01*
X40709086Y-41914011D01*
X40858386Y-41884314D01*
X40883156Y-41879387D01*
X41060640Y-41879387D01*
X41085410Y-41884314D01*
G37*
G36*
X99113512Y-41603927D02*
G01*
X99262812Y-41633624D01*
X99426784Y-41701544D01*
X99574354Y-41800147D01*
X99699853Y-41925646D01*
X99798456Y-42073216D01*
X99866376Y-42237188D01*
X99901000Y-42411259D01*
X99901000Y-42588741D01*
X99866376Y-42762812D01*
X99798456Y-42926784D01*
X99699853Y-43074354D01*
X99574354Y-43199853D01*
X99426784Y-43298456D01*
X99262812Y-43366376D01*
X99113512Y-43396073D01*
X99088742Y-43401000D01*
X98911258Y-43401000D01*
X98886488Y-43396073D01*
X98737188Y-43366376D01*
X98573216Y-43298456D01*
X98425646Y-43199853D01*
X98300147Y-43074354D01*
X98201544Y-42926784D01*
X98133624Y-42762812D01*
X98099000Y-42588741D01*
X98099000Y-42411259D01*
X98133624Y-42237188D01*
X98201544Y-42073216D01*
X98300147Y-41925646D01*
X98425646Y-41800147D01*
X98573216Y-41701544D01*
X98737188Y-41633624D01*
X98886488Y-41603927D01*
X98911258Y-41599000D01*
X99088742Y-41599000D01*
X99113512Y-41603927D01*
G37*
G36*
X53873694Y-35443526D02*
G01*
X54022994Y-35473223D01*
X54186966Y-35541143D01*
X54334536Y-35639746D01*
X54460035Y-35765245D01*
X54558638Y-35912815D01*
X54626558Y-36076787D01*
X54661182Y-36250858D01*
X54661182Y-36428340D01*
X54626558Y-36602411D01*
X54558638Y-36766383D01*
X54460035Y-36913953D01*
X54334536Y-37039452D01*
X54186966Y-37138055D01*
X54022994Y-37205975D01*
X53873694Y-37235672D01*
X53848924Y-37240599D01*
X53671440Y-37240599D01*
X53646670Y-37235672D01*
X53497370Y-37205975D01*
X53333398Y-37138055D01*
X53185828Y-37039452D01*
X53060329Y-36913953D01*
X52961726Y-36766383D01*
X52893806Y-36602411D01*
X52859182Y-36428340D01*
X52859182Y-36250858D01*
X52893806Y-36076787D01*
X52961726Y-35912815D01*
X53060329Y-35765245D01*
X53185828Y-35639746D01*
X53333398Y-35541143D01*
X53497370Y-35473223D01*
X53646670Y-35443526D01*
X53671440Y-35438599D01*
X53848924Y-35438599D01*
X53873694Y-35443526D01*
G37*
G36*
X86118719Y-34948084D02*
G01*
X86198927Y-34965682D01*
X86746208Y-35143505D01*
X87109427Y-35261522D01*
X87109429Y-35261523D01*
X87163030Y-35278939D01*
X87238259Y-35311845D01*
X87300563Y-35355268D01*
X87353198Y-35410013D01*
X87394142Y-35473973D01*
X87421822Y-35544693D01*
X87435171Y-35619449D01*
X87433680Y-35695379D01*
X87416082Y-35775587D01*
X87189487Y-36472974D01*
X87144635Y-36611014D01*
X87102825Y-36739690D01*
X87069919Y-36814919D01*
X87026496Y-36877223D01*
X86971751Y-36929858D01*
X86907791Y-36970802D01*
X86837071Y-36998482D01*
X86762315Y-37011831D01*
X86686385Y-37010340D01*
X86606177Y-36992742D01*
X85827365Y-36739690D01*
X85695677Y-36696902D01*
X85695675Y-36696901D01*
X85642074Y-36679485D01*
X85566845Y-36646579D01*
X85504541Y-36603156D01*
X85451906Y-36548411D01*
X85410962Y-36484451D01*
X85383282Y-36413731D01*
X85369933Y-36338975D01*
X85371424Y-36263045D01*
X85389022Y-36182837D01*
X85619590Y-35473223D01*
X85684862Y-35272337D01*
X85684863Y-35272335D01*
X85702279Y-35218734D01*
X85735185Y-35143505D01*
X85778608Y-35081201D01*
X85833353Y-35028566D01*
X85897313Y-34987622D01*
X85968033Y-34959942D01*
X86042789Y-34946593D01*
X86118719Y-34948084D01*
G37*
G36*
X56289377Y-34658623D02*
G01*
X56438677Y-34688320D01*
X56602649Y-34756240D01*
X56750219Y-34854843D01*
X56875718Y-34980342D01*
X56974321Y-35127912D01*
X57042241Y-35291884D01*
X57076865Y-35465955D01*
X57076865Y-35643437D01*
X57042241Y-35817508D01*
X56974321Y-35981480D01*
X56875718Y-36129050D01*
X56750219Y-36254549D01*
X56602649Y-36353152D01*
X56438677Y-36421072D01*
X56289377Y-36450769D01*
X56264607Y-36455696D01*
X56087123Y-36455696D01*
X56062353Y-36450769D01*
X55913053Y-36421072D01*
X55749081Y-36353152D01*
X55601511Y-36254549D01*
X55476012Y-36129050D01*
X55377409Y-35981480D01*
X55309489Y-35817508D01*
X55274865Y-35643437D01*
X55274865Y-35465955D01*
X55309489Y-35291884D01*
X55377409Y-35127912D01*
X55476012Y-34980342D01*
X55601511Y-34854843D01*
X55749081Y-34756240D01*
X55913053Y-34688320D01*
X56062353Y-34658623D01*
X56087123Y-34653696D01*
X56264607Y-34653696D01*
X56289377Y-34658623D01*
G37*
G36*
X84100381Y-34298236D02*
G01*
X84249681Y-34327933D01*
X84413653Y-34395853D01*
X84561223Y-34494456D01*
X84686722Y-34619955D01*
X84785325Y-34767525D01*
X84853245Y-34931497D01*
X84887869Y-35105568D01*
X84887869Y-35283050D01*
X84853245Y-35457121D01*
X84785325Y-35621093D01*
X84686722Y-35768663D01*
X84561223Y-35894162D01*
X84413653Y-35992765D01*
X84249681Y-36060685D01*
X84100381Y-36090382D01*
X84075611Y-36095309D01*
X83898127Y-36095309D01*
X83873357Y-36090382D01*
X83724057Y-36060685D01*
X83560085Y-35992765D01*
X83412515Y-35894162D01*
X83287016Y-35768663D01*
X83188413Y-35621093D01*
X83120493Y-35457121D01*
X83085869Y-35283050D01*
X83085869Y-35105568D01*
X83120493Y-34931497D01*
X83188413Y-34767525D01*
X83287016Y-34619955D01*
X83412515Y-34494456D01*
X83560085Y-34395853D01*
X83724057Y-34327933D01*
X83873357Y-34298236D01*
X83898127Y-34293309D01*
X84075611Y-34293309D01*
X84100381Y-34298236D01*
G37*
G36*
X58705061Y-33873720D02*
G01*
X58854361Y-33903417D01*
X59018333Y-33971337D01*
X59165903Y-34069940D01*
X59291402Y-34195439D01*
X59390005Y-34343009D01*
X59457925Y-34506981D01*
X59487108Y-34653696D01*
X59492549Y-34681051D01*
X59492549Y-34858535D01*
X59490989Y-34866376D01*
X59457925Y-35032605D01*
X59390005Y-35196577D01*
X59291402Y-35344147D01*
X59165903Y-35469646D01*
X59018333Y-35568249D01*
X58854361Y-35636169D01*
X58705061Y-35665866D01*
X58680291Y-35670793D01*
X58502807Y-35670793D01*
X58478037Y-35665866D01*
X58328737Y-35636169D01*
X58164765Y-35568249D01*
X58017195Y-35469646D01*
X57891696Y-35344147D01*
X57793093Y-35196577D01*
X57725173Y-35032605D01*
X57692109Y-34866376D01*
X57690549Y-34858535D01*
X57690549Y-34681051D01*
X57695990Y-34653696D01*
X57725173Y-34506981D01*
X57793093Y-34343009D01*
X57891696Y-34195439D01*
X58017195Y-34069940D01*
X58164765Y-33971337D01*
X58328737Y-33903417D01*
X58478037Y-33873720D01*
X58502807Y-33868793D01*
X58680291Y-33868793D01*
X58705061Y-33873720D01*
G37*
G36*
X81684697Y-33513332D02*
G01*
X81833997Y-33543029D01*
X81997969Y-33610949D01*
X82145539Y-33709552D01*
X82271038Y-33835051D01*
X82369641Y-33982621D01*
X82437561Y-34146593D01*
X82460678Y-34262812D01*
X82472185Y-34320663D01*
X82472185Y-34498147D01*
X82467258Y-34522917D01*
X82437561Y-34672217D01*
X82369641Y-34836189D01*
X82271038Y-34983759D01*
X82145539Y-35109258D01*
X81997969Y-35207861D01*
X81833997Y-35275781D01*
X81684697Y-35305478D01*
X81659927Y-35310405D01*
X81482443Y-35310405D01*
X81457673Y-35305478D01*
X81308373Y-35275781D01*
X81144401Y-35207861D01*
X80996831Y-35109258D01*
X80871332Y-34983759D01*
X80772729Y-34836189D01*
X80704809Y-34672217D01*
X80675112Y-34522917D01*
X80670185Y-34498147D01*
X80670185Y-34320663D01*
X80681692Y-34262812D01*
X80704809Y-34146593D01*
X80772729Y-33982621D01*
X80871332Y-33835051D01*
X80996831Y-33709552D01*
X81144401Y-33610949D01*
X81308373Y-33543029D01*
X81457673Y-33513332D01*
X81482443Y-33508405D01*
X81659927Y-33508405D01*
X81684697Y-33513332D01*
G37*
G36*
X53105885Y-33102410D02*
G01*
X53262812Y-33133624D01*
X53426784Y-33201544D01*
X53574354Y-33300147D01*
X53699853Y-33425646D01*
X53798456Y-33573216D01*
X53866376Y-33737188D01*
X53892267Y-33867353D01*
X53899441Y-33903418D01*
X53901000Y-33911259D01*
X53901000Y-34088741D01*
X53866376Y-34262812D01*
X53798456Y-34426784D01*
X53699853Y-34574354D01*
X53574354Y-34699853D01*
X53426784Y-34798456D01*
X53262812Y-34866376D01*
X53113512Y-34896073D01*
X53088742Y-34901000D01*
X52911258Y-34901000D01*
X52886488Y-34896073D01*
X52737188Y-34866376D01*
X52573216Y-34798456D01*
X52425646Y-34699853D01*
X52300147Y-34574354D01*
X52201544Y-34426784D01*
X52133624Y-34262812D01*
X52099000Y-34088741D01*
X52099000Y-33911259D01*
X52100560Y-33903418D01*
X52107733Y-33867353D01*
X52133624Y-33737188D01*
X52201544Y-33573216D01*
X52300147Y-33425646D01*
X52425646Y-33300147D01*
X52573216Y-33201544D01*
X52737188Y-33133624D01*
X52894115Y-33102410D01*
X52911258Y-33099000D01*
X53088742Y-33099000D01*
X53105885Y-33102410D01*
G37*
G36*
X61120744Y-33088817D02*
G01*
X61270044Y-33118514D01*
X61434016Y-33186434D01*
X61581586Y-33285037D01*
X61707085Y-33410536D01*
X61805688Y-33558106D01*
X61873608Y-33722078D01*
X61893867Y-33823930D01*
X61908232Y-33896148D01*
X61908232Y-34073632D01*
X61906672Y-34081473D01*
X61873608Y-34247702D01*
X61805688Y-34411674D01*
X61707085Y-34559244D01*
X61581586Y-34684743D01*
X61434016Y-34783346D01*
X61270044Y-34851266D01*
X61120744Y-34880963D01*
X61095974Y-34885890D01*
X60918490Y-34885890D01*
X60893720Y-34880963D01*
X60744420Y-34851266D01*
X60580448Y-34783346D01*
X60432878Y-34684743D01*
X60307379Y-34559244D01*
X60208776Y-34411674D01*
X60140856Y-34247702D01*
X60107792Y-34081473D01*
X60106232Y-34073632D01*
X60106232Y-33896148D01*
X60120597Y-33823930D01*
X60140856Y-33722078D01*
X60208776Y-33558106D01*
X60307379Y-33410536D01*
X60432878Y-33285037D01*
X60580448Y-33186434D01*
X60744420Y-33118514D01*
X60893720Y-33088817D01*
X60918490Y-33083890D01*
X61095974Y-33083890D01*
X61120744Y-33088817D01*
G37*
G36*
X87276246Y-32743540D02*
G01*
X87425546Y-32773237D01*
X87589518Y-32841157D01*
X87737088Y-32939760D01*
X87862587Y-33065259D01*
X87961190Y-33212829D01*
X88029110Y-33376801D01*
X88055287Y-33508405D01*
X88061463Y-33539452D01*
X88063734Y-33550872D01*
X88063734Y-33728354D01*
X88029110Y-33902425D01*
X87961190Y-34066397D01*
X87862587Y-34213967D01*
X87737088Y-34339466D01*
X87589518Y-34438069D01*
X87425546Y-34505989D01*
X87276246Y-34535686D01*
X87251476Y-34540613D01*
X87073992Y-34540613D01*
X87049222Y-34535686D01*
X86899922Y-34505989D01*
X86735950Y-34438069D01*
X86588380Y-34339466D01*
X86462881Y-34213967D01*
X86364278Y-34066397D01*
X86296358Y-33902425D01*
X86261734Y-33728354D01*
X86261734Y-33550872D01*
X86264006Y-33539452D01*
X86270181Y-33508405D01*
X86296358Y-33376801D01*
X86364278Y-33212829D01*
X86462881Y-33065259D01*
X86588380Y-32939760D01*
X86735950Y-32841157D01*
X86899922Y-32773237D01*
X87049222Y-32743540D01*
X87073992Y-32738613D01*
X87251476Y-32738613D01*
X87276246Y-32743540D01*
G37*
G36*
X79269014Y-32728429D02*
G01*
X79418314Y-32758126D01*
X79582286Y-32826046D01*
X79729856Y-32924649D01*
X79855355Y-33050148D01*
X79953958Y-33197718D01*
X80021878Y-33361690D01*
X80044995Y-33477909D01*
X80056502Y-33535760D01*
X80056502Y-33713244D01*
X80053496Y-33728354D01*
X80021878Y-33887314D01*
X79953958Y-34051286D01*
X79855355Y-34198856D01*
X79729856Y-34324355D01*
X79582286Y-34422958D01*
X79418314Y-34490878D01*
X79269014Y-34520575D01*
X79244244Y-34525502D01*
X79066760Y-34525502D01*
X79041990Y-34520575D01*
X78892690Y-34490878D01*
X78728718Y-34422958D01*
X78581148Y-34324355D01*
X78455649Y-34198856D01*
X78357046Y-34051286D01*
X78289126Y-33887314D01*
X78257508Y-33728354D01*
X78254502Y-33713244D01*
X78254502Y-33535760D01*
X78266009Y-33477909D01*
X78289126Y-33361690D01*
X78357046Y-33197718D01*
X78455649Y-33050148D01*
X78581148Y-32924649D01*
X78728718Y-32826046D01*
X78892690Y-32758126D01*
X79041990Y-32728429D01*
X79066760Y-32723502D01*
X79244244Y-32723502D01*
X79269014Y-32728429D01*
G37*
G36*
X63857435Y-32180716D02*
G01*
X63928155Y-32208396D01*
X63992115Y-32249340D01*
X64046860Y-32301975D01*
X64090283Y-32364279D01*
X64123189Y-32439508D01*
X64140605Y-32493109D01*
X64140606Y-32493111D01*
X64167552Y-32576042D01*
X64436446Y-33403611D01*
X64454044Y-33483819D01*
X64455535Y-33559749D01*
X64442186Y-33634505D01*
X64414506Y-33705225D01*
X64373562Y-33769185D01*
X64320927Y-33823930D01*
X64258623Y-33867353D01*
X64183394Y-33900259D01*
X64129793Y-33917675D01*
X64129791Y-33917676D01*
X63998103Y-33960464D01*
X63219291Y-34213516D01*
X63139083Y-34231114D01*
X63063153Y-34232605D01*
X62988397Y-34219256D01*
X62917677Y-34191576D01*
X62853717Y-34150632D01*
X62798972Y-34097997D01*
X62755549Y-34035693D01*
X62722643Y-33960464D01*
X62704108Y-33903418D01*
X62596818Y-33573216D01*
X62409386Y-32996361D01*
X62391788Y-32916153D01*
X62390297Y-32840223D01*
X62403646Y-32765467D01*
X62431326Y-32694747D01*
X62472270Y-32630787D01*
X62524905Y-32576042D01*
X62587209Y-32532619D01*
X62662438Y-32499713D01*
X62716039Y-32482297D01*
X62716041Y-32482296D01*
X63079260Y-32364279D01*
X63626541Y-32186456D01*
X63706749Y-32168858D01*
X63782679Y-32167367D01*
X63857435Y-32180716D01*
G37*
G36*
X55529196Y-32319024D02*
G01*
X55678496Y-32348721D01*
X55842468Y-32416641D01*
X55990038Y-32515244D01*
X56115537Y-32640743D01*
X56214140Y-32788313D01*
X56282060Y-32952285D01*
X56308237Y-33083890D01*
X56315125Y-33118515D01*
X56316684Y-33126356D01*
X56316684Y-33303838D01*
X56282060Y-33477909D01*
X56214140Y-33641881D01*
X56115537Y-33789451D01*
X55990038Y-33914950D01*
X55842468Y-34013553D01*
X55678496Y-34081473D01*
X55529196Y-34111170D01*
X55504426Y-34116097D01*
X55326942Y-34116097D01*
X55302172Y-34111170D01*
X55152872Y-34081473D01*
X54988900Y-34013553D01*
X54841330Y-33914950D01*
X54715831Y-33789451D01*
X54617228Y-33641881D01*
X54549308Y-33477909D01*
X54514684Y-33303838D01*
X54514684Y-33126356D01*
X54516244Y-33118515D01*
X54523131Y-33083890D01*
X54549308Y-32952285D01*
X54617228Y-32788313D01*
X54715831Y-32640743D01*
X54841330Y-32515244D01*
X54988900Y-32416641D01*
X55152872Y-32348721D01*
X55302172Y-32319024D01*
X55326942Y-32314097D01*
X55504426Y-32314097D01*
X55529196Y-32319024D01*
G37*
G36*
X84860563Y-31958636D02*
G01*
X85009863Y-31988333D01*
X85173835Y-32056253D01*
X85321405Y-32154856D01*
X85446904Y-32280355D01*
X85545507Y-32427925D01*
X85613427Y-32591897D01*
X85636167Y-32706224D01*
X85648051Y-32765967D01*
X85648051Y-32943451D01*
X85644024Y-32963697D01*
X85613427Y-33117521D01*
X85545507Y-33281493D01*
X85446904Y-33429063D01*
X85321405Y-33554562D01*
X85173835Y-33653165D01*
X85009863Y-33721085D01*
X84860563Y-33750782D01*
X84835793Y-33755709D01*
X84658309Y-33755709D01*
X84633539Y-33750782D01*
X84484239Y-33721085D01*
X84320267Y-33653165D01*
X84172697Y-33554562D01*
X84047198Y-33429063D01*
X83948595Y-33281493D01*
X83880675Y-33117521D01*
X83850078Y-32963697D01*
X83846051Y-32943451D01*
X83846051Y-32765967D01*
X83857935Y-32706224D01*
X83880675Y-32591897D01*
X83948595Y-32427925D01*
X84047198Y-32280355D01*
X84172697Y-32154856D01*
X84320267Y-32056253D01*
X84484239Y-31988333D01*
X84633539Y-31958636D01*
X84658309Y-31953709D01*
X84835793Y-31953709D01*
X84860563Y-31958636D01*
G37*
G36*
X76853330Y-31943526D02*
G01*
X77002630Y-31973223D01*
X77166602Y-32041143D01*
X77314172Y-32139746D01*
X77439671Y-32265245D01*
X77538274Y-32412815D01*
X77606194Y-32576787D01*
X77629311Y-32693006D01*
X77640818Y-32750857D01*
X77640818Y-32928341D01*
X77638546Y-32939761D01*
X77606194Y-33102411D01*
X77538274Y-33266383D01*
X77439671Y-33413953D01*
X77314172Y-33539452D01*
X77166602Y-33638055D01*
X77002630Y-33705975D01*
X76853330Y-33735672D01*
X76828560Y-33740599D01*
X76651076Y-33740599D01*
X76626306Y-33735672D01*
X76477006Y-33705975D01*
X76313034Y-33638055D01*
X76165464Y-33539452D01*
X76039965Y-33413953D01*
X75941362Y-33266383D01*
X75873442Y-33102411D01*
X75841090Y-32939761D01*
X75838818Y-32928341D01*
X75838818Y-32750857D01*
X75850325Y-32693006D01*
X75873442Y-32576787D01*
X75941362Y-32412815D01*
X76039965Y-32265245D01*
X76165464Y-32139746D01*
X76313034Y-32041143D01*
X76477006Y-31973223D01*
X76626306Y-31943526D01*
X76651076Y-31938599D01*
X76828560Y-31938599D01*
X76853330Y-31943526D01*
G37*
G36*
X57944879Y-31534121D02*
G01*
X58094179Y-31563818D01*
X58258151Y-31631738D01*
X58405721Y-31730341D01*
X58531220Y-31855840D01*
X58629823Y-32003410D01*
X58697743Y-32167382D01*
X58726926Y-32314097D01*
X58730610Y-32332617D01*
X58732367Y-32341453D01*
X58732367Y-32518935D01*
X58697743Y-32693006D01*
X58629823Y-32856978D01*
X58531220Y-33004548D01*
X58405721Y-33130047D01*
X58258151Y-33228650D01*
X58094179Y-33296570D01*
X57944879Y-33326267D01*
X57920109Y-33331194D01*
X57742625Y-33331194D01*
X57717855Y-33326267D01*
X57568555Y-33296570D01*
X57404583Y-33228650D01*
X57257013Y-33130047D01*
X57131514Y-33004548D01*
X57032911Y-32856978D01*
X56964991Y-32693006D01*
X56930367Y-32518935D01*
X56930367Y-32341453D01*
X56932125Y-32332617D01*
X56935808Y-32314097D01*
X56964991Y-32167382D01*
X57032911Y-32003410D01*
X57131514Y-31855840D01*
X57257013Y-31730341D01*
X57404583Y-31631738D01*
X57568555Y-31563818D01*
X57717855Y-31534121D01*
X57742625Y-31529194D01*
X57920109Y-31529194D01*
X57944879Y-31534121D01*
G37*
G36*
X82444879Y-31173733D02*
G01*
X82594179Y-31203430D01*
X82758151Y-31271350D01*
X82905721Y-31369953D01*
X83031220Y-31495452D01*
X83129823Y-31643022D01*
X83197743Y-31806994D01*
X83208138Y-31859256D01*
X83232367Y-31981064D01*
X83232367Y-32158548D01*
X83230316Y-32168858D01*
X83197743Y-32332618D01*
X83129823Y-32496590D01*
X83031220Y-32644160D01*
X82905721Y-32769659D01*
X82758151Y-32868262D01*
X82594179Y-32936182D01*
X82455848Y-32963697D01*
X82420109Y-32970806D01*
X82242625Y-32970806D01*
X82206886Y-32963697D01*
X82068555Y-32936182D01*
X81904583Y-32868262D01*
X81757013Y-32769659D01*
X81631514Y-32644160D01*
X81532911Y-32496590D01*
X81464991Y-32332618D01*
X81432418Y-32168858D01*
X81430367Y-32158548D01*
X81430367Y-31981064D01*
X81454596Y-31859256D01*
X81464991Y-31806994D01*
X81532911Y-31643022D01*
X81631514Y-31495452D01*
X81757013Y-31369953D01*
X81904583Y-31271350D01*
X82068555Y-31203430D01*
X82217855Y-31173733D01*
X82242625Y-31168806D01*
X82420109Y-31168806D01*
X82444879Y-31173733D01*
G37*
G36*
X60360563Y-30749218D02*
G01*
X60509863Y-30778915D01*
X60673835Y-30846835D01*
X60821405Y-30945438D01*
X60946904Y-31070937D01*
X61045507Y-31218507D01*
X61113427Y-31382479D01*
X61123822Y-31434741D01*
X61146294Y-31547714D01*
X61148051Y-31556550D01*
X61148051Y-31734032D01*
X61113427Y-31908103D01*
X61045507Y-32072075D01*
X60946904Y-32219645D01*
X60821405Y-32345144D01*
X60673835Y-32443747D01*
X60509863Y-32511667D01*
X60360563Y-32541364D01*
X60335793Y-32546291D01*
X60158309Y-32546291D01*
X60133539Y-32541364D01*
X59984239Y-32511667D01*
X59820267Y-32443747D01*
X59672697Y-32345144D01*
X59547198Y-32219645D01*
X59448595Y-32072075D01*
X59380675Y-31908103D01*
X59346051Y-31734032D01*
X59346051Y-31556550D01*
X59347809Y-31547714D01*
X59370280Y-31434741D01*
X59380675Y-31382479D01*
X59448595Y-31218507D01*
X59547198Y-31070937D01*
X59672697Y-30945438D01*
X59820267Y-30846835D01*
X59984239Y-30778915D01*
X60133539Y-30749218D01*
X60158309Y-30744291D01*
X60335793Y-30744291D01*
X60360563Y-30749218D01*
G37*
G36*
X80029196Y-30388830D02*
G01*
X80178496Y-30418527D01*
X80342468Y-30486447D01*
X80490038Y-30585050D01*
X80615537Y-30710549D01*
X80714140Y-30858119D01*
X80782060Y-31022091D01*
X80792455Y-31074353D01*
X80816684Y-31196161D01*
X80816684Y-31373645D01*
X80811757Y-31398415D01*
X80782060Y-31547715D01*
X80714140Y-31711687D01*
X80615537Y-31859257D01*
X80490038Y-31984756D01*
X80342468Y-32083359D01*
X80178496Y-32151279D01*
X80030502Y-32180716D01*
X80004426Y-32185903D01*
X79826942Y-32185903D01*
X79800866Y-32180716D01*
X79652872Y-32151279D01*
X79488900Y-32083359D01*
X79341330Y-31984756D01*
X79215831Y-31859257D01*
X79117228Y-31711687D01*
X79049308Y-31547715D01*
X79019611Y-31398415D01*
X79014684Y-31373645D01*
X79014684Y-31196161D01*
X79038913Y-31074353D01*
X79049308Y-31022091D01*
X79117228Y-30858119D01*
X79215831Y-30710549D01*
X79341330Y-30585050D01*
X79488900Y-30486447D01*
X79652872Y-30418527D01*
X79802172Y-30388830D01*
X79826942Y-30383903D01*
X80004426Y-30383903D01*
X80029196Y-30388830D01*
G37*
G36*
X62776246Y-29964314D02*
G01*
X62925546Y-29994011D01*
X63089518Y-30061931D01*
X63237088Y-30160534D01*
X63362587Y-30286033D01*
X63461190Y-30433603D01*
X63529110Y-30597575D01*
X63563734Y-30771646D01*
X63563734Y-30949128D01*
X63529110Y-31123199D01*
X63461190Y-31287171D01*
X63362587Y-31434741D01*
X63237088Y-31560240D01*
X63089518Y-31658843D01*
X62925546Y-31726763D01*
X62776246Y-31756460D01*
X62751476Y-31761387D01*
X62573992Y-31761387D01*
X62549222Y-31756460D01*
X62399922Y-31726763D01*
X62235950Y-31658843D01*
X62088380Y-31560240D01*
X61962881Y-31434741D01*
X61864278Y-31287171D01*
X61796358Y-31123199D01*
X61761734Y-30949128D01*
X61761734Y-30771646D01*
X61796358Y-30597575D01*
X61864278Y-30433603D01*
X61962881Y-30286033D01*
X62088380Y-30160534D01*
X62235950Y-30061931D01*
X62399922Y-29994011D01*
X62549222Y-29964314D01*
X62573992Y-29959387D01*
X62751476Y-29959387D01*
X62776246Y-29964314D01*
G37*
G36*
X77613512Y-29603927D02*
G01*
X77762812Y-29633624D01*
X77926784Y-29701544D01*
X78074354Y-29800147D01*
X78199853Y-29925646D01*
X78298456Y-30073216D01*
X78366376Y-30237188D01*
X78401000Y-30411259D01*
X78401000Y-30588741D01*
X78366376Y-30762812D01*
X78298456Y-30926784D01*
X78199853Y-31074354D01*
X78074354Y-31199853D01*
X77926784Y-31298456D01*
X77762812Y-31366376D01*
X77613512Y-31396073D01*
X77588742Y-31401000D01*
X77411258Y-31401000D01*
X77386488Y-31396073D01*
X77237188Y-31366376D01*
X77073216Y-31298456D01*
X76925646Y-31199853D01*
X76800147Y-31074354D01*
X76701544Y-30926784D01*
X76633624Y-30762812D01*
X76599000Y-30588741D01*
X76599000Y-30411259D01*
X76633624Y-30237188D01*
X76701544Y-30073216D01*
X76800147Y-29925646D01*
X76925646Y-29800147D01*
X77073216Y-29701544D01*
X77237188Y-29633624D01*
X77386488Y-29603927D01*
X77411258Y-29599000D01*
X77588742Y-29599000D01*
X77613512Y-29603927D01*
G37*
M02*
