G04 #@! TF.GenerationSoftware,KiCad,Pcbnew,5.1.6*
G04 #@! TF.CreationDate,2020-09-11T13:28:42+02:00*
G04 #@! TF.ProjectId,enigma-ToF,656e6967-6d61-42d5-946f-462e6b696361,rev?*
G04 #@! TF.SameCoordinates,Original*
G04 #@! TF.FileFunction,Legend,Bot*
G04 #@! TF.FilePolarity,Positive*
%FSLAX46Y46*%
G04 Gerber Fmt 4.6, Leading zero omitted, Abs format (unit mm)*
G04 Created by KiCad (PCBNEW 5.1.6) date 2020-09-11 13:28:42*
%MOMM*%
%LPD*%
G01*
G04 APERTURE LIST*
%ADD10C,0.300000*%
%ADD11C,0.010000*%
G04 APERTURE END LIST*
D10*
X99451868Y-60570997D02*
X98951868Y-60570997D01*
X98737582Y-61356711D02*
X99451868Y-61356711D01*
X99451868Y-59856711D01*
X98737582Y-59856711D01*
X98094725Y-61356711D02*
X98094725Y-59856711D01*
X97237582Y-61356711D01*
X97237582Y-59856711D01*
X96523297Y-61356711D02*
X96523297Y-59856711D01*
X95166154Y-60356711D02*
X95166154Y-61570997D01*
X95237582Y-61713854D01*
X95309011Y-61785282D01*
X95451868Y-61856711D01*
X95666154Y-61856711D01*
X95809011Y-61785282D01*
X95166154Y-61285282D02*
X95309011Y-61356711D01*
X95594725Y-61356711D01*
X95737582Y-61285282D01*
X95809011Y-61213854D01*
X95880440Y-61070997D01*
X95880440Y-60642425D01*
X95809011Y-60499568D01*
X95737582Y-60428140D01*
X95594725Y-60356711D01*
X95309011Y-60356711D01*
X95166154Y-60428140D01*
X94451868Y-61356711D02*
X94451868Y-60356711D01*
X94451868Y-60499568D02*
X94380440Y-60428140D01*
X94237582Y-60356711D01*
X94023297Y-60356711D01*
X93880440Y-60428140D01*
X93809011Y-60570997D01*
X93809011Y-61356711D01*
X93809011Y-60570997D02*
X93737582Y-60428140D01*
X93594725Y-60356711D01*
X93380440Y-60356711D01*
X93237582Y-60428140D01*
X93166154Y-60570997D01*
X93166154Y-61356711D01*
X91809011Y-61356711D02*
X91809011Y-60570997D01*
X91880440Y-60428140D01*
X92023297Y-60356711D01*
X92309011Y-60356711D01*
X92451868Y-60428140D01*
X91809011Y-61285282D02*
X91951868Y-61356711D01*
X92309011Y-61356711D01*
X92451868Y-61285282D01*
X92523297Y-61142425D01*
X92523297Y-60999568D01*
X92451868Y-60856711D01*
X92309011Y-60785282D01*
X91951868Y-60785282D01*
X91809011Y-60713854D01*
X91094725Y-60785282D02*
X89951868Y-60785282D01*
X89451868Y-59856711D02*
X88594725Y-59856711D01*
X89023297Y-61356711D02*
X89023297Y-59856711D01*
X87880440Y-61356711D02*
X88023297Y-61285282D01*
X88094725Y-61213854D01*
X88166154Y-61070997D01*
X88166154Y-60642425D01*
X88094725Y-60499568D01*
X88023297Y-60428140D01*
X87880440Y-60356711D01*
X87666154Y-60356711D01*
X87523297Y-60428140D01*
X87451868Y-60499568D01*
X87380440Y-60642425D01*
X87380440Y-61070997D01*
X87451868Y-61213854D01*
X87523297Y-61285282D01*
X87666154Y-61356711D01*
X87880440Y-61356711D01*
X86237582Y-60570997D02*
X86737582Y-60570997D01*
X86737582Y-61356711D02*
X86737582Y-59856711D01*
X86023297Y-59856711D01*
X84451868Y-60356711D02*
X84094725Y-61356711D01*
X83737582Y-60356711D01*
X82380440Y-61356711D02*
X83237582Y-61356711D01*
X82809011Y-61356711D02*
X82809011Y-59856711D01*
X82951868Y-60070997D01*
X83094725Y-60213854D01*
X83237582Y-60285282D01*
X81737582Y-61213854D02*
X81666154Y-61285282D01*
X81737582Y-61356711D01*
X81809011Y-61285282D01*
X81737582Y-61213854D01*
X81737582Y-61356711D01*
X80737582Y-59856711D02*
X80594725Y-59856711D01*
X80451868Y-59928140D01*
X80380440Y-59999568D01*
X80309011Y-60142425D01*
X80237582Y-60428140D01*
X80237582Y-60785282D01*
X80309011Y-61070997D01*
X80380440Y-61213854D01*
X80451868Y-61285282D01*
X80594725Y-61356711D01*
X80737582Y-61356711D01*
X80880440Y-61285282D01*
X80951868Y-61213854D01*
X81023297Y-61070997D01*
X81094725Y-60785282D01*
X81094725Y-60428140D01*
X81023297Y-60142425D01*
X80951868Y-59999568D01*
X80880440Y-59928140D01*
X80737582Y-59856711D01*
X103773297Y-63906711D02*
X103773297Y-62406711D01*
X103273297Y-63478140D01*
X102773297Y-62406711D01*
X102773297Y-63906711D01*
X101416154Y-63906711D02*
X101416154Y-63120997D01*
X101487582Y-62978140D01*
X101630440Y-62906711D01*
X101916154Y-62906711D01*
X102059011Y-62978140D01*
X101416154Y-63835282D02*
X101559011Y-63906711D01*
X101916154Y-63906711D01*
X102059011Y-63835282D01*
X102130440Y-63692425D01*
X102130440Y-63549568D01*
X102059011Y-63406711D01*
X101916154Y-63335282D01*
X101559011Y-63335282D01*
X101416154Y-63263854D01*
X100059011Y-63906711D02*
X100059011Y-62406711D01*
X100059011Y-63835282D02*
X100201868Y-63906711D01*
X100487582Y-63906711D01*
X100630440Y-63835282D01*
X100701868Y-63763854D01*
X100773297Y-63620997D01*
X100773297Y-63192425D01*
X100701868Y-63049568D01*
X100630440Y-62978140D01*
X100487582Y-62906711D01*
X100201868Y-62906711D01*
X100059011Y-62978140D01*
X98773297Y-63835282D02*
X98916154Y-63906711D01*
X99201868Y-63906711D01*
X99344725Y-63835282D01*
X99416154Y-63692425D01*
X99416154Y-63120997D01*
X99344725Y-62978140D01*
X99201868Y-62906711D01*
X98916154Y-62906711D01*
X98773297Y-62978140D01*
X98701868Y-63120997D01*
X98701868Y-63263854D01*
X99416154Y-63406711D01*
X96916154Y-63906711D02*
X96916154Y-62906711D01*
X96916154Y-62406711D02*
X96987582Y-62478140D01*
X96916154Y-62549568D01*
X96844725Y-62478140D01*
X96916154Y-62406711D01*
X96916154Y-62549568D01*
X96201868Y-62906711D02*
X96201868Y-63906711D01*
X96201868Y-63049568D02*
X96130440Y-62978140D01*
X95987582Y-62906711D01*
X95773297Y-62906711D01*
X95630440Y-62978140D01*
X95559011Y-63120997D01*
X95559011Y-63906711D01*
X93773297Y-63835282D02*
X93630440Y-63906711D01*
X93344725Y-63906711D01*
X93201868Y-63835282D01*
X93130440Y-63692425D01*
X93130440Y-63620997D01*
X93201868Y-63478140D01*
X93344725Y-63406711D01*
X93559011Y-63406711D01*
X93701868Y-63335282D01*
X93773297Y-63192425D01*
X93773297Y-63120997D01*
X93701868Y-62978140D01*
X93559011Y-62906711D01*
X93344725Y-62906711D01*
X93201868Y-62978140D01*
X91916154Y-63835282D02*
X92059011Y-63906711D01*
X92344725Y-63906711D01*
X92487582Y-63835282D01*
X92559011Y-63692425D01*
X92559011Y-63120997D01*
X92487582Y-62978140D01*
X92344725Y-62906711D01*
X92059011Y-62906711D01*
X91916154Y-62978140D01*
X91844725Y-63120997D01*
X91844725Y-63263854D01*
X92559011Y-63406711D01*
X91201868Y-62906711D02*
X91201868Y-64406711D01*
X91201868Y-62978140D02*
X91059011Y-62906711D01*
X90773297Y-62906711D01*
X90630440Y-62978140D01*
X90559011Y-63049568D01*
X90487582Y-63192425D01*
X90487582Y-63620997D01*
X90559011Y-63763854D01*
X90630440Y-63835282D01*
X90773297Y-63906711D01*
X91059011Y-63906711D01*
X91201868Y-63835282D01*
X90059011Y-62906711D02*
X89487582Y-62906711D01*
X89844725Y-62406711D02*
X89844725Y-63692425D01*
X89773297Y-63835282D01*
X89630440Y-63906711D01*
X89487582Y-63906711D01*
X88416154Y-63835282D02*
X88559011Y-63906711D01*
X88844725Y-63906711D01*
X88987582Y-63835282D01*
X89059011Y-63692425D01*
X89059011Y-63120997D01*
X88987582Y-62978140D01*
X88844725Y-62906711D01*
X88559011Y-62906711D01*
X88416154Y-62978140D01*
X88344725Y-63120997D01*
X88344725Y-63263854D01*
X89059011Y-63406711D01*
X87701868Y-63906711D02*
X87701868Y-62906711D01*
X87701868Y-63049568D02*
X87630440Y-62978140D01*
X87487582Y-62906711D01*
X87273297Y-62906711D01*
X87130440Y-62978140D01*
X87059011Y-63120997D01*
X87059011Y-63906711D01*
X87059011Y-63120997D02*
X86987582Y-62978140D01*
X86844725Y-62906711D01*
X86630440Y-62906711D01*
X86487582Y-62978140D01*
X86416154Y-63120997D01*
X86416154Y-63906711D01*
X85701868Y-63906711D02*
X85701868Y-62406711D01*
X85701868Y-62978140D02*
X85559011Y-62906711D01*
X85273297Y-62906711D01*
X85130440Y-62978140D01*
X85059011Y-63049568D01*
X84987582Y-63192425D01*
X84987582Y-63620997D01*
X85059011Y-63763854D01*
X85130440Y-63835282D01*
X85273297Y-63906711D01*
X85559011Y-63906711D01*
X85701868Y-63835282D01*
X83773297Y-63835282D02*
X83916154Y-63906711D01*
X84201868Y-63906711D01*
X84344725Y-63835282D01*
X84416154Y-63692425D01*
X84416154Y-63120997D01*
X84344725Y-62978140D01*
X84201868Y-62906711D01*
X83916154Y-62906711D01*
X83773297Y-62978140D01*
X83701868Y-63120997D01*
X83701868Y-63263854D01*
X84416154Y-63406711D01*
X83059011Y-63906711D02*
X83059011Y-62906711D01*
X83059011Y-63192425D02*
X82987582Y-63049568D01*
X82916154Y-62978140D01*
X82773297Y-62906711D01*
X82630440Y-62906711D01*
X81059011Y-62549568D02*
X80987582Y-62478140D01*
X80844725Y-62406711D01*
X80487582Y-62406711D01*
X80344725Y-62478140D01*
X80273297Y-62549568D01*
X80201868Y-62692425D01*
X80201868Y-62835282D01*
X80273297Y-63049568D01*
X81130440Y-63906711D01*
X80201868Y-63906711D01*
X79273297Y-62406711D02*
X79130440Y-62406711D01*
X78987582Y-62478140D01*
X78916154Y-62549568D01*
X78844725Y-62692425D01*
X78773297Y-62978140D01*
X78773297Y-63335282D01*
X78844725Y-63620997D01*
X78916154Y-63763854D01*
X78987582Y-63835282D01*
X79130440Y-63906711D01*
X79273297Y-63906711D01*
X79416154Y-63835282D01*
X79487582Y-63763854D01*
X79559011Y-63620997D01*
X79630440Y-63335282D01*
X79630440Y-62978140D01*
X79559011Y-62692425D01*
X79487582Y-62549568D01*
X79416154Y-62478140D01*
X79273297Y-62406711D01*
X78201868Y-62549568D02*
X78130440Y-62478140D01*
X77987582Y-62406711D01*
X77630440Y-62406711D01*
X77487582Y-62478140D01*
X77416154Y-62549568D01*
X77344725Y-62692425D01*
X77344725Y-62835282D01*
X77416154Y-63049568D01*
X78273297Y-63906711D01*
X77344725Y-63906711D01*
X76416154Y-62406711D02*
X76273297Y-62406711D01*
X76130440Y-62478140D01*
X76059011Y-62549568D01*
X75987582Y-62692425D01*
X75916154Y-62978140D01*
X75916154Y-63335282D01*
X75987582Y-63620997D01*
X76059011Y-63763854D01*
X76130440Y-63835282D01*
X76273297Y-63906711D01*
X76416154Y-63906711D01*
X76559011Y-63835282D01*
X76630440Y-63763854D01*
X76701868Y-63620997D01*
X76773297Y-63335282D01*
X76773297Y-62978140D01*
X76701868Y-62692425D01*
X76630440Y-62549568D01*
X76559011Y-62478140D01*
X76416154Y-62406711D01*
D11*
G36*
X87391108Y-94173573D02*
G01*
X87122863Y-94190930D01*
X86936805Y-94211539D01*
X86813522Y-94238982D01*
X86733604Y-94276837D01*
X86704435Y-94300233D01*
X86607989Y-94355504D01*
X86442879Y-94417500D01*
X86240429Y-94474917D01*
X86183867Y-94488072D01*
X85886404Y-94569891D01*
X85686065Y-94661973D01*
X85632765Y-94702348D01*
X85503465Y-94786963D01*
X85325539Y-94835519D01*
X85200965Y-94850493D01*
X85019699Y-94872124D01*
X84867671Y-94900080D01*
X84800440Y-94919832D01*
X84685526Y-94952928D01*
X84526165Y-94981787D01*
X84482364Y-94987347D01*
X84236908Y-95063729D01*
X84086897Y-95169043D01*
X83965458Y-95263166D01*
X83865548Y-95319291D01*
X83836896Y-95326200D01*
X83766165Y-95368524D01*
X83733211Y-95429153D01*
X83667233Y-95533331D01*
X83577388Y-95612795D01*
X83475339Y-95728918D01*
X83454240Y-95846585D01*
X83409314Y-96012700D01*
X83276440Y-96196489D01*
X83175059Y-96320600D01*
X83110678Y-96422275D01*
X83098640Y-96459476D01*
X83070311Y-96539424D01*
X82999591Y-96658289D01*
X82971640Y-96697799D01*
X82889592Y-96844161D01*
X82846532Y-96989560D01*
X82844640Y-97017487D01*
X82811029Y-97132815D01*
X82727830Y-97265367D01*
X82621497Y-97382728D01*
X82518483Y-97452485D01*
X82483668Y-97459800D01*
X82449044Y-97503160D01*
X82438240Y-97582138D01*
X82484133Y-97684037D01*
X82611468Y-97806787D01*
X82804735Y-97940868D01*
X83048422Y-98076762D01*
X83327016Y-98204950D01*
X83625007Y-98315913D01*
X83644090Y-98322113D01*
X84094439Y-98487046D01*
X84579824Y-98699275D01*
X85058480Y-98939587D01*
X85371940Y-99117078D01*
X85571008Y-99253329D01*
X85673445Y-99367075D01*
X85680944Y-99461410D01*
X85600964Y-99536265D01*
X85539844Y-99584006D01*
X85537464Y-99604741D01*
X85819780Y-99825463D01*
X86066875Y-100031094D01*
X86268214Y-100211938D01*
X86413260Y-100358295D01*
X86491476Y-100460470D01*
X86502240Y-100492709D01*
X86482122Y-100539322D01*
X86416657Y-100553215D01*
X86298175Y-100531933D01*
X86119011Y-100473021D01*
X85871497Y-100374024D01*
X85547964Y-100232486D01*
X85215835Y-100080770D01*
X84717750Y-99854364D01*
X84289884Y-99671726D01*
X83912890Y-99528660D01*
X83567420Y-99420972D01*
X83234126Y-99344469D01*
X82893661Y-99294954D01*
X82526676Y-99268235D01*
X82113825Y-99260116D01*
X81635759Y-99266402D01*
X81478041Y-99270434D01*
X80909691Y-99280446D01*
X80414585Y-99273935D01*
X79973806Y-99246542D01*
X79568437Y-99193904D01*
X79179562Y-99111662D01*
X78788261Y-98995455D01*
X78375619Y-98840923D01*
X77922718Y-98643704D01*
X77410640Y-98399439D01*
X77160002Y-98275082D01*
X76786264Y-98089116D01*
X76488754Y-97945654D01*
X76253228Y-97840964D01*
X76065447Y-97771311D01*
X75911168Y-97732960D01*
X75776150Y-97722179D01*
X75646151Y-97735232D01*
X75506931Y-97768386D01*
X75377040Y-97807594D01*
X75097640Y-97895181D01*
X75084315Y-99760290D01*
X75070989Y-101625400D01*
X87975440Y-101625400D01*
X87975440Y-94142257D01*
X87391108Y-94173573D01*
G37*
X87391108Y-94173573D02*
X87122863Y-94190930D01*
X86936805Y-94211539D01*
X86813522Y-94238982D01*
X86733604Y-94276837D01*
X86704435Y-94300233D01*
X86607989Y-94355504D01*
X86442879Y-94417500D01*
X86240429Y-94474917D01*
X86183867Y-94488072D01*
X85886404Y-94569891D01*
X85686065Y-94661973D01*
X85632765Y-94702348D01*
X85503465Y-94786963D01*
X85325539Y-94835519D01*
X85200965Y-94850493D01*
X85019699Y-94872124D01*
X84867671Y-94900080D01*
X84800440Y-94919832D01*
X84685526Y-94952928D01*
X84526165Y-94981787D01*
X84482364Y-94987347D01*
X84236908Y-95063729D01*
X84086897Y-95169043D01*
X83965458Y-95263166D01*
X83865548Y-95319291D01*
X83836896Y-95326200D01*
X83766165Y-95368524D01*
X83733211Y-95429153D01*
X83667233Y-95533331D01*
X83577388Y-95612795D01*
X83475339Y-95728918D01*
X83454240Y-95846585D01*
X83409314Y-96012700D01*
X83276440Y-96196489D01*
X83175059Y-96320600D01*
X83110678Y-96422275D01*
X83098640Y-96459476D01*
X83070311Y-96539424D01*
X82999591Y-96658289D01*
X82971640Y-96697799D01*
X82889592Y-96844161D01*
X82846532Y-96989560D01*
X82844640Y-97017487D01*
X82811029Y-97132815D01*
X82727830Y-97265367D01*
X82621497Y-97382728D01*
X82518483Y-97452485D01*
X82483668Y-97459800D01*
X82449044Y-97503160D01*
X82438240Y-97582138D01*
X82484133Y-97684037D01*
X82611468Y-97806787D01*
X82804735Y-97940868D01*
X83048422Y-98076762D01*
X83327016Y-98204950D01*
X83625007Y-98315913D01*
X83644090Y-98322113D01*
X84094439Y-98487046D01*
X84579824Y-98699275D01*
X85058480Y-98939587D01*
X85371940Y-99117078D01*
X85571008Y-99253329D01*
X85673445Y-99367075D01*
X85680944Y-99461410D01*
X85600964Y-99536265D01*
X85539844Y-99584006D01*
X85537464Y-99604741D01*
X85819780Y-99825463D01*
X86066875Y-100031094D01*
X86268214Y-100211938D01*
X86413260Y-100358295D01*
X86491476Y-100460470D01*
X86502240Y-100492709D01*
X86482122Y-100539322D01*
X86416657Y-100553215D01*
X86298175Y-100531933D01*
X86119011Y-100473021D01*
X85871497Y-100374024D01*
X85547964Y-100232486D01*
X85215835Y-100080770D01*
X84717750Y-99854364D01*
X84289884Y-99671726D01*
X83912890Y-99528660D01*
X83567420Y-99420972D01*
X83234126Y-99344469D01*
X82893661Y-99294954D01*
X82526676Y-99268235D01*
X82113825Y-99260116D01*
X81635759Y-99266402D01*
X81478041Y-99270434D01*
X80909691Y-99280446D01*
X80414585Y-99273935D01*
X79973806Y-99246542D01*
X79568437Y-99193904D01*
X79179562Y-99111662D01*
X78788261Y-98995455D01*
X78375619Y-98840923D01*
X77922718Y-98643704D01*
X77410640Y-98399439D01*
X77160002Y-98275082D01*
X76786264Y-98089116D01*
X76488754Y-97945654D01*
X76253228Y-97840964D01*
X76065447Y-97771311D01*
X75911168Y-97732960D01*
X75776150Y-97722179D01*
X75646151Y-97735232D01*
X75506931Y-97768386D01*
X75377040Y-97807594D01*
X75097640Y-97895181D01*
X75084315Y-99760290D01*
X75070989Y-101625400D01*
X87975440Y-101625400D01*
X87975440Y-94142257D01*
X87391108Y-94173573D01*
G36*
X72192495Y-100569343D02*
G01*
X72189853Y-100600604D01*
X72175909Y-100753990D01*
X72156026Y-100823649D01*
X72121214Y-100827407D01*
X72087375Y-100803804D01*
X72035980Y-100766515D01*
X72043361Y-100791840D01*
X72090165Y-100862003D01*
X72167311Y-101059180D01*
X72156692Y-101281704D01*
X72117131Y-101395627D01*
X72009935Y-101519113D01*
X71845560Y-101569436D01*
X71695932Y-101554214D01*
X71583017Y-101480609D01*
X71512820Y-101346699D01*
X71485652Y-101181819D01*
X71501827Y-101015305D01*
X71561658Y-100876490D01*
X71665456Y-100794710D01*
X71687771Y-100788531D01*
X71829157Y-100758663D01*
X71897240Y-100744270D01*
X71934785Y-100728287D01*
X71872868Y-100718241D01*
X71845044Y-100716892D01*
X71652137Y-100751514D01*
X71513656Y-100861226D01*
X71439344Y-101029875D01*
X71438944Y-101241304D01*
X71465511Y-101346214D01*
X71562282Y-101511610D01*
X71705335Y-101608278D01*
X71869042Y-101628579D01*
X72027773Y-101564876D01*
X72071917Y-101526923D01*
X72144077Y-101460871D01*
X72175235Y-101470385D01*
X72191999Y-101539623D01*
X72199727Y-101534291D01*
X72205859Y-101442209D01*
X72209878Y-101278224D01*
X72211266Y-101057180D01*
X72211125Y-100990400D01*
X72208993Y-100772436D01*
X72204822Y-100623093D01*
X72199145Y-100552139D01*
X72192495Y-100569343D01*
G37*
X72192495Y-100569343D02*
X72189853Y-100600604D01*
X72175909Y-100753990D01*
X72156026Y-100823649D01*
X72121214Y-100827407D01*
X72087375Y-100803804D01*
X72035980Y-100766515D01*
X72043361Y-100791840D01*
X72090165Y-100862003D01*
X72167311Y-101059180D01*
X72156692Y-101281704D01*
X72117131Y-101395627D01*
X72009935Y-101519113D01*
X71845560Y-101569436D01*
X71695932Y-101554214D01*
X71583017Y-101480609D01*
X71512820Y-101346699D01*
X71485652Y-101181819D01*
X71501827Y-101015305D01*
X71561658Y-100876490D01*
X71665456Y-100794710D01*
X71687771Y-100788531D01*
X71829157Y-100758663D01*
X71897240Y-100744270D01*
X71934785Y-100728287D01*
X71872868Y-100718241D01*
X71845044Y-100716892D01*
X71652137Y-100751514D01*
X71513656Y-100861226D01*
X71439344Y-101029875D01*
X71438944Y-101241304D01*
X71465511Y-101346214D01*
X71562282Y-101511610D01*
X71705335Y-101608278D01*
X71869042Y-101628579D01*
X72027773Y-101564876D01*
X72071917Y-101526923D01*
X72144077Y-101460871D01*
X72175235Y-101470385D01*
X72191999Y-101539623D01*
X72199727Y-101534291D01*
X72205859Y-101442209D01*
X72209878Y-101278224D01*
X72211266Y-101057180D01*
X72211125Y-100990400D01*
X72208993Y-100772436D01*
X72204822Y-100623093D01*
X72199145Y-100552139D01*
X72192495Y-100569343D01*
G36*
X71215727Y-101076950D02*
G01*
X71195309Y-101270100D01*
X71168348Y-101424452D01*
X71140094Y-101511268D01*
X71135240Y-101517541D01*
X71051117Y-101559892D01*
X70932040Y-101588479D01*
X70779640Y-101610177D01*
X70941860Y-101617788D01*
X71093487Y-101593295D01*
X71183160Y-101512496D01*
X71232123Y-101393070D01*
X71253393Y-101204550D01*
X71253827Y-101042596D01*
X71245413Y-100685600D01*
X71215727Y-101076950D01*
G37*
X71215727Y-101076950D02*
X71195309Y-101270100D01*
X71168348Y-101424452D01*
X71140094Y-101511268D01*
X71135240Y-101517541D01*
X71051117Y-101559892D01*
X70932040Y-101588479D01*
X70779640Y-101610177D01*
X70941860Y-101617788D01*
X71093487Y-101593295D01*
X71183160Y-101512496D01*
X71232123Y-101393070D01*
X71253393Y-101204550D01*
X71253827Y-101042596D01*
X71245413Y-100685600D01*
X71215727Y-101076950D01*
G36*
X70559254Y-101155500D02*
G01*
X70558226Y-101359851D01*
X70562264Y-101519287D01*
X70570551Y-101611460D01*
X70576440Y-101625400D01*
X70598522Y-101583586D01*
X70601840Y-101542979D01*
X70613034Y-101488896D01*
X70663897Y-101509908D01*
X70690740Y-101530279D01*
X70750249Y-101574037D01*
X70739950Y-101550614D01*
X70703440Y-101503524D01*
X70660178Y-101403929D01*
X70621925Y-101237281D01*
X70597354Y-101046324D01*
X70567468Y-100685600D01*
X70559254Y-101155500D01*
G37*
X70559254Y-101155500D02*
X70558226Y-101359851D01*
X70562264Y-101519287D01*
X70570551Y-101611460D01*
X70576440Y-101625400D01*
X70598522Y-101583586D01*
X70601840Y-101542979D01*
X70613034Y-101488896D01*
X70663897Y-101509908D01*
X70690740Y-101530279D01*
X70750249Y-101574037D01*
X70739950Y-101550614D01*
X70703440Y-101503524D01*
X70660178Y-101403929D01*
X70621925Y-101237281D01*
X70597354Y-101046324D01*
X70567468Y-100685600D01*
X70559254Y-101155500D01*
G36*
X69973464Y-100733523D02*
G01*
X70044690Y-100789002D01*
X70078384Y-100810366D01*
X70167906Y-100876821D01*
X70228603Y-100961221D01*
X70268894Y-101086375D01*
X70297195Y-101275087D01*
X70313569Y-101447600D01*
X70320807Y-101488189D01*
X70326869Y-101438350D01*
X70331003Y-101309253D01*
X70332383Y-101168200D01*
X70331008Y-100976343D01*
X70326006Y-100844488D01*
X70318244Y-100788181D01*
X70311881Y-100800723D01*
X70289758Y-100915846D01*
X70159549Y-100813423D01*
X70052751Y-100742133D01*
X69974394Y-100711227D01*
X69972690Y-100711189D01*
X69973464Y-100733523D01*
G37*
X69973464Y-100733523D02*
X70044690Y-100789002D01*
X70078384Y-100810366D01*
X70167906Y-100876821D01*
X70228603Y-100961221D01*
X70268894Y-101086375D01*
X70297195Y-101275087D01*
X70313569Y-101447600D01*
X70320807Y-101488189D01*
X70326869Y-101438350D01*
X70331003Y-101309253D01*
X70332383Y-101168200D01*
X70331008Y-100976343D01*
X70326006Y-100844488D01*
X70318244Y-100788181D01*
X70311881Y-100800723D01*
X70289758Y-100915846D01*
X70159549Y-100813423D01*
X70052751Y-100742133D01*
X69974394Y-100711227D01*
X69972690Y-100711189D01*
X69973464Y-100733523D01*
G36*
X69321937Y-100750509D02*
G01*
X69178607Y-100864526D01*
X69099900Y-101028500D01*
X69066826Y-101168200D01*
X69453333Y-101168200D01*
X69662303Y-101172461D01*
X69783612Y-101191391D01*
X69831050Y-101234204D01*
X69818410Y-101310117D01*
X69781436Y-101387439D01*
X69696300Y-101508202D01*
X69584222Y-101562823D01*
X69449021Y-101573822D01*
X69287580Y-101536649D01*
X69207721Y-101461696D01*
X69151489Y-101397607D01*
X69128640Y-101403023D01*
X69172980Y-101507966D01*
X69286031Y-101581286D01*
X69437845Y-101615621D01*
X69598472Y-101603605D01*
X69722915Y-101549136D01*
X69813750Y-101443845D01*
X69865216Y-101320712D01*
X69871334Y-101150386D01*
X69854238Y-101075188D01*
X69811129Y-101075188D01*
X69774850Y-101102017D01*
X69676971Y-101114309D01*
X69498177Y-101117391D01*
X69482646Y-101117400D01*
X69307803Y-101113625D01*
X69181292Y-101103694D01*
X69128870Y-101089698D01*
X69128640Y-101088660D01*
X69156179Y-101007586D01*
X69218591Y-100899110D01*
X69285569Y-100813768D01*
X69301345Y-100800677D01*
X69449257Y-100755922D01*
X69603251Y-100794193D01*
X69735297Y-100902814D01*
X69805125Y-101028500D01*
X69811129Y-101075188D01*
X69854238Y-101075188D01*
X69830831Y-100972237D01*
X69756365Y-100825928D01*
X69686712Y-100761410D01*
X69500209Y-100712085D01*
X69321937Y-100750509D01*
G37*
X69321937Y-100750509D02*
X69178607Y-100864526D01*
X69099900Y-101028500D01*
X69066826Y-101168200D01*
X69453333Y-101168200D01*
X69662303Y-101172461D01*
X69783612Y-101191391D01*
X69831050Y-101234204D01*
X69818410Y-101310117D01*
X69781436Y-101387439D01*
X69696300Y-101508202D01*
X69584222Y-101562823D01*
X69449021Y-101573822D01*
X69287580Y-101536649D01*
X69207721Y-101461696D01*
X69151489Y-101397607D01*
X69128640Y-101403023D01*
X69172980Y-101507966D01*
X69286031Y-101581286D01*
X69437845Y-101615621D01*
X69598472Y-101603605D01*
X69722915Y-101549136D01*
X69813750Y-101443845D01*
X69865216Y-101320712D01*
X69871334Y-101150386D01*
X69854238Y-101075188D01*
X69811129Y-101075188D01*
X69774850Y-101102017D01*
X69676971Y-101114309D01*
X69498177Y-101117391D01*
X69482646Y-101117400D01*
X69307803Y-101113625D01*
X69181292Y-101103694D01*
X69128870Y-101089698D01*
X69128640Y-101088660D01*
X69156179Y-101007586D01*
X69218591Y-100899110D01*
X69285569Y-100813768D01*
X69301345Y-100800677D01*
X69449257Y-100755922D01*
X69603251Y-100794193D01*
X69735297Y-100902814D01*
X69805125Y-101028500D01*
X69811129Y-101075188D01*
X69854238Y-101075188D01*
X69830831Y-100972237D01*
X69756365Y-100825928D01*
X69686712Y-100761410D01*
X69500209Y-100712085D01*
X69321937Y-100750509D01*
G36*
X68423275Y-100725396D02*
G01*
X68331736Y-100780531D01*
X68283278Y-100894319D01*
X68265959Y-101084677D01*
X68265040Y-101168199D01*
X68255939Y-101360195D01*
X68231645Y-101503837D01*
X68204080Y-101564439D01*
X68170626Y-101615377D01*
X68201556Y-101625400D01*
X68273733Y-101586297D01*
X68304432Y-101545990D01*
X68346984Y-101492752D01*
X68395326Y-101523248D01*
X68414776Y-101545990D01*
X68512497Y-101600790D01*
X68656906Y-101624002D01*
X68796703Y-101610881D01*
X68852946Y-101586522D01*
X68913029Y-101510360D01*
X68940788Y-101447600D01*
X68957043Y-101386152D01*
X68933139Y-101405284D01*
X68892787Y-101460300D01*
X68774080Y-101549296D01*
X68617673Y-101574668D01*
X68466669Y-101534378D01*
X68401557Y-101483515D01*
X68352304Y-101374617D01*
X68326358Y-101209824D01*
X68325199Y-101031726D01*
X68350309Y-100882910D01*
X68378674Y-100825300D01*
X68477254Y-100772608D01*
X68616739Y-100767489D01*
X68749282Y-100808067D01*
X68794812Y-100841628D01*
X68856146Y-100886948D01*
X68874640Y-100877188D01*
X68828620Y-100786516D01*
X68706275Y-100727216D01*
X68569840Y-100711000D01*
X68423275Y-100725396D01*
G37*
X68423275Y-100725396D02*
X68331736Y-100780531D01*
X68283278Y-100894319D01*
X68265959Y-101084677D01*
X68265040Y-101168199D01*
X68255939Y-101360195D01*
X68231645Y-101503837D01*
X68204080Y-101564439D01*
X68170626Y-101615377D01*
X68201556Y-101625400D01*
X68273733Y-101586297D01*
X68304432Y-101545990D01*
X68346984Y-101492752D01*
X68395326Y-101523248D01*
X68414776Y-101545990D01*
X68512497Y-101600790D01*
X68656906Y-101624002D01*
X68796703Y-101610881D01*
X68852946Y-101586522D01*
X68913029Y-101510360D01*
X68940788Y-101447600D01*
X68957043Y-101386152D01*
X68933139Y-101405284D01*
X68892787Y-101460300D01*
X68774080Y-101549296D01*
X68617673Y-101574668D01*
X68466669Y-101534378D01*
X68401557Y-101483515D01*
X68352304Y-101374617D01*
X68326358Y-101209824D01*
X68325199Y-101031726D01*
X68350309Y-100882910D01*
X68378674Y-100825300D01*
X68477254Y-100772608D01*
X68616739Y-100767489D01*
X68749282Y-100808067D01*
X68794812Y-100841628D01*
X68856146Y-100886948D01*
X68874640Y-100877188D01*
X68828620Y-100786516D01*
X68706275Y-100727216D01*
X68569840Y-100711000D01*
X68423275Y-100725396D01*
G36*
X67973111Y-101064330D02*
G01*
X67954656Y-101300625D01*
X67919938Y-101452550D01*
X67859998Y-101537074D01*
X67765876Y-101571165D01*
X67703649Y-101574600D01*
X67560199Y-101551229D01*
X67458184Y-101472591D01*
X67390178Y-101325895D01*
X67348754Y-101098351D01*
X67334972Y-100939600D01*
X67327814Y-100878193D01*
X67321524Y-100909531D01*
X67316878Y-101024761D01*
X67314890Y-101168200D01*
X67315699Y-101363433D01*
X67320501Y-101502025D01*
X67328433Y-101567043D01*
X67334904Y-101561660D01*
X67361235Y-101502944D01*
X67413425Y-101513476D01*
X67467315Y-101548960D01*
X67626143Y-101614271D01*
X67793892Y-101614178D01*
X67927704Y-101548993D01*
X67931212Y-101545571D01*
X67974683Y-101472940D01*
X67997351Y-101350355D01*
X68002466Y-101155902D01*
X68000947Y-101075671D01*
X67990853Y-100685600D01*
X67973111Y-101064330D01*
G37*
X67973111Y-101064330D02*
X67954656Y-101300625D01*
X67919938Y-101452550D01*
X67859998Y-101537074D01*
X67765876Y-101571165D01*
X67703649Y-101574600D01*
X67560199Y-101551229D01*
X67458184Y-101472591D01*
X67390178Y-101325895D01*
X67348754Y-101098351D01*
X67334972Y-100939600D01*
X67327814Y-100878193D01*
X67321524Y-100909531D01*
X67316878Y-101024761D01*
X67314890Y-101168200D01*
X67315699Y-101363433D01*
X67320501Y-101502025D01*
X67328433Y-101567043D01*
X67334904Y-101561660D01*
X67361235Y-101502944D01*
X67413425Y-101513476D01*
X67467315Y-101548960D01*
X67626143Y-101614271D01*
X67793892Y-101614178D01*
X67927704Y-101548993D01*
X67931212Y-101545571D01*
X67974683Y-101472940D01*
X67997351Y-101350355D01*
X68002466Y-101155902D01*
X68000947Y-101075671D01*
X67990853Y-100685600D01*
X67973111Y-101064330D01*
G36*
X65850937Y-100585469D02*
G01*
X65845886Y-100707541D01*
X65842595Y-100901558D01*
X65841930Y-100990400D01*
X65842274Y-101226489D01*
X65845665Y-101411764D01*
X65851564Y-101530608D01*
X65859432Y-101567406D01*
X65861658Y-101561900D01*
X65908416Y-101481742D01*
X65980992Y-101499811D01*
X66029840Y-101549200D01*
X66145996Y-101618164D01*
X66298392Y-101622549D01*
X66448660Y-101566740D01*
X66534153Y-101491549D01*
X66622669Y-101315461D01*
X66636066Y-101168200D01*
X66588640Y-101168200D01*
X66566233Y-101325828D01*
X66512066Y-101458028D01*
X66509560Y-101461696D01*
X66391713Y-101551084D01*
X66235560Y-101575222D01*
X66081491Y-101533119D01*
X66005387Y-101474045D01*
X65936080Y-101335269D01*
X65914386Y-101168200D01*
X65949600Y-100959514D01*
X66052272Y-100823022D01*
X66217951Y-100763907D01*
X66263433Y-100761800D01*
X66430237Y-100804594D01*
X66540323Y-100927700D01*
X66587355Y-101123198D01*
X66588640Y-101168200D01*
X66636066Y-101168200D01*
X66639882Y-101126265D01*
X66594283Y-100948212D01*
X66494360Y-100805557D01*
X66348600Y-100722553D01*
X66260974Y-100711000D01*
X66125564Y-100732813D01*
X66031323Y-100785466D01*
X66029840Y-100787200D01*
X65956693Y-100853276D01*
X65907932Y-100836545D01*
X65877635Y-100730198D01*
X65864092Y-100596700D01*
X65857191Y-100545227D01*
X65850937Y-100585469D01*
G37*
X65850937Y-100585469D02*
X65845886Y-100707541D01*
X65842595Y-100901558D01*
X65841930Y-100990400D01*
X65842274Y-101226489D01*
X65845665Y-101411764D01*
X65851564Y-101530608D01*
X65859432Y-101567406D01*
X65861658Y-101561900D01*
X65908416Y-101481742D01*
X65980992Y-101499811D01*
X66029840Y-101549200D01*
X66145996Y-101618164D01*
X66298392Y-101622549D01*
X66448660Y-101566740D01*
X66534153Y-101491549D01*
X66622669Y-101315461D01*
X66636066Y-101168200D01*
X66588640Y-101168200D01*
X66566233Y-101325828D01*
X66512066Y-101458028D01*
X66509560Y-101461696D01*
X66391713Y-101551084D01*
X66235560Y-101575222D01*
X66081491Y-101533119D01*
X66005387Y-101474045D01*
X65936080Y-101335269D01*
X65914386Y-101168200D01*
X65949600Y-100959514D01*
X66052272Y-100823022D01*
X66217951Y-100763907D01*
X66263433Y-100761800D01*
X66430237Y-100804594D01*
X66540323Y-100927700D01*
X66587355Y-101123198D01*
X66588640Y-101168200D01*
X66636066Y-101168200D01*
X66639882Y-101126265D01*
X66594283Y-100948212D01*
X66494360Y-100805557D01*
X66348600Y-100722553D01*
X66260974Y-100711000D01*
X66125564Y-100732813D01*
X66031323Y-100785466D01*
X66029840Y-100787200D01*
X65956693Y-100853276D01*
X65907932Y-100836545D01*
X65877635Y-100730198D01*
X65864092Y-100596700D01*
X65857191Y-100545227D01*
X65850937Y-100585469D01*
G36*
X65105537Y-100750509D02*
G01*
X64962207Y-100864526D01*
X64883500Y-101028500D01*
X64850426Y-101168200D01*
X65242368Y-101168200D01*
X65440396Y-101170887D01*
X65554907Y-101181621D01*
X65603905Y-101204407D01*
X65605392Y-101243251D01*
X65603476Y-101248554D01*
X65576138Y-101342972D01*
X65572640Y-101371926D01*
X65527581Y-101462862D01*
X65415180Y-101537106D01*
X65269604Y-101573647D01*
X65243049Y-101574600D01*
X65084979Y-101542427D01*
X64963510Y-101434900D01*
X64902283Y-101363565D01*
X64885656Y-101359044D01*
X64890799Y-101371400D01*
X65016854Y-101535293D01*
X65184929Y-101620058D01*
X65371540Y-101617673D01*
X65479930Y-101572663D01*
X65552371Y-101493023D01*
X65617230Y-101363757D01*
X65623570Y-101345608D01*
X65649927Y-101158056D01*
X65636333Y-101075188D01*
X65594729Y-101075188D01*
X65558450Y-101102017D01*
X65460571Y-101114309D01*
X65281777Y-101117391D01*
X65266246Y-101117400D01*
X65091403Y-101113625D01*
X64964892Y-101103694D01*
X64912470Y-101089698D01*
X64912240Y-101088660D01*
X64939779Y-101007586D01*
X65002191Y-100899110D01*
X65069169Y-100813768D01*
X65084945Y-100800677D01*
X65232857Y-100755922D01*
X65386851Y-100794193D01*
X65518897Y-100902814D01*
X65588725Y-101028500D01*
X65594729Y-101075188D01*
X65636333Y-101075188D01*
X65619276Y-100971221D01*
X65541126Y-100821342D01*
X65470312Y-100761410D01*
X65283809Y-100712085D01*
X65105537Y-100750509D01*
G37*
X65105537Y-100750509D02*
X64962207Y-100864526D01*
X64883500Y-101028500D01*
X64850426Y-101168200D01*
X65242368Y-101168200D01*
X65440396Y-101170887D01*
X65554907Y-101181621D01*
X65603905Y-101204407D01*
X65605392Y-101243251D01*
X65603476Y-101248554D01*
X65576138Y-101342972D01*
X65572640Y-101371926D01*
X65527581Y-101462862D01*
X65415180Y-101537106D01*
X65269604Y-101573647D01*
X65243049Y-101574600D01*
X65084979Y-101542427D01*
X64963510Y-101434900D01*
X64902283Y-101363565D01*
X64885656Y-101359044D01*
X64890799Y-101371400D01*
X65016854Y-101535293D01*
X65184929Y-101620058D01*
X65371540Y-101617673D01*
X65479930Y-101572663D01*
X65552371Y-101493023D01*
X65617230Y-101363757D01*
X65623570Y-101345608D01*
X65649927Y-101158056D01*
X65636333Y-101075188D01*
X65594729Y-101075188D01*
X65558450Y-101102017D01*
X65460571Y-101114309D01*
X65281777Y-101117391D01*
X65266246Y-101117400D01*
X65091403Y-101113625D01*
X64964892Y-101103694D01*
X64912470Y-101089698D01*
X64912240Y-101088660D01*
X64939779Y-101007586D01*
X65002191Y-100899110D01*
X65069169Y-100813768D01*
X65084945Y-100800677D01*
X65232857Y-100755922D01*
X65386851Y-100794193D01*
X65518897Y-100902814D01*
X65588725Y-101028500D01*
X65594729Y-101075188D01*
X65636333Y-101075188D01*
X65619276Y-100971221D01*
X65541126Y-100821342D01*
X65470312Y-100761410D01*
X65283809Y-100712085D01*
X65105537Y-100750509D01*
G36*
X64211890Y-100748201D02*
G01*
X64097603Y-100820213D01*
X64048793Y-100922693D01*
X64048640Y-100929131D01*
X64072137Y-100937079D01*
X64127721Y-100874703D01*
X64227227Y-100793921D01*
X64356621Y-100762996D01*
X64488472Y-100776031D01*
X64595345Y-100827133D01*
X64649809Y-100910408D01*
X64641875Y-100985174D01*
X64580928Y-101038134D01*
X64452959Y-101098657D01*
X64337403Y-101137892D01*
X64139351Y-101216491D01*
X64039099Y-101311253D01*
X64033489Y-101426916D01*
X64082536Y-101520513D01*
X64189417Y-101595913D01*
X64345084Y-101626523D01*
X64506184Y-101610356D01*
X64629212Y-101545571D01*
X64694118Y-101444091D01*
X64708292Y-101380471D01*
X64694105Y-101345836D01*
X64651636Y-101406610D01*
X64643624Y-101422200D01*
X64568474Y-101514875D01*
X64443539Y-101558272D01*
X64379699Y-101565602D01*
X64207995Y-101548931D01*
X64104898Y-101481263D01*
X64074553Y-101386462D01*
X64121107Y-101288393D01*
X64248705Y-101210920D01*
X64314918Y-101192742D01*
X64527389Y-101125551D01*
X64657624Y-101034108D01*
X64699497Y-100926249D01*
X64646882Y-100809806D01*
X64629212Y-100790828D01*
X64509534Y-100725924D01*
X64359813Y-100714243D01*
X64211890Y-100748201D01*
G37*
X64211890Y-100748201D02*
X64097603Y-100820213D01*
X64048793Y-100922693D01*
X64048640Y-100929131D01*
X64072137Y-100937079D01*
X64127721Y-100874703D01*
X64227227Y-100793921D01*
X64356621Y-100762996D01*
X64488472Y-100776031D01*
X64595345Y-100827133D01*
X64649809Y-100910408D01*
X64641875Y-100985174D01*
X64580928Y-101038134D01*
X64452959Y-101098657D01*
X64337403Y-101137892D01*
X64139351Y-101216491D01*
X64039099Y-101311253D01*
X64033489Y-101426916D01*
X64082536Y-101520513D01*
X64189417Y-101595913D01*
X64345084Y-101626523D01*
X64506184Y-101610356D01*
X64629212Y-101545571D01*
X64694118Y-101444091D01*
X64708292Y-101380471D01*
X64694105Y-101345836D01*
X64651636Y-101406610D01*
X64643624Y-101422200D01*
X64568474Y-101514875D01*
X64443539Y-101558272D01*
X64379699Y-101565602D01*
X64207995Y-101548931D01*
X64104898Y-101481263D01*
X64074553Y-101386462D01*
X64121107Y-101288393D01*
X64248705Y-101210920D01*
X64314918Y-101192742D01*
X64527389Y-101125551D01*
X64657624Y-101034108D01*
X64699497Y-100926249D01*
X64646882Y-100809806D01*
X64629212Y-100790828D01*
X64509534Y-100725924D01*
X64359813Y-100714243D01*
X64211890Y-100748201D01*
G36*
X63300100Y-100926900D02*
G01*
X63292343Y-101139923D01*
X63297080Y-101363821D01*
X63300100Y-101409500D01*
X63307893Y-101465741D01*
X63314141Y-101429804D01*
X63318102Y-101311111D01*
X63319127Y-101168200D01*
X63317449Y-100991849D01*
X63312908Y-100890957D01*
X63306247Y-100874941D01*
X63300100Y-100926900D01*
G37*
X63300100Y-100926900D02*
X63292343Y-101139923D01*
X63297080Y-101363821D01*
X63300100Y-101409500D01*
X63307893Y-101465741D01*
X63314141Y-101429804D01*
X63318102Y-101311111D01*
X63319127Y-101168200D01*
X63317449Y-100991849D01*
X63312908Y-100890957D01*
X63306247Y-100874941D01*
X63300100Y-100926900D01*
G36*
X62480627Y-100762429D02*
G01*
X62389825Y-100865428D01*
X62341349Y-101040938D01*
X62329500Y-101300770D01*
X62329856Y-101320600D01*
X62336774Y-101650800D01*
X62368978Y-101269800D01*
X62389604Y-101076695D01*
X62414201Y-100920007D01*
X62437851Y-100830303D01*
X62440510Y-100825300D01*
X62523832Y-100774557D01*
X62656326Y-100764052D01*
X62794995Y-100791273D01*
X62895183Y-100851844D01*
X62952397Y-100975597D01*
X62987548Y-101193262D01*
X62994706Y-101296344D01*
X63002802Y-101440165D01*
X63008497Y-101495770D01*
X63012411Y-101459577D01*
X63015159Y-101328002D01*
X63016798Y-101168200D01*
X63016260Y-100973441D01*
X63011557Y-100835789D01*
X63003542Y-100771982D01*
X62996884Y-100778334D01*
X62971741Y-100840758D01*
X62926589Y-100827088D01*
X62880529Y-100787461D01*
X62744029Y-100725250D01*
X62619451Y-100720126D01*
X62480627Y-100762429D01*
G37*
X62480627Y-100762429D02*
X62389825Y-100865428D01*
X62341349Y-101040938D01*
X62329500Y-101300770D01*
X62329856Y-101320600D01*
X62336774Y-101650800D01*
X62368978Y-101269800D01*
X62389604Y-101076695D01*
X62414201Y-100920007D01*
X62437851Y-100830303D01*
X62440510Y-100825300D01*
X62523832Y-100774557D01*
X62656326Y-100764052D01*
X62794995Y-100791273D01*
X62895183Y-100851844D01*
X62952397Y-100975597D01*
X62987548Y-101193262D01*
X62994706Y-101296344D01*
X63002802Y-101440165D01*
X63008497Y-101495770D01*
X63012411Y-101459577D01*
X63015159Y-101328002D01*
X63016798Y-101168200D01*
X63016260Y-100973441D01*
X63011557Y-100835789D01*
X63003542Y-100771982D01*
X62996884Y-100778334D01*
X62971741Y-100840758D01*
X62926589Y-100827088D01*
X62880529Y-100787461D01*
X62744029Y-100725250D01*
X62619451Y-100720126D01*
X62480627Y-100762429D01*
G36*
X61930446Y-100787244D02*
G01*
X61965840Y-100832875D01*
X62009103Y-100932470D01*
X62047356Y-101099118D01*
X62071927Y-101290075D01*
X62085753Y-101453171D01*
X62094591Y-101535177D01*
X62099697Y-101531333D01*
X62102329Y-101436882D01*
X62103745Y-101247063D01*
X62104134Y-101168200D01*
X62102884Y-100973286D01*
X62097653Y-100835337D01*
X62089363Y-100771151D01*
X62082703Y-100777197D01*
X62051852Y-100838679D01*
X61992075Y-100816064D01*
X61974296Y-100802597D01*
X61918349Y-100761949D01*
X61930446Y-100787244D01*
G37*
X61930446Y-100787244D02*
X61965840Y-100832875D01*
X62009103Y-100932470D01*
X62047356Y-101099118D01*
X62071927Y-101290075D01*
X62085753Y-101453171D01*
X62094591Y-101535177D01*
X62099697Y-101531333D01*
X62102329Y-101436882D01*
X62103745Y-101247063D01*
X62104134Y-101168200D01*
X62102884Y-100973286D01*
X62097653Y-100835337D01*
X62089363Y-100771151D01*
X62082703Y-100777197D01*
X62051852Y-100838679D01*
X61992075Y-100816064D01*
X61974296Y-100802597D01*
X61918349Y-100761949D01*
X61930446Y-100787244D01*
G36*
X61577202Y-100740963D02*
G01*
X61479428Y-100830184D01*
X61427778Y-100995089D01*
X61417638Y-101244493D01*
X61420051Y-101302706D01*
X61437941Y-101650800D01*
X61447891Y-101292209D01*
X61465523Y-101050176D01*
X61508524Y-100891054D01*
X61586133Y-100797440D01*
X61707586Y-100751934D01*
X61737240Y-100747172D01*
X61889640Y-100726222D01*
X61725712Y-100718611D01*
X61577202Y-100740963D01*
G37*
X61577202Y-100740963D02*
X61479428Y-100830184D01*
X61427778Y-100995089D01*
X61417638Y-101244493D01*
X61420051Y-101302706D01*
X61437941Y-101650800D01*
X61447891Y-101292209D01*
X61465523Y-101050176D01*
X61508524Y-100891054D01*
X61586133Y-100797440D01*
X61707586Y-100751934D01*
X61737240Y-100747172D01*
X61889640Y-100726222D01*
X61725712Y-100718611D01*
X61577202Y-100740963D01*
G36*
X60684763Y-100741547D02*
G01*
X60545126Y-100852168D01*
X60459485Y-101025808D01*
X60441840Y-101168200D01*
X60479771Y-101366213D01*
X60579603Y-101517110D01*
X60720396Y-101609615D01*
X60881209Y-101632452D01*
X61041103Y-101574346D01*
X61102240Y-101523800D01*
X61177033Y-101430274D01*
X61203840Y-101364549D01*
X61177722Y-101359850D01*
X61113391Y-101422460D01*
X61098553Y-101440749D01*
X60971250Y-101547435D01*
X60822034Y-101574600D01*
X60652489Y-101532366D01*
X60541336Y-101410113D01*
X60493981Y-101214512D01*
X60492640Y-101168200D01*
X60526885Y-100959751D01*
X60625396Y-100822181D01*
X60781837Y-100763406D01*
X60817848Y-100761800D01*
X60986749Y-100798477D01*
X61109384Y-100914704D01*
X61194931Y-101117400D01*
X61227701Y-101210913D01*
X61247821Y-101227377D01*
X61250059Y-101213880D01*
X61230433Y-101069010D01*
X61170644Y-100914077D01*
X61090449Y-100793707D01*
X61049437Y-100760727D01*
X60859249Y-100706787D01*
X60684763Y-100741547D01*
G37*
X60684763Y-100741547D02*
X60545126Y-100852168D01*
X60459485Y-101025808D01*
X60441840Y-101168200D01*
X60479771Y-101366213D01*
X60579603Y-101517110D01*
X60720396Y-101609615D01*
X60881209Y-101632452D01*
X61041103Y-101574346D01*
X61102240Y-101523800D01*
X61177033Y-101430274D01*
X61203840Y-101364549D01*
X61177722Y-101359850D01*
X61113391Y-101422460D01*
X61098553Y-101440749D01*
X60971250Y-101547435D01*
X60822034Y-101574600D01*
X60652489Y-101532366D01*
X60541336Y-101410113D01*
X60493981Y-101214512D01*
X60492640Y-101168200D01*
X60526885Y-100959751D01*
X60625396Y-100822181D01*
X60781837Y-100763406D01*
X60817848Y-100761800D01*
X60986749Y-100798477D01*
X61109384Y-100914704D01*
X61194931Y-101117400D01*
X61227701Y-101210913D01*
X61247821Y-101227377D01*
X61250059Y-101213880D01*
X61230433Y-101069010D01*
X61170644Y-100914077D01*
X61090449Y-100793707D01*
X61049437Y-100760727D01*
X60859249Y-100706787D01*
X60684763Y-100741547D01*
G36*
X59607517Y-100776085D02*
G01*
X59644296Y-100897176D01*
X59701045Y-101060250D01*
X59768049Y-101239600D01*
X59835591Y-101409518D01*
X59893957Y-101544299D01*
X59933430Y-101618236D01*
X59941460Y-101625031D01*
X59974059Y-101581507D01*
X60034335Y-101464359D01*
X60112083Y-101294236D01*
X60158360Y-101186133D01*
X60235739Y-100993390D01*
X60291772Y-100838338D01*
X60318911Y-100742750D01*
X60318816Y-100723442D01*
X60294504Y-100735946D01*
X60251869Y-100813077D01*
X60186517Y-100964422D01*
X60094054Y-101199566D01*
X60061521Y-101284857D01*
X60003581Y-101414143D01*
X59954029Y-101484692D01*
X59932872Y-101488057D01*
X59898782Y-101423836D01*
X59841307Y-101290486D01*
X59771700Y-101114393D01*
X59757320Y-101076387D01*
X59689982Y-100904573D01*
X59635623Y-100779760D01*
X59603792Y-100723476D01*
X59600424Y-100722683D01*
X59607517Y-100776085D01*
G37*
X59607517Y-100776085D02*
X59644296Y-100897176D01*
X59701045Y-101060250D01*
X59768049Y-101239600D01*
X59835591Y-101409518D01*
X59893957Y-101544299D01*
X59933430Y-101618236D01*
X59941460Y-101625031D01*
X59974059Y-101581507D01*
X60034335Y-101464359D01*
X60112083Y-101294236D01*
X60158360Y-101186133D01*
X60235739Y-100993390D01*
X60291772Y-100838338D01*
X60318911Y-100742750D01*
X60318816Y-100723442D01*
X60294504Y-100735946D01*
X60251869Y-100813077D01*
X60186517Y-100964422D01*
X60094054Y-101199566D01*
X60061521Y-101284857D01*
X60003581Y-101414143D01*
X59954029Y-101484692D01*
X59932872Y-101488057D01*
X59898782Y-101423836D01*
X59841307Y-101290486D01*
X59771700Y-101114393D01*
X59757320Y-101076387D01*
X59689982Y-100904573D01*
X59635623Y-100779760D01*
X59603792Y-100723476D01*
X59600424Y-100722683D01*
X59607517Y-100776085D01*
G36*
X59363257Y-101230064D02*
G01*
X59371755Y-101240440D01*
X59414797Y-101348334D01*
X59417040Y-101432103D01*
X59391855Y-101507507D01*
X59325074Y-101541413D01*
X59189290Y-101549200D01*
X59065372Y-101557171D01*
X59003079Y-101577221D01*
X59001788Y-101587300D01*
X59070880Y-101618486D01*
X59192339Y-101624078D01*
X59320894Y-101606577D01*
X59411275Y-101568481D01*
X59415680Y-101564440D01*
X59467022Y-101462040D01*
X59472382Y-101335721D01*
X59434543Y-101231011D01*
X59393255Y-101197872D01*
X59338489Y-101185331D01*
X59363257Y-101230064D01*
G37*
X59363257Y-101230064D02*
X59371755Y-101240440D01*
X59414797Y-101348334D01*
X59417040Y-101432103D01*
X59391855Y-101507507D01*
X59325074Y-101541413D01*
X59189290Y-101549200D01*
X59065372Y-101557171D01*
X59003079Y-101577221D01*
X59001788Y-101587300D01*
X59070880Y-101618486D01*
X59192339Y-101624078D01*
X59320894Y-101606577D01*
X59411275Y-101568481D01*
X59415680Y-101564440D01*
X59467022Y-101462040D01*
X59472382Y-101335721D01*
X59434543Y-101231011D01*
X59393255Y-101197872D01*
X59338489Y-101185331D01*
X59363257Y-101230064D01*
G36*
X58983637Y-100718228D02*
G01*
X58877201Y-100771960D01*
X58843947Y-100855271D01*
X58822248Y-101010590D01*
X58816240Y-101168200D01*
X58807139Y-101360195D01*
X58782845Y-101503837D01*
X58755280Y-101564440D01*
X58724364Y-101616621D01*
X58749845Y-101625400D01*
X58813325Y-101584504D01*
X58841902Y-101536500D01*
X58862062Y-101440821D01*
X58877999Y-101280684D01*
X58885437Y-101117400D01*
X58892440Y-100787200D01*
X59078114Y-100771721D01*
X59222486Y-100776907D01*
X59314934Y-100834078D01*
X59344814Y-100871924D01*
X59402571Y-100942784D01*
X59424287Y-100929669D01*
X59425840Y-100901890D01*
X59381346Y-100811036D01*
X59270339Y-100744818D01*
X59126532Y-100711221D01*
X58983637Y-100718228D01*
G37*
X58983637Y-100718228D02*
X58877201Y-100771960D01*
X58843947Y-100855271D01*
X58822248Y-101010590D01*
X58816240Y-101168200D01*
X58807139Y-101360195D01*
X58782845Y-101503837D01*
X58755280Y-101564440D01*
X58724364Y-101616621D01*
X58749845Y-101625400D01*
X58813325Y-101584504D01*
X58841902Y-101536500D01*
X58862062Y-101440821D01*
X58877999Y-101280684D01*
X58885437Y-101117400D01*
X58892440Y-100787200D01*
X59078114Y-100771721D01*
X59222486Y-100776907D01*
X59314934Y-100834078D01*
X59344814Y-100871924D01*
X59402571Y-100942784D01*
X59424287Y-100929669D01*
X59425840Y-100901890D01*
X59381346Y-100811036D01*
X59270339Y-100744818D01*
X59126532Y-100711221D01*
X58983637Y-100718228D01*
G36*
X58468252Y-100567766D02*
G01*
X58432412Y-100681964D01*
X58346340Y-100725948D01*
X58232040Y-100747963D01*
X58346340Y-100754881D01*
X58407057Y-100766228D01*
X58441274Y-100806266D01*
X58456414Y-100897871D01*
X58459902Y-101063921D01*
X58459863Y-101104700D01*
X58453877Y-101321176D01*
X58432469Y-101458646D01*
X58388664Y-101539352D01*
X58315491Y-101585533D01*
X58308240Y-101588372D01*
X58259054Y-101612820D01*
X58307923Y-101621241D01*
X58310780Y-101621389D01*
X58414479Y-101591494D01*
X58450480Y-101564440D01*
X58483682Y-101479895D01*
X58505090Y-101318292D01*
X58511440Y-101136364D01*
X58515313Y-100940547D01*
X58530246Y-100824306D01*
X58561215Y-100765796D01*
X58600340Y-100746017D01*
X58660008Y-100726725D01*
X58621852Y-100718224D01*
X58603715Y-100716892D01*
X58529258Y-100665331D01*
X58497026Y-100571300D01*
X58475863Y-100431600D01*
X58468252Y-100567766D01*
G37*
X58468252Y-100567766D02*
X58432412Y-100681964D01*
X58346340Y-100725948D01*
X58232040Y-100747963D01*
X58346340Y-100754881D01*
X58407057Y-100766228D01*
X58441274Y-100806266D01*
X58456414Y-100897871D01*
X58459902Y-101063921D01*
X58459863Y-101104700D01*
X58453877Y-101321176D01*
X58432469Y-101458646D01*
X58388664Y-101539352D01*
X58315491Y-101585533D01*
X58308240Y-101588372D01*
X58259054Y-101612820D01*
X58307923Y-101621241D01*
X58310780Y-101621389D01*
X58414479Y-101591494D01*
X58450480Y-101564440D01*
X58483682Y-101479895D01*
X58505090Y-101318292D01*
X58511440Y-101136364D01*
X58515313Y-100940547D01*
X58530246Y-100824306D01*
X58561215Y-100765796D01*
X58600340Y-100746017D01*
X58660008Y-100726725D01*
X58621852Y-100718224D01*
X58603715Y-100716892D01*
X58529258Y-100665331D01*
X58497026Y-100571300D01*
X58475863Y-100431600D01*
X58468252Y-100567766D01*
G36*
X58067700Y-100926900D02*
G01*
X58059943Y-101139923D01*
X58064680Y-101363821D01*
X58067700Y-101409500D01*
X58075493Y-101465741D01*
X58081741Y-101429804D01*
X58085702Y-101311111D01*
X58086727Y-101168200D01*
X58085049Y-100991849D01*
X58080508Y-100890957D01*
X58073847Y-100874941D01*
X58067700Y-100926900D01*
G37*
X58067700Y-100926900D02*
X58059943Y-101139923D01*
X58064680Y-101363821D01*
X58067700Y-101409500D01*
X58075493Y-101465741D01*
X58081741Y-101429804D01*
X58085702Y-101311111D01*
X58086727Y-101168200D01*
X58085049Y-100991849D01*
X58080508Y-100890957D01*
X58073847Y-100874941D01*
X58067700Y-100926900D01*
G36*
X57356958Y-100722802D02*
G01*
X57201636Y-100799433D01*
X57088280Y-100940203D01*
X57038837Y-101133572D01*
X57038240Y-101159040D01*
X57076838Y-101368984D01*
X57179597Y-101523845D01*
X57326965Y-101612804D01*
X57499390Y-101625048D01*
X57677323Y-101549759D01*
X57705713Y-101528288D01*
X57780629Y-101447045D01*
X57816522Y-101338340D01*
X57823963Y-101199475D01*
X57791644Y-101199475D01*
X57744037Y-101388651D01*
X57669536Y-101494847D01*
X57539347Y-101563715D01*
X57378990Y-101571658D01*
X57232856Y-101521613D01*
X57168121Y-101461696D01*
X57102333Y-101299164D01*
X57092879Y-101110502D01*
X57138118Y-100939347D01*
X57190640Y-100863400D01*
X57329078Y-100783414D01*
X57492925Y-100766801D01*
X57637981Y-100815577D01*
X57669536Y-100841552D01*
X57766810Y-101004223D01*
X57791644Y-101199475D01*
X57823963Y-101199475D01*
X57825640Y-101168200D01*
X57816256Y-100996324D01*
X57779936Y-100888208D01*
X57705713Y-100808111D01*
X57532299Y-100721848D01*
X57356958Y-100722802D01*
G37*
X57356958Y-100722802D02*
X57201636Y-100799433D01*
X57088280Y-100940203D01*
X57038837Y-101133572D01*
X57038240Y-101159040D01*
X57076838Y-101368984D01*
X57179597Y-101523845D01*
X57326965Y-101612804D01*
X57499390Y-101625048D01*
X57677323Y-101549759D01*
X57705713Y-101528288D01*
X57780629Y-101447045D01*
X57816522Y-101338340D01*
X57823963Y-101199475D01*
X57791644Y-101199475D01*
X57744037Y-101388651D01*
X57669536Y-101494847D01*
X57539347Y-101563715D01*
X57378990Y-101571658D01*
X57232856Y-101521613D01*
X57168121Y-101461696D01*
X57102333Y-101299164D01*
X57092879Y-101110502D01*
X57138118Y-100939347D01*
X57190640Y-100863400D01*
X57329078Y-100783414D01*
X57492925Y-100766801D01*
X57637981Y-100815577D01*
X57669536Y-100841552D01*
X57766810Y-101004223D01*
X57791644Y-101199475D01*
X57823963Y-101199475D01*
X57825640Y-101168200D01*
X57816256Y-100996324D01*
X57779936Y-100888208D01*
X57705713Y-100808111D01*
X57532299Y-100721848D01*
X57356958Y-100722802D01*
G36*
X56295489Y-100735804D02*
G01*
X56235600Y-100771960D01*
X56182974Y-100869665D01*
X56177861Y-100911660D01*
X56193286Y-100937774D01*
X56227024Y-100876100D01*
X56290540Y-100791790D01*
X56408937Y-100762592D01*
X56444530Y-100761800D01*
X56596427Y-100784191D01*
X56698968Y-100860786D01*
X56761475Y-101005718D01*
X56793270Y-101233121D01*
X56797106Y-101296344D01*
X56805295Y-101443469D01*
X56811129Y-101504208D01*
X56815362Y-101474610D01*
X56818747Y-101350723D01*
X56821520Y-101168200D01*
X56820749Y-100973604D01*
X56813553Y-100836242D01*
X56801243Y-100772785D01*
X56790978Y-100779425D01*
X56754869Y-100843521D01*
X56709091Y-100818103D01*
X56686728Y-100792125D01*
X56582529Y-100732436D01*
X56435100Y-100712902D01*
X56295489Y-100735804D01*
G37*
X56295489Y-100735804D02*
X56235600Y-100771960D01*
X56182974Y-100869665D01*
X56177861Y-100911660D01*
X56193286Y-100937774D01*
X56227024Y-100876100D01*
X56290540Y-100791790D01*
X56408937Y-100762592D01*
X56444530Y-100761800D01*
X56596427Y-100784191D01*
X56698968Y-100860786D01*
X56761475Y-101005718D01*
X56793270Y-101233121D01*
X56797106Y-101296344D01*
X56805295Y-101443469D01*
X56811129Y-101504208D01*
X56815362Y-101474610D01*
X56818747Y-101350723D01*
X56821520Y-101168200D01*
X56820749Y-100973604D01*
X56813553Y-100836242D01*
X56801243Y-100772785D01*
X56790978Y-100779425D01*
X56754869Y-100843521D01*
X56709091Y-100818103D01*
X56686728Y-100792125D01*
X56582529Y-100732436D01*
X56435100Y-100712902D01*
X56295489Y-100735804D01*
G36*
X56139210Y-101145563D02*
G01*
X56137892Y-101155500D01*
X56129485Y-101333631D01*
X56137892Y-101485700D01*
X56147852Y-101524041D01*
X56155139Y-101472176D01*
X56158339Y-101341494D01*
X56158381Y-101320600D01*
X56155780Y-101181036D01*
X56148918Y-101118895D01*
X56139210Y-101145563D01*
G37*
X56139210Y-101145563D02*
X56137892Y-101155500D01*
X56129485Y-101333631D01*
X56137892Y-101485700D01*
X56147852Y-101524041D01*
X56155139Y-101472176D01*
X56158339Y-101341494D01*
X56158381Y-101320600D01*
X56155780Y-101181036D01*
X56148918Y-101118895D01*
X56139210Y-101145563D01*
G36*
X55447831Y-100736675D02*
G01*
X55339103Y-100806267D01*
X55311040Y-100883269D01*
X55334712Y-100889561D01*
X55376567Y-100844006D01*
X55461755Y-100781679D01*
X55605822Y-100768362D01*
X55643267Y-100770797D01*
X55774048Y-100789701D01*
X55831642Y-100831068D01*
X55844440Y-100914200D01*
X55827363Y-100999527D01*
X55759766Y-101060050D01*
X55617099Y-101117664D01*
X55615840Y-101118088D01*
X55430511Y-101185453D01*
X55323040Y-101242810D01*
X55273077Y-101306178D01*
X55260272Y-101391576D01*
X55260240Y-101398010D01*
X55303503Y-101514896D01*
X55413878Y-101593180D01*
X55562250Y-101626856D01*
X55719500Y-101609914D01*
X55856512Y-101536347D01*
X55869840Y-101523800D01*
X55944633Y-101430274D01*
X55971440Y-101364549D01*
X55945322Y-101359850D01*
X55880991Y-101422460D01*
X55866153Y-101440749D01*
X55739629Y-101538370D01*
X55583594Y-101576690D01*
X55436171Y-101551700D01*
X55358307Y-101494141D01*
X55320713Y-101390969D01*
X55383596Y-101294607D01*
X55545990Y-101206143D01*
X55644877Y-101171211D01*
X55804708Y-101109415D01*
X55886691Y-101043379D01*
X55911840Y-100974903D01*
X55893470Y-100829418D01*
X55792298Y-100740196D01*
X55619780Y-100711000D01*
X55447831Y-100736675D01*
G37*
X55447831Y-100736675D02*
X55339103Y-100806267D01*
X55311040Y-100883269D01*
X55334712Y-100889561D01*
X55376567Y-100844006D01*
X55461755Y-100781679D01*
X55605822Y-100768362D01*
X55643267Y-100770797D01*
X55774048Y-100789701D01*
X55831642Y-100831068D01*
X55844440Y-100914200D01*
X55827363Y-100999527D01*
X55759766Y-101060050D01*
X55617099Y-101117664D01*
X55615840Y-101118088D01*
X55430511Y-101185453D01*
X55323040Y-101242810D01*
X55273077Y-101306178D01*
X55260272Y-101391576D01*
X55260240Y-101398010D01*
X55303503Y-101514896D01*
X55413878Y-101593180D01*
X55562250Y-101626856D01*
X55719500Y-101609914D01*
X55856512Y-101536347D01*
X55869840Y-101523800D01*
X55944633Y-101430274D01*
X55971440Y-101364549D01*
X55945322Y-101359850D01*
X55880991Y-101422460D01*
X55866153Y-101440749D01*
X55739629Y-101538370D01*
X55583594Y-101576690D01*
X55436171Y-101551700D01*
X55358307Y-101494141D01*
X55320713Y-101390969D01*
X55383596Y-101294607D01*
X55545990Y-101206143D01*
X55644877Y-101171211D01*
X55804708Y-101109415D01*
X55886691Y-101043379D01*
X55911840Y-100974903D01*
X55893470Y-100829418D01*
X55792298Y-100740196D01*
X55619780Y-100711000D01*
X55447831Y-100736675D01*
G36*
X52694840Y-100376080D02*
G01*
X53116523Y-100393236D01*
X53538205Y-100410392D01*
X53522923Y-100674996D01*
X53507640Y-100939600D01*
X52796440Y-100997858D01*
X53533040Y-101015800D01*
X53533040Y-101570491D01*
X52694840Y-101604719D01*
X53139340Y-101615059D01*
X53583840Y-101625400D01*
X53583840Y-100355400D01*
X52694840Y-100376080D01*
G37*
X52694840Y-100376080D02*
X53116523Y-100393236D01*
X53538205Y-100410392D01*
X53522923Y-100674996D01*
X53507640Y-100939600D01*
X52796440Y-100997858D01*
X53533040Y-101015800D01*
X53533040Y-101570491D01*
X52694840Y-101604719D01*
X53139340Y-101615059D01*
X53583840Y-101625400D01*
X53583840Y-100355400D01*
X52694840Y-100376080D01*
G36*
X52514924Y-100402465D02*
G01*
X52505807Y-100529320D01*
X52503438Y-100714180D01*
X52505881Y-100850660D01*
X52515954Y-101154956D01*
X52525717Y-101361891D01*
X52534909Y-101470724D01*
X52543269Y-101480719D01*
X52550536Y-101391135D01*
X52556451Y-101201236D01*
X52559711Y-101003100D01*
X52559961Y-100760001D01*
X52554835Y-100558507D01*
X52545213Y-100417656D01*
X52531975Y-100356486D01*
X52529740Y-100355360D01*
X52514924Y-100402465D01*
G37*
X52514924Y-100402465D02*
X52505807Y-100529320D01*
X52503438Y-100714180D01*
X52505881Y-100850660D01*
X52515954Y-101154956D01*
X52525717Y-101361891D01*
X52534909Y-101470724D01*
X52543269Y-101480719D01*
X52550536Y-101391135D01*
X52556451Y-101201236D01*
X52559711Y-101003100D01*
X52559961Y-100760001D01*
X52554835Y-100558507D01*
X52545213Y-100417656D01*
X52531975Y-100356486D01*
X52529740Y-100355360D01*
X52514924Y-100402465D01*
G36*
X51613499Y-100977700D02*
G01*
X51612620Y-101220774D01*
X51617979Y-101422249D01*
X51628616Y-101563092D01*
X51643574Y-101624270D01*
X51646128Y-101625400D01*
X51689542Y-101585927D01*
X51778129Y-101477757D01*
X51900009Y-101316260D01*
X52043300Y-101116804D01*
X52081704Y-101061908D01*
X52223646Y-100854447D01*
X52339602Y-100678294D01*
X52419531Y-100549224D01*
X52453393Y-100483014D01*
X52453353Y-100477978D01*
X52418684Y-100509277D01*
X52339110Y-100609549D01*
X52226289Y-100763371D01*
X52091880Y-100955318D01*
X52085055Y-100965270D01*
X51947717Y-101161156D01*
X51829024Y-101321947D01*
X51741448Y-101431323D01*
X51697461Y-101472967D01*
X51696982Y-101473000D01*
X51679644Y-101425583D01*
X51663016Y-101296849D01*
X51649098Y-101107072D01*
X51640563Y-100901500D01*
X51624358Y-100330000D01*
X51613499Y-100977700D01*
G37*
X51613499Y-100977700D02*
X51612620Y-101220774D01*
X51617979Y-101422249D01*
X51628616Y-101563092D01*
X51643574Y-101624270D01*
X51646128Y-101625400D01*
X51689542Y-101585927D01*
X51778129Y-101477757D01*
X51900009Y-101316260D01*
X52043300Y-101116804D01*
X52081704Y-101061908D01*
X52223646Y-100854447D01*
X52339602Y-100678294D01*
X52419531Y-100549224D01*
X52453393Y-100483014D01*
X52453353Y-100477978D01*
X52418684Y-100509277D01*
X52339110Y-100609549D01*
X52226289Y-100763371D01*
X52091880Y-100955318D01*
X52085055Y-100965270D01*
X51947717Y-101161156D01*
X51829024Y-101321947D01*
X51741448Y-101431323D01*
X51697461Y-101472967D01*
X51696982Y-101473000D01*
X51679644Y-101425583D01*
X51663016Y-101296849D01*
X51649098Y-101107072D01*
X51640563Y-100901500D01*
X51624358Y-100330000D01*
X51613499Y-100977700D01*
G36*
X51326634Y-100404307D02*
G01*
X51310268Y-100543680D01*
X51300426Y-100762497D01*
X51297840Y-100990400D01*
X51301753Y-101265484D01*
X51312903Y-101470053D01*
X51330408Y-101593084D01*
X51348640Y-101625400D01*
X51370647Y-101576492D01*
X51387013Y-101437119D01*
X51396855Y-101218302D01*
X51399440Y-100990400D01*
X51395528Y-100715315D01*
X51384378Y-100510746D01*
X51366873Y-100387715D01*
X51348640Y-100355400D01*
X51326634Y-100404307D01*
G37*
X51326634Y-100404307D02*
X51310268Y-100543680D01*
X51300426Y-100762497D01*
X51297840Y-100990400D01*
X51301753Y-101265484D01*
X51312903Y-101470053D01*
X51330408Y-101593084D01*
X51348640Y-101625400D01*
X51370647Y-101576492D01*
X51387013Y-101437119D01*
X51396855Y-101218302D01*
X51399440Y-100990400D01*
X51395528Y-100715315D01*
X51384378Y-100510746D01*
X51366873Y-100387715D01*
X51348640Y-100355400D01*
X51326634Y-100404307D01*
G36*
X50508827Y-100377028D02*
G01*
X50316091Y-100442264D01*
X50212678Y-100551638D01*
X50200103Y-100587977D01*
X50199535Y-100710598D01*
X50241781Y-100829826D01*
X50309290Y-100905274D01*
X50341846Y-100914200D01*
X50346602Y-100943284D01*
X50287994Y-101015483D01*
X50263858Y-101038774D01*
X50153254Y-101183956D01*
X50142570Y-101328943D01*
X50225527Y-101478806D01*
X50290453Y-101541808D01*
X50377661Y-101580822D01*
X50514265Y-101603612D01*
X50708127Y-101616986D01*
X51094640Y-101636504D01*
X51094640Y-100406200D01*
X50993040Y-100406200D01*
X50993040Y-101574600D01*
X50735701Y-101574600D01*
X50565473Y-101564574D01*
X50425444Y-101539127D01*
X50381265Y-101522635D01*
X50277256Y-101434837D01*
X50228594Y-101366829D01*
X50210323Y-101239256D01*
X50270255Y-101115996D01*
X50388310Y-101027102D01*
X50471231Y-101003681D01*
X50612040Y-100984601D01*
X50460674Y-100920822D01*
X50301013Y-100821809D01*
X50231954Y-100709011D01*
X50246461Y-100596741D01*
X50337499Y-100499311D01*
X50498033Y-100431035D01*
X50713640Y-100406200D01*
X50993040Y-100406200D01*
X51094640Y-100406200D01*
X51094640Y-100355400D01*
X50792231Y-100355400D01*
X50508827Y-100377028D01*
G37*
X50508827Y-100377028D02*
X50316091Y-100442264D01*
X50212678Y-100551638D01*
X50200103Y-100587977D01*
X50199535Y-100710598D01*
X50241781Y-100829826D01*
X50309290Y-100905274D01*
X50341846Y-100914200D01*
X50346602Y-100943284D01*
X50287994Y-101015483D01*
X50263858Y-101038774D01*
X50153254Y-101183956D01*
X50142570Y-101328943D01*
X50225527Y-101478806D01*
X50290453Y-101541808D01*
X50377661Y-101580822D01*
X50514265Y-101603612D01*
X50708127Y-101616986D01*
X51094640Y-101636504D01*
X51094640Y-100406200D01*
X50993040Y-100406200D01*
X50993040Y-101574600D01*
X50735701Y-101574600D01*
X50565473Y-101564574D01*
X50425444Y-101539127D01*
X50381265Y-101522635D01*
X50277256Y-101434837D01*
X50228594Y-101366829D01*
X50210323Y-101239256D01*
X50270255Y-101115996D01*
X50388310Y-101027102D01*
X50471231Y-101003681D01*
X50612040Y-100984601D01*
X50460674Y-100920822D01*
X50301013Y-100821809D01*
X50231954Y-100709011D01*
X50246461Y-100596741D01*
X50337499Y-100499311D01*
X50498033Y-100431035D01*
X50713640Y-100406200D01*
X50993040Y-100406200D01*
X51094640Y-100406200D01*
X51094640Y-100355400D01*
X50792231Y-100355400D01*
X50508827Y-100377028D01*
G36*
X68793833Y-101181274D02*
G01*
X68807521Y-101227274D01*
X68848013Y-101268781D01*
X68911888Y-101301541D01*
X68925440Y-101279018D01*
X68893699Y-101212466D01*
X68830631Y-101173331D01*
X68793833Y-101181274D01*
G37*
X68793833Y-101181274D02*
X68807521Y-101227274D01*
X68848013Y-101268781D01*
X68911888Y-101301541D01*
X68925440Y-101279018D01*
X68893699Y-101212466D01*
X68830631Y-101173331D01*
X68793833Y-101181274D01*
G36*
X68480940Y-101133182D02*
G01*
X68465130Y-101147906D01*
X68535374Y-101155922D01*
X68569840Y-101156414D01*
X68662262Y-101151117D01*
X68673154Y-101137931D01*
X68658740Y-101133182D01*
X68529900Y-101125281D01*
X68480940Y-101133182D01*
G37*
X68480940Y-101133182D02*
X68465130Y-101147906D01*
X68535374Y-101155922D01*
X68569840Y-101156414D01*
X68662262Y-101151117D01*
X68673154Y-101137931D01*
X68658740Y-101133182D01*
X68529900Y-101125281D01*
X68480940Y-101133182D01*
G36*
X59032140Y-101133182D02*
G01*
X59016330Y-101147906D01*
X59086574Y-101155922D01*
X59121040Y-101156414D01*
X59213462Y-101151117D01*
X59224354Y-101137931D01*
X59209940Y-101133182D01*
X59081100Y-101125281D01*
X59032140Y-101133182D01*
G37*
X59032140Y-101133182D02*
X59016330Y-101147906D01*
X59086574Y-101155922D01*
X59121040Y-101156414D01*
X59213462Y-101151117D01*
X59224354Y-101137931D01*
X59209940Y-101133182D01*
X59081100Y-101125281D01*
X59032140Y-101133182D01*
G36*
X54385634Y-101006486D02*
G01*
X54352106Y-101076291D01*
X54384815Y-101125894D01*
X54441301Y-101152876D01*
X54477451Y-101098303D01*
X54489086Y-101003690D01*
X54446992Y-100970963D01*
X54385634Y-101006486D01*
G37*
X54385634Y-101006486D02*
X54352106Y-101076291D01*
X54384815Y-101125894D01*
X54441301Y-101152876D01*
X54477451Y-101098303D01*
X54489086Y-101003690D01*
X54446992Y-100970963D01*
X54385634Y-101006486D01*
G36*
X63302738Y-100396675D02*
G01*
X63296682Y-100476069D01*
X63306749Y-100494041D01*
X63329838Y-100478891D01*
X63333430Y-100427366D01*
X63321024Y-100373161D01*
X63302738Y-100396675D01*
G37*
X63302738Y-100396675D02*
X63296682Y-100476069D01*
X63306749Y-100494041D01*
X63329838Y-100478891D01*
X63333430Y-100427366D01*
X63321024Y-100373161D01*
X63302738Y-100396675D01*
G36*
X58070338Y-100396675D02*
G01*
X58064282Y-100476069D01*
X58074349Y-100494041D01*
X58097438Y-100478891D01*
X58101030Y-100427366D01*
X58088624Y-100373161D01*
X58070338Y-100396675D01*
G37*
X58070338Y-100396675D02*
X58064282Y-100476069D01*
X58074349Y-100494041D01*
X58097438Y-100478891D01*
X58101030Y-100427366D01*
X58088624Y-100373161D01*
X58070338Y-100396675D01*
G36*
X79987140Y-90878382D02*
G01*
X79885556Y-90899194D01*
X79715731Y-90933018D01*
X79509182Y-90973594D01*
X79442403Y-90986607D01*
X79127719Y-91054204D01*
X78787950Y-91137921D01*
X78449878Y-91230209D01*
X78140285Y-91323519D01*
X77885954Y-91410303D01*
X77760949Y-91460529D01*
X77426552Y-91649494D01*
X77155356Y-91884956D01*
X76955773Y-92154088D01*
X76836217Y-92444066D01*
X76805103Y-92742062D01*
X76824790Y-92887569D01*
X76864633Y-92983413D01*
X76951989Y-93144606D01*
X77076266Y-93353155D01*
X77226872Y-93591063D01*
X77335937Y-93756001D01*
X77563806Y-94106293D01*
X77733219Y-94401551D01*
X77850944Y-94664638D01*
X77923753Y-94918417D01*
X77958416Y-95185750D01*
X77961703Y-95489500D01*
X77943764Y-95808490D01*
X77907787Y-96288353D01*
X77414308Y-96284873D01*
X77165523Y-96290563D01*
X76930216Y-96308873D01*
X76745294Y-96336514D01*
X76695385Y-96348937D01*
X76476174Y-96457927D01*
X76228957Y-96660660D01*
X75957061Y-96954233D01*
X75848616Y-97088170D01*
X75705995Y-97231719D01*
X75497863Y-97391667D01*
X75272613Y-97534550D01*
X75096195Y-97638961D01*
X74961288Y-97723905D01*
X74886246Y-97777543D01*
X74877237Y-97789520D01*
X74929940Y-97782579D01*
X75053325Y-97748618D01*
X75222338Y-97694645D01*
X75250040Y-97685269D01*
X75448024Y-97621001D01*
X75617587Y-97578640D01*
X75774300Y-97561491D01*
X75933735Y-97572859D01*
X76111462Y-97616046D01*
X76323054Y-97694359D01*
X76584081Y-97811101D01*
X76910115Y-97969576D01*
X77146871Y-98087801D01*
X77632830Y-98330039D01*
X78046580Y-98530073D01*
X78405316Y-98692011D01*
X78726229Y-98819963D01*
X79026512Y-98918036D01*
X79323358Y-98990341D01*
X79633960Y-99040985D01*
X79975511Y-99074078D01*
X80365203Y-99093728D01*
X80820229Y-99104045D01*
X81357782Y-99109136D01*
X81422240Y-99109551D01*
X81920782Y-99113816D01*
X82332080Y-99120682D01*
X82670488Y-99131592D01*
X82950355Y-99147988D01*
X83186033Y-99171314D01*
X83391874Y-99203010D01*
X83582228Y-99244521D01*
X83771445Y-99297288D01*
X83973879Y-99362754D01*
X83987626Y-99367412D01*
X84205010Y-99448549D01*
X84485017Y-99563797D01*
X84799826Y-99700983D01*
X85121615Y-99847934D01*
X85422561Y-99992478D01*
X85467810Y-100015014D01*
X85716044Y-100134429D01*
X85900532Y-100212665D01*
X86012774Y-100246450D01*
X86045040Y-100237203D01*
X86007402Y-100198244D01*
X85906312Y-100112888D01*
X85759513Y-99995814D01*
X85664040Y-99921938D01*
X85498580Y-99788919D01*
X85369398Y-99673103D01*
X85294533Y-99591284D01*
X85283040Y-99567154D01*
X85321415Y-99493791D01*
X85391914Y-99431902D01*
X85428163Y-99402142D01*
X85434133Y-99370870D01*
X85398775Y-99330076D01*
X85311039Y-99271751D01*
X85159876Y-99187885D01*
X84934235Y-99070468D01*
X84795014Y-98999218D01*
X84502405Y-98855945D01*
X84193609Y-98715099D01*
X83901033Y-98590836D01*
X83657082Y-98497312D01*
X83606640Y-98480113D01*
X83253883Y-98346605D01*
X82915525Y-98186538D01*
X82620265Y-98014908D01*
X82400140Y-97849725D01*
X82302724Y-97696614D01*
X82285840Y-97579947D01*
X82291530Y-97479268D01*
X82321110Y-97403592D01*
X82393347Y-97326292D01*
X82527010Y-97220742D01*
X82552540Y-97201560D01*
X82668490Y-97066430D01*
X82692240Y-96954963D01*
X82724024Y-96810473D01*
X82790860Y-96687726D01*
X82873892Y-96558039D01*
X82956232Y-96393522D01*
X82972968Y-96353696D01*
X83053544Y-96203583D01*
X83151687Y-96086040D01*
X83179148Y-96064649D01*
X83273314Y-95965346D01*
X83301803Y-95816072D01*
X83301840Y-95808520D01*
X83319949Y-95683729D01*
X83385440Y-95561268D01*
X83515061Y-95410273D01*
X83521733Y-95403292D01*
X83646482Y-95282847D01*
X83750417Y-95199744D01*
X83803996Y-95173800D01*
X83874743Y-95138978D01*
X83976028Y-95051920D01*
X84010731Y-95015743D01*
X84139324Y-94904824D01*
X84291587Y-94848336D01*
X84401567Y-94832244D01*
X84556638Y-94805132D01*
X84670114Y-94765240D01*
X84698840Y-94744134D01*
X84781849Y-94706925D01*
X84943312Y-94687504D01*
X85058145Y-94685718D01*
X85248076Y-94680877D01*
X85376457Y-94652855D01*
X85482555Y-94591067D01*
X85519471Y-94561378D01*
X85700913Y-94457578D01*
X85980057Y-94368393D01*
X86085990Y-94343888D01*
X86360982Y-94270563D01*
X86564508Y-94186174D01*
X86642806Y-94134562D01*
X86710824Y-94083914D01*
X86786774Y-94048916D01*
X86891272Y-94025950D01*
X87044936Y-94011398D01*
X87268382Y-94001642D01*
X87426312Y-93997067D01*
X87705757Y-93987242D01*
X87901977Y-93973432D01*
X88033339Y-93952976D01*
X88118210Y-93923211D01*
X88166164Y-93889837D01*
X88230086Y-93847209D01*
X88321983Y-93821164D01*
X88463874Y-93808721D01*
X88677778Y-93806895D01*
X88769052Y-93808132D01*
X89064085Y-93808141D01*
X89277809Y-93794105D01*
X89430001Y-93762176D01*
X89540440Y-93708511D01*
X89615719Y-93643496D01*
X89705338Y-93583318D01*
X89844483Y-93554079D01*
X90001293Y-93548200D01*
X90201372Y-93534930D01*
X90435795Y-93499464D01*
X90677470Y-93448315D01*
X90899304Y-93387997D01*
X91074204Y-93325025D01*
X91174975Y-93266014D01*
X91225663Y-93200140D01*
X91197151Y-93154960D01*
X91175840Y-93140740D01*
X91072332Y-93106116D01*
X90936588Y-93091777D01*
X90839509Y-93088301D01*
X90658048Y-93078997D01*
X90409194Y-93064846D01*
X90109937Y-93046828D01*
X89777265Y-93025927D01*
X89615788Y-93015490D01*
X88905353Y-92970053D01*
X88193076Y-92926206D01*
X87488728Y-92884449D01*
X86802081Y-92845287D01*
X86142906Y-92809222D01*
X85520974Y-92776755D01*
X84946057Y-92748391D01*
X84427927Y-92724631D01*
X83976355Y-92705979D01*
X83601112Y-92692936D01*
X83311970Y-92686006D01*
X83190891Y-92684983D01*
X82691778Y-92692912D01*
X82268735Y-92720078D01*
X81897115Y-92772355D01*
X81552270Y-92855620D01*
X81209553Y-92975748D01*
X80844317Y-93138614D01*
X80457040Y-93336670D01*
X80225225Y-93458453D01*
X80023984Y-93560789D01*
X79870884Y-93634999D01*
X79783492Y-93672407D01*
X79771809Y-93675200D01*
X79736138Y-93630460D01*
X79713554Y-93520475D01*
X79711870Y-93497400D01*
X79691631Y-93198057D01*
X79665911Y-92924537D01*
X79637162Y-92696948D01*
X79607834Y-92535399D01*
X79586531Y-92468909D01*
X79573417Y-92375377D01*
X79633369Y-92253985D01*
X79654523Y-92224356D01*
X79769757Y-92068494D01*
X79652659Y-91865032D01*
X79596335Y-91759725D01*
X79572712Y-91674329D01*
X79589090Y-91588491D01*
X79652769Y-91481858D01*
X79771047Y-91334076D01*
X79894728Y-91190058D01*
X80028284Y-91026132D01*
X80089158Y-90923827D01*
X80079466Y-90876006D01*
X80001325Y-90875530D01*
X79987140Y-90878382D01*
G37*
X79987140Y-90878382D02*
X79885556Y-90899194D01*
X79715731Y-90933018D01*
X79509182Y-90973594D01*
X79442403Y-90986607D01*
X79127719Y-91054204D01*
X78787950Y-91137921D01*
X78449878Y-91230209D01*
X78140285Y-91323519D01*
X77885954Y-91410303D01*
X77760949Y-91460529D01*
X77426552Y-91649494D01*
X77155356Y-91884956D01*
X76955773Y-92154088D01*
X76836217Y-92444066D01*
X76805103Y-92742062D01*
X76824790Y-92887569D01*
X76864633Y-92983413D01*
X76951989Y-93144606D01*
X77076266Y-93353155D01*
X77226872Y-93591063D01*
X77335937Y-93756001D01*
X77563806Y-94106293D01*
X77733219Y-94401551D01*
X77850944Y-94664638D01*
X77923753Y-94918417D01*
X77958416Y-95185750D01*
X77961703Y-95489500D01*
X77943764Y-95808490D01*
X77907787Y-96288353D01*
X77414308Y-96284873D01*
X77165523Y-96290563D01*
X76930216Y-96308873D01*
X76745294Y-96336514D01*
X76695385Y-96348937D01*
X76476174Y-96457927D01*
X76228957Y-96660660D01*
X75957061Y-96954233D01*
X75848616Y-97088170D01*
X75705995Y-97231719D01*
X75497863Y-97391667D01*
X75272613Y-97534550D01*
X75096195Y-97638961D01*
X74961288Y-97723905D01*
X74886246Y-97777543D01*
X74877237Y-97789520D01*
X74929940Y-97782579D01*
X75053325Y-97748618D01*
X75222338Y-97694645D01*
X75250040Y-97685269D01*
X75448024Y-97621001D01*
X75617587Y-97578640D01*
X75774300Y-97561491D01*
X75933735Y-97572859D01*
X76111462Y-97616046D01*
X76323054Y-97694359D01*
X76584081Y-97811101D01*
X76910115Y-97969576D01*
X77146871Y-98087801D01*
X77632830Y-98330039D01*
X78046580Y-98530073D01*
X78405316Y-98692011D01*
X78726229Y-98819963D01*
X79026512Y-98918036D01*
X79323358Y-98990341D01*
X79633960Y-99040985D01*
X79975511Y-99074078D01*
X80365203Y-99093728D01*
X80820229Y-99104045D01*
X81357782Y-99109136D01*
X81422240Y-99109551D01*
X81920782Y-99113816D01*
X82332080Y-99120682D01*
X82670488Y-99131592D01*
X82950355Y-99147988D01*
X83186033Y-99171314D01*
X83391874Y-99203010D01*
X83582228Y-99244521D01*
X83771445Y-99297288D01*
X83973879Y-99362754D01*
X83987626Y-99367412D01*
X84205010Y-99448549D01*
X84485017Y-99563797D01*
X84799826Y-99700983D01*
X85121615Y-99847934D01*
X85422561Y-99992478D01*
X85467810Y-100015014D01*
X85716044Y-100134429D01*
X85900532Y-100212665D01*
X86012774Y-100246450D01*
X86045040Y-100237203D01*
X86007402Y-100198244D01*
X85906312Y-100112888D01*
X85759513Y-99995814D01*
X85664040Y-99921938D01*
X85498580Y-99788919D01*
X85369398Y-99673103D01*
X85294533Y-99591284D01*
X85283040Y-99567154D01*
X85321415Y-99493791D01*
X85391914Y-99431902D01*
X85428163Y-99402142D01*
X85434133Y-99370870D01*
X85398775Y-99330076D01*
X85311039Y-99271751D01*
X85159876Y-99187885D01*
X84934235Y-99070468D01*
X84795014Y-98999218D01*
X84502405Y-98855945D01*
X84193609Y-98715099D01*
X83901033Y-98590836D01*
X83657082Y-98497312D01*
X83606640Y-98480113D01*
X83253883Y-98346605D01*
X82915525Y-98186538D01*
X82620265Y-98014908D01*
X82400140Y-97849725D01*
X82302724Y-97696614D01*
X82285840Y-97579947D01*
X82291530Y-97479268D01*
X82321110Y-97403592D01*
X82393347Y-97326292D01*
X82527010Y-97220742D01*
X82552540Y-97201560D01*
X82668490Y-97066430D01*
X82692240Y-96954963D01*
X82724024Y-96810473D01*
X82790860Y-96687726D01*
X82873892Y-96558039D01*
X82956232Y-96393522D01*
X82972968Y-96353696D01*
X83053544Y-96203583D01*
X83151687Y-96086040D01*
X83179148Y-96064649D01*
X83273314Y-95965346D01*
X83301803Y-95816072D01*
X83301840Y-95808520D01*
X83319949Y-95683729D01*
X83385440Y-95561268D01*
X83515061Y-95410273D01*
X83521733Y-95403292D01*
X83646482Y-95282847D01*
X83750417Y-95199744D01*
X83803996Y-95173800D01*
X83874743Y-95138978D01*
X83976028Y-95051920D01*
X84010731Y-95015743D01*
X84139324Y-94904824D01*
X84291587Y-94848336D01*
X84401567Y-94832244D01*
X84556638Y-94805132D01*
X84670114Y-94765240D01*
X84698840Y-94744134D01*
X84781849Y-94706925D01*
X84943312Y-94687504D01*
X85058145Y-94685718D01*
X85248076Y-94680877D01*
X85376457Y-94652855D01*
X85482555Y-94591067D01*
X85519471Y-94561378D01*
X85700913Y-94457578D01*
X85980057Y-94368393D01*
X86085990Y-94343888D01*
X86360982Y-94270563D01*
X86564508Y-94186174D01*
X86642806Y-94134562D01*
X86710824Y-94083914D01*
X86786774Y-94048916D01*
X86891272Y-94025950D01*
X87044936Y-94011398D01*
X87268382Y-94001642D01*
X87426312Y-93997067D01*
X87705757Y-93987242D01*
X87901977Y-93973432D01*
X88033339Y-93952976D01*
X88118210Y-93923211D01*
X88166164Y-93889837D01*
X88230086Y-93847209D01*
X88321983Y-93821164D01*
X88463874Y-93808721D01*
X88677778Y-93806895D01*
X88769052Y-93808132D01*
X89064085Y-93808141D01*
X89277809Y-93794105D01*
X89430001Y-93762176D01*
X89540440Y-93708511D01*
X89615719Y-93643496D01*
X89705338Y-93583318D01*
X89844483Y-93554079D01*
X90001293Y-93548200D01*
X90201372Y-93534930D01*
X90435795Y-93499464D01*
X90677470Y-93448315D01*
X90899304Y-93387997D01*
X91074204Y-93325025D01*
X91174975Y-93266014D01*
X91225663Y-93200140D01*
X91197151Y-93154960D01*
X91175840Y-93140740D01*
X91072332Y-93106116D01*
X90936588Y-93091777D01*
X90839509Y-93088301D01*
X90658048Y-93078997D01*
X90409194Y-93064846D01*
X90109937Y-93046828D01*
X89777265Y-93025927D01*
X89615788Y-93015490D01*
X88905353Y-92970053D01*
X88193076Y-92926206D01*
X87488728Y-92884449D01*
X86802081Y-92845287D01*
X86142906Y-92809222D01*
X85520974Y-92776755D01*
X84946057Y-92748391D01*
X84427927Y-92724631D01*
X83976355Y-92705979D01*
X83601112Y-92692936D01*
X83311970Y-92686006D01*
X83190891Y-92684983D01*
X82691778Y-92692912D01*
X82268735Y-92720078D01*
X81897115Y-92772355D01*
X81552270Y-92855620D01*
X81209553Y-92975748D01*
X80844317Y-93138614D01*
X80457040Y-93336670D01*
X80225225Y-93458453D01*
X80023984Y-93560789D01*
X79870884Y-93634999D01*
X79783492Y-93672407D01*
X79771809Y-93675200D01*
X79736138Y-93630460D01*
X79713554Y-93520475D01*
X79711870Y-93497400D01*
X79691631Y-93198057D01*
X79665911Y-92924537D01*
X79637162Y-92696948D01*
X79607834Y-92535399D01*
X79586531Y-92468909D01*
X79573417Y-92375377D01*
X79633369Y-92253985D01*
X79654523Y-92224356D01*
X79769757Y-92068494D01*
X79652659Y-91865032D01*
X79596335Y-91759725D01*
X79572712Y-91674329D01*
X79589090Y-91588491D01*
X79652769Y-91481858D01*
X79771047Y-91334076D01*
X79894728Y-91190058D01*
X80028284Y-91026132D01*
X80089158Y-90923827D01*
X80079466Y-90876006D01*
X80001325Y-90875530D01*
X79987140Y-90878382D01*
G36*
X70157340Y-88734679D02*
G01*
X69604953Y-88740328D01*
X69143042Y-88746557D01*
X68760486Y-88754549D01*
X68446166Y-88765484D01*
X68188958Y-88780546D01*
X67977743Y-88800916D01*
X67801399Y-88827776D01*
X67648804Y-88862307D01*
X67508837Y-88905693D01*
X67370377Y-88959114D01*
X67222304Y-89023753D01*
X67156649Y-89053582D01*
X66824657Y-89256416D01*
X66517923Y-89542173D01*
X66249549Y-89892903D01*
X66032635Y-90290660D01*
X65880282Y-90717495D01*
X65850224Y-90843317D01*
X65779073Y-91370138D01*
X65790837Y-91870366D01*
X65881886Y-92334943D01*
X66048589Y-92754814D01*
X66287314Y-93120923D01*
X66594430Y-93424213D01*
X66966307Y-93655629D01*
X66980500Y-93662339D01*
X67316553Y-93819597D01*
X67010929Y-93903256D01*
X66623418Y-94046653D01*
X66287867Y-94257046D01*
X65989533Y-94536990D01*
X65709532Y-94901436D01*
X65508150Y-95301394D01*
X65380885Y-95749849D01*
X65323232Y-96259787D01*
X65318640Y-96471746D01*
X65361384Y-97072838D01*
X65489791Y-97619619D01*
X65704123Y-98112819D01*
X66004644Y-98553165D01*
X66113467Y-98677033D01*
X66293502Y-98856511D01*
X66482049Y-99011646D01*
X66687528Y-99144113D01*
X66918358Y-99255587D01*
X67182960Y-99347744D01*
X67489753Y-99422257D01*
X67847157Y-99480802D01*
X68263592Y-99525053D01*
X68747478Y-99556687D01*
X69307236Y-99577377D01*
X69951284Y-99588800D01*
X70688042Y-99592629D01*
X70716140Y-99592646D01*
X72278240Y-99593400D01*
X72278240Y-98135626D01*
X70551040Y-98135626D01*
X69573140Y-98104372D01*
X69176824Y-98087789D01*
X68834326Y-98065595D01*
X68560069Y-98039005D01*
X68368471Y-98009233D01*
X68327830Y-97999469D01*
X67955484Y-97861603D01*
X67659382Y-97667899D01*
X67423283Y-97404581D01*
X67239135Y-97076003D01*
X67152728Y-96792756D01*
X67117197Y-96459036D01*
X67132075Y-96112036D01*
X67196890Y-95788953D01*
X67257444Y-95626606D01*
X67466877Y-95283108D01*
X67745227Y-95013197D01*
X68093638Y-94816085D01*
X68513256Y-94690981D01*
X68647617Y-94668174D01*
X68829260Y-94649533D01*
X69082700Y-94633781D01*
X69378147Y-94622295D01*
X69685808Y-94616453D01*
X69776340Y-94616006D01*
X70551040Y-94615000D01*
X70551040Y-98135626D01*
X72278240Y-98135626D01*
X72278240Y-93307194D01*
X70551040Y-93307194D01*
X69700140Y-93281481D01*
X69349727Y-93268398D01*
X69079195Y-93251524D01*
X68866833Y-93228377D01*
X68690931Y-93196474D01*
X68529778Y-93153331D01*
X68501303Y-93144386D01*
X68162908Y-92995596D01*
X67892023Y-92791753D01*
X67700367Y-92543006D01*
X67633788Y-92393135D01*
X67588871Y-92198023D01*
X67560795Y-91943560D01*
X67553840Y-91737656D01*
X67578573Y-91361610D01*
X67656498Y-91043649D01*
X67793207Y-90780213D01*
X67994290Y-90567742D01*
X68265339Y-90402677D01*
X68611945Y-90281460D01*
X69039699Y-90200531D01*
X69554191Y-90156331D01*
X70055740Y-90144985D01*
X70551040Y-90144600D01*
X70551040Y-93307194D01*
X72278240Y-93307194D01*
X72278240Y-88714390D01*
X70157340Y-88734679D01*
G37*
X70157340Y-88734679D02*
X69604953Y-88740328D01*
X69143042Y-88746557D01*
X68760486Y-88754549D01*
X68446166Y-88765484D01*
X68188958Y-88780546D01*
X67977743Y-88800916D01*
X67801399Y-88827776D01*
X67648804Y-88862307D01*
X67508837Y-88905693D01*
X67370377Y-88959114D01*
X67222304Y-89023753D01*
X67156649Y-89053582D01*
X66824657Y-89256416D01*
X66517923Y-89542173D01*
X66249549Y-89892903D01*
X66032635Y-90290660D01*
X65880282Y-90717495D01*
X65850224Y-90843317D01*
X65779073Y-91370138D01*
X65790837Y-91870366D01*
X65881886Y-92334943D01*
X66048589Y-92754814D01*
X66287314Y-93120923D01*
X66594430Y-93424213D01*
X66966307Y-93655629D01*
X66980500Y-93662339D01*
X67316553Y-93819597D01*
X67010929Y-93903256D01*
X66623418Y-94046653D01*
X66287867Y-94257046D01*
X65989533Y-94536990D01*
X65709532Y-94901436D01*
X65508150Y-95301394D01*
X65380885Y-95749849D01*
X65323232Y-96259787D01*
X65318640Y-96471746D01*
X65361384Y-97072838D01*
X65489791Y-97619619D01*
X65704123Y-98112819D01*
X66004644Y-98553165D01*
X66113467Y-98677033D01*
X66293502Y-98856511D01*
X66482049Y-99011646D01*
X66687528Y-99144113D01*
X66918358Y-99255587D01*
X67182960Y-99347744D01*
X67489753Y-99422257D01*
X67847157Y-99480802D01*
X68263592Y-99525053D01*
X68747478Y-99556687D01*
X69307236Y-99577377D01*
X69951284Y-99588800D01*
X70688042Y-99592629D01*
X70716140Y-99592646D01*
X72278240Y-99593400D01*
X72278240Y-98135626D01*
X70551040Y-98135626D01*
X69573140Y-98104372D01*
X69176824Y-98087789D01*
X68834326Y-98065595D01*
X68560069Y-98039005D01*
X68368471Y-98009233D01*
X68327830Y-97999469D01*
X67955484Y-97861603D01*
X67659382Y-97667899D01*
X67423283Y-97404581D01*
X67239135Y-97076003D01*
X67152728Y-96792756D01*
X67117197Y-96459036D01*
X67132075Y-96112036D01*
X67196890Y-95788953D01*
X67257444Y-95626606D01*
X67466877Y-95283108D01*
X67745227Y-95013197D01*
X68093638Y-94816085D01*
X68513256Y-94690981D01*
X68647617Y-94668174D01*
X68829260Y-94649533D01*
X69082700Y-94633781D01*
X69378147Y-94622295D01*
X69685808Y-94616453D01*
X69776340Y-94616006D01*
X70551040Y-94615000D01*
X70551040Y-98135626D01*
X72278240Y-98135626D01*
X72278240Y-93307194D01*
X70551040Y-93307194D01*
X69700140Y-93281481D01*
X69349727Y-93268398D01*
X69079195Y-93251524D01*
X68866833Y-93228377D01*
X68690931Y-93196474D01*
X68529778Y-93153331D01*
X68501303Y-93144386D01*
X68162908Y-92995596D01*
X67892023Y-92791753D01*
X67700367Y-92543006D01*
X67633788Y-92393135D01*
X67588871Y-92198023D01*
X67560795Y-91943560D01*
X67553840Y-91737656D01*
X67578573Y-91361610D01*
X67656498Y-91043649D01*
X67793207Y-90780213D01*
X67994290Y-90567742D01*
X68265339Y-90402677D01*
X68611945Y-90281460D01*
X69039699Y-90200531D01*
X69554191Y-90156331D01*
X70055740Y-90144985D01*
X70551040Y-90144600D01*
X70551040Y-93307194D01*
X72278240Y-93307194D01*
X72278240Y-88714390D01*
X70157340Y-88734679D01*
G36*
X61165740Y-88735717D02*
G01*
X60529937Y-88743205D01*
X59985272Y-88752295D01*
X59521285Y-88763837D01*
X59127517Y-88778684D01*
X58793509Y-88797686D01*
X58508801Y-88821696D01*
X58262935Y-88851564D01*
X58045450Y-88888142D01*
X57845887Y-88932281D01*
X57653787Y-88984833D01*
X57495440Y-89034492D01*
X56870459Y-89290243D01*
X56305520Y-89625342D01*
X55803294Y-90035285D01*
X55366455Y-90515567D01*
X54997673Y-91061684D01*
X54699620Y-91669132D01*
X54474969Y-92333407D01*
X54326391Y-93050004D01*
X54256557Y-93814419D01*
X54260600Y-94488000D01*
X54339701Y-95278756D01*
X54496922Y-96012062D01*
X54730324Y-96685069D01*
X55037969Y-97294929D01*
X55417919Y-97838795D01*
X55868236Y-98313818D01*
X56386981Y-98717150D01*
X56972216Y-99045943D01*
X57508397Y-99260638D01*
X57711136Y-99323429D01*
X57922860Y-99377009D01*
X58153676Y-99422233D01*
X58413690Y-99459953D01*
X58713010Y-99491024D01*
X59061743Y-99516299D01*
X59469995Y-99536631D01*
X59947875Y-99552873D01*
X60505488Y-99565880D01*
X61152942Y-99576505D01*
X61267340Y-99578065D01*
X63489840Y-99607655D01*
X63489840Y-98034905D01*
X61711840Y-98034905D01*
X60403740Y-98000007D01*
X60022979Y-97987489D01*
X59654543Y-97971027D01*
X59317478Y-97951799D01*
X59030831Y-97930982D01*
X58813650Y-97909754D01*
X58714640Y-97895554D01*
X58172384Y-97755537D01*
X57699420Y-97544343D01*
X57288886Y-97258048D01*
X56933922Y-96892729D01*
X56911253Y-96864443D01*
X56597341Y-96397194D01*
X56360254Y-95882176D01*
X56197114Y-95310896D01*
X56105044Y-94674854D01*
X56089166Y-94437200D01*
X56092091Y-93741942D01*
X56169206Y-93098062D01*
X56317827Y-92510034D01*
X56535271Y-91982332D01*
X56818853Y-91519430D01*
X57165889Y-91125802D01*
X57573696Y-90805923D01*
X58039589Y-90564266D01*
X58499562Y-90418921D01*
X58684979Y-90386896D01*
X58953627Y-90355551D01*
X59287135Y-90326066D01*
X59667136Y-90299620D01*
X60075261Y-90277393D01*
X60493140Y-90260564D01*
X60902405Y-90250313D01*
X61165740Y-90247703D01*
X61711840Y-90246200D01*
X61711840Y-98034905D01*
X63489840Y-98034905D01*
X63489840Y-88712058D01*
X61165740Y-88735717D01*
G37*
X61165740Y-88735717D02*
X60529937Y-88743205D01*
X59985272Y-88752295D01*
X59521285Y-88763837D01*
X59127517Y-88778684D01*
X58793509Y-88797686D01*
X58508801Y-88821696D01*
X58262935Y-88851564D01*
X58045450Y-88888142D01*
X57845887Y-88932281D01*
X57653787Y-88984833D01*
X57495440Y-89034492D01*
X56870459Y-89290243D01*
X56305520Y-89625342D01*
X55803294Y-90035285D01*
X55366455Y-90515567D01*
X54997673Y-91061684D01*
X54699620Y-91669132D01*
X54474969Y-92333407D01*
X54326391Y-93050004D01*
X54256557Y-93814419D01*
X54260600Y-94488000D01*
X54339701Y-95278756D01*
X54496922Y-96012062D01*
X54730324Y-96685069D01*
X55037969Y-97294929D01*
X55417919Y-97838795D01*
X55868236Y-98313818D01*
X56386981Y-98717150D01*
X56972216Y-99045943D01*
X57508397Y-99260638D01*
X57711136Y-99323429D01*
X57922860Y-99377009D01*
X58153676Y-99422233D01*
X58413690Y-99459953D01*
X58713010Y-99491024D01*
X59061743Y-99516299D01*
X59469995Y-99536631D01*
X59947875Y-99552873D01*
X60505488Y-99565880D01*
X61152942Y-99576505D01*
X61267340Y-99578065D01*
X63489840Y-99607655D01*
X63489840Y-98034905D01*
X61711840Y-98034905D01*
X60403740Y-98000007D01*
X60022979Y-97987489D01*
X59654543Y-97971027D01*
X59317478Y-97951799D01*
X59030831Y-97930982D01*
X58813650Y-97909754D01*
X58714640Y-97895554D01*
X58172384Y-97755537D01*
X57699420Y-97544343D01*
X57288886Y-97258048D01*
X56933922Y-96892729D01*
X56911253Y-96864443D01*
X56597341Y-96397194D01*
X56360254Y-95882176D01*
X56197114Y-95310896D01*
X56105044Y-94674854D01*
X56089166Y-94437200D01*
X56092091Y-93741942D01*
X56169206Y-93098062D01*
X56317827Y-92510034D01*
X56535271Y-91982332D01*
X56818853Y-91519430D01*
X57165889Y-91125802D01*
X57573696Y-90805923D01*
X58039589Y-90564266D01*
X58499562Y-90418921D01*
X58684979Y-90386896D01*
X58953627Y-90355551D01*
X59287135Y-90326066D01*
X59667136Y-90299620D01*
X60075261Y-90277393D01*
X60493140Y-90260564D01*
X60902405Y-90250313D01*
X61165740Y-90247703D01*
X61711840Y-90246200D01*
X61711840Y-98034905D01*
X63489840Y-98034905D01*
X63489840Y-88712058D01*
X61165740Y-88735717D01*
G36*
X50434240Y-99593400D02*
G01*
X52161440Y-99593400D01*
X52161440Y-88722200D01*
X50434240Y-88722200D01*
X50434240Y-99593400D01*
G37*
X50434240Y-99593400D02*
X52161440Y-99593400D01*
X52161440Y-88722200D01*
X50434240Y-88722200D01*
X50434240Y-99593400D01*
G36*
X77231435Y-90856417D02*
G01*
X75071155Y-93016034D01*
X75084398Y-95231300D01*
X75097640Y-97446567D01*
X75366672Y-97294563D01*
X75622638Y-97105447D01*
X75832004Y-96853492D01*
X76060257Y-96561762D01*
X76301392Y-96352884D01*
X76575804Y-96216395D01*
X76903888Y-96141833D01*
X77263781Y-96119007D01*
X77753521Y-96113600D01*
X77784654Y-95732600D01*
X77792379Y-95334705D01*
X77753192Y-94957195D01*
X77671155Y-94629899D01*
X77616360Y-94496510D01*
X77544016Y-94367066D01*
X77428325Y-94182279D01*
X77286276Y-93968548D01*
X77159583Y-93786755D01*
X76951327Y-93482875D01*
X76804214Y-93235502D01*
X76710749Y-93026236D01*
X76663436Y-92836674D01*
X76654780Y-92648415D01*
X76661117Y-92562892D01*
X76715073Y-92284097D01*
X76824870Y-92041799D01*
X77008415Y-91796803D01*
X77014141Y-91790262D01*
X77180442Y-91624624D01*
X77375080Y-91480721D01*
X77612541Y-91351759D01*
X77907311Y-91230946D01*
X78273875Y-91111490D01*
X78726720Y-90986599D01*
X78729840Y-90985790D01*
X79364840Y-90821229D01*
X79378278Y-89759014D01*
X79391716Y-88696800D01*
X77231435Y-90856417D01*
G37*
X77231435Y-90856417D02*
X75071155Y-93016034D01*
X75084398Y-95231300D01*
X75097640Y-97446567D01*
X75366672Y-97294563D01*
X75622638Y-97105447D01*
X75832004Y-96853492D01*
X76060257Y-96561762D01*
X76301392Y-96352884D01*
X76575804Y-96216395D01*
X76903888Y-96141833D01*
X77263781Y-96119007D01*
X77753521Y-96113600D01*
X77784654Y-95732600D01*
X77792379Y-95334705D01*
X77753192Y-94957195D01*
X77671155Y-94629899D01*
X77616360Y-94496510D01*
X77544016Y-94367066D01*
X77428325Y-94182279D01*
X77286276Y-93968548D01*
X77159583Y-93786755D01*
X76951327Y-93482875D01*
X76804214Y-93235502D01*
X76710749Y-93026236D01*
X76663436Y-92836674D01*
X76654780Y-92648415D01*
X76661117Y-92562892D01*
X76715073Y-92284097D01*
X76824870Y-92041799D01*
X77008415Y-91796803D01*
X77014141Y-91790262D01*
X77180442Y-91624624D01*
X77375080Y-91480721D01*
X77612541Y-91351759D01*
X77907311Y-91230946D01*
X78273875Y-91111490D01*
X78726720Y-90986599D01*
X78729840Y-90985790D01*
X79364840Y-90821229D01*
X79378278Y-89759014D01*
X79391716Y-88696800D01*
X77231435Y-90856417D01*
G36*
X83627725Y-88807906D02*
G01*
X83520609Y-88908230D01*
X83355267Y-89067377D01*
X83138421Y-89278756D01*
X82876793Y-89535771D01*
X82577108Y-89831831D01*
X82246088Y-90160341D01*
X81890456Y-90514708D01*
X81707504Y-90697535D01*
X79783468Y-92622070D01*
X79818472Y-92920035D01*
X79848889Y-93149003D01*
X79878475Y-93292972D01*
X79912343Y-93368369D01*
X79955604Y-93391620D01*
X79965164Y-93391508D01*
X80030002Y-93367588D01*
X80166602Y-93304887D01*
X80356890Y-93212082D01*
X80582790Y-93097848D01*
X80660240Y-93057876D01*
X81056527Y-92867197D01*
X81426906Y-92724800D01*
X81798166Y-92624506D01*
X82197094Y-92560130D01*
X82650478Y-92525492D01*
X83009605Y-92515692D01*
X83707970Y-92506800D01*
X83708105Y-90639900D01*
X83707131Y-90215730D01*
X83704297Y-89825357D01*
X83699834Y-89480000D01*
X83693972Y-89190876D01*
X83686939Y-88969205D01*
X83678966Y-88826205D01*
X83670282Y-88773096D01*
X83669890Y-88773000D01*
X83627725Y-88807906D01*
G37*
X83627725Y-88807906D02*
X83520609Y-88908230D01*
X83355267Y-89067377D01*
X83138421Y-89278756D01*
X82876793Y-89535771D01*
X82577108Y-89831831D01*
X82246088Y-90160341D01*
X81890456Y-90514708D01*
X81707504Y-90697535D01*
X79783468Y-92622070D01*
X79818472Y-92920035D01*
X79848889Y-93149003D01*
X79878475Y-93292972D01*
X79912343Y-93368369D01*
X79955604Y-93391620D01*
X79965164Y-93391508D01*
X80030002Y-93367588D01*
X80166602Y-93304887D01*
X80356890Y-93212082D01*
X80582790Y-93097848D01*
X80660240Y-93057876D01*
X81056527Y-92867197D01*
X81426906Y-92724800D01*
X81798166Y-92624506D01*
X82197094Y-92560130D01*
X82650478Y-92525492D01*
X83009605Y-92515692D01*
X83707970Y-92506800D01*
X83708105Y-90639900D01*
X83707131Y-90215730D01*
X83704297Y-89825357D01*
X83699834Y-89480000D01*
X83693972Y-89190876D01*
X83686939Y-88969205D01*
X83678966Y-88826205D01*
X83670282Y-88773096D01*
X83669890Y-88773000D01*
X83627725Y-88807906D01*
G36*
X86097829Y-90625212D02*
G01*
X85738416Y-90985171D01*
X85402227Y-91323120D01*
X85095854Y-91632346D01*
X84825887Y-91906136D01*
X84598919Y-92137777D01*
X84421542Y-92320556D01*
X84300345Y-92447760D01*
X84241922Y-92512676D01*
X84237605Y-92519698D01*
X84289604Y-92525951D01*
X84429078Y-92536945D01*
X84642055Y-92551846D01*
X84914564Y-92569818D01*
X85232631Y-92590026D01*
X85582286Y-92611636D01*
X85949556Y-92633811D01*
X86320470Y-92655717D01*
X86681056Y-92676520D01*
X87017342Y-92695383D01*
X87315355Y-92711473D01*
X87561125Y-92723953D01*
X87740678Y-92731989D01*
X87835740Y-92734742D01*
X87975440Y-92735400D01*
X87975440Y-88748114D01*
X86097829Y-90625212D01*
G37*
X86097829Y-90625212D02*
X85738416Y-90985171D01*
X85402227Y-91323120D01*
X85095854Y-91632346D01*
X84825887Y-91906136D01*
X84598919Y-92137777D01*
X84421542Y-92320556D01*
X84300345Y-92447760D01*
X84241922Y-92512676D01*
X84237605Y-92519698D01*
X84289604Y-92525951D01*
X84429078Y-92536945D01*
X84642055Y-92551846D01*
X84914564Y-92569818D01*
X85232631Y-92590026D01*
X85582286Y-92611636D01*
X85949556Y-92633811D01*
X86320470Y-92655717D01*
X86681056Y-92676520D01*
X87017342Y-92695383D01*
X87315355Y-92711473D01*
X87561125Y-92723953D01*
X87740678Y-92731989D01*
X87835740Y-92734742D01*
X87975440Y-92735400D01*
X87975440Y-88748114D01*
X86097829Y-90625212D01*
G36*
X63794430Y-49631437D02*
G01*
X63523492Y-49761944D01*
X63312080Y-49990199D01*
X63306930Y-49998537D01*
X63198305Y-50285613D01*
X63205570Y-50574258D01*
X63320668Y-50838363D01*
X63535542Y-51051819D01*
X63652952Y-51119773D01*
X63863205Y-51211904D01*
X64019303Y-51240438D01*
X64177079Y-51205278D01*
X64367785Y-51118536D01*
X64620506Y-50928528D01*
X64781403Y-50666838D01*
X64824250Y-50432105D01*
X64618249Y-50432105D01*
X64556422Y-50684884D01*
X64379460Y-50898613D01*
X64142147Y-51032537D01*
X63901995Y-51039665D01*
X63663156Y-50920009D01*
X63634032Y-50896502D01*
X63456590Y-50675131D01*
X63391672Y-50418806D01*
X63445107Y-50154165D01*
X63463288Y-50116176D01*
X63619907Y-49908084D01*
X63831843Y-49806048D01*
X64008000Y-49789080D01*
X64269164Y-49831990D01*
X64453604Y-49969885D01*
X64556727Y-50150019D01*
X64618249Y-50432105D01*
X64824250Y-50432105D01*
X64833263Y-50382733D01*
X64778941Y-50141429D01*
X64637954Y-49905261D01*
X64442376Y-49724417D01*
X64394962Y-49696912D01*
X64094915Y-49606989D01*
X63794430Y-49631437D01*
G37*
X63794430Y-49631437D02*
X63523492Y-49761944D01*
X63312080Y-49990199D01*
X63306930Y-49998537D01*
X63198305Y-50285613D01*
X63205570Y-50574258D01*
X63320668Y-50838363D01*
X63535542Y-51051819D01*
X63652952Y-51119773D01*
X63863205Y-51211904D01*
X64019303Y-51240438D01*
X64177079Y-51205278D01*
X64367785Y-51118536D01*
X64620506Y-50928528D01*
X64781403Y-50666838D01*
X64824250Y-50432105D01*
X64618249Y-50432105D01*
X64556422Y-50684884D01*
X64379460Y-50898613D01*
X64142147Y-51032537D01*
X63901995Y-51039665D01*
X63663156Y-50920009D01*
X63634032Y-50896502D01*
X63456590Y-50675131D01*
X63391672Y-50418806D01*
X63445107Y-50154165D01*
X63463288Y-50116176D01*
X63619907Y-49908084D01*
X63831843Y-49806048D01*
X64008000Y-49789080D01*
X64269164Y-49831990D01*
X64453604Y-49969885D01*
X64556727Y-50150019D01*
X64618249Y-50432105D01*
X64824250Y-50432105D01*
X64833263Y-50382733D01*
X64778941Y-50141429D01*
X64637954Y-49905261D01*
X64442376Y-49724417D01*
X64394962Y-49696912D01*
X64094915Y-49606989D01*
X63794430Y-49631437D01*
G36*
X62600047Y-48538682D02*
G01*
X62571434Y-48611290D01*
X62555202Y-48757604D01*
X62548354Y-48998324D01*
X62547500Y-49185830D01*
X62541733Y-49491022D01*
X62525525Y-49713046D01*
X62500514Y-49834689D01*
X62484000Y-49852580D01*
X62422274Y-49811770D01*
X62420500Y-49799272D01*
X62364566Y-49729154D01*
X62225410Y-49661395D01*
X62046000Y-49612663D01*
X61903163Y-49598580D01*
X61711308Y-49646071D01*
X61509752Y-49798358D01*
X61493400Y-49814480D01*
X61360581Y-49964725D01*
X61296816Y-50105104D01*
X61278004Y-50296219D01*
X61277500Y-50357383D01*
X61320497Y-50712433D01*
X61448762Y-50975786D01*
X61661204Y-51145337D01*
X61692428Y-51159332D01*
X61894480Y-51229187D01*
X62047482Y-51236883D01*
X62166500Y-51204734D01*
X62281502Y-51137946D01*
X62404625Y-51039928D01*
X62547500Y-50909942D01*
X62547500Y-51053302D01*
X62575689Y-51158283D01*
X62626875Y-51170249D01*
X62655857Y-51126129D01*
X62678774Y-51007507D01*
X62696465Y-50802751D01*
X62709769Y-50500231D01*
X62711324Y-50434552D01*
X62521458Y-50434552D01*
X62486753Y-50637990D01*
X62356542Y-50885636D01*
X62171657Y-51022604D01*
X61942388Y-51043905D01*
X61763741Y-50988577D01*
X61594228Y-50847046D01*
X61494331Y-50629611D01*
X61471567Y-50371151D01*
X61533456Y-50106547D01*
X61560902Y-50047621D01*
X61717158Y-49869793D01*
X61934096Y-49786034D01*
X62178243Y-49805184D01*
X62295437Y-49853616D01*
X62419948Y-49984206D01*
X62498892Y-50192625D01*
X62521458Y-50434552D01*
X62711324Y-50434552D01*
X62719523Y-50088314D01*
X62723414Y-49831457D01*
X62728208Y-49386591D01*
X62728739Y-49053256D01*
X62724074Y-48816029D01*
X62713280Y-48659484D01*
X62695425Y-48568198D01*
X62669574Y-48526745D01*
X62644039Y-48519080D01*
X62600047Y-48538682D01*
G37*
X62600047Y-48538682D02*
X62571434Y-48611290D01*
X62555202Y-48757604D01*
X62548354Y-48998324D01*
X62547500Y-49185830D01*
X62541733Y-49491022D01*
X62525525Y-49713046D01*
X62500514Y-49834689D01*
X62484000Y-49852580D01*
X62422274Y-49811770D01*
X62420500Y-49799272D01*
X62364566Y-49729154D01*
X62225410Y-49661395D01*
X62046000Y-49612663D01*
X61903163Y-49598580D01*
X61711308Y-49646071D01*
X61509752Y-49798358D01*
X61493400Y-49814480D01*
X61360581Y-49964725D01*
X61296816Y-50105104D01*
X61278004Y-50296219D01*
X61277500Y-50357383D01*
X61320497Y-50712433D01*
X61448762Y-50975786D01*
X61661204Y-51145337D01*
X61692428Y-51159332D01*
X61894480Y-51229187D01*
X62047482Y-51236883D01*
X62166500Y-51204734D01*
X62281502Y-51137946D01*
X62404625Y-51039928D01*
X62547500Y-50909942D01*
X62547500Y-51053302D01*
X62575689Y-51158283D01*
X62626875Y-51170249D01*
X62655857Y-51126129D01*
X62678774Y-51007507D01*
X62696465Y-50802751D01*
X62709769Y-50500231D01*
X62711324Y-50434552D01*
X62521458Y-50434552D01*
X62486753Y-50637990D01*
X62356542Y-50885636D01*
X62171657Y-51022604D01*
X61942388Y-51043905D01*
X61763741Y-50988577D01*
X61594228Y-50847046D01*
X61494331Y-50629611D01*
X61471567Y-50371151D01*
X61533456Y-50106547D01*
X61560902Y-50047621D01*
X61717158Y-49869793D01*
X61934096Y-49786034D01*
X62178243Y-49805184D01*
X62295437Y-49853616D01*
X62419948Y-49984206D01*
X62498892Y-50192625D01*
X62521458Y-50434552D01*
X62711324Y-50434552D01*
X62719523Y-50088314D01*
X62723414Y-49831457D01*
X62728208Y-49386591D01*
X62728739Y-49053256D01*
X62724074Y-48816029D01*
X62713280Y-48659484D01*
X62695425Y-48568198D01*
X62669574Y-48526745D01*
X62644039Y-48519080D01*
X62600047Y-48538682D01*
G36*
X59889719Y-49640767D02*
G01*
X59739344Y-49684579D01*
X59606224Y-49780516D01*
X59565490Y-49818444D01*
X59374042Y-50076842D01*
X59293396Y-50359328D01*
X59319149Y-50640551D01*
X59446897Y-50895159D01*
X59672235Y-51097802D01*
X59799086Y-51163094D01*
X60024655Y-51235050D01*
X60222771Y-51229114D01*
X60434875Y-51155435D01*
X60660822Y-50992119D01*
X60820295Y-50743973D01*
X60891929Y-50451212D01*
X60702387Y-50451212D01*
X60629321Y-50712149D01*
X60617386Y-50734590D01*
X60447333Y-50925029D01*
X60221714Y-51023494D01*
X59976263Y-51026287D01*
X59746716Y-50929714D01*
X59642375Y-50835432D01*
X59519541Y-50604596D01*
X59503426Y-50342357D01*
X59593120Y-50084730D01*
X59663895Y-49984452D01*
X59809594Y-49847264D01*
X59972862Y-49794155D01*
X60081530Y-49789080D01*
X60343377Y-49843844D01*
X60544247Y-49990296D01*
X60668973Y-50201673D01*
X60702387Y-50451212D01*
X60891929Y-50451212D01*
X60893639Y-50444224D01*
X60896263Y-50375522D01*
X60876637Y-50178009D01*
X60800236Y-50015186D01*
X60679130Y-49867522D01*
X60540155Y-49728647D01*
X60417963Y-49658054D01*
X60258128Y-49632988D01*
X60111799Y-49630330D01*
X59889719Y-49640767D01*
G37*
X59889719Y-49640767D02*
X59739344Y-49684579D01*
X59606224Y-49780516D01*
X59565490Y-49818444D01*
X59374042Y-50076842D01*
X59293396Y-50359328D01*
X59319149Y-50640551D01*
X59446897Y-50895159D01*
X59672235Y-51097802D01*
X59799086Y-51163094D01*
X60024655Y-51235050D01*
X60222771Y-51229114D01*
X60434875Y-51155435D01*
X60660822Y-50992119D01*
X60820295Y-50743973D01*
X60891929Y-50451212D01*
X60702387Y-50451212D01*
X60629321Y-50712149D01*
X60617386Y-50734590D01*
X60447333Y-50925029D01*
X60221714Y-51023494D01*
X59976263Y-51026287D01*
X59746716Y-50929714D01*
X59642375Y-50835432D01*
X59519541Y-50604596D01*
X59503426Y-50342357D01*
X59593120Y-50084730D01*
X59663895Y-49984452D01*
X59809594Y-49847264D01*
X59972862Y-49794155D01*
X60081530Y-49789080D01*
X60343377Y-49843844D01*
X60544247Y-49990296D01*
X60668973Y-50201673D01*
X60702387Y-50451212D01*
X60891929Y-50451212D01*
X60893639Y-50444224D01*
X60896263Y-50375522D01*
X60876637Y-50178009D01*
X60800236Y-50015186D01*
X60679130Y-49867522D01*
X60540155Y-49728647D01*
X60417963Y-49658054D01*
X60258128Y-49632988D01*
X60111799Y-49630330D01*
X59889719Y-49640767D01*
G36*
X56137423Y-49616532D02*
G01*
X55988574Y-49672619D01*
X55943500Y-49765333D01*
X55976873Y-49823435D01*
X56093691Y-49814623D01*
X56118125Y-49808402D01*
X56426245Y-49769869D01*
X56676360Y-49839001D01*
X56848375Y-49978460D01*
X56997762Y-50225962D01*
X57028062Y-50488747D01*
X56939737Y-50742721D01*
X56831102Y-50879747D01*
X56685409Y-51004224D01*
X56546775Y-51050231D01*
X56370727Y-51044413D01*
X56174206Y-51015710D01*
X56018271Y-50978088D01*
X55991125Y-50967837D01*
X55900249Y-50956029D01*
X55880000Y-51017551D01*
X55939011Y-51103674D01*
X56098331Y-51176997D01*
X56118125Y-51182741D01*
X56373899Y-51238341D01*
X56566436Y-51233481D01*
X56746268Y-51164142D01*
X56809214Y-51127783D01*
X57051055Y-50929966D01*
X57180949Y-50689720D01*
X57213500Y-50435623D01*
X57160087Y-50107469D01*
X57008772Y-49849758D01*
X56772945Y-49676254D01*
X56465996Y-49600720D01*
X56399271Y-49598580D01*
X56137423Y-49616532D01*
G37*
X56137423Y-49616532D02*
X55988574Y-49672619D01*
X55943500Y-49765333D01*
X55976873Y-49823435D01*
X56093691Y-49814623D01*
X56118125Y-49808402D01*
X56426245Y-49769869D01*
X56676360Y-49839001D01*
X56848375Y-49978460D01*
X56997762Y-50225962D01*
X57028062Y-50488747D01*
X56939737Y-50742721D01*
X56831102Y-50879747D01*
X56685409Y-51004224D01*
X56546775Y-51050231D01*
X56370727Y-51044413D01*
X56174206Y-51015710D01*
X56018271Y-50978088D01*
X55991125Y-50967837D01*
X55900249Y-50956029D01*
X55880000Y-51017551D01*
X55939011Y-51103674D01*
X56098331Y-51176997D01*
X56118125Y-51182741D01*
X56373899Y-51238341D01*
X56566436Y-51233481D01*
X56746268Y-51164142D01*
X56809214Y-51127783D01*
X57051055Y-50929966D01*
X57180949Y-50689720D01*
X57213500Y-50435623D01*
X57160087Y-50107469D01*
X57008772Y-49849758D01*
X56772945Y-49676254D01*
X56465996Y-49600720D01*
X56399271Y-49598580D01*
X56137423Y-49616532D01*
G36*
X65000653Y-49624312D02*
G01*
X64978847Y-49683511D01*
X65053157Y-49749178D01*
X65181277Y-49789080D01*
X65381120Y-49872436D01*
X65522607Y-50046855D01*
X65610765Y-50321928D01*
X65649573Y-50682366D01*
X65667417Y-50956163D01*
X65693778Y-51117259D01*
X65733520Y-51179902D01*
X65791512Y-51158340D01*
X65807167Y-51143746D01*
X65824048Y-51066822D01*
X65837733Y-50890176D01*
X65846705Y-50641078D01*
X65849500Y-50381746D01*
X65846900Y-50063727D01*
X65837342Y-49852745D01*
X65818195Y-49728911D01*
X65786826Y-49672337D01*
X65754250Y-49662080D01*
X65676992Y-49716050D01*
X65659000Y-49800960D01*
X65653363Y-49885064D01*
X65618843Y-49891337D01*
X65529029Y-49815070D01*
X65480901Y-49769210D01*
X65296932Y-49642829D01*
X65126359Y-49598580D01*
X65000653Y-49624312D01*
G37*
X65000653Y-49624312D02*
X64978847Y-49683511D01*
X65053157Y-49749178D01*
X65181277Y-49789080D01*
X65381120Y-49872436D01*
X65522607Y-50046855D01*
X65610765Y-50321928D01*
X65649573Y-50682366D01*
X65667417Y-50956163D01*
X65693778Y-51117259D01*
X65733520Y-51179902D01*
X65791512Y-51158340D01*
X65807167Y-51143746D01*
X65824048Y-51066822D01*
X65837733Y-50890176D01*
X65846705Y-50641078D01*
X65849500Y-50381746D01*
X65846900Y-50063727D01*
X65837342Y-49852745D01*
X65818195Y-49728911D01*
X65786826Y-49672337D01*
X65754250Y-49662080D01*
X65676992Y-49716050D01*
X65659000Y-49800960D01*
X65653363Y-49885064D01*
X65618843Y-49891337D01*
X65529029Y-49815070D01*
X65480901Y-49769210D01*
X65296932Y-49642829D01*
X65126359Y-49598580D01*
X65000653Y-49624312D01*
G36*
X58580354Y-49064922D02*
G01*
X58552098Y-49192509D01*
X58547000Y-49344580D01*
X58540314Y-49535017D01*
X58511933Y-49629996D01*
X58449375Y-49660721D01*
X58420000Y-49662080D01*
X58316815Y-49688672D01*
X58293000Y-49725580D01*
X58346090Y-49777464D01*
X58417852Y-49789080D01*
X58473522Y-49798577D01*
X58510775Y-49841859D01*
X58534288Y-49941105D01*
X58548739Y-50118498D01*
X58558807Y-50396218D01*
X58560727Y-50466539D01*
X58576637Y-50816837D01*
X58602845Y-51045400D01*
X58640013Y-51157125D01*
X58655931Y-51169599D01*
X58693310Y-51144202D01*
X58720474Y-51030633D01*
X58739319Y-50815733D01*
X58751181Y-50508015D01*
X58760521Y-50205292D01*
X58772960Y-50006635D01*
X58793711Y-49889125D01*
X58827986Y-49829844D01*
X58881001Y-49805876D01*
X58912125Y-49800538D01*
X59023768Y-49764031D01*
X59055000Y-49725580D01*
X59001026Y-49675197D01*
X58912125Y-49650621D01*
X58822816Y-49619361D01*
X58775360Y-49535513D01*
X58752350Y-49364538D01*
X58749896Y-49328705D01*
X58722141Y-49126080D01*
X58669279Y-49035207D01*
X58638771Y-49027080D01*
X58580354Y-49064922D01*
G37*
X58580354Y-49064922D02*
X58552098Y-49192509D01*
X58547000Y-49344580D01*
X58540314Y-49535017D01*
X58511933Y-49629996D01*
X58449375Y-49660721D01*
X58420000Y-49662080D01*
X58316815Y-49688672D01*
X58293000Y-49725580D01*
X58346090Y-49777464D01*
X58417852Y-49789080D01*
X58473522Y-49798577D01*
X58510775Y-49841859D01*
X58534288Y-49941105D01*
X58548739Y-50118498D01*
X58558807Y-50396218D01*
X58560727Y-50466539D01*
X58576637Y-50816837D01*
X58602845Y-51045400D01*
X58640013Y-51157125D01*
X58655931Y-51169599D01*
X58693310Y-51144202D01*
X58720474Y-51030633D01*
X58739319Y-50815733D01*
X58751181Y-50508015D01*
X58760521Y-50205292D01*
X58772960Y-50006635D01*
X58793711Y-49889125D01*
X58827986Y-49829844D01*
X58881001Y-49805876D01*
X58912125Y-49800538D01*
X59023768Y-49764031D01*
X59055000Y-49725580D01*
X59001026Y-49675197D01*
X58912125Y-49650621D01*
X58822816Y-49619361D01*
X58775360Y-49535513D01*
X58752350Y-49364538D01*
X58749896Y-49328705D01*
X58722141Y-49126080D01*
X58669279Y-49035207D01*
X58638771Y-49027080D01*
X58580354Y-49064922D01*
G36*
X57775684Y-49681185D02*
G01*
X57748057Y-49751453D01*
X57731439Y-49892313D01*
X57723403Y-50123194D01*
X57721500Y-50424080D01*
X57723889Y-50752610D01*
X57732672Y-50973631D01*
X57750280Y-51106572D01*
X57779140Y-51170860D01*
X57816750Y-51186080D01*
X57857817Y-51166974D01*
X57885444Y-51096706D01*
X57902062Y-50955846D01*
X57910098Y-50724965D01*
X57912000Y-50424080D01*
X57909612Y-50095549D01*
X57900829Y-49874528D01*
X57883221Y-49741587D01*
X57854361Y-49677299D01*
X57816750Y-49662080D01*
X57775684Y-49681185D01*
G37*
X57775684Y-49681185D02*
X57748057Y-49751453D01*
X57731439Y-49892313D01*
X57723403Y-50123194D01*
X57721500Y-50424080D01*
X57723889Y-50752610D01*
X57732672Y-50973631D01*
X57750280Y-51106572D01*
X57779140Y-51170860D01*
X57816750Y-51186080D01*
X57857817Y-51166974D01*
X57885444Y-51096706D01*
X57902062Y-50955846D01*
X57910098Y-50724965D01*
X57912000Y-50424080D01*
X57909612Y-50095549D01*
X57900829Y-49874528D01*
X57883221Y-49741587D01*
X57854361Y-49677299D01*
X57816750Y-49662080D01*
X57775684Y-49681185D01*
G36*
X54931451Y-49624512D02*
G01*
X54772253Y-49689661D01*
X54664279Y-49775048D01*
X54634205Y-49861700D01*
X54673500Y-49912755D01*
X54767178Y-49939873D01*
X54791285Y-49909941D01*
X54879316Y-49821149D01*
X55033644Y-49770445D01*
X55195722Y-49772611D01*
X55253012Y-49793367D01*
X55358921Y-49898869D01*
X55350979Y-50027742D01*
X55235951Y-50163591D01*
X55054500Y-50274475D01*
X54825334Y-50392592D01*
X54691036Y-50493764D01*
X54627372Y-50605129D01*
X54610108Y-50753826D01*
X54610000Y-50772232D01*
X54661357Y-50984930D01*
X54814135Y-51122356D01*
X55066402Y-51183040D01*
X55154038Y-51186080D01*
X55389072Y-51152539D01*
X55532108Y-51057579D01*
X55607172Y-50929062D01*
X55586155Y-50851097D01*
X55496858Y-50846264D01*
X55374504Y-50929576D01*
X55205994Y-51029641D01*
X55023003Y-51038689D01*
X54871474Y-50957867D01*
X54838980Y-50916205D01*
X54805166Y-50784947D01*
X54876309Y-50652322D01*
X55059874Y-50508526D01*
X55219220Y-50416981D01*
X55406405Y-50305705D01*
X55505335Y-50206359D01*
X55546236Y-50085146D01*
X55551092Y-50045916D01*
X55524227Y-49819664D01*
X55397613Y-49668523D01*
X55179799Y-49601265D01*
X55115194Y-49598580D01*
X54931451Y-49624512D01*
G37*
X54931451Y-49624512D02*
X54772253Y-49689661D01*
X54664279Y-49775048D01*
X54634205Y-49861700D01*
X54673500Y-49912755D01*
X54767178Y-49939873D01*
X54791285Y-49909941D01*
X54879316Y-49821149D01*
X55033644Y-49770445D01*
X55195722Y-49772611D01*
X55253012Y-49793367D01*
X55358921Y-49898869D01*
X55350979Y-50027742D01*
X55235951Y-50163591D01*
X55054500Y-50274475D01*
X54825334Y-50392592D01*
X54691036Y-50493764D01*
X54627372Y-50605129D01*
X54610108Y-50753826D01*
X54610000Y-50772232D01*
X54661357Y-50984930D01*
X54814135Y-51122356D01*
X55066402Y-51183040D01*
X55154038Y-51186080D01*
X55389072Y-51152539D01*
X55532108Y-51057579D01*
X55607172Y-50929062D01*
X55586155Y-50851097D01*
X55496858Y-50846264D01*
X55374504Y-50929576D01*
X55205994Y-51029641D01*
X55023003Y-51038689D01*
X54871474Y-50957867D01*
X54838980Y-50916205D01*
X54805166Y-50784947D01*
X54876309Y-50652322D01*
X55059874Y-50508526D01*
X55219220Y-50416981D01*
X55406405Y-50305705D01*
X55505335Y-50206359D01*
X55546236Y-50085146D01*
X55551092Y-50045916D01*
X55524227Y-49819664D01*
X55397613Y-49668523D01*
X55179799Y-49601265D01*
X55115194Y-49598580D01*
X54931451Y-49624512D01*
G36*
X69567439Y-43775699D02*
G01*
X69226454Y-43858287D01*
X68936848Y-44026633D01*
X68708166Y-44246576D01*
X68453000Y-44536460D01*
X68453000Y-43883580D01*
X67489841Y-43883580D01*
X67515047Y-46248955D01*
X67522169Y-46869673D01*
X67529503Y-47377260D01*
X67537799Y-47785585D01*
X67547808Y-48108516D01*
X67560280Y-48359921D01*
X67575965Y-48553668D01*
X67595615Y-48703625D01*
X67619980Y-48823661D01*
X67649809Y-48927643D01*
X67661947Y-48963580D01*
X67854081Y-49344843D01*
X68130820Y-49655410D01*
X68470846Y-49874272D01*
X68654519Y-49941790D01*
X69049352Y-50023771D01*
X69489498Y-50067855D01*
X69917125Y-50070433D01*
X70216634Y-50039263D01*
X70642158Y-49921337D01*
X71005910Y-49735561D01*
X71290595Y-49495459D01*
X71478919Y-49214555D01*
X71544093Y-49001232D01*
X71581117Y-48773080D01*
X71064809Y-48773080D01*
X70792684Y-48778790D01*
X70629207Y-48797868D01*
X70556458Y-48833237D01*
X70548500Y-48857261D01*
X70505504Y-48954360D01*
X70400411Y-49080208D01*
X70384673Y-49095386D01*
X70283420Y-49174799D01*
X70163704Y-49223985D01*
X69990297Y-49251869D01*
X69727970Y-49267377D01*
X69702048Y-49268352D01*
X69302221Y-49258658D01*
X68997497Y-49188104D01*
X68775085Y-49044163D01*
X68622197Y-48814309D01*
X68526041Y-48486015D01*
X68475246Y-48066797D01*
X68436718Y-47534830D01*
X68682984Y-47765958D01*
X68941216Y-47986130D01*
X69178179Y-48125896D01*
X69436839Y-48201469D01*
X69760160Y-48229063D01*
X69913500Y-48230319D01*
X70321740Y-48204219D01*
X70647828Y-48121207D01*
X70929255Y-47966964D01*
X71186767Y-47744044D01*
X71447560Y-47398684D01*
X71632822Y-46976831D01*
X71742775Y-46503925D01*
X71777263Y-46010830D01*
X70770295Y-46010830D01*
X70763670Y-46318271D01*
X70740055Y-46538041D01*
X70692970Y-46709031D01*
X70632061Y-46840578D01*
X70493906Y-47066199D01*
X70347190Y-47210927D01*
X70146072Y-47315276D01*
X70056977Y-47348818D01*
X69715368Y-47427387D01*
X69398237Y-47398592D01*
X69175879Y-47318097D01*
X68868522Y-47111566D01*
X68641626Y-46813259D01*
X68501225Y-46434304D01*
X68453354Y-45985831D01*
X68453355Y-45985479D01*
X68497455Y-45521339D01*
X68626506Y-45145510D01*
X68837149Y-44862006D01*
X69126023Y-44674840D01*
X69489768Y-44588024D01*
X69628241Y-44582080D01*
X69999725Y-44639758D01*
X70313790Y-44809887D01*
X70562858Y-45088102D01*
X70593386Y-45137597D01*
X70680439Y-45299161D01*
X70733363Y-45447323D01*
X70760373Y-45622643D01*
X70769689Y-45865682D01*
X70770295Y-46010830D01*
X71777263Y-46010830D01*
X71777643Y-46005405D01*
X71737648Y-45506711D01*
X71623015Y-45033282D01*
X71433965Y-44610557D01*
X71170723Y-44263976D01*
X71156116Y-44249586D01*
X70865889Y-44012755D01*
X70557498Y-43863483D01*
X70190297Y-43785000D01*
X69988975Y-43767968D01*
X69567439Y-43775699D01*
G37*
X69567439Y-43775699D02*
X69226454Y-43858287D01*
X68936848Y-44026633D01*
X68708166Y-44246576D01*
X68453000Y-44536460D01*
X68453000Y-43883580D01*
X67489841Y-43883580D01*
X67515047Y-46248955D01*
X67522169Y-46869673D01*
X67529503Y-47377260D01*
X67537799Y-47785585D01*
X67547808Y-48108516D01*
X67560280Y-48359921D01*
X67575965Y-48553668D01*
X67595615Y-48703625D01*
X67619980Y-48823661D01*
X67649809Y-48927643D01*
X67661947Y-48963580D01*
X67854081Y-49344843D01*
X68130820Y-49655410D01*
X68470846Y-49874272D01*
X68654519Y-49941790D01*
X69049352Y-50023771D01*
X69489498Y-50067855D01*
X69917125Y-50070433D01*
X70216634Y-50039263D01*
X70642158Y-49921337D01*
X71005910Y-49735561D01*
X71290595Y-49495459D01*
X71478919Y-49214555D01*
X71544093Y-49001232D01*
X71581117Y-48773080D01*
X71064809Y-48773080D01*
X70792684Y-48778790D01*
X70629207Y-48797868D01*
X70556458Y-48833237D01*
X70548500Y-48857261D01*
X70505504Y-48954360D01*
X70400411Y-49080208D01*
X70384673Y-49095386D01*
X70283420Y-49174799D01*
X70163704Y-49223985D01*
X69990297Y-49251869D01*
X69727970Y-49267377D01*
X69702048Y-49268352D01*
X69302221Y-49258658D01*
X68997497Y-49188104D01*
X68775085Y-49044163D01*
X68622197Y-48814309D01*
X68526041Y-48486015D01*
X68475246Y-48066797D01*
X68436718Y-47534830D01*
X68682984Y-47765958D01*
X68941216Y-47986130D01*
X69178179Y-48125896D01*
X69436839Y-48201469D01*
X69760160Y-48229063D01*
X69913500Y-48230319D01*
X70321740Y-48204219D01*
X70647828Y-48121207D01*
X70929255Y-47966964D01*
X71186767Y-47744044D01*
X71447560Y-47398684D01*
X71632822Y-46976831D01*
X71742775Y-46503925D01*
X71777263Y-46010830D01*
X70770295Y-46010830D01*
X70763670Y-46318271D01*
X70740055Y-46538041D01*
X70692970Y-46709031D01*
X70632061Y-46840578D01*
X70493906Y-47066199D01*
X70347190Y-47210927D01*
X70146072Y-47315276D01*
X70056977Y-47348818D01*
X69715368Y-47427387D01*
X69398237Y-47398592D01*
X69175879Y-47318097D01*
X68868522Y-47111566D01*
X68641626Y-46813259D01*
X68501225Y-46434304D01*
X68453354Y-45985831D01*
X68453355Y-45985479D01*
X68497455Y-45521339D01*
X68626506Y-45145510D01*
X68837149Y-44862006D01*
X69126023Y-44674840D01*
X69489768Y-44588024D01*
X69628241Y-44582080D01*
X69999725Y-44639758D01*
X70313790Y-44809887D01*
X70562858Y-45088102D01*
X70593386Y-45137597D01*
X70680439Y-45299161D01*
X70733363Y-45447323D01*
X70760373Y-45622643D01*
X70769689Y-45865682D01*
X70770295Y-46010830D01*
X71777263Y-46010830D01*
X71777643Y-46005405D01*
X71737648Y-45506711D01*
X71623015Y-45033282D01*
X71433965Y-44610557D01*
X71170723Y-44263976D01*
X71156116Y-44249586D01*
X70865889Y-44012755D01*
X70557498Y-43863483D01*
X70190297Y-43785000D01*
X69988975Y-43767968D01*
X69567439Y-43775699D01*
G36*
X57757519Y-48921405D02*
G01*
X57670406Y-49005203D01*
X57658000Y-49056837D01*
X57707053Y-49131006D01*
X57814327Y-49152497D01*
X57920001Y-49115473D01*
X57947170Y-49085047D01*
X57951253Y-48989365D01*
X57873296Y-48921961D01*
X57757853Y-48921277D01*
X57757519Y-48921405D01*
G37*
X57757519Y-48921405D02*
X57670406Y-49005203D01*
X57658000Y-49056837D01*
X57707053Y-49131006D01*
X57814327Y-49152497D01*
X57920001Y-49115473D01*
X57947170Y-49085047D01*
X57951253Y-48989365D01*
X57873296Y-48921961D01*
X57757853Y-48921277D01*
X57757519Y-48921405D01*
G36*
X79613126Y-42993942D02*
G01*
X79187964Y-43403670D01*
X78761489Y-43816959D01*
X78349736Y-44218108D01*
X77968737Y-44591416D01*
X77634527Y-44921181D01*
X77363139Y-45191703D01*
X77200125Y-45356874D01*
X76517500Y-46057329D01*
X76517500Y-41597580D01*
X75565000Y-41597580D01*
X75565000Y-44931330D01*
X75565325Y-45568650D01*
X75566259Y-46166014D01*
X75567739Y-46711691D01*
X75569703Y-47193946D01*
X75572090Y-47601046D01*
X75574838Y-47921259D01*
X75577884Y-48142851D01*
X75581168Y-48254089D01*
X75582598Y-48265080D01*
X75630553Y-48222541D01*
X75761085Y-48100659D01*
X75965146Y-47908030D01*
X76233689Y-47653254D01*
X76557666Y-47344927D01*
X76928028Y-46991648D01*
X77335729Y-46602015D01*
X77751733Y-46203776D01*
X78197359Y-45775536D01*
X78622292Y-45364691D01*
X79016114Y-44981491D01*
X79368408Y-44636182D01*
X79668757Y-44339012D01*
X79906743Y-44100230D01*
X80071950Y-43930083D01*
X80147135Y-43847362D01*
X80391001Y-43552251D01*
X80391000Y-45813415D01*
X80391000Y-48074580D01*
X81343500Y-48074580D01*
X81343501Y-44703022D01*
X81343501Y-41331464D01*
X79613126Y-42993942D01*
G37*
X79613126Y-42993942D02*
X79187964Y-43403670D01*
X78761489Y-43816959D01*
X78349736Y-44218108D01*
X77968737Y-44591416D01*
X77634527Y-44921181D01*
X77363139Y-45191703D01*
X77200125Y-45356874D01*
X76517500Y-46057329D01*
X76517500Y-41597580D01*
X75565000Y-41597580D01*
X75565000Y-44931330D01*
X75565325Y-45568650D01*
X75566259Y-46166014D01*
X75567739Y-46711691D01*
X75569703Y-47193946D01*
X75572090Y-47601046D01*
X75574838Y-47921259D01*
X75577884Y-48142851D01*
X75581168Y-48254089D01*
X75582598Y-48265080D01*
X75630553Y-48222541D01*
X75761085Y-48100659D01*
X75965146Y-47908030D01*
X76233689Y-47653254D01*
X76557666Y-47344927D01*
X76928028Y-46991648D01*
X77335729Y-46602015D01*
X77751733Y-46203776D01*
X78197359Y-45775536D01*
X78622292Y-45364691D01*
X79016114Y-44981491D01*
X79368408Y-44636182D01*
X79668757Y-44339012D01*
X79906743Y-44100230D01*
X80071950Y-43930083D01*
X80147135Y-43847362D01*
X80391001Y-43552251D01*
X80391000Y-45813415D01*
X80391000Y-48074580D01*
X81343500Y-48074580D01*
X81343501Y-44703022D01*
X81343501Y-41331464D01*
X79613126Y-42993942D01*
G36*
X56099201Y-43799157D02*
G01*
X55753964Y-43927483D01*
X55456706Y-44154805D01*
X55352582Y-44267384D01*
X55118000Y-44541439D01*
X55118000Y-43883580D01*
X54165500Y-43883580D01*
X54165500Y-48074580D01*
X55118000Y-48074580D01*
X55118000Y-47540805D01*
X55356125Y-47768946D01*
X55545298Y-47929617D01*
X55744340Y-48068437D01*
X55815994Y-48108911D01*
X56031030Y-48179434D01*
X56321067Y-48226240D01*
X56635648Y-48245332D01*
X56924314Y-48232711D01*
X57065420Y-48207912D01*
X57488386Y-48037273D01*
X57841580Y-47763638D01*
X58120837Y-47392753D01*
X58321991Y-46930366D01*
X58440876Y-46382222D01*
X58450972Y-46296580D01*
X58455156Y-45980990D01*
X57467500Y-45980990D01*
X57427843Y-46454220D01*
X57307631Y-46831535D01*
X57105006Y-47116701D01*
X56818107Y-47313486D01*
X56807033Y-47318584D01*
X56453119Y-47423933D01*
X56110249Y-47406569D01*
X55814593Y-47296705D01*
X55506146Y-47072969D01*
X55285933Y-46760063D01*
X55156116Y-46362199D01*
X55118355Y-45939438D01*
X55164979Y-45495921D01*
X55301662Y-45131690D01*
X55522052Y-44853996D01*
X55819798Y-44670091D01*
X56188545Y-44587225D01*
X56306586Y-44583124D01*
X56670513Y-44641462D01*
X56977510Y-44806159D01*
X57218061Y-45065758D01*
X57382651Y-45408800D01*
X57461764Y-45823828D01*
X57467500Y-45980990D01*
X58455156Y-45980990D01*
X58458263Y-45746642D01*
X58366784Y-45222643D01*
X58183686Y-44747458D01*
X57916117Y-44343966D01*
X57802987Y-44223088D01*
X57466405Y-43970032D01*
X57073012Y-43817273D01*
X56606579Y-43758929D01*
X56519564Y-43757974D01*
X56099201Y-43799157D01*
G37*
X56099201Y-43799157D02*
X55753964Y-43927483D01*
X55456706Y-44154805D01*
X55352582Y-44267384D01*
X55118000Y-44541439D01*
X55118000Y-43883580D01*
X54165500Y-43883580D01*
X54165500Y-48074580D01*
X55118000Y-48074580D01*
X55118000Y-47540805D01*
X55356125Y-47768946D01*
X55545298Y-47929617D01*
X55744340Y-48068437D01*
X55815994Y-48108911D01*
X56031030Y-48179434D01*
X56321067Y-48226240D01*
X56635648Y-48245332D01*
X56924314Y-48232711D01*
X57065420Y-48207912D01*
X57488386Y-48037273D01*
X57841580Y-47763638D01*
X58120837Y-47392753D01*
X58321991Y-46930366D01*
X58440876Y-46382222D01*
X58450972Y-46296580D01*
X58455156Y-45980990D01*
X57467500Y-45980990D01*
X57427843Y-46454220D01*
X57307631Y-46831535D01*
X57105006Y-47116701D01*
X56818107Y-47313486D01*
X56807033Y-47318584D01*
X56453119Y-47423933D01*
X56110249Y-47406569D01*
X55814593Y-47296705D01*
X55506146Y-47072969D01*
X55285933Y-46760063D01*
X55156116Y-46362199D01*
X55118355Y-45939438D01*
X55164979Y-45495921D01*
X55301662Y-45131690D01*
X55522052Y-44853996D01*
X55819798Y-44670091D01*
X56188545Y-44587225D01*
X56306586Y-44583124D01*
X56670513Y-44641462D01*
X56977510Y-44806159D01*
X57218061Y-45065758D01*
X57382651Y-45408800D01*
X57461764Y-45823828D01*
X57467500Y-45980990D01*
X58455156Y-45980990D01*
X58458263Y-45746642D01*
X58366784Y-45222643D01*
X58183686Y-44747458D01*
X57916117Y-44343966D01*
X57802987Y-44223088D01*
X57466405Y-43970032D01*
X57073012Y-43817273D01*
X56606579Y-43758929D01*
X56519564Y-43757974D01*
X56099201Y-43799157D01*
G36*
X82613500Y-42423080D02*
G01*
X85153500Y-42423080D01*
X85153500Y-44137580D01*
X82613500Y-44137580D01*
X82613500Y-45026580D01*
X85153500Y-45026580D01*
X85153500Y-47185580D01*
X82613500Y-47185580D01*
X82613500Y-48074580D01*
X86233000Y-48074580D01*
X86233000Y-41597580D01*
X82613500Y-41597580D01*
X82613500Y-42423080D01*
G37*
X82613500Y-42423080D02*
X85153500Y-42423080D01*
X85153500Y-44137580D01*
X82613500Y-44137580D01*
X82613500Y-45026580D01*
X85153500Y-45026580D01*
X85153500Y-47185580D01*
X82613500Y-47185580D01*
X82613500Y-48074580D01*
X86233000Y-48074580D01*
X86233000Y-41597580D01*
X82613500Y-41597580D01*
X82613500Y-42423080D01*
G36*
X72961500Y-48074580D02*
G01*
X73977500Y-48074580D01*
X73977500Y-41597580D01*
X72961500Y-41597580D01*
X72961500Y-48074580D01*
G37*
X72961500Y-48074580D02*
X73977500Y-48074580D01*
X73977500Y-41597580D01*
X72961500Y-41597580D01*
X72961500Y-48074580D01*
G36*
X60415016Y-43804305D02*
G01*
X60046030Y-43936571D01*
X59764715Y-44152347D01*
X59577991Y-44447816D01*
X59567230Y-44475088D01*
X59545576Y-44598508D01*
X59527632Y-44838261D01*
X59513779Y-45183724D01*
X59504398Y-45624274D01*
X59499870Y-46149287D01*
X59499500Y-46364213D01*
X59499500Y-48074580D01*
X60452000Y-48074580D01*
X60455585Y-46629955D01*
X60460792Y-46058647D01*
X60473171Y-45598816D01*
X60492515Y-45254820D01*
X60518615Y-45031014D01*
X60534960Y-44963080D01*
X60667952Y-44748489D01*
X60877452Y-44606053D01*
X61135912Y-44535116D01*
X61415784Y-44535018D01*
X61689524Y-44605101D01*
X61929582Y-44744709D01*
X62108413Y-44953182D01*
X62133546Y-45001260D01*
X62213190Y-45231170D01*
X62274070Y-45550473D01*
X62317130Y-45968344D01*
X62343316Y-46493958D01*
X62353571Y-47136491D01*
X62353577Y-47137955D01*
X62357000Y-48074580D01*
X63309500Y-48074580D01*
X63309855Y-46693455D01*
X63312414Y-46166327D01*
X63321323Y-45749966D01*
X63338877Y-45428202D01*
X63367375Y-45184867D01*
X63409111Y-45003791D01*
X63466384Y-44868806D01*
X63541491Y-44763743D01*
X63591200Y-44712885D01*
X63823459Y-44575638D01*
X64104952Y-44530139D01*
X64404468Y-44569863D01*
X64690794Y-44688284D01*
X64932719Y-44878880D01*
X65037481Y-45015210D01*
X65084914Y-45097502D01*
X65121122Y-45183977D01*
X65147956Y-45292919D01*
X65167262Y-45442610D01*
X65180888Y-45651335D01*
X65190684Y-45937378D01*
X65198496Y-46319022D01*
X65203907Y-46661705D01*
X65225063Y-48074580D01*
X66167000Y-48074580D01*
X66167000Y-43883580D01*
X65278000Y-43883580D01*
X65278000Y-44535958D01*
X64959157Y-44237717D01*
X64759600Y-44067937D01*
X64559282Y-43924501D01*
X64421446Y-43848028D01*
X64201035Y-43791818D01*
X63908026Y-43763319D01*
X63592196Y-43762744D01*
X63303322Y-43790306D01*
X63100094Y-43842371D01*
X62933524Y-43944590D01*
X62747760Y-44104906D01*
X62582773Y-44283871D01*
X62478530Y-44442036D01*
X62469455Y-44464801D01*
X62413772Y-44481106D01*
X62287214Y-44401700D01*
X62140822Y-44275653D01*
X61810331Y-44012362D01*
X61487804Y-43850047D01*
X61132707Y-43772311D01*
X60864750Y-43759369D01*
X60415016Y-43804305D01*
G37*
X60415016Y-43804305D02*
X60046030Y-43936571D01*
X59764715Y-44152347D01*
X59577991Y-44447816D01*
X59567230Y-44475088D01*
X59545576Y-44598508D01*
X59527632Y-44838261D01*
X59513779Y-45183724D01*
X59504398Y-45624274D01*
X59499870Y-46149287D01*
X59499500Y-46364213D01*
X59499500Y-48074580D01*
X60452000Y-48074580D01*
X60455585Y-46629955D01*
X60460792Y-46058647D01*
X60473171Y-45598816D01*
X60492515Y-45254820D01*
X60518615Y-45031014D01*
X60534960Y-44963080D01*
X60667952Y-44748489D01*
X60877452Y-44606053D01*
X61135912Y-44535116D01*
X61415784Y-44535018D01*
X61689524Y-44605101D01*
X61929582Y-44744709D01*
X62108413Y-44953182D01*
X62133546Y-45001260D01*
X62213190Y-45231170D01*
X62274070Y-45550473D01*
X62317130Y-45968344D01*
X62343316Y-46493958D01*
X62353571Y-47136491D01*
X62353577Y-47137955D01*
X62357000Y-48074580D01*
X63309500Y-48074580D01*
X63309855Y-46693455D01*
X63312414Y-46166327D01*
X63321323Y-45749966D01*
X63338877Y-45428202D01*
X63367375Y-45184867D01*
X63409111Y-45003791D01*
X63466384Y-44868806D01*
X63541491Y-44763743D01*
X63591200Y-44712885D01*
X63823459Y-44575638D01*
X64104952Y-44530139D01*
X64404468Y-44569863D01*
X64690794Y-44688284D01*
X64932719Y-44878880D01*
X65037481Y-45015210D01*
X65084914Y-45097502D01*
X65121122Y-45183977D01*
X65147956Y-45292919D01*
X65167262Y-45442610D01*
X65180888Y-45651335D01*
X65190684Y-45937378D01*
X65198496Y-46319022D01*
X65203907Y-46661705D01*
X65225063Y-48074580D01*
X66167000Y-48074580D01*
X66167000Y-43883580D01*
X65278000Y-43883580D01*
X65278000Y-44535958D01*
X64959157Y-44237717D01*
X64759600Y-44067937D01*
X64559282Y-43924501D01*
X64421446Y-43848028D01*
X64201035Y-43791818D01*
X63908026Y-43763319D01*
X63592196Y-43762744D01*
X63303322Y-43790306D01*
X63100094Y-43842371D01*
X62933524Y-43944590D01*
X62747760Y-44104906D01*
X62582773Y-44283871D01*
X62478530Y-44442036D01*
X62469455Y-44464801D01*
X62413772Y-44481106D01*
X62287214Y-44401700D01*
X62140822Y-44275653D01*
X61810331Y-44012362D01*
X61487804Y-43850047D01*
X61132707Y-43772311D01*
X60864750Y-43759369D01*
X60415016Y-43804305D01*
M02*
